<svg xmlns="http://www.w3.org/2000/svg" width="400" height="177.999" viewBox="0 0 400 177.999">
  <g id="t0-i4" transform="translate(-1020 -1042.001)">
    <g id="Image_Place_Holder" data-name="Image Place Holder" transform="translate(1020 1087)" opacity="0.25">
      <rect id="Image_Place_Holder-2" data-name="Image Place Holder" width="400" height="133" rx="10" fill="#dbf6e9"/>
    </g>
    <g id="Group_57777" data-name="Group 57777" transform="translate(-1506.436 -1512.216)">
      <path id="Path_102569" data-name="Path 102569" d="M2908.936,2574.3l-14.5-2.417v-9.667l14.5,2.417Z" transform="translate(-167.5 -5.584)" fill="#cc3d60"/>
      <path id="Path_102570" data-name="Path 102570" d="M2859.6,2747.051h-53.167v-101.5l26.583-19.333,26.583,19.333Z" transform="translate(-106.083 -50.251)" fill="#ffd566"/>
      <circle id="Ellipse_4122" data-name="Ellipse 4122" cx="12.083" cy="12.083" r="12.083" transform="translate(2714.852 2597.514)" fill="#e9eef2"/>
      <path id="Path_102571" data-name="Path 102571" d="M2982.436,2690.218H3021.1v101.5h-38.667Z" transform="translate(-228.917 -94.918)" fill="#ffc93c"/>
      <path id="Path_102572" data-name="Path 102572" d="M2891.269,2723.885h-2.417a2.416,2.416,0,0,1-2.417-2.417v-4.833a2.417,2.417,0,0,1,4.833,0v2.417a2.417,2.417,0,1,1,0,4.833Z" transform="translate(-161.917 -111.668)" fill="#eb423f"/>
      <path id="Path_102573" data-name="Path 102573" d="M2838.436,2810.218h33.833v9.667h-33.833Z" transform="translate(-128.417 -178.668)" fill="#f24872"/>
      <path id="Path_102574" data-name="Path 102574" d="M2860.936,2882.218a14.5,14.5,0,0,1,14.5,14.5v29h-29v-29A14.5,14.5,0,0,1,2860.936,2882.218Z" transform="translate(-134 -228.918)" fill="#f24872"/>
      <path id="Path_102575" data-name="Path 102575" d="M2678.436,2690.218H2717.1v101.5h-38.667Z" transform="translate(-16.75 -94.918)" fill="#ffc93c"/>
      <path id="Path_102576" data-name="Path 102576" d="M2718.436,2730.218h14.5v19.333h-14.5Z" transform="translate(-44.667 -122.834)" fill="#9ddfd3"/>
      <path id="Path_102577" data-name="Path 102577" d="M2718.436,2826.218h14.5v19.333h-14.5Z" transform="translate(-44.667 -189.835)" fill="#9ddfd3"/>
      <path id="Path_102578" data-name="Path 102578" d="M2718.436,2922.218h14.5v19.333h-14.5Z" transform="translate(-44.667 -256.835)" fill="#9ddfd3"/>
      <path id="Path_102579" data-name="Path 102579" d="M3022.436,2730.218h14.5v19.333h-14.5Z" transform="translate(-256.833 -122.834)" fill="#9ddfd3"/>
      <path id="Path_102580" data-name="Path 102580" d="M3022.436,2826.218h14.5v19.333h-14.5Z" transform="translate(-256.833 -189.835)" fill="#9ddfd3"/>
      <path id="Path_102581" data-name="Path 102581" d="M3022.436,2922.218h14.5v19.333h-14.5Z" transform="translate(-256.833 -256.835)" fill="#9ddfd3"/>
      <path id="Path_102582" data-name="Path 102582" d="M2860.936,2719.218a14.5,14.5,0,1,0-14.5-14.5A14.5,14.5,0,0,0,2860.936,2719.218Zm0-24.167a9.667,9.667,0,1,1-9.667,9.667A9.666,9.666,0,0,1,2860.936,2695.051Z" transform="translate(-134 -94.918)"/>
      <path id="Path_102583" data-name="Path 102583" d="M2888.853,2723.885h2.417a2.417,2.417,0,1,0,0-4.833v-2.417a2.417,2.417,0,0,0-4.833,0v4.833A2.416,2.416,0,0,0,2888.853,2723.885Z" transform="translate(-161.917 -111.668)"/>
      <path id="Path_102584" data-name="Path 102584" d="M2869.1,2814.3v-9.667a2.417,2.417,0,0,0-2.417-2.417h-33.833a2.417,2.417,0,0,0-2.417,2.417v9.667a2.417,2.417,0,0,0,2.417,2.417h33.833A2.417,2.417,0,0,0,2869.1,2814.3Zm-4.833-2.417h-29v-4.833h29Z" transform="translate(-122.834 -173.084)"/>
      <path id="Path_102585" data-name="Path 102585" d="M2704.853,2746.385h19.333a2.417,2.417,0,1,0,0-4.833v-16.917a2.416,2.416,0,0,0-2.417-2.417h-14.5a2.417,2.417,0,0,0-2.417,2.417v16.917a2.417,2.417,0,0,0,0,4.833Zm4.833-19.333h9.667v14.5h-9.667Z" transform="translate(-33.5 -117.251)"/>
      <path id="Path_102586" data-name="Path 102586" d="M2724.186,2837.551v-16.917a2.416,2.416,0,0,0-2.417-2.417h-14.5a2.417,2.417,0,0,0-2.417,2.417v16.917a2.417,2.417,0,0,0,0,4.833h19.333a2.417,2.417,0,1,0,0-4.833Zm-14.5-14.5h9.667v14.5h-9.667Z" transform="translate(-33.5 -184.251)"/>
      <path id="Path_102587" data-name="Path 102587" d="M2724.186,2933.551v-16.917a2.416,2.416,0,0,0-2.417-2.417h-14.5a2.417,2.417,0,0,0-2.417,2.417v16.917a2.417,2.417,0,0,0,0,4.833h19.333a2.417,2.417,0,1,0,0-4.833Zm-14.5-14.5h9.667v14.5h-9.667Z" transform="translate(-33.5 -251.251)"/>
      <path id="Path_102588" data-name="Path 102588" d="M3008.853,2746.385h19.333a2.417,2.417,0,1,0,0-4.833v-16.917a2.416,2.416,0,0,0-2.417-2.417h-14.5a2.417,2.417,0,0,0-2.417,2.417v16.917a2.417,2.417,0,0,0,0,4.833Zm4.833-19.333h9.667v14.5h-9.667Z" transform="translate(-245.667 -117.251)"/>
      <path id="Path_102589" data-name="Path 102589" d="M3008.853,2842.384h19.333a2.417,2.417,0,1,0,0-4.833v-16.917a2.416,2.416,0,0,0-2.417-2.417h-14.5a2.417,2.417,0,0,0-2.417,2.417v16.917a2.417,2.417,0,0,0,0,4.833Zm4.833-19.333h9.667v14.5h-9.667Z" transform="translate(-245.667 -184.251)"/>
      <path id="Path_102590" data-name="Path 102590" d="M3008.853,2938.385h19.333a2.417,2.417,0,1,0,0-4.833v-16.917a2.416,2.416,0,0,0-2.417-2.417h-14.5a2.417,2.417,0,0,0-2.417,2.417v16.917a2.417,2.417,0,0,0,0,4.833Zm4.833-19.333h9.667v14.5h-9.667Z" transform="translate(-245.667 -251.251)"/>
      <path id="Path_102591" data-name="Path 102591" d="M2797.019,2597.717a2.417,2.417,0,0,0,0-4.833H2754.3l-24.952-18.147v-5.583l11.686,1.947a2.416,2.416,0,0,0,2.814-2.384v-9.667a2.417,2.417,0,0,0-2.02-2.384l-14.5-2.417v0a2.4,2.4,0,0,0-2.778,1.956,2.458,2.458,0,0,0-.036.425v18.1l-24.952,18.147h-42.715a2.417,2.417,0,0,0,0,4.833h2.417v96.666h-2.417a2.417,2.417,0,0,0,0,4.833h140.166a2.417,2.417,0,0,0,0-4.833H2794.6v-96.666Zm-72.5,96.666h-9.667V2667.8a12.1,12.1,0,0,1,9.667-11.84Zm4.833-38.423a12.1,12.1,0,0,1,9.667,11.84v26.583h-9.667Zm-2.417-5.076a16.936,16.936,0,0,0-16.917,16.917v26.583h-7.25v-97.852l24.167-17.575,24.166,17.575v97.852h-7.25V2667.8A16.936,16.936,0,0,0,2726.936,2650.884Zm12.083-85.02-9.667-1.611v-4.767l9.667,1.611Zm-74.916,31.853h33.833v96.666H2664.1Zm125.666,96.666h-33.833v-96.666h33.833Z"/>
    </g>
  </g>
</svg>
