<svg xmlns="http://www.w3.org/2000/svg" width="85" height="85" viewBox="0 0 85 85">
  <g id="t0-i7" transform="translate(-2112.861 -2731.344)">
    <path id="Path_102651" data-name="Path 102651" d="M5.667,0H36.833A5.667,5.667,0,0,1,42.5,5.667V28.333A5.667,5.667,0,0,1,36.833,34H5.667A5.667,5.667,0,0,1,0,28.333V5.667A5.667,5.667,0,0,1,5.667,0Z" transform="translate(2153.944 2755.427)" fill="#f24872"/>
    <path id="Path_102617" data-name="Path 102617" d="M2456.861,3013.261h7.083v-8.5a2.8,2.8,0,0,0-.393-1.417h-6.69Z" transform="translate(-283.083 -223.834)" fill="#cc3d60"/>
    <path id="Path_102618" data-name="Path 102618" d="M2400.861,2923.344h17v14.167h-17Z" transform="translate(-237 -158)" fill="#e9efff"/>
    <path id="Path_102619" data-name="Path 102619" d="M2496.861,2939.844l8.5,2.833v-11.333l-8.5,2.833Z" transform="translate(-316 -164.584)" fill="#e9efff"/>
    <path id="Path_102620" data-name="Path 102620" d="M2354.778,2877.261h15.583v-9.917h-19.833a5.667,5.667,0,0,0-5.667,5.667v9.917h9.917Z" transform="translate(-190.917 -111.917)" fill="#cc3d60"/>
    <path id="Path_102621" data-name="Path 102621" d="M2400.861,2929.011h9.917a5.667,5.667,0,0,0,5.667-5.667h-15.583Z" transform="translate(-237 -158)" fill="#d3dcfb"/>
    <path id="Path_102622" data-name="Path 102622" d="M2461.111,2995.344h-4.25v1.417h6.69A2.821,2.821,0,0,0,2461.111,2995.344Z" transform="translate(-283.083 -217.25)" fill="#ea4a3b"/>
    <path id="Path_102623" data-name="Path 102623" d="M2350.528,2936.094v-7.083a5.667,5.667,0,0,0-5.667-5.667v12.75Z" transform="translate(-190.917 -158)" fill="#48add9"/>
    <rect id="Rectangle_5648" data-name="Rectangle 5648" width="45.028" height="34.126" rx="16" transform="translate(2132.768 2777.952)" fill="#9ddfd3"/>
    <path id="Path_102624" data-name="Path 102624" d="M2298.083,2995.344h-1.889l-34,34h35.889a2.833,2.833,0,0,0,2.833-2.833v-28.333A2.833,2.833,0,0,0,2298.083,2995.344Z" transform="translate(-122.889 -217.25)" fill="#87bfb5"/>
    <path id="Path_102625" data-name="Path 102625" d="M2246.111,2995.344h-18.417a2.833,2.833,0,0,0-2.833,2.833v15.583h2.833l11.333,8.5-1.417-8.5h8.5a5.667,5.667,0,0,0,5.667-5.667v-12.75Z" transform="translate(-92.167 -217.25)" fill="#44546c"/>
    <path id="Path_102652" data-name="Path 102652" d="M5.667,0H36.833A5.667,5.667,0,0,1,42.5,5.667V29.75a5.667,5.667,0,0,1-5.667,5.667H5.667A5.667,5.667,0,0,1,0,29.75V5.667A5.667,5.667,0,0,1,5.667,0Z" transform="translate(2134.111 2732.761)" fill="#9ddfd3"/>
    <path id="Path_102626" data-name="Path 102626" d="M2320.861,2771.344h18.417v24.083h-18.417Z" transform="translate(-171.167 -32.917)" fill="#ffc93c"/>
    <path id="Path_102627" data-name="Path 102627" d="M2299.278,2795.427h-18.417v-24.083h11.333l7.083,7.083Z" transform="translate(-138.25 -32.917)" fill="#ffd566"/>
    <path id="Path_102628" data-name="Path 102628" d="M2344.861,2771.344v7.083h7.083Z" transform="translate(-190.917 -32.917)" fill="#ffcb73"/>
    <path id="Path_102629" data-name="Path 102629" d="M2200.861,3171.344h53.833v2.833a2.833,2.833,0,0,1-2.833,2.833h-48.167a2.833,2.833,0,0,1-2.833-2.833v-2.833Z" transform="translate(-72.417 -362.084)" fill="#e9efff"/>
    <path id="Path_102630" data-name="Path 102630" d="M2443.694,3171.344v2.833a2.833,2.833,0,0,1-2.833,2.833h8.5a2.833,2.833,0,0,0,2.833-2.833v-2.833Z" transform="translate(-269.917 -362.084)" fill="#d6d6d4"/>
    <path id="Path_102631" data-name="Path 102631" d="M2163.361,2913.011v19.833a5.667,5.667,0,0,1-5.667,5.667h-8.5l1.417,8.5-11.333-8.5h-12.75a5.667,5.667,0,0,1-5.667-5.667v-19.833a5.667,5.667,0,0,1,5.667-5.667h31.167a5.661,5.661,0,0,1,5.667,5.656Z" transform="translate(-6.583 -144.833)" fill="#e9efff"/>
    <path id="Path_102632" data-name="Path 102632" d="M2192.13,2914.253v19.833a5.667,5.667,0,0,1-5.667,5.667h-8.5l1.417,8.5-11.333-8.5h-12.226c6.975-4.31,14.489-9.453,19.123-14.087a93.1,93.1,0,0,0,13.244-16.812,5.669,5.669,0,0,1,3.942,5.4Z" transform="translate(-35.352 -146.076)" fill="#d3dcfb"/>
    <path id="Path_102633" data-name="Path 102633" d="M2191.528,2959.178h-19.833a2.833,2.833,0,0,1-2.833-2.833v-11.333a2.833,2.833,0,0,1,2.833-2.833h4.25l1.417-2.833h8.5l1.417,2.833h4.25a2.834,2.834,0,0,1,2.833,2.833v11.333A2.833,2.833,0,0,1,2191.528,2959.178Z" transform="translate(-46.084 -171.167)" fill="#9ddfd3"/>
    <circle id="Ellipse_4125" data-name="Ellipse 4125" cx="4.266" cy="4.266" r="4.266" transform="translate(2131.346 2775.108)" fill="#ffc93c"/>
    <path id="Path_102634" data-name="Path 102634" d="M2506.778,2859.344h-9.917v2.833h9.917a4.255,4.255,0,0,1,4.25,4.25v22.667a4.255,4.255,0,0,1-4.25,4.25h-8.5v2.833h8.5a7.092,7.092,0,0,0,7.083-7.083v-22.667A7.092,7.092,0,0,0,2506.778,2859.344Z" transform="translate(-316 -105.333)"/>
    <path id="Path_102635" data-name="Path 102635" d="M2299.778,2790.261a1.417,1.417,0,0,0,1.417-1.417v-24.083a1.417,1.417,0,0,0-1.417-1.417h-25.5a1.417,1.417,0,0,0-1.417,1.417v19.833h2.833v-18.417h8.5v5.667a1.417,1.417,0,0,0,1.417,1.417h5.667v17Zm-10.747-24.083h9.33v21.25h-4.25l.011-15.713a1.418,1.418,0,0,0-.43-1.018Zm-2,4.25v-2.247l2.247,2.247Z" transform="translate(-131.667 -26.333)"/>
    <path id="Path_102636" data-name="Path 102636" d="M2119.944,2795.094h12.278l10.9,8.123a1.447,1.447,0,0,0,2.292-1.4l-1.126-6.725h6.827a7.083,7.083,0,0,0,7.083-7.083v-8.5h16.979a1.416,1.416,0,0,1,1.417,1.416l.021,26.918h-42.5v-9.917h-2.833v9.917h-2.833a1.417,1.417,0,0,0-1.417,1.417v2.833a4.25,4.25,0,0,0,4.25,4.25h48.167a4.25,4.25,0,0,0,4.25-4.25v-2.833a1.417,1.417,0,0,0-1.417-1.417h-2.833v-26.917h1.417a1.416,1.416,0,0,0,1.417-1.417v-2.284l6.6,2.181a1.417,1.417,0,0,0,1.861-1.34l.032-11.333a1.416,1.416,0,0,0-1.87-1.346l-6.624,2.24v-2.284a1.417,1.417,0,0,0-1.417-1.417h-2.994a7,7,0,0,0,.161-1.417v-24.083a7.083,7.083,0,0,0-7.083-7.083h-31.167a7.083,7.083,0,0,0-7.083,7.083v19.833h2.833v-19.833a4.25,4.25,0,0,1,4.25-4.25h31.167a4.25,4.25,0,0,1,4.25,4.25v24.083a4.265,4.265,0,0,1-4.25,4.25h-9.917v2.833h1.417v7.083h-4.25v-8.5a7.083,7.083,0,0,0-7.083-7.083h-31.167a7.083,7.083,0,0,0-7.083,7.083v19.833A7.083,7.083,0,0,0,2119.944,2795.094Zm60.917,17a1.418,1.418,0,0,1-1.417,1.417h-48.167a1.419,1.419,0,0,1-1.417-1.417v-1.417h51Zm7.083-43.367v7.4l-5.667-1.889v-3.624Zm-22.667.868h5.667a7.089,7.089,0,0,0,5.656-2.833h2.844v11.333h-1.124a4.227,4.227,0,0,0-3.126-1.417h-9.917Zm-49.583-1.417a4.25,4.25,0,0,1,4.25-4.25h31.167a4.25,4.25,0,0,1,4.25,4.25v19.833a4.255,4.255,0,0,1-4.25,4.25l-8.5.037a1.417,1.417,0,0,0-1.41,1.423,1.4,1.4,0,0,0,.019.226l.826,4.976-8.5-6.378a1.419,1.419,0,0,0-.85-.283h-12.75a4.25,4.25,0,0,1-4.25-4.25Z" transform="translate(0 0)"/>
    <path id="Path_102637" data-name="Path 102637" d="M2165.111,2954.011h19.833a4.254,4.254,0,0,0,4.25-4.25v-11.333a4.255,4.255,0,0,0-4.25-4.25h-3.374l-1.025-2.05a1.417,1.417,0,0,0-1.267-.783h-8.5a1.417,1.417,0,0,0-1.267.783l-1.025,2.05h-3.374a4.255,4.255,0,0,0-4.25,4.25v11.333A4.255,4.255,0,0,0,2165.111,2954.011Zm-1.417-15.583a1.419,1.419,0,0,1,1.417-1.417h4.25a1.416,1.416,0,0,0,1.267-.783l1.025-2.05h6.749l1.025,2.05a1.416,1.416,0,0,0,1.267.783h4.25a1.419,1.419,0,0,1,1.417,1.417v11.333a1.419,1.419,0,0,1-1.417,1.417h-19.833a1.419,1.419,0,0,1-1.417-1.417Z" transform="translate(-39.5 -164.584)"/>
    <path id="Path_102638" data-name="Path 102638" d="M2214.528,2982.677a5.667,5.667,0,1,0-5.667-5.667A5.667,5.667,0,0,0,2214.528,2982.677Zm0-8.5a2.833,2.833,0,1,1-2.833,2.833A2.834,2.834,0,0,1,2214.528,2974.177Z" transform="translate(-79 -197.5)"/>
    <path id="Path_102639" data-name="Path 102639" d="M2384.861,3035.344h12.75v2.833h-12.75Z" transform="translate(-223.833 -250.167)"/>
    <path id="Path_102640" data-name="Path 102640" d="M2376.861,3067.344h7.083v2.833h-7.083Z" transform="translate(-217.25 -276.5)"/>
    <path id="Path_102641" data-name="Path 102641" d="M2432.861,3067.344h4.25v2.833h-4.25Z" transform="translate(-263.333 -276.5)"/>
    <path id="Path_102642" data-name="Path 102642" d="M2392.861,3099.344h11.333v2.833h-11.333Z" transform="translate(-230.417 -302.833)"/>
    <path id="Path_102643" data-name="Path 102643" d="M2360.861,3099.344h2.833v2.833h-2.833Z" transform="translate(-204.084 -302.833)"/>
    <path id="Path_102644" data-name="Path 102644" d="M2312.861,3099.344h5.667v2.833h-5.667Z" transform="translate(-164.583 -302.833)"/>
    <path id="Path_102645" data-name="Path 102645" d="M2312.861,3131.344h17v2.833h-17Z" transform="translate(-164.583 -329.167)"/>
    <path id="Path_102646" data-name="Path 102646" d="M2424.861,3131.344h5.667v2.833h-5.667Z" transform="translate(-256.75 -329.167)"/>
    <path id="Path_102647" data-name="Path 102647" d="M2248.861,3131.344h2.833v2.833h-2.833Z" transform="translate(-111.917 -329.167)"/>
    <path id="Path_102648" data-name="Path 102648" d="M2304.861,2803.344h2.833v2.833h-2.833Z" transform="translate(-158 -59.25)"/>
    <path id="Path_102649" data-name="Path 102649" d="M2304.861,2835.344h9.917v2.833h-9.917Z" transform="translate(-158 -85.584)"/>
    <path id="Path_102650" data-name="Path 102650" d="M2304.861,2867.344h9.917v2.833h-9.917Z" transform="translate(-158 -111.917)"/>
  </g>
</svg>
