<svg xmlns="http://www.w3.org/2000/svg" width="190" height="131.583" viewBox="0 0 190 131.583">
  <g id="t0-i12" transform="translate(-170.034 -4006.333)">
    <path id="Trazado_101756" data-name="Trazado 101756" d="M345.288,4046.251h-8.462a7.426,7.426,0,0,1-7.623-7.224v-.065h0a7.479,7.479,0,0,1,7.624-7.292h5.362a3.181,3.181,0,0,0,3.268-2.6,3.125,3.125,0,0,0-2.675-3.518H329.534c-.168,0-.419-.168-.419-.335h0a7.589,7.589,0,0,0-7.792-7.373H287.478a2.09,2.09,0,0,1-2.1-1.508,2.057,2.057,0,0,1,1.592-2.346h26.391a3.99,3.99,0,0,0,4.105-3.184,3.894,3.894,0,0,0-3.273-4.429l-.078-.011a1.8,1.8,0,0,0-.67,0l-107.222,1.6a3.989,3.989,0,0,0-4.1,3.184,3.893,3.893,0,0,0,3.272,4.429l.079.011a1.8,1.8,0,0,0,.67,0h21.7a4.5,4.5,0,0,1,4.524,3.519,4.269,4.269,0,0,1-3.584,4.857l-.016,0c-.251,0-.5.084-.754.084H187.377c-9.551-.168-17.343,7.2-17.343,16.254h0a16.663,16.663,0,0,0,14.075,16.167,2.521,2.521,0,0,1,2.1,2.43v1.341a2.422,2.422,0,0,1-2.408,2.436q-.1,0-.192-.006h0c-7.035,0-12.732,5.448-12.732,12.15h0c0,6.7,5.7,12.148,12.735,12.148h.084a3.74,3.74,0,0,1,3.854,3.6h0a3.9,3.9,0,0,1-3.6,3.77,2.987,2.987,0,0,0-.922.168,9.338,9.338,0,0,0,3.265,18.263l143.752-1.592c5.195,0,9.635-3.686,10.054-8.63v-.168a4.725,4.725,0,0,1,4.692-4.273h1.843a8.036,8.036,0,0,0,8.211-7.792h0c0-3.268-2.765-5.949-6.032-7.038a4.835,4.835,0,0,1-3.435-4.44v-.251a5.186,5.186,0,0,1,4.022-4.943,14.114,14.114,0,0,0,10.639-13.4h0C359.95,4052.451,353.415,4046.251,345.288,4046.251Z" fill="#9ddfd3"/>
    <g id="Group_57860" data-name="Group 57860">
      <circle id="Ellipse_4150" data-name="Ellipse 4150" cx="34.2" cy="34.2" r="34.2" transform="translate(194.937 4012.562)" fill="#fff"/>
      <path id="Path_103126" data-name="Path 103126" d="M229.137,4083.14a36.378,36.378,0,1,1,36.378-36.378A36.419,36.419,0,0,1,229.137,4083.14Zm0-68.4a32.023,32.023,0,1,0,32.023,32.023A32.059,32.059,0,0,0,229.137,4014.739Z"/>
    </g>
    <g id="Group_57861" data-name="Group 57861">
      <path id="Path_103127" data-name="Path 103127" d="M212.773,4043.739a4.769,4.769,0,0,0-6.747,0l-1.839,1.839a4.767,4.767,0,0,0,0,6.745l13.439,13.44a4.769,4.769,0,0,0,6.745,0l27.668-26.992a4.772,4.772,0,0,0,0-6.745l-1.841-1.84a4.771,4.771,0,0,0-6.747,0L221,4051.967Z" fill="#81c140"/>
      <path id="Path_103128" data-name="Path 103128" d="M221,4069.338a6.9,6.9,0,0,1-4.913-2.035l-13.438-13.441a6.943,6.943,0,0,1,0-9.824l1.838-1.838a6.9,6.9,0,0,1,4.913-2.036h0a6.9,6.9,0,0,1,4.913,2.037l6.709,6.71,20.914-20.288a6.948,6.948,0,0,1,9.8.024l1.84,1.84a6.959,6.959,0,0,1,0,9.823l-27.688,27.012A6.883,6.883,0,0,1,221,4069.338Zm-11.6-24.82a2.574,2.574,0,0,0-1.833.76l-1.839,1.84a2.587,2.587,0,0,0,0,3.663l13.441,13.443a2.591,2.591,0,0,0,3.666,0l27.687-27.011a2.6,2.6,0,0,0-.02-3.648l-1.84-1.839a2.6,2.6,0,0,0-3.668,0l-24.016,23.3-9.743-9.745a2.572,2.572,0,0,0-1.833-.76Z"/>
    </g>
    <g id="Grupo_57218" data-name="Grupo 57218">
      <g id="Grupo_57216" data-name="Grupo 57216">
        <g id="Grupo_57214" data-name="Grupo 57214">
          <path id="Trazado_101777" data-name="Trazado 101777" d="M324.891,4110.555h.05a7.739,7.739,0,0,0,0-15.477H253.758a7.739,7.739,0,0,0,0,15.477h.05" fill="#f1b986"/>
          <path id="Trazado_101778" data-name="Trazado 101778" d="M323.112,4074.873a349.063,349.063,0,0,0-67.524,0,239.366,239.366,0,0,0-1.543,41.984,19.806,19.806,0,0,0,18.864,18.777q16.443.776,32.883,0a19.8,19.8,0,0,0,18.864-18.777A239.369,239.369,0,0,0,323.112,4074.873Z" fill="#f1d0a5"/>
          <path id="Trazado_101779" data-name="Trazado 101779" d="M255.588,4074.871q16.878-1.637,33.763-1.635a89.905,89.905,0,0,0-17.094,1.652q-1.329,21.194-.782,42.386c.238,9.3,3.636,16.88,8.1,18.609q-3.329-.092-6.662-.249a19.808,19.808,0,0,1-18.864-18.777,239.678,239.678,0,0,1,1.545-41.986Z" fill="#f1b986"/>
          <path id="Trazado_101780" data-name="Trazado 101780" d="M308.1,4086.511c-12.937,5-31.314,2.794-40.575-6.468,0,0-2.2,15.037-13.594,15.037l-4.969,1.671c-13.271-52.091,15.035-38.173,15.035-38.173,2.672-5.179,6.565-7.323,10.632-7.84.358-.044.716-.077,1.076-.1h.086a23.6,23.6,0,0,1,8.342,1.258c.9.289,1.757.608,2.562.937a39.227,39.227,0,0,1,6.092,3.13l.1.066c2.913-3.855,5.692-7.343,8.747-7.343a3.184,3.184,0,0,1,2.7,1.247c2.2,2.889.394,9.836.248,10.382l-.007.024a.042.042,0,0,1,.009-.024l.016-.04c.391-.986,4.768-11.589,12.616-11.589a6.1,6.1,0,0,1,1.335.135c5.851,1.293,1.271,11.527.767,12.61l-.013.031c-.013.026-.022.046-.026.055.25-.318,10.048-12.758,14.4-7.051v.007C338.07,4060.263,321.026,4081.516,308.1,4086.511Z" fill="#ffd566"/>
          <g id="Grupo_57213" data-name="Grupo 57213">
            <path id="Trazado_101781" data-name="Trazado 101781" d="M333.674,4054.463h0c-2.2-2.2-9.827,8.183-14.407,7.058l.033-.062-.026.055C319.522,4061.2,329.32,4048.756,333.674,4054.463Z" fill="#ffc93c"/>
            <path id="Trazado_101782" data-name="Trazado 101782" d="M318.544,4048.818c-3.307-.751-6.373,5.544-8.1,10.013a3.7,3.7,0,0,1-5.4,1.807l-.473-.293v-.009l.007-.024h0l.016-.04c.391-.986,4.768-11.589,12.616-11.589A6.147,6.147,0,0,1,318.544,4048.818Z" fill="#ffc93c"/>
            <path id="Trazado_101783" data-name="Trazado 101783" d="M274.625,4050.739c-9.465,1.669-13.041,23.368-7.1,29.3,0,0-2.2,15.037-13.594,15.037l-4.969,1.671C235.691,4044.656,264,4058.574,264,4058.574c2.672-5.179,6.565-7.323,10.632-7.84Z" fill="#ffc93c"/>
            <path id="Trazado_101784" data-name="Trazado 101784" d="M304.327,4049.93c-3.326-3.326-5.544,13.733-13.032,16.465s-8.189-.76-8.189-.76h0c3.687-1.364,6.8-5.674,9.772-9.609h0c.091-.122.181-.241.272-.36.113-.153.23-.3.345-.455,2.692-3.517,5.292-6.527,8.13-6.527a3.185,3.185,0,0,1,2.7,1.247Z" fill="#ffc93c"/>
          </g>
        </g>
      </g>
      <g id="Grupo_57217" data-name="Grupo 57217">
        <path id="Trazado_101786" data-name="Trazado 101786" d="M289.349,4119.609a9.961,9.961,0,0,0,8.96-5.666,1.9,1.9,0,1,0-3.441-1.633,6.108,6.108,0,0,1-11.038,0,1.9,1.9,0,1,0-3.441,1.633A9.962,9.962,0,0,0,289.349,4119.609Z"/>
        <path id="Trazado_101787" data-name="Trazado 101787" d="M276.086,4100.1c0-2.638-1.44-4.784-3.211-4.784s-3.211,2.146-3.211,4.784,1.44,4.784,3.211,4.784S276.086,4102.739,276.086,4100.1Z"/>
        <path id="Trazado_101788" data-name="Trazado 101788" d="M309.035,4100.1c0-2.638-1.44-4.784-3.211-4.784s-3.211,2.146-3.211,4.784,1.44,4.784,3.211,4.784S309.035,4102.739,309.035,4100.1Z"/>
        <path id="Trazado_101789" data-name="Trazado 101789" d="M330.8,4051.065c-2.166-.022-4.675,1.176-7.49,3.533a8.132,8.132,0,0,0-.9-5.281,5.706,5.706,0,0,0-5.209-2.537c-4.317,0-7.661,2.587-10.038,5.444a7.416,7.416,0,0,0-1.324-3.443,5.091,5.091,0,0,0-4.221-2c-3.542,0-6.376,3.062-9.22,6.73a42.751,42.751,0,0,0-4.993-2.441c-.891-.365-1.8-.7-2.7-.988a25.3,25.3,0,0,0-9.026-1.346h-.1q-.6.036-1.2.111a14.976,14.976,0,0,0-11.22,7.335c-2.977-1.061-9.31-2.585-14.127,1.323-6.5,5.277-7.24,18.266-2.2,38.6a9.634,9.634,0,0,0,5.113,16.175q.075,2.34.19,4.669a21.587,21.587,0,0,0,2.386,8.847,1.905,1.905,0,1,0,3.39-1.741h0a17.791,17.791,0,0,1-1.966-7.3c-.338-6.582-.4-13.266-.177-19.9,4.573-.6,8.321-3.48,10.914-8.417a27.413,27.413,0,0,0,1.964-4.889,37.708,37.708,0,0,0,17.5,6.95,45.467,45.467,0,0,0,22.629-2.221c4.271-1.65,8.818-4.84,12.957-8.647a238.057,238.057,0,0,1,1.016,37.12,17.855,17.855,0,0,1-17.054,16.972c-10.85.513-21.854.513-32.7,0a17.765,17.765,0,0,1-10.817-4.287,1.9,1.9,0,0,0-2.478,2.892h0a21.544,21.544,0,0,0,13.116,5.2c5.486.259,11.008.389,16.532.389s11.047-.129,16.531-.389a21.65,21.65,0,0,0,20.679-20.573q.12-2.331.191-4.668a9.641,9.641,0,0,0-.148-18.968q-.4-8.567-1.413-17.092c5.232-5.555,9.349-11.766,10.636-16.323.788-2.79.574-5.009-.637-6.6a5.4,5.4,0,0,0-4.384-2.245Zm-82.877,51.754a5.845,5.845,0,0,1,4.018-5.545c-.113,3.679-.141,7.373-.086,11.058A5.844,5.844,0,0,1,247.925,4102.819Zm82.849,0a5.842,5.842,0,0,1-3.934,5.514q.084-5.522-.088-11.06A5.844,5.844,0,0,1,330.774,4102.819Zm1.385-43.949c-2.208,7.821-14.849,22.039-24.751,25.865a42.194,42.194,0,0,1-20.7,2.006c-7.406-1.09-13.742-3.947-17.839-8.044a1.905,1.905,0,0,0-3.23,1.068,24.641,24.641,0,0,1-2.372,6.99c-2.258,4.25-5.393,6.409-9.318,6.418h-.191a9.589,9.589,0,0,0-3.553.681c-5.342-22.317-2.334-30.482,1.221-33.38,4.475-3.647,11.66-.221,11.728-.188a1.9,1.9,0,0,0,2.533-.836c2.1-4.074,5.1-6.306,9.173-6.823.307-.038.618-.067.926-.087l.124-.007a21.573,21.573,0,0,1,7.637,1.17c.808.26,1.623.559,2.426.888a38.765,38.765,0,0,1,4.11,1.977c-2.441,3.209-4.963,6.293-7.639,7.28a1.9,1.9,0,0,0,1.32,3.573h0c4.029-1.488,7.163-5.643,10.193-9.662,2.659-3.527,5.409-7.174,7.67-7.174a1.308,1.308,0,0,1,1.189.5c1.179,1.548.661,6.05-.083,8.751a1.9,1.9,0,1,0,3.616,1.185c.04-.1,4.054-10.432,10.862-10.432,1.508,0,1.854.548,1.984.754,1.112,1.766-.291,6.533-1.642,9.352a1.9,1.9,0,0,0,3.219,2c1.989-2.554,7.045-7.818,10-7.818h.012a1.6,1.6,0,0,1,1.376.747c.425.558.425,1.742,0,3.25Z"/>
      </g>
    </g>
  </g>
</svg>
