<svg xmlns="http://www.w3.org/2000/svg" width="150" height="145" viewBox="0 0 150 145">
  <g id="t0-i1" transform="translate(-3182.389 -2631.846)">
    <path id="Path_102545" data-name="Path 102545" d="M3326.389,2976.874v-33.028h30v26.041Z" transform="translate(-99 -214.5)" fill="#31326f"/>
    <path id="Path_102546" data-name="Path 102546" d="M3190.389,2639.846h145v75h-145Z" transform="translate(-5.5 -5.5)" fill="#81c140"/>
    <path id="Path_102547" data-name="Path 102547" d="M3527.886,2671.846a17.5,17.5,0,0,0-12.375,29.875l12.375-12.375Z" transform="translate(-225.497 -27.5)" fill="#ffc93c"/>
    <path id="Path_102548" data-name="Path 102548" d="M3190.389,2879.846h145v10h-145Z" transform="translate(-5.5 -170.5)" fill="#31326f"/>
    <path id="Path_102549" data-name="Path 102549" d="M3190.389,2863.846h145v5h-145Z" transform="translate(-5.5 -159.5)" fill="#5c8a2d"/>
    <path id="Path_102550" data-name="Path 102550" d="M3350.389,2727.846v20h10v-5h.625a4.375,4.375,0,0,0,4.375-4.375v-10.625Z" transform="translate(-115.5 -66)" fill="#fed2a4"/>
    <path id="Path_102551" data-name="Path 102551" d="M3339.969,2701a9.33,9.33,0,0,1,8.344-5.156h9.235a5,5,0,0,1,0,10h-10l-5,7.5-2-3a9.33,9.33,0,0,1-.582-9.349Z" transform="translate(-107.659 -44)" fill="#31326f"/>
    <path id="Path_102552" data-name="Path 102552" d="M3207.889,3007.846l-11.438,4.9a10,10,0,0,0-6.062,9.191v10.906h45V3021.94a10,10,0,0,0-6.062-9.192l-11.437-4.9Z" transform="translate(-5.5 -258.5)" fill="#ffc93c"/>
    <path id="Path_102553" data-name="Path 102553" d="M3240.389,2943.846h0a10,10,0,0,1,10,10v2.5a10,10,0,0,1-10,10h0a10,10,0,0,1-10-10v-2.5A10,10,0,0,1,3240.389,2943.846Z" transform="translate(-33 -214.5)" fill="#31326f"/>
    <path id="Path_102554" data-name="Path 102554" d="M3495.889,3007.846l-11.438,4.9a10,10,0,0,0-6.062,9.191v10.906h45V3021.94a10,10,0,0,0-6.061-9.192l-11.439-4.9Z" transform="translate(-203.5 -258.5)" fill="#81c140"/>
    <path id="Path_102555" data-name="Path 102555" d="M3528.389,2943.846h0a10,10,0,0,1,10,10v2.5a10,10,0,0,1-10,10h0a10,10,0,0,1-10-10v-2.5A10,10,0,0,1,3528.389,2943.846Z" transform="translate(-231 -214.5)" fill="#31326f"/>
    <path id="Path_102556" data-name="Path 102556" d="M3539.164,2671.846v17.5l-12.375,12.375a17.5,17.5,0,1,0,12.375-29.875Z" transform="translate(-236.775 -27.5)" fill="#cc3d60"/>
    <path id="Path_102557" data-name="Path 102557" d="M3438.389,2744.21l22.5-16.364,7.5,7.5-21.222,18.19Z" transform="translate(-176 -66)" fill="#fed2a4"/>
    <path id="Path_102558" data-name="Path 102558" d="M3333.889,2780.21l-5,3.636h-31.875a10.625,10.625,0,0,0-10.625,10.625v5.768h12.5v31.107h30v-30l13.778-11.809Z" transform="translate(-71.5 -102)" fill="#9ddfd3"/>
    <path id="Path_102559" data-name="Path 102559" d="M3358.389,2823.846h25v20h-25Z" transform="translate(-121 -132)" fill="#ffc93c"/>
    <path id="Path_102560" data-name="Path 102560" d="M3286.389,2844.3v12.982a8.125,8.125,0,0,0,8.125,8.125h19.375v-12.5h-15V2844.3Z" transform="translate(-71.5 -146.065)" fill="#fed2a4"/>
    <path id="Path_102561" data-name="Path 102561" d="M3351.889,3007.846l-11.437,4.9a10,10,0,0,0-6.063,9.191v10.906h45V3021.94a10,10,0,0,0-6.061-9.192l-11.439-4.9Z" transform="translate(-104.5 -258.5)" fill="#cc3d60"/>
    <path id="Path_102562" data-name="Path 102562" d="M3384.389,2943.846h0a10,10,0,0,1,10,10v2.5a10,10,0,0,1-10,10h0a10,10,0,0,1-10-10v-2.5A10,10,0,0,1,3384.389,2943.846Z" transform="translate(-132 -214.5)" fill="#ffc93c"/>
    <path id="Path_102563" data-name="Path 102563" d="M3326.389,2911.846h15v2.5h-15Z" transform="translate(-99 -192.5)" fill="#5ebef7"/>
    <path id="Path_102564" data-name="Path 102564" d="M3374.389,2887.846h15v2.5h-15Z" transform="translate(-132 -176)" fill="#5ebef7"/>
    <path id="Path_102565" data-name="Path 102565" d="M3329.889,2631.846h-145a2.5,2.5,0,0,0-2.5,2.5v85a2.5,2.5,0,0,0,2.5,2.5h40v30.141c-.026-.011-.05-.025-.076-.036l-7.111-3.048a12.43,12.43,0,0,0,2.187-7.056v-2.5a12.5,12.5,0,0,0-25,0v2.5a12.429,12.429,0,0,0,2.189,7.056l-7.113,3.048a12.486,12.486,0,0,0-7.576,11.489v10.906a2.5,2.5,0,0,0,2.5,2.5h135a2.5,2.5,0,0,0,2.5-2.5V2763.44a12.486,12.486,0,0,0-7.576-11.49l-7.112-3.048a12.428,12.428,0,0,0,2.188-7.056v-2.5a12.5,12.5,0,0,0-25,0v2.5a12.427,12.427,0,0,0,2.188,7.056l-7.113,3.048a5.222,5.222,0,0,1-10.15,0l-7.112-3.048a12.428,12.428,0,0,0,2.188-7.056v-2.5a12.488,12.488,0,0,0-5-9.993v-7.507h70a2.5,2.5,0,0,0,2.5-2.5v-85a2.5,2.5,0,0,0-2.5-2.5Zm-40,107.5a7.5,7.5,0,0,1,15,0v2.5a7.5,7.5,0,0,1-15,0Zm-12.5,24.094a7.492,7.492,0,0,1,4.546-6.894l9.142-3.919a12.456,12.456,0,0,0,12.625,0l9.142,3.918a7.492,7.492,0,0,1,4.545,6.894v8.406h-5v-7.5a2.5,2.5,0,0,0-5,0v7.5h-20v-7.5a2.5,2.5,0,0,0-5,0v7.5h-5Zm-90-46.594v-5h25.02a10.554,10.554,0,0,0,1.6,5Zm35.625,0a5.631,5.631,0,0,1-5.625-5.625v-10.482h7.5v6.107a2.5,2.5,0,0,0,2.5,2.5h12.5v7.5Zm17.641-62.5h9.234a2.5,2.5,0,0,1,0,5h-10a2.5,2.5,0,0,0-2.08,1.113l-2.92,4.378a6.83,6.83,0,0,1,5.766-10.492Zm6.734,10v8.125a1.877,1.877,0,0,1-1.875,1.875h-.625a2.5,2.5,0,0,0-2.5,2.5v2.5h-5V2670.1l3.838-5.757Zm10,20a2.5,2.5,0,0,0,1.469-.478l3.219-2.341,5.473,5.816-3.305,2.833a2.492,2.492,0,0,0-1.855-.83h-25a2.5,2.5,0,0,0-2.5,2.5v12.5h-5v-6.107a2.5,2.5,0,0,0-2.5-2.5h-10v-3.268a8.134,8.134,0,0,1,8.125-8.125Zm42.5-23.535-6.25,6.25-2.714-2.715,5.732-5.732a2.5,2.5,0,0,0-3.536-3.535l-5.689,5.688a15.024,15.024,0,0,1,12.457-13.708Zm4.268,2.8a2.5,2.5,0,0,0,.732-1.768v-14.788a15,15,0,1,1-11.19,27.014Zm-15.445,5.591-17.36,14.881-5.2-5.522,18.477-13.438Zm-33.823,57.893c-.808-.165-25-.252-25-.252v-5h12.5a2.5,2.5,0,0,0,2.5-2.5v-5h10Zm5,12.248v2.5a7.5,7.5,0,0,1-15,0v-2.5a7.5,7.5,0,0,1,15,0Zm-12.5-30h-2.5v-2.5a2.5,2.5,0,0,0-2.5-2.5h-2.5v-10h7.5Zm-47.5,30a7.5,7.5,0,0,1,15,0v2.5a7.5,7.5,0,0,1-15,0Zm27.5,32.5h-5v-7.5a2.5,2.5,0,1,0-5,0v7.5h-20v-7.5a2.5,2.5,0,0,0-5,0v7.5h-5v-8.406a7.493,7.493,0,0,1,4.546-6.894l9.142-3.919a12.456,12.456,0,0,0,12.625,0l9.142,3.918a7.492,7.492,0,0,1,4.546,6.895Zm2.5-15.9-.012-.018c.008-.082.012-.166.012-.25v-23.829H3242.4a12.434,12.434,0,0,0-2.507,7.5v2.5a12.425,12.425,0,0,0,2.188,7.056l-7.113,3.048a12.482,12.482,0,0,0-5.074,3.992Zm37.955.6a7.492,7.492,0,0,1,4.545,6.893v8.406h-5v-7.5a2.5,2.5,0,0,0-5,0v7.5h-20v-7.5a2.5,2.5,0,0,0-5,0v7.5h-5v-8.406a7.493,7.493,0,0,1,4.546-6.894l9.142-3.919a12.456,12.456,0,0,0,12.625,0Zm-15.455-47.2v-15h7.5v15Zm75,7.5h-67.5v-2.5h2.5a2.5,2.5,0,0,0,2.5-2.5h62.5Zm0-10h-62.5V2696.21l23.336-20a2.48,2.48,0,0,0,.742.462,20,20,0,1,0-6.531-16.131l-25.859,18.808h-9.188v-.26a6.886,6.886,0,0,0,5-6.615v-8.555a7.5,7.5,0,0,0-2.5-14.57h-9.234a11.83,11.83,0,0,0-9.843,18.391l1.577,2.366v9.243h-6.875a13.139,13.139,0,0,0-13.125,13.125v14.375h-25v-70h140Z"/>
    <path id="Path_102566" data-name="Path 102566" d="M3528.889,2812.846h2.5a2.5,2.5,0,0,0,0-5h-2.5a2.5,2.5,0,0,0,0,5Z" transform="translate(-236.5 -121)"/>
    <path id="Path_102567" data-name="Path 102567" d="M3581.389,2807.846h-12.5a2.5,2.5,0,0,0,0,5h12.5a2.5,2.5,0,0,0,0-5Z" transform="translate(-264 -121)"/>
    <path id="Path_102568" data-name="Path 102568" d="M3548.889,2839.846h-20a2.5,2.5,0,0,0,0,5h20a2.5,2.5,0,0,0,0-5Z" transform="translate(-236.5 -143)"/>
  </g>
</svg>
