<svg xmlns="http://www.w3.org/2000/svg" width="168" height="150" viewBox="0 0 168 150">
  <g id="t2-ic10" transform="translate(-307 -1629)">
    <rect id="Rectangle_5165" data-name="Rectangle 5165" width="168" height="150" transform="translate(307 1629)" fill="none"/>
    <g id="Group_57640" data-name="Group 57640" transform="translate(482.179 -1923.92)">
      <path id="Path_102219" data-name="Path 102219" d="M-13.827,3741.182H-108.12a6.471,6.471,0,0,1-6.471-6.472v-67.823a6.471,6.471,0,0,1,6.471-6.471h94.293a6.471,6.471,0,0,1,6.471,6.471v67.823A6.471,6.471,0,0,1-13.827,3741.182Z" transform="translate(-30.485 -65.718)" fill="#f5f5f5"/>
      <path id="Path_102220" data-name="Path 102220" d="M260.166,3660.417H250.2a6.471,6.471,0,0,1,6.471,6.471v67.823a6.471,6.471,0,0,1-6.471,6.471h9.964a6.471,6.471,0,0,0,6.471-6.471v-67.823A6.471,6.471,0,0,0,260.166,3660.417Z" transform="translate(-304.478 -65.718)" fill="#eaeaea"/>
      <path id="Path_102221" data-name="Path 102221" d="M-79.385,3747.771v-50.44a1.708,1.708,0,0,1,1.708-1.708H8.617a1.708,1.708,0,0,1,1.708,1.708v50.44a1.708,1.708,0,0,1-1.708,1.708H-77.677a1.708,1.708,0,0,1-1.708-1.708Z" transform="translate(-56.928 -92.161)" fill="#9ddfd3"/>
      <path id="Path_102222" data-name="Path 102222" d="M-35.852,3962.169H-135.8a11.88,11.88,0,0,1-11.88-11.88,3.093,3.093,0,0,1,3.093-3.093H-27.064a3.093,3.093,0,0,1,3.093,3.093A11.88,11.88,0,0,1-35.852,3962.169Z" transform="translate(-5.633 -281.116)" fill="#f5f5f5"/>
      <path id="Path_102223" data-name="Path 102223" d="M280.313,3947.2h-6.871v3.093a11.88,11.88,0,0,1-11.88,11.88h9.964a11.88,11.88,0,0,0,11.88-11.88A3.093,3.093,0,0,0,280.313,3947.2Z" transform="translate(-313.011 -281.116)" fill="#eaeaea"/>
      <path id="Path_102224" data-name="Path 102224" d="M21.021,3947.2v3.744a3.743,3.743,0,0,0,3.743,3.743H57a3.743,3.743,0,0,0,3.743-3.743V3947.2Z" transform="translate(-132.342 -281.116)" fill="#9ddfd3"/>
      <path id="Path_102225" data-name="Path 102225" d="M-27.189,3580.42a6.148,6.148,0,0,0-6.148,6.148v76.382H33.449v-63.572a4.657,4.657,0,0,0-1.364-3.293l-14.3-14.3a4.658,4.658,0,0,0-3.294-1.364Z" transform="translate(-91.515 -5.633)" fill="#fff8e1"/>
      <g id="Group_57638" data-name="Group 57638" transform="translate(-68.022 3581.86)">
        <path id="Path_102226" data-name="Path 102226" d="M203.572,3617.428l-8.592-8.592v75.458h9.956v-63.572a4.658,4.658,0,0,0-1.364-3.293Z" transform="translate(-194.98 -3608.836)" fill="#dbf6e9"/>
      </g>
      <path id="Path_102227" data-name="Path 102227" d="M182.229,3597.365l-14.3-14.3a4.649,4.649,0,0,0-1.364-.94v10.43a6.148,6.148,0,0,0,6.148,6.148h10.444A4.641,4.641,0,0,0,182.229,3597.365Z" transform="translate(-241.659 -6.913)" fill="#ffc93c"/>
      <g id="Group_57639" data-name="Group 57639" transform="translate(-155.179 3572.92)">
        <path id="Path_102228" data-name="Path 102228" d="M95.188,3747.691h21.65a1.867,1.867,0,0,0,0-3.734H95.188a1.867,1.867,0,0,0,0,3.734Z" transform="translate(-31.467 -3701.385)"/>
        <path id="Path_102229" data-name="Path 102229" d="M8.209,3790.647h43.3a1.867,1.867,0,0,0,0-3.734H8.209a1.867,1.867,0,0,0,0,3.734Z" transform="translate(33.862 -3733.648)"/>
        <path id="Path_102230" data-name="Path 102230" d="M95.188,3704.735h21.65a1.867,1.867,0,0,0,0-3.734H95.188a1.867,1.867,0,0,0,0,3.734Z" transform="translate(-31.467 -3669.121)"/>
        <path id="Path_102231" data-name="Path 102231" d="M8.209,3833.6h43.3a1.867,1.867,0,0,0,0-3.734H8.209a1.867,1.867,0,0,0,0,3.734Z" transform="translate(33.862 -3765.912)"/>
        <path id="Path_102232" data-name="Path 102232" d="M8.209,3704.735h2.432v11.076a1.867,1.867,0,0,0,3.734,0v-11.076h2.467a1.867,1.867,0,0,0,0-3.734H8.209a1.867,1.867,0,0,0,0,3.734Z" transform="translate(33.862 -3669.121)"/>
        <path id="Path_102233" data-name="Path 102233" d="M-32.7,3664.213h-3.276V3601.17a8.348,8.348,0,0,0-8.338-8.338H-56.263a6.475,6.475,0,0,0-1.847-3.7l-14.3-14.3a6.482,6.482,0,0,0-4.614-1.911H-118.7a8.024,8.024,0,0,0-8.015,8.015v11.9H-138.6a8.348,8.348,0,0,0-8.338,8.338v63.043h-3.276a4.965,4.965,0,0,0-4.959,4.96,13.763,13.763,0,0,0,13.747,13.747h99.947a13.763,13.763,0,0,0,13.747-13.747A4.965,4.965,0,0,0-32.7,3664.213Zm-29.9-74.291h-6.347a4.286,4.286,0,0,1-4.281-4.281v-6.347Zm-60.386-8.987a4.286,4.286,0,0,1,4.281-4.281h41.68c.021,0,.042,0,.062,0v8.984a8.024,8.024,0,0,0,8.015,8.015h9.01c0,.03,0,.059,0,.089v47.575a1.867,1.867,0,0,0,1.867,1.867,1.867,1.867,0,0,0,1.867-1.867v-35.991h7.728v50.122H-56.2v-5.4a1.867,1.867,0,0,0-1.867-1.867,1.867,1.867,0,0,0-1.867,1.867v5.4h-63.053Zm-20.225,20.235a4.61,4.61,0,0,1,4.6-4.6h11.886v5.029h-7.887a3.579,3.579,0,0,0-3.575,3.575v5.034a1.867,1.867,0,0,0,1.867,1.867,1.867,1.867,0,0,0,1.867-1.867v-4.875h7.728v50.122h-7.728v-36.52a1.867,1.867,0,0,0-1.867-1.866,1.867,1.867,0,0,0-1.867,1.866v36.679a3.579,3.579,0,0,0,3.575,3.575h86.294a3.579,3.579,0,0,0,3.575-3.575v-50.44a3.579,3.579,0,0,0-3.575-3.574H-56.2v-5.029h11.886a4.61,4.61,0,0,1,4.6,4.6v63.043h-103.5Zm33.755,66.777h35.992v1.877a1.879,1.879,0,0,1-1.877,1.876h-32.239a1.879,1.879,0,0,1-1.877-1.876Zm67.97,11.239h-99.947a10.025,10.025,0,0,1-10.013-10.013,1.227,1.227,0,0,1,1.226-1.226h37.031v1.877a5.616,5.616,0,0,0,5.61,5.61h32.239a5.616,5.616,0,0,0,5.61-5.61v-1.877H-32.7a1.227,1.227,0,0,1,1.226,1.226,10.025,10.025,0,0,1-10.013,10.013Z" transform="translate(155.179 -3572.92)"/>
      </g>
    </g>
  </g>
</svg>
