<svg xmlns="http://www.w3.org/2000/svg" width="315" height="209" viewBox="0 0 315 209">
  <g id="t2-ic7" transform="translate(-1019.5 -290.921)">
    <rect id="Rectangle_5258" data-name="Rectangle 5258" width="315" height="209" transform="translate(1019.5 290.921)" fill="none"/>
    <path id="Path_102358" data-name="Path 102358" d="M281.323,99.021H268.369a11.915,11.915,0,0,1-11.734-12.089h0a11.916,11.916,0,0,1,11.734-12.089h8.154a5.116,5.116,0,0,0,.155-10.229h-19.46a.6.6,0,0,1-.582-.614,12.106,12.106,0,0,0-11.922-12.267H174.469a3.221,3.221,0,0,1-.118-6.441h48.967a6.395,6.395,0,0,0,.175-12.787H82.725a6.395,6.395,0,0,0-.175,12.787h24.044a7,7,0,0,1,.191,14H35.311C20.67,59.289,8.8,71.518,8.8,86.6h0a27.111,27.111,0,0,0,21.58,26.834,4,4,0,0,1,3.152,3.975v2.229a4,4,0,0,1-3.94,4.059h0c-10.772,0-19.5,9-19.5,20.1h0c0,11.1,8.733,20.094,19.5,20.094h.07a5.953,5.953,0,0,1,5.862,6.039v.015a6.2,6.2,0,0,1-5.541,6.221,6.206,6.206,0,0,0-1.436.277,15.632,15.632,0,0,0,5.025,30.254H257.9a15.535,15.535,0,0,0,15.416-14.326c.005-.072.011-.145.015-.216a7.371,7.371,0,0,1,7.23-7.053h2.78a12.744,12.744,0,0,0,12.55-12.929h0c0-5.384-4.213-9.838-9.257-11.7a7.912,7.912,0,0,1-5.2-7.421v-.373a8.561,8.561,0,0,1,6.109-8.234A23.08,23.08,0,0,0,303.8,122.18h0C303.8,109.39,293.736,99.021,281.323,99.021Z" transform="translate(1021.2 275.338)" fill="#9ddfd3"/>
    <g id="Group_57663" data-name="Group 57663" transform="translate(-277.638 -1964.355)">
      <path id="Path_102326" data-name="Path 102326" d="M1560.884,2710.589v-20.078h-37.45v20.078l-3.171,9.531h43.793Z" transform="translate(-87.685 -264.213)" fill="#f1f4f6"/>
      <path id="Path_102327" data-name="Path 102327" d="M1531.654,2719.406a20.078,20.078,0,0,1,20.078-20.078h9.152v-8.817h-37.451v20.078l-3.171,9.531h11.154Z" transform="translate(-87.685 -264.213)" fill="#dfeaef"/>
      <path id="Path_102328" data-name="Path 102328" d="M1401.072,2371.939h-9.393a5.525,5.525,0,0,1-5.525-5.525v-4.952a5.525,5.525,0,0,1,5.525-5.525h9.393Z" transform="translate(-4.653 -57.065)" fill="#ffd566"/>
      <path id="Path_102329" data-name="Path 102329" d="M1747.932,2363l-10.143-7.066h-2.719v16h2.719l10.143-7.067A1.139,1.139,0,0,0,1747.932,2363Z" transform="translate(-220.682 -57.066)" fill="#ffd566"/>
      <path id="Path_102330" data-name="Path 102330" d="M1542.323,2355.938H1421.316v16h121.007Z" transform="translate(-26.424 -57.066)" fill="#cc3d60"/>
      <path id="Path_102331" data-name="Path 102331" d="M1409.408,2431.94h-16.956a6.3,6.3,0,0,0-6.3,6.3v78.612h146.709v-78.612a6.3,6.3,0,0,0-6.3-6.3H1409.408Z" transform="translate(-4.654 -104.121)" fill="#f1f4f6"/>
      <path id="Path_102332" data-name="Path 102332" d="M1439.3,2500.185h91.206a12.144,12.144,0,0,0,12.13-12.13V2431.94H1427.17v56.115a12.144,12.144,0,0,0,12.13,12.13Z" transform="translate(-30.048 -104.121)" fill="#c5e1ff"/>
      <path id="Path_102333" data-name="Path 102333" d="M1525.119,2456.99h12.736a.977.977,0,0,1,.978.978v60.058a.977.977,0,0,1-.978.978H1412.182a.977.977,0,0,1-.978-.978v-60.058a.977.977,0,0,1,.978-.978h112.937Z" transform="translate(-20.163 -119.631)" fill="#87bfb5"/>
      <path id="Path_102334" data-name="Path 102334" d="M1535,2456.99H1427.17v46.574a12.144,12.144,0,0,0,12.13,12.13h91.206a12.144,12.144,0,0,0,12.13-12.13V2456.99Z" transform="translate(-30.048 -119.631)" fill="#9ddfd3"/>
      <path id="Path_102335" data-name="Path 102335" d="M1542.914,2393.084h-91.206a4.5,4.5,0,0,1-4.5-4.5v-112.8a4.5,4.5,0,0,1,4.5-4.5h91.206a4.5,4.5,0,0,1,4.5,4.5v112.8A4.5,4.5,0,0,1,1542.914,2393.084Z" transform="translate(-42.456 -4.653)" fill="#e5eef8"/>
      <path id="Path_102336" data-name="Path 102336" d="M1547.411,2385.738a85.56,85.56,0,0,1-85.56-85.56v-28.895h-10.144a4.5,4.5,0,0,0-4.5,4.5v112.8a4.5,4.5,0,0,0,4.5,4.5h91.206a4.5,4.5,0,0,0,4.5-4.5Z" transform="translate(-42.456 -4.653)" fill="#d5e2f3"/>
      <path id="Path_102337" data-name="Path 102337" d="M1542.914,2271.284h-91.206a4.5,4.5,0,0,0-4.5,4.5v12.158h100.2v-12.158a4.5,4.5,0,0,0-4.5-4.5Z" transform="translate(-42.456 -4.653)" fill="#9ddfd3"/>
      <path id="Path_102338" data-name="Path 102338" d="M1461.852,2271.284h-10.144a4.5,4.5,0,0,0-4.5,4.5v12.158h14.642Z" transform="translate(-42.456 -4.653)" fill="#87bfb5"/>
      <circle id="Ellipse_4108" data-name="Ellipse 4108" cx="2.585" cy="2.585" r="2.585" transform="translate(1412.469 2271.984)" fill="#f93442"/>
      <circle id="Ellipse_4109" data-name="Ellipse 4109" cx="2.585" cy="2.585" r="2.585" transform="translate(1423.174 2271.984)" fill="#fcb64d"/>
      <circle id="Ellipse_4110" data-name="Ellipse 4110" cx="2.585" cy="2.585" r="2.585" transform="translate(1433.879 2271.984)" fill="#05f2a7"/>
      <path id="Path_102339" data-name="Path 102339" d="M1551.369,2373.973h-72.062a2.98,2.98,0,0,1-2.98-2.98v-18.459a2.98,2.98,0,0,1,2.98-2.98h72.062a2.98,2.98,0,0,1,2.98,2.98v18.459A2.98,2.98,0,0,1,1551.369,2373.973Z" transform="translate(-60.483 -53.113)" fill="#9ddfd3"/>
      <path id="Path_102340" data-name="Path 102340" d="M1479.307,2373.973h4.386a85.48,85.48,0,0,1-3.8-24.419h-.583a2.98,2.98,0,0,0-2.98,2.98v18.459a2.98,2.98,0,0,0,2.98,2.98Z" transform="translate(-60.483 -53.113)" fill="#87bfb5"/>
      <path id="Path_102341" data-name="Path 102341" d="M1494.845,2452.847h-16.416a2.1,2.1,0,0,1-2.1-2.1v-7.864a2.1,2.1,0,0,1,2.1-2.1h16.416a2.1,2.1,0,0,1,2.1,2.1v7.864A2.1,2.1,0,0,1,1494.845,2452.847Z" transform="translate(-60.483 -109.593)" fill="#cc3d60"/>
      <path id="Path_102342" data-name="Path 102342" d="M1478.429,2452.847h15.99a85.444,85.444,0,0,1-6.773-12.069h-9.217a2.1,2.1,0,0,0-2.1,2.1v7.864a2.1,2.1,0,0,0,2.1,2.1Z" transform="translate(-60.483 -109.593)" fill="#f24872"/>
      <path id="Path_102343" data-name="Path 102343" d="M1605.547,2452.847h-41.031a2.1,2.1,0,0,1-2.1-2.1v-7.864a2.1,2.1,0,0,1,2.1-2.1h41.031a2.1,2.1,0,0,1,2.1,2.1v7.864A2.1,2.1,0,0,1,1605.547,2452.847Z" transform="translate(-113.783 -109.593)" fill="#ffd566"/>
      <path id="Path_102344" data-name="Path 102344" d="M1528.5,2663.774H1390.512a4.358,4.358,0,0,1-4.358-4.358v-14.553h146.709v14.553a4.358,4.358,0,0,1-4.358,4.358Z" transform="translate(-4.654 -235.951)" fill="#f1f4f6"/>
      <path id="Path_102345" data-name="Path 102345" d="M1521.912,2324.957h-14.094v-7.22h9.29a2.861,2.861,0,0,0,1.636-.514l11.484-8a2.862,2.862,0,0,0,0-4.7l-11.484-8a2.859,2.859,0,0,0-1.636-.514h-9.29v-24.881a7.368,7.368,0,0,0-7.36-7.36h-91.206a7.368,7.368,0,0,0-7.36,7.36v24.881h-14.866a8.4,8.4,0,0,0-8.388,8.388v4.952a8.4,8.4,0,0,0,8.388,8.387h14.866v7.22H1387.8a9.171,9.171,0,0,0-9.16,9.16v89.35a7.229,7.229,0,0,0,7.221,7.221h47.027v15.226l-2.373,7.133h-5.634a2.862,2.862,0,1,0,0,5.724h59.88a2.862,2.862,0,1,0,0-5.724h-6.325l-2.373-7.133v-15.226h47.79a7.229,7.229,0,0,0,7.221-7.221v-89.35a9.17,9.17,0,0,0-9.16-9.16Zm-112.66,66.336h91.206a7.368,7.368,0,0,0,7.36-7.36v-8.59a2.862,2.862,0,0,0-5.724,0v8.59a1.637,1.637,0,0,1-1.635,1.635h-91.206a1.637,1.637,0,0,1-1.636-1.635v-97.784h94.477v77.745a2.862,2.862,0,0,0,5.724,0v-23.673h7.989v56.288H1393.9v-56.289h7.989v43.712A7.368,7.368,0,0,0,1409.252,2391.293Zm114.332-84.42-6.334,4.413v-8.826Zm-12.058-5.139v10.278h-3.708v-10.278Zm-102.274-32.241h91.206a1.638,1.638,0,0,1,1.635,1.636v9.3h-94.477v-9.3a1.637,1.637,0,0,1,1.636-1.636Zm-24.89,39.856V2304.4a2.667,2.667,0,0,1,2.663-2.663h5v10.278h-5A2.665,2.665,0,0,1,1384.362,2309.349Zm13.392,2.663v-10.278h4.138v10.278Zm-13.392,22.1a3.439,3.439,0,0,1,3.436-3.436h14.094v3.816h-10.851a2.862,2.862,0,0,0-2.862,2.862v62.013a2.862,2.862,0,0,0,2.862,2.862h127.628a2.862,2.862,0,0,0,2.862-2.862v-62.013a2.862,2.862,0,0,0-2.862-2.862h-10.851v-3.816h14.094a3.44,3.44,0,0,1,3.436,3.436v71.934H1384.362Zm86.12,113.163,1.918,5.765h-35.855l1.266-3.807h8.636a2.862,2.862,0,0,0,0-5.724h-7.839v-12.826h31.726v15.689A2.87,2.87,0,0,0,1470.483,2447.279Zm54.865-23.813a1.5,1.5,0,0,1-1.5,1.5H1385.859a1.5,1.5,0,0,1-1.5-1.5v-11.691h140.985Z"/>
      <circle id="Ellipse_4111" data-name="Ellipse 4111" cx="2.585" cy="2.585" r="2.585" transform="translate(1412.469 2271.984)"/>
      <circle id="Ellipse_4112" data-name="Ellipse 4112" cx="2.585" cy="2.585" r="2.585" transform="translate(1423.174 2271.984)"/>
      <circle id="Ellipse_4113" data-name="Ellipse 4113" cx="2.585" cy="2.585" r="2.585" transform="translate(1433.879 2271.984)"/>
      <path id="Path_102346" data-name="Path 102346" d="M1546.716,2342.038h-72.061a5.849,5.849,0,0,0-5.843,5.842v18.458a5.85,5.85,0,0,0,5.843,5.843h6.555a2.862,2.862,0,1,0,0-5.724h-6.555a.119.119,0,0,1-.118-.118V2347.88a.118.118,0,0,1,.118-.118h72.061a.118.118,0,0,1,.118.118v18.458a.119.119,0,0,1-.118.118h-54.058a2.862,2.862,0,0,0,0,5.724h54.058a5.85,5.85,0,0,0,5.843-5.843V2347.88A5.849,5.849,0,0,0,1546.716,2342.038Z" transform="translate(-55.83 -48.46)"/>
      <path id="Path_102347" data-name="Path 102347" d="M1495.156,2446.092v-7.865a4.969,4.969,0,0,0-4.964-4.964h-16.416a4.97,4.97,0,0,0-4.964,4.964v7.865a4.97,4.97,0,0,0,4.964,4.965h16.416A4.97,4.97,0,0,0,1495.156,2446.092Zm-5.724-.76h-14.9v-6.345h14.9Z" transform="translate(-55.83 -104.941)"/>
      <path id="Path_102348" data-name="Path 102348" d="M1600.894,2433.263h-41.031a4.97,4.97,0,0,0-4.964,4.964v7.865a4.97,4.97,0,0,0,4.964,4.965h41.031a4.97,4.97,0,0,0,4.965-4.965v-7.865A4.971,4.971,0,0,0,1600.894,2433.263Zm-.76,12.069h-39.511v-6.345h39.511Z" transform="translate(-109.13 -104.941)"/>
      <path id="Path_102349" data-name="Path 102349" d="M1578.36,2735.714h-4.042a2.862,2.862,0,1,0,0,5.724h4.042a2.862,2.862,0,0,0,0-5.724Z" transform="translate(-119.381 -292.2)"/>
      <circle id="Ellipse_4114" data-name="Ellipse 4114" cx="3.895" cy="3.895" r="3.895" transform="translate(1450.005 2421.589) rotate(-80.783)"/>
      <path id="Path_102350" data-name="Path 102350" d="M1490.168,2502.073h5.926a2.862,2.862,0,1,0,0-5.724h-5.926a2.862,2.862,0,1,0,0,5.724Z" transform="translate(-67.281 -144)"/>
      <path id="Path_102351" data-name="Path 102351" d="M1579.669,2496.349h-48a2.862,2.862,0,1,0,0,5.724h48a2.862,2.862,0,1,0,0-5.724Z" transform="translate(-92.973 -144)"/>
      <path id="Path_102352" data-name="Path 102352" d="M1648.073,2526.045h-5.926a2.862,2.862,0,1,0,0,5.724h5.926a2.862,2.862,0,1,0,0-5.724Z" transform="translate(-161.377 -162.386)"/>
      <path id="Path_102353" data-name="Path 102353" d="M1490.168,2531.769h48.005a2.862,2.862,0,1,0,0-5.724h-48.005a2.862,2.862,0,1,0,0,5.724Z" transform="translate(-67.281 -162.386)"/>
      <path id="Path_102354" data-name="Path 102354" d="M1496.094,2555.741h-5.926a2.862,2.862,0,1,0,0,5.724h5.926a2.862,2.862,0,1,0,0-5.724Z" transform="translate(-67.281 -180.772)"/>
      <path id="Path_102355" data-name="Path 102355" d="M1579.669,2555.741h-48a2.862,2.862,0,1,0,0,5.724h48a2.862,2.862,0,1,0,0-5.724Z" transform="translate(-92.973 -180.772)"/>
    </g>
  </g>
</svg>
