<svg xmlns="http://www.w3.org/2000/svg" width="315" height="209" viewBox="0 0 315 209">
  <g id="t2-ic9" transform="translate(-1020 -1606)">
    <rect id="Rectangle_5260" data-name="Rectangle 5260" width="315" height="209" transform="translate(1020 1606)" fill="none"/>
    <path id="Path_102366" data-name="Path 102366" d="M281.323,99.021H268.369a11.915,11.915,0,0,1-11.734-12.089h0a11.916,11.916,0,0,1,11.734-12.089h8.154a5.116,5.116,0,0,0,.155-10.229h-19.46a.6.6,0,0,1-.582-.614,12.106,12.106,0,0,0-11.922-12.267H174.469a3.221,3.221,0,0,1-.118-6.441h48.967a6.395,6.395,0,0,0,.175-12.787H82.725a6.395,6.395,0,0,0-.175,12.787h24.044a7,7,0,0,1,.191,14H35.311C20.67,59.289,8.8,71.518,8.8,86.6h0a27.111,27.111,0,0,0,21.58,26.834,4,4,0,0,1,3.152,3.975v2.229a4,4,0,0,1-3.94,4.059h0c-10.772,0-19.5,9-19.5,20.1h0c0,11.1,8.733,20.094,19.5,20.094h.07a5.953,5.953,0,0,1,5.862,6.039v.015a6.2,6.2,0,0,1-5.541,6.221,6.206,6.206,0,0,0-1.436.277,15.632,15.632,0,0,0,5.025,30.254H257.9a15.535,15.535,0,0,0,15.416-14.326c.005-.072.011-.145.015-.216a7.371,7.371,0,0,1,7.23-7.053h2.78a12.744,12.744,0,0,0,12.55-12.929h0c0-5.384-4.213-9.838-9.257-11.7a7.912,7.912,0,0,1-5.2-7.421v-.373a8.561,8.561,0,0,1,6.109-8.234A23.08,23.08,0,0,0,303.8,122.18h0C303.8,109.39,293.736,99.021,281.323,99.021Z" transform="translate(1021.2 1590.845)" fill="#9ddfd3"/>
    <g id="Group_57661" data-name="Group 57661" transform="translate(544.31 -2024.736)">
      <path id="Path_102234" data-name="Path 102234" d="M720.136,3764.777s9.231-29.692-5.434-64.2l-44.78-42.279s-42.862-18.633-78.368,5.085l-33.57,36.381s-13.637,22.076-5.808,60.107Z" transform="translate(-3.676 -2.919)" fill="#dbf6e9"/>
      <path id="Path_102235" data-name="Path 102235" d="M618.5,3865.121l3.7,10.724,10.126,8.508-1.818,6.489-12.006,5.566-8.477,8.92-8.915,14.773-12.321-6.4-.456-29.965h-12.77v12.642l-5.958-.931-9.857-21.752-1.032-8.574,11.094-9.12,4.453-2.5,2.163,7.884,4.889.367,15.82-.367h3.975l2.214-7.051,1.916,2.491,2.424,7.142,4.943,1.823Z" transform="translate(-8.343 -108.167)" fill="#ffc93c"/>
      <path id="Path_102236" data-name="Path 102236" d="M715.068,3942.609l7.32,18.572.947,5.393-4.953,2.619-20.352,6.163-27.724-2-20.339-6.471-2-4.931,11.107-17.041,12.537-5.763,4.4-2,7.964,7.767h6.447l8.548-6.534,5.393.154,5.7,2.157Z" transform="translate(-54.808 -151.712)" fill="#f5f5f5"/>
      <path id="Path_102237" data-name="Path 102237" d="M826.821,3818.214l2.068,9.227-11.519,9.112-9.656-7.708,1.039-9.862Z" transform="translate(-137.977 -89.795)" fill="#ffd4bd"/>
      <path id="Path_102238" data-name="Path 102238" d="M765.953,3749.067v11.319l-10.632-3.887,2.618-5.856Z" transform="translate(-110.7 -53.796)" fill="#ffd4bd"/>
      <path id="Path_102239" data-name="Path 102239" d="M770.921,3676.464H749.3l-4.314,6.626-.616,8.172,2.465,5.287s-3.082,6.11-3.082,6.88,3.7,10.516,3.7,10.516l5.639-2.041,8.177-.635,3.749-7.531,2.031-7.189v-7.6Z" transform="translate(-104.676 -15.997)" fill="#31326f"/>
      <path id="Path_102240" data-name="Path 102240" d="M680.236,3790.668l3.544-1.8,13.332,4.7,16.265.541,4.713,4.931s8.372,1.079,8.834.575,2.157-8.147,2.157-8.147l-1.335-12.415-7.92-11.6-21.1-10.636-8.012,1.339-9.179,1.18-6.538,3.6-7.655,9.134-6.521,4.468.811,12.173.609,11.879,9.058-3.084,2.563-4.486Z" transform="translate(-61.501 -57.832)" fill="#31326f"/>
      <path id="Path_102241" data-name="Path 102241" d="M638.042,3701.536l9.636,4.068,8.012,9.183,4.469,7.858v9.108l-5.856,5.768s-6.779,3.819-6.472,3.486-1.018-10.452-1.018-10.452l-6.558-1.18-8.773-8.136-1.826-4.758,4.764-3.544-2.459-4.68,4.532-2.654Z" transform="translate(-45.276 -29.051)" fill="#31326f"/>
      <path id="Path_102242" data-name="Path 102242" d="M865.233,3857.371l-13.56-14.191-7.184-4.563-4.926,1.479-9.764,7.08,9.344,4.674-4.442,5.521v7.924h13.133l12.235,6.069,6.295-6.069Z" transform="translate(-149.475 -100.417)" fill="#81c140"/>
      <path id="Path_102243" data-name="Path 102243" d="M777.708,3844.143l8.771,5.91-7.561,4.976,4.237,6.167-2.723,14.206-9.115,16.3-3.342,1.8-8.574-2-7-7.3v-5.958l7.819-5.342,3.8-9.228,3.954-1.6,3.958-.264,3.493-3.944-.3-5.914Z" transform="translate(-109.181 -103.294)" fill="#81c140"/>
      <path id="Path_102244" data-name="Path 102244" d="M820.17,3860.437s6.753,2.2,6.291,3.074-4.819,7.047-4.819,7.047l3.205,7.081-13.977,6.245,4.364-13.326-3.412-5.4,6.374-4.723Z" transform="translate(-139.62 -111.777)" fill="#f24872"/>
      <path id="Path_102245" data-name="Path 102245" d="M704.387,3875.875l-11.356,9.015-11.654-6.981,2.936-10.478-8.894-7.614-3.711-9.791-11.246-1.827-1.89-6.717,1.89-5.837,7.644-2.616,5.669-8.147,8.719-3.882,5.364,3.17,11.253,1.76,12.261,2.055,5.136,2.939,4.109,4.075,5.243.646.715,7.334-1.637,7.047-8.635-.88-1.644,3.6-1.3,6.152-5.794,4.452-4.017,2.847Z" transform="translate(-60.33 -91.246)" fill="#ffd4bd"/>
      <path id="Path_102246" data-name="Path 102246" d="M583.789,3800.45h21.57l3.763-7.214-3.763-4.386-1.179-7.3,6.859-6.2,3.844-9.005,3.523-4.52V3749.77l-15.119-6.642-4.668-6.15-1.88,5.089-6.543-5.925-1.424,4.931-15.423,1.265-3.493,15.788L575.2,3772.3l4.861,3.047,2.923,4.32.806,5.044-1.564,5.414-1.069,5.6Z" transform="translate(-14.144 -47.067)" fill="#ffd4bd"/>
      <path id="Path_102247" data-name="Path 102247" d="M825.9,3750.391v10.3l-5.576,7.361-5.868,5.513H792.224l-7.395-14.141-3.525-5.67-1.019-11.623,2.61-9.415h4.146l4.133,9.415,9.821,6.063,7.929,3.357H815.5Z" transform="translate(-123.697 -45.283)" fill="#ffd4bd"/>
      <path id="Path_102248" data-name="Path 102248" d="M877.791,3772.14c.72-.152,7.939-3.231,7.939-3.231l0-8.118-1.906-1.18-6.538,3.471-1.86,4.673Z" transform="translate(-173.23 -59.285)" fill="#ffd4bd"/>
      <path id="Path_102249" data-name="Path 102249" d="M839.228,3900.337l6.3,11.71,2.147,14.5-5.545,14.058-8.94,8.71-17.054,2.483-11.892-3.176-10.085-10.957-4.4-14.481,7.395-17.92,8.424-7.306,10.555-2.556,7.508-1.138h5.848Z" transform="translate(-128.632 -129.39)" fill="#ffc93c"/>
      <path id="Path_102250" data-name="Path 102250" d="M819.643,3650.857l-12.725,4.019-9.467,6.293L794.6,3671.63l-2.259,8.71,2.289,9.757s1.088,5.47,1.587,6.607,7.729,6.819,7.729,6.819l8.064,4.058h9.765l11.422-2.006s7.588-4.266,7.8-5.249,4.938-8.585,4.938-8.585,3.493-12.066,3.493-12.813-2.566-10.608-2.566-10.608-7.5-9.862-8.118-10.478-9.3-5.547-9.3-5.547Z" transform="translate(-129.974 -2.666)" fill="#9ddfd3"/>
      <path id="Path_102251" data-name="Path 102251" d="M567.089,3650.857l-2.054,7.6-5.547-4.25-7.807,6.96,4.931,7.357-9.04,1.027v10.787h6.772l-3.3,6.059,8.446,8.456,5.136-4.758,2.465,6.163,8.629-.723,1.009-5.44h3.327l2.932,3.7,7.433-6.985-2.785-4.934.825-2.657h6.848l-1.55-10.489h-7.864v-2.9l4.525-4.658-7.447-6.957-2.918,5.274-4.336-8.629Z" transform="translate(-2.541 -2.666)" fill="#f24872"/>
      <path id="Path_102252" data-name="Path 102252" d="M720.9,3956.857l-6.883,4.952,3.441,8.446-4.475,14.132h17.675l-6.391-17,4.131-5.806Z" transform="translate(-88.659 -161.975)" fill="#9ddfd3"/>
      <path id="Path_102253" data-name="Path 102253" d="M582.53,3916.571l.456,48.691-35.415-1.849,1.027-21.573,9.656-.924,1.438-9.708,11.711-2,.784-11.41Z" transform="translate(-2.541 -141.002)" fill="#81c140"/>
      <path id="Path_102254" data-name="Path 102254" d="M687.851,3773.478c1.938,0,3.876-.011,5.813-.007,0,2.119-.011,4.239-.007,6.358a8.853,8.853,0,0,1,5.483,5.988,19.505,19.505,0,0,1,.323,5.081h-5.806c-.134-1.658.483-3.662-.842-4.979s-3.313-.693-4.964-.827c.109,1.793-.545,4.148,1.259,5.316,1.506.864,3.418.323,4.964,1.176a8.787,8.787,0,0,1,5.364,7.628c.076,3.034,0,6.071.025,9.105-1.934,0-3.869,0-5.8,0-.007,1.934,0,3.868,0,5.8-1.938,0-3.876,0-5.813,0q0-3.179,0-6.365a8.944,8.944,0,0,1-5.255-5.236c-.719-1.858-.534-3.876-.548-5.821h5.806c.134,1.655-.487,3.662.838,4.979,1.321,1.3,3.313.693,4.964.823-.13-1.659.487-3.665-.842-4.983-.922-.994-2.359-.762-3.56-.987a8.737,8.737,0,0,1-7.095-7.291c-.261-3.31-.051-6.641-.112-9.961,1.934,0,3.868-.011,5.8,0-.007-1.934,0-3.868,0-5.8m-46.393-17.419c1.927-.011,3.854,0,5.781,0a12.066,12.066,0,0,1-4.024,8.72,11.856,11.856,0,0,1-7.6,2.889c-3.879.032-7.759-.007-11.638.007v-5.806c4.006-.014,8.013.025,12.019-.014a5.952,5.952,0,0,0,5.458-5.792m-52.26-40.652c1.927,0,3.854,0,5.781.015a12.247,12.247,0,0,1-2.929,7.62,11.786,11.786,0,0,1-8.681,3.978q-5.819.027-11.645.007v-5.806c4-.01,8,.018,12-.021a5.921,5.921,0,0,0,5.469-5.792m-21.037-46.382a2.915,2.915,0,1,0,3.335,4,2.939,2.939,0,0,0-3.335-4m-1.314-5.614a8.68,8.68,0,1,1-6.529,6.707,8.7,8.7,0,0,1,6.529-6.707m64.871,145.325q-1.856,5.509-3.673,11.035a83.734,83.734,0,0,0,9.309.058c-1.263-3.85-2.559-7.69-3.84-11.536-.562.17-1.618-.356-1.8.443m-83.219-6.228q0,8.711,0,17.415c1.934-.007,3.869,0,5.8,0-.014-5.806.007-11.612,0-17.419H548.5m80.664-3.229c.715,1.078,1.44,2.149,2.163,3.226.911,0,1.818,0,2.732,0q1.078-1.612,2.148-3.226c-1.165-.719-2.348-1.412-3.52-2.119q-1.763,1.056-3.523,2.119m24.666-7.476c-1.7,5-3.353,10.012-5.015,15.024-2.551-1.517-5.088-3.067-7.646-4.576-.8,1.187-1.586,2.384-2.388,3.567q2.21,6.735,4.482,13.446a83.265,83.265,0,0,0,22.267-5.984,32.193,32.193,0,0,1-6.608-17.861,32.264,32.264,0,0,0-5.091-3.615m-57.679,19.771a84.512,84.512,0,0,0,25.987,7.661c1.51-4.46,2.976-8.935,4.464-13.406-.794-1.194-1.582-2.4-2.388-3.578-2.551,1.517-5.091,3.059-7.646,4.576-1.665-5.033-3.324-10.066-5.037-15.086a33.336,33.336,0,0,0-15.38,19.832M560.113,3790.9q0,14.518,0,29.032h5.806q0-14.518,0-29.032h-5.806m77.765,2.649c2.58,1.539,5.153,3.092,7.726,4.638q1.491-4.442,2.965-8.891c-1.2-.392-2.42-.747-3.647-1.052-2.351,1.764-4.718,3.509-7.044,5.305m-21.077-4.275q1.475,4.459,2.972,8.913c2.6-1.528,5.175-3.1,7.755-4.656-2.366-1.774-4.721-3.557-7.1-5.317-1.227.29-2.435.653-3.629,1.06m8.749-10.216c-.4,1.619-.795,3.245-1.223,4.86,2.776,2.112,5.585,4.18,8.365,6.292,2.78-2.108,5.589-4.18,8.365-6.292-.428-1.615-.823-3.241-1.219-4.863a55.161,55.161,0,0,1-7.138.232,55.9,55.9,0,0,1-7.149-.229m-53.824.229q.006,20.32,0,40.644h5.806q.006-20.32,0-40.644h-5.806m115.23-11.355a26.142,26.142,0,0,0,4.162,52,25.95,25.95,0,0,0,15.415-5.3,26.143,26.143,0,0,0-19.578-46.7m-8.64-6.071c-.349,1-.679,2.014-1.016,3.02,1.074-.454,2.156-.893,3.252-1.3-.2-.57-.385-1.14-.573-1.706l-1.662-.011m-104.129-5.8a25.463,25.463,0,0,0,6.249,5.443,24.956,24.956,0,0,0,6.249-5.443c-4.166,0-8.332.01-12.5,0m96.479-.258a14.644,14.644,0,0,0-3.705,2.58,12.3,12.3,0,0,1-9.889,3.484,20.734,20.734,0,0,1-11.722,15.561c.454,1.749.878,3.5,1.325,5.251a39.174,39.174,0,0,1,12.651,5.734,31.757,31.757,0,0,1,9.29-17.488,3.294,3.294,0,0,0,1.085-1.455c1.114-3.364,2.239-6.724,3.35-10.089-.795-1.194-1.582-2.391-2.384-3.578m4.95-2.972c.718,1.078,1.441,2.149,2.163,3.226q1.361-.005,2.729,0,1.083-1.611,2.152-3.226c-1.172-.7-2.344-1.415-3.516-2.119-1.176.7-2.355,1.408-3.527,2.119M551.8,3758.792a81.457,81.457,0,0,0,12.712,26.3c.468,0,.936,0,1.4,0v-11.613q8.709.006,17.419,0,.011,15.214,0,30.433a81.2,81.2,0,0,0,7.628,4.906,40.087,40.087,0,0,1,5.022-10.325,39.032,39.032,0,0,1,22.721-15.822c.439-1.749.863-3.5,1.325-5.247a20.7,20.7,0,0,1-11.725-15.554,13.451,13.451,0,0,1-7.2-1.408,12.037,12.037,0,0,1-5.879-7.646,28.939,28.939,0,0,1-14.792,15.18,36.221,36.221,0,0,1-4.808-2.754,28.633,28.633,0,0,1-11.319-16.581,23.13,23.13,0,0,0-12.506,10.132m148.475-13.456q-2.526,7.512-5.012,15.042c-2.558-1.514-5.091-3.074-7.653-4.576-.791,1.19-1.579,2.38-2.384,3.56.3.969.631,1.927.951,2.888a31.653,31.653,0,0,1,24.053,6.322,87.489,87.489,0,0,0,3.27-9.051,33.529,33.529,0,0,0-13.224-14.186m-41.711-.932c-.3,3.89-.667,7.776-.958,11.671a8.02,8.02,0,0,0,3.607-.512,5.891,5.891,0,0,0,3.324-6.452,5.97,5.97,0,0,0-5.974-4.707m-55.751,1.394a5.831,5.831,0,0,0-.534,8.383,6.386,6.386,0,0,0,5.494,1.894c-.283-3.894-.668-7.78-.947-11.675a6.191,6.191,0,0,0-4.013,1.4m65.738-2.736c-.16.947.483,1.694.82,2.518a13.8,13.8,0,0,1,.958,3.7c1.216-.733,2.435-1.455,3.643-2.2-1.807-1.336-3.571-2.736-5.422-4.017m15.772,4.035c2.584,1.535,5.149,3.1,7.733,4.637q1.486-4.436,2.957-8.872c-1.2-.4-2.413-.766-3.636-1.078-2.355,1.768-4.725,3.513-7.055,5.313m-112.091-4.623a9.8,9.8,0,0,1-2.588,3.752,34.535,34.535,0,0,0,1.151,4.029c6.427.007,12.854-.011,19.281,0a37.836,37.836,0,0,0,1.139-4.021,9.791,9.791,0,0,1-2.573-3.73c-.515-1.593-.831-3.241-1.267-4.853a25.779,25.779,0,0,1-13.888.011c-.432,1.6-.751,3.233-1.256,4.816m20.532-6.975c.479,1.709.817,3.451,1.347,5.146a3.728,3.728,0,0,0,2.783,2.119c-.345-3.044-.751-6.082-1.121-9.127-.984.649-1.981,1.281-3.009,1.862m22.968.327a5.928,5.928,0,0,0-2.961,3.1c-.686,1.625-.334,3.433-.207,5.131q.686,8.2,1.376,16.4a14.671,14.671,0,0,0,8.938,11.925c4.013,1.734,8.477.889,12.712,1.1a15,15,0,0,0,9.693-2.635,14.629,14.629,0,0,0,6.155-10.379c.537-6.173,1.016-12.353,1.557-18.526a2.783,2.783,0,0,0-2.478-3.288c-3.28-.04-6.561,0-9.842-.014-3.161-.029-6.369.181-9.468-.563a21.4,21.4,0,0,1-9.657-5.153c-1.942.962-3.879,1.935-5.817,2.9m56.256-3.208q-.577,2.433-1.212,4.849c2.776,2.112,5.585,4.181,8.365,6.289,2.779-2.1,5.589-4.173,8.365-6.285-.429-1.619-.824-3.241-1.223-4.866a54.993,54.993,0,0,1-7.131.232,60.411,60.411,0,0,1-7.163-.218m31.532-17.2a20.707,20.707,0,0,1-11.718,15.557c.45,1.749.878,3.506,1.325,5.259a39.4,39.4,0,0,1,22.274,15.2,84.4,84.4,0,0,0-1.909-39.476,12.72,12.72,0,0,1-9.973,3.458m-153.508,36.039a29.044,29.044,0,0,1,14.077-8.768,3.414,3.414,0,0,0,2.682-2.057c.5-1.687.846-3.415,1.31-5.11a26.463,26.463,0,0,1-12.9-16.417c-1.292-4.554-.729-9.33-.911-13.993a83.964,83.964,0,0,0-4.257,46.345m64.7-44.262a15.949,15.949,0,0,0-5.654,10.419c-1.8.642-3.738,1.067-5.244,2.308a8.307,8.307,0,0,0-3.012,7.486c.49,4.021,1.038,8.035,1.5,12.059a15.511,15.511,0,0,1,4.555-.849,12.308,12.308,0,0,1,2.736-5.292c2.2-2.457,5.443-3.451,8.252-5a23,23,0,0,1-2.508-6.525q2.825-.566,5.647-1.114a15.815,15.815,0,0,0,2.965,6.347,15.282,15.282,0,0,0,12.022,5.817,21.393,21.393,0,0,1-6.1-11.046c1.876-.37,3.753-.755,5.636-1.118a15.364,15.364,0,0,0,11.333,11.732c2.17.632,4.529.131,6.63,1.063a8.749,8.749,0,0,1,4.866,5.135,13.765,13.765,0,0,1,5.244,1.06,28.914,28.914,0,0,0,.334-14.138,28.235,28.235,0,0,0-10.429-16.044,27.838,27.838,0,0,0-17.161-5.694c-4,.019-7.991,0-11.986,0a15,15,0,0,0-9.62,3.393m89.577-.653c-.076,1.031-.145,2.058-.232,3.084a7.8,7.8,0,0,0,3.614-.537,6.175,6.175,0,0,0,3.353-4.282c-.265-.631-.526-1.267-.795-1.894a36.663,36.663,0,0,1-5.941,3.629m-55.879-6.34a45.667,45.667,0,0,1,5.262,2.5c-.149-1.582-.3-3.164-.4-4.753a6.291,6.291,0,0,0-4.867,2.25m-70.877-7.327q.005,2.563,0,5.124c-5.806.014-11.613-.007-17.419,0q-.006,7.261.007,14.52a20.322,20.322,0,0,0,20.707,20.315,20.471,20.471,0,0,0,14.106-6.09,15.684,15.684,0,0,1,1.154-5.839,16.2,16.2,0,0,1,4.5-5.872c.352-3.117.1-6.274.167-9.4a3.028,3.028,0,0,0-2.573-3.139,30.837,30.837,0,0,1-14.414-8.662c-.875.878-1.753,1.76-2.631,2.635-1.2-1.2-2.406-2.385-3.6-3.589m125.039-.661a49.11,49.11,0,0,1-5.951,10.923A26.566,26.566,0,0,0,712.5,3692.2c-3.31,0-6.619-.033-9.925.01m-17.426-.014a62.374,62.374,0,0,0,5.607,9.308,62.255,62.255,0,0,0,5.607-9.312q-5.607-.011-11.214,0m-16.138,0a26.493,26.493,0,0,0,15.884,10.941,51.7,51.7,0,0,1-6-10.956c-3.3.036-6.59-.007-9.885.014m-10.186,2.907c.3,4.094.661,8.187,1.023,12.28a34.248,34.248,0,0,1,10.037,18.794,14.656,14.656,0,0,0,4.54.834q4.708.022,9.424.011a14.642,14.642,0,0,0,13.054-9.1c1.248-2.932,1.078-6.177,1.459-9.28a39.559,39.559,0,0,1-4.645.77,12.511,12.511,0,0,1-2.816,7.646,11.784,11.784,0,0,1-8.84,4.155c-3.876.029-7.752-.011-11.627,0v-5.806c4-.014,8.009.025,12.011-.014a5.893,5.893,0,0,0,5.44-5.9,35.631,35.631,0,0,1-9.78-2.57,32.249,32.249,0,0,1-16.838-17.023,5.95,5.95,0,0,0-2.442,5.193m-63.873-18.842c.011,1.438,0,2.874,0,4.315q-2.563,0-5.127,0c1.2,1.194,2.395,2.4,3.592,3.6-1.84,1.865-3.731,3.679-5.538,5.577a24.73,24.73,0,0,0,11.783,7.152,8.883,8.883,0,0,1,5.262,3.462c1.618,2.145,1.756,4.928,1.64,7.509a22.084,22.084,0,0,1,5.806-6.06,26.242,26.242,0,0,0-17.419-25.559m109.366-7.3a41.576,41.576,0,0,1,0,17.419c3.687,0,7.374-.007,11.061,0a26.031,26.031,0,0,0,0-17.416H704.316m-21.179,0a35.02,35.02,0,0,0,0,17.412q7.616.015,15.234.007a35.091,35.091,0,0,0,0-17.412c-5.077-.011-10.157,0-15.234-.008m-17,0a25.963,25.963,0,0,0-.008,17.415h11.065a41.447,41.447,0,0,1,0-17.419c-3.687,0-7.374.008-11.057,0m-19.68-5.458a7.368,7.368,0,0,0-5.062,6.909,7.223,7.223,0,0,0,2.039,5.2c1.895,1.931,3.836,3.818,5.734,5.748-1.618.842-3.291,1.575-4.863,2.5a6.5,6.5,0,0,0-2.341,8.1,7.346,7.346,0,0,0,3.2,3.309,12.647,12.647,0,0,1,8.147-3.106,11.878,11.878,0,0,1,6.228-7.937,31.675,31.675,0,0,1,2.834-21.07q-6.14,0-12.277,0a10.373,10.373,0,0,0-3.636.356m38.692-.36q5.607.016,11.214,0a61.714,61.714,0,0,0-5.607-9.308,61.364,61.364,0,0,0-5.607,9.3m11.464-10.941a58.23,58.23,0,0,1,4.739,8.009c.49.947.762,2,1.317,2.914,3.277.051,6.557.011,9.834.022a26.474,26.474,0,0,0-15.891-10.945M669,3663.151c3.313-.01,6.623.029,9.936-.015a48.545,48.545,0,0,1,5.948-10.923A26.468,26.468,0,0,0,669,3663.151m-78.966,0c1.637.007,3.277,0,4.913,0,.087,2.341-.178,4.8.127,7.07a32.129,32.129,0,0,1,22.993,28.76,24.316,24.316,0,0,1,7.712-.991c4.529.069,9.065-.16,13.583.153a13.507,13.507,0,0,1-2.529-3.55,12.351,12.351,0,0,1,2.874-14.483,15.188,15.188,0,0,1-2.856-4.036,13.158,13.158,0,0,1,11.438-18.707c5.015-.109,10.041.105,15.053-.105a85.113,85.113,0,0,0-29.547-5.716,83.763,83.763,0,0,0-43.761,11.6m-24.118-11.609v5.828c-1.749.74-3.513,1.451-5.262,2.192q-2.063-2.09-4.151-4.158-2.079,2.063-4.14,4.14c1.353,1.394,2.776,2.722,4.108,4.141-.617,1.8-1.437,3.516-2.145,5.276H548.5v5.807h5.828c.741,1.756,1.459,3.516,2.2,5.269-1.4,1.368-2.772,2.762-4.159,4.144,1.383,1.375,2.751,2.766,4.133,4.137,1.39-1.379,2.78-2.758,4.155-4.155,1.749.737,3.509,1.448,5.258,2.188v5.836h5.806v-5.828c1.749-.74,3.513-1.455,5.262-2.2,1.372,1.4,2.761,2.769,4.151,4.144q2.068-2.057,4.13-4.126-2.058-2.09-4.148-4.151c.74-1.753,1.455-3.513,2.192-5.262h5.832v-5.807h-5.828c-.74-1.749-1.455-3.512-2.2-5.262q2.1-2.062,4.162-4.151c-1.375-1.386-2.766-2.75-4.144-4.134-1.386,1.383-2.776,2.766-4.151,4.159-1.749-.751-3.51-1.463-5.262-2.2v-5.828h-5.806m-5.81-5.81q8.715.005,17.423,0v5.135q1.8-1.8,3.6-3.6,4.583,4.556,9.141,9.131a90.455,90.455,0,0,1,44.237-10.64,89.551,89.551,0,0,1,35.194,7.984,31.861,31.861,0,0,1,44.973,44.974,89.709,89.709,0,0,1,0,74.03,31.862,31.862,0,0,1-44.973,44.974,89.759,89.759,0,0,1-86.369-6.8q.011,7.409,0,14.813-20.32.005-40.644,0V3796.7h11.613v-11.613h3.2a89.109,89.109,0,0,1-14.179-38.884,90.052,90.052,0,0,1,10.034-52.885q-4.568-4.568-9.131-9.138c1.2-1.2,2.4-2.4,3.593-3.607h-5.131q0-8.71,0-17.423c1.717,0,3.43,0,5.142,0-1.209-1.2-2.406-2.406-3.611-3.607q6.14-6.151,12.287-12.284c1.2,1.194,2.395,2.4,3.6,3.6,0-1.709-.007-3.418,0-5.127" transform="translate(0 0)"/>
    </g>
  </g>
</svg>
