<svg xmlns="http://www.w3.org/2000/svg" width="315" height="209" viewBox="0 0 315 209">
  <g id="t2-ic6" transform="translate(-1020 -931)">
    <rect id="Rectangle_5246" data-name="Rectangle 5246" width="315" height="209" transform="translate(1020 931)" fill="none"/>
    <path id="Path_101756" data-name="Path 101756" d="M281.323,99.021H268.369a11.915,11.915,0,0,1-11.734-12.089h0a11.916,11.916,0,0,1,11.734-12.089h8.154a5.116,5.116,0,0,0,.155-10.229h-19.46a.6.6,0,0,1-.582-.614,12.106,12.106,0,0,0-11.922-12.267H174.469a3.221,3.221,0,0,1-.118-6.441h48.967a6.395,6.395,0,0,0,.175-12.787H82.725a6.395,6.395,0,0,0-.175,12.787h24.044a7,7,0,0,1,.191,14H35.311C20.67,59.289,8.8,71.518,8.8,86.6h0a27.111,27.111,0,0,0,21.58,26.834,4,4,0,0,1,3.152,3.975v2.229a4,4,0,0,1-3.94,4.059h0c-10.772,0-19.5,9-19.5,20.1h0c0,11.1,8.733,20.094,19.5,20.094h.07a5.953,5.953,0,0,1,5.862,6.039v.015a6.2,6.2,0,0,1-5.541,6.221,6.206,6.206,0,0,0-1.436.277,15.632,15.632,0,0,0,5.025,30.254H257.9a15.535,15.535,0,0,0,15.416-14.326c.005-.072.011-.145.015-.216a7.371,7.371,0,0,1,7.23-7.053h2.78a12.744,12.744,0,0,0,12.55-12.929h0c0-5.384-4.213-9.838-9.257-11.7a7.912,7.912,0,0,1-5.2-7.421v-.373a8.561,8.561,0,0,1,6.109-8.234A23.08,23.08,0,0,0,303.8,122.18h0C303.8,109.39,293.736,99.021,281.323,99.021Z" transform="translate(1021.2 915.417)" fill="#9ddfd3"/>
    <g id="Group_57662" data-name="Group 57662" transform="translate(809.159 -1359.216)">
      <path id="Path_102313" data-name="Path 102313" d="M453.237,2356.617v-11.091c0-21.371-16.423-39.76-37.771-40.765a39.691,39.691,0,0,0-41.608,39.644v12.212c0,20.546-3.414,32.557-5.137,37.309a3.016,3.016,0,0,0,1.432,3.692c6.084,3.236,22.659,11.515,37.288,13.954h12.212c14.628-2.438,31.2-10.717,37.288-13.954a3.017,3.017,0,0,0,1.432-3.692C456.651,2389.175,453.237,2377.164,453.237,2356.617Z" transform="translate(-45.631 -4.644)" fill="#31326f"/>
      <path id="Path_102314" data-name="Path 102314" d="M373.861,2359.421v12.212c0,20.545-3.414,32.556-5.136,37.309a3.028,3.028,0,0,0,1.448,3.7c5.676,3.016,20.417,10.382,34.218,13.351v-60.466l-6.106-6.106c-10.156-10.156-10.843-22.983-10.172-30.452A39.6,39.6,0,0,0,373.861,2359.421Z" transform="translate(-45.633 -19.66)" fill="#21214a"/>
      <rect id="Rectangle_5257" data-name="Rectangle 5257" width="30.53" height="39.689" transform="translate(352.652 2385.557)" fill="#fed2a4"/>
      <path id="Path_102315" data-name="Path 102315" d="M446.631,2541.381a39.705,39.705,0,0,0,30.53,0v-12.213h-30.53v12.213Z" transform="translate(-93.979 -143.611)" fill="#ffbd86"/>
      <path id="Path_102316" data-name="Path 102316" d="M442,2592.508l-16.254-7.228-21.72,9.159-3.566,5.348a3.053,3.053,0,0,1-5.08,0l-3.566-5.348-21.387-9.159-16.254,7.228a18.318,18.318,0,0,0-10.868,17.245l1.6,57.959H451.259l1.6-57.959A18.318,18.318,0,0,0,442,2592.508Z" transform="translate(-29.999 -178.352)" fill="#ffc93c"/>
      <g id="Group_57656" data-name="Group 57656" transform="translate(313.295 2418.287)">
        <path id="Path_102317" data-name="Path 102317" d="M363.723,2634.276,348.385,2615.1a18.272,18.272,0,0,0-5.084,13.114l1.6,57.959h18.817v-51.9Z" transform="translate(-343.295 -2615.104)" fill="#ffd566"/>
        <path id="Path_102318" data-name="Path 102318" d="M577.365,2634.276,592.7,2615.1a18.272,18.272,0,0,1,5.084,13.114l-1.6,57.959H577.365v-51.9Z" transform="translate(-488.217 -2615.104)" fill="#ffd566"/>
      </g>
      <path id="Path_102319" data-name="Path 102319" d="M451.11,2431.448a27.534,27.534,0,0,0,1.3-7.64c.47-18.326-26.318-13.063-46.954-28.573-1.579,11.32-8.224,15.113-10.738,17.426-1.132,1.042-2.475-3.053-4.013-3.053h-2.2a5.955,5.955,0,0,0-1.026.109,6.457,6.457,0,0,0-4.971,6.445v2.208a6.413,6.413,0,0,0,4.714,6.34,6.057,6.057,0,0,0,1.86.144,2.973,2.973,0,0,1,3.117,2.481,30.475,30.475,0,0,0,58.163,6.138C450.578,2432.935,451.066,2431.579,451.11,2431.448Z" transform="translate(-54.276 -60.688)" fill="#fed2a4"/>
      <path id="Path_102320" data-name="Path 102320" d="M403.874,2440.223v-15.265c-3.053,0-9.159,6.106-9.159,6.106s-3.053-3.053-4.013-3.053h-2.2a5.973,5.973,0,0,0-1.024.109,6.454,6.454,0,0,0-4.974,6.441v2.212a6.412,6.412,0,0,0,4.714,6.339,6.061,6.061,0,0,0,1.861.144,2.974,2.974,0,0,1,3.117,2.482,30.418,30.418,0,0,0,36.052,24.393A30.541,30.541,0,0,1,403.874,2440.223Z" transform="translate(-54.275 -79.09)" fill="#ffbd86"/>
      <g id="Group_57657" data-name="Group 57657" transform="translate(340.44 2400.529)">
        <path id="Path_102321" data-name="Path 102321" d="M420.454,2586.651l-5.887-11.774,6.635-5.668a3.053,3.053,0,0,1,4.461.539l10.274,14.287-6.359,4.769A6.106,6.106,0,0,1,420.454,2586.651Z" transform="translate(-414.567 -2568.478)" fill="#fff082"/>
        <path id="Path_102322" data-name="Path 102322" d="M518.228,2586.651l5.887-11.774-6.635-5.668a3.053,3.053,0,0,0-4.462.539l-10.274,14.287,6.359,4.769A6.106,6.106,0,0,0,518.228,2586.651Z" transform="translate(-469.16 -2568.478)" fill="#fff082"/>
      </g>
      <path id="Path_102323" data-name="Path 102323" d="M451.708,2712.38H383.882a6.106,6.106,0,0,1-6.1-5.767l-2.375-42.742a6.106,6.106,0,0,1,6.1-6.445h72.575a6.106,6.106,0,0,1,6.1,6.445l-2.375,42.742A6.106,6.106,0,0,1,451.708,2712.38Z" transform="translate(-49.878 -223.02)" fill="#f5f5f5"/>
      <circle id="Ellipse_4107" data-name="Ellipse 4107" cx="7.632" cy="7.632" r="7.632" transform="translate(360.285 2455.776)" fill="#f24872"/>
      <path id="Path_102324" data-name="Path 102324" d="M438.136,2486.5H424.2l1.523-55.024a21.107,21.107,0,0,0-12.563-19.933l-16.254-7.228a2.843,2.843,0,0,0-.3-.112l-2.295-1.96a144.6,144.6,0,0,0,20.679-8.028,2.865,2.865,0,0,0,1.282-3.823c-.058-.118-5.809-12.132-5.809-38.421v-12.212a42.546,42.546,0,0,0-85.091,0v12.212c0,26.289-5.751,38.3-5.8,38.412a2.856,2.856,0,0,0,1.277,3.833,144.52,144.52,0,0,0,20.678,8.029l-2.605,2.225-15.909,7.075a21.106,21.106,0,0,0-12.563,19.933l1.523,55.023H297.7a2.856,2.856,0,1,0,0,5.713H438.136a2.856,2.856,0,1,0,0-5.713Zm-18.127-55.181-1.528,55.181h-8.3a8.94,8.94,0,0,0,.6-2.752l2.375-42.742a9,9,0,0,0-2.437-6.657,8.909,8.909,0,0,0-1.254-1.094l8.314-10.393A15.443,15.443,0,0,1,420.009,2431.322Zm-33.057-13.9a3.25,3.25,0,0,1-4.856,1.146l-4.119-3.09,8.764-12.188,5.1,4.355Zm-15.248-3.005c-.01.014-.018.029-.028.043s-.021.026-.03.04l-3.566,5.348a.2.2,0,0,1-.328,0l-3.566-5.348c-.01-.014-.021-.027-.03-.04s-.018-.029-.028-.043l-8.621-11.99v-10.307a33.28,33.28,0,0,0,24.818-.008v10.314Zm-22.611-11.126,8.764,12.188-4.119,3.089a3.249,3.249,0,0,1-4.856-1.146h0l-4.888-9.776Zm18.824-100.365a36.875,36.875,0,0,1,36.833,36.833v12.212c0,20.869,3.455,33.18,5.294,38.254A145.538,145.538,0,0,1,389.1,2397.8l-1.015-.866a2.856,2.856,0,0,0-2.052-.674v-7.1a33.364,33.364,0,0,0,12.4-14.537,30.476,30.476,0,0,0,2.554-11.427c.33-12.883-10.722-16.146-22.424-19.6-9.8-2.894-20.914-6.174-30.025-15.037a2.856,2.856,0,0,0-3.983,4.095c10.124,9.847,22.471,13.492,32.391,16.422,12.527,3.7,18.539,5.837,18.331,13.975a24.708,24.708,0,0,1-2.069,9.266,27.638,27.638,0,0,1-52.473-6.145,5.946,5.946,0,0,0-6.178-4.847,3.211,3.211,0,0,1-.976-.082,3.6,3.6,0,0,1-2.5-3.56v-2.343a3.461,3.461,0,0,1,2.639-3.5,3.239,3.239,0,0,1,3.185,1.223,4.144,4.144,0,0,0,5.7.9,23.43,23.43,0,0,0,6.294-6.649,2.857,2.857,0,1,0-4.826-3.058,17.92,17.92,0,0,1-3.667,4.2,8.987,8.987,0,0,0-7.672-2.238,8.561,8.561,0,0,0-1.652.468v-6.911A36.876,36.876,0,0,1,367.917,2302.929Zm-42.127,87.3c1.375-3.794,3.653-11.636,4.715-24.073a8.317,8.317,0,0,0,1.759.643,8.927,8.927,0,0,0,2.674.223.386.386,0,0,1,.177.179,33.3,33.3,0,0,0,14.68,21.965v7.094a2.855,2.855,0,0,0-2.052.674l-1.014.866A145.576,145.576,0,0,1,325.79,2390.229Zm-.459,26.538,13.773-6.125,4.669,9.338h0a8.96,8.96,0,0,0,13.394,3.162l3.943-2.958L363,2423.02a5.909,5.909,0,0,0,9.834,0l1.891-2.836,3.943,2.958a8.963,8.963,0,0,0,13.394-3.162h0l4.729-9.459,14.045,6.246a15.57,15.57,0,0,1,3.06,1.8l-10.383,12.979H332.654l-10.383-12.979A15.593,15.593,0,0,1,325.33,2416.766Zm-9.173,14.555a15.438,15.438,0,0,1,2.233-8.457l8.195,10.243a8.9,8.9,0,0,0-1.466,1.244,9,9,0,0,0-2.437,6.656l2.375,42.742a8.941,8.941,0,0,0,.6,2.753h-7.968ZM334,2486.5a3.251,3.251,0,0,1-3.245-3.069l-2.375-42.742a3.249,3.249,0,0,1,3.245-3.429H404.2a3.249,3.249,0,0,1,3.245,3.43l-2.375,42.742a3.25,3.25,0,0,1-3.245,3.069H334Z"/>
      <path id="Path_102325" data-name="Path 102325" d="M469.66,2706.038a10.489,10.489,0,1,0,10.489,10.489A10.5,10.5,0,0,0,469.66,2706.038Zm0,15.265a4.776,4.776,0,1,1,4.776-4.776A4.782,4.782,0,0,1,469.66,2721.3Z" transform="translate(-101.743 -253.118)"/>
    </g>
  </g>
</svg>
