<svg xmlns="http://www.w3.org/2000/svg" width="38.974" height="52" viewBox="0 0 38.974 52">
  <g id="t2-ic2" transform="translate(-294.841 -2297.216)">
    <path id="Path_102313" data-name="Path 102313" d="M391.127,2318.556V2315.6a10.781,10.781,0,0,0-10.072-10.871,10.584,10.584,0,0,0-11.1,10.572v3.257a29.814,29.814,0,0,1-1.37,9.949.8.8,0,0,0,.382.984,37.047,37.047,0,0,0,9.943,3.721h3.257a37.039,37.039,0,0,0,9.943-3.721.8.8,0,0,0,.382-.984A29.818,29.818,0,0,1,391.127,2318.556Z" transform="translate(-66.215 -6.738)" fill="#31326f"/>
    <path id="Path_102314" data-name="Path 102314" d="M369.963,2337.09v3.257a29.814,29.814,0,0,1-1.37,9.949.808.808,0,0,0,.386.987,39.221,39.221,0,0,0,9.125,3.56v-16.125l-1.628-1.628a10.028,10.028,0,0,1-2.713-8.121A10.559,10.559,0,0,0,369.963,2337.09Z" transform="translate(-66.219 -28.528)" fill="#21214a"/>
    <rect id="Rectangle_5257" data-name="Rectangle 5257" width="8.141" height="10.584" transform="translate(310.257 2320.773)" fill="#fed2a4"/>
    <path id="Path_102315" data-name="Path 102315" d="M446.631,2532.425a10.586,10.586,0,0,0,8.141,0v-3.257h-8.141v3.257Z" transform="translate(-136.374 -208.394)" fill="#ffbd86"/>
    <path id="Path_102316" data-name="Path 102316" d="M369.614,2587.208l-4.334-1.927-5.792,2.442-.951,1.426a.814.814,0,0,1-1.355,0l-.951-1.426-5.7-2.442-4.334,1.927a4.885,4.885,0,0,0-2.9,4.6l.428,15.456h28.361l.428-15.456A4.885,4.885,0,0,0,369.614,2587.208Z" transform="translate(-43.531 -258.808)" fill="#ffc93c"/>
    <g id="Group_57656" data-name="Group 57656" transform="translate(299.762 2329.501)">
      <path id="Path_102317" data-name="Path 102317" d="M348.742,2620.217l-4.09-5.113a4.873,4.873,0,0,0-1.356,3.5l.428,15.456h5.018v-13.84Z" transform="translate(-343.295 -2615.104)" fill="#ffd566"/>
      <path id="Path_102318" data-name="Path 102318" d="M577.365,2620.217l4.09-5.113a4.873,4.873,0,0,1,1.356,3.5l-.428,15.456h-5.018v-13.84Z" transform="translate(-553.592 -2615.104)" fill="#ffd566"/>
    </g>
    <path id="Path_102319" data-name="Path 102319" d="M400.8,2404.892a7.342,7.342,0,0,0,.346-2.037c.125-4.887-7.018-3.484-12.521-7.619a6.594,6.594,0,0,1-2.864,4.647c-.3.278-.66-.814-1.07-.814H384.1a1.593,1.593,0,0,0-.274.029,1.722,1.722,0,0,0-1.326,1.719v.589a1.71,1.71,0,0,0,1.257,1.69,1.613,1.613,0,0,0,.5.039.793.793,0,0,1,.831.662,8.127,8.127,0,0,0,15.51,1.637C400.657,2405.288,400.787,2404.927,400.8,2404.892Z" transform="translate(-78.76 -88.064)" fill="#fed2a4"/>
    <path id="Path_102320" data-name="Path 102320" d="M388.2,2429.029v-4.071c-.814,0-2.442,1.628-2.442,1.628s-.814-.814-1.07-.814H384.1a1.585,1.585,0,0,0-.273.029,1.721,1.721,0,0,0-1.326,1.718v.59a1.71,1.71,0,0,0,1.257,1.69,1.614,1.614,0,0,0,.5.039.793.793,0,0,1,.831.662,8.111,8.111,0,0,0,9.614,6.5A8.144,8.144,0,0,1,388.2,2429.029Z" transform="translate(-78.759 -114.768)" fill="#ffbd86"/>
    <g id="Group_57657" data-name="Group 57657" transform="translate(307.001 2324.766)">
      <path id="Path_102321" data-name="Path 102321" d="M416.137,2573.324l-1.57-3.14,1.769-1.511a.814.814,0,0,1,1.19.144l2.74,3.81-1.7,1.272A1.628,1.628,0,0,1,416.137,2573.324Z" transform="translate(-414.567 -2568.478)" fill="#fff082"/>
      <path id="Path_102322" data-name="Path 102322" d="M506.872,2573.324l1.57-3.14-1.769-1.511a.814.814,0,0,0-1.19.144l-2.74,3.81,1.7,1.272A1.628,1.628,0,0,0,506.872,2573.324Z" transform="translate(-493.788 -2568.478)" fill="#fff082"/>
    </g>
    <path id="Path_102323" data-name="Path 102323" d="M395.749,2672.08H377.662a1.628,1.628,0,0,1-1.626-1.538l-.633-11.4a1.628,1.628,0,0,1,1.626-1.719h19.353a1.628,1.628,0,0,1,1.626,1.719l-.633,11.4A1.628,1.628,0,0,1,395.749,2672.08Z" transform="translate(-72.378 -323.625)" fill="#f5f5f5"/>
    <circle id="Ellipse_4107" data-name="Ellipse 4107" cx="2.035" cy="2.035" r="2.035" transform="translate(312.293 2339.499)" fill="#f24872"/>
    <path id="Path_102324" data-name="Path 102324" d="M333.053,2347.693h-3.717l.406-14.673a5.628,5.628,0,0,0-3.35-5.315l-4.334-1.927a.763.763,0,0,0-.079-.03l-.612-.523a38.592,38.592,0,0,0,5.514-2.141.764.764,0,0,0,.342-1.02c-.016-.031-1.549-3.235-1.549-10.245v-3.257a11.345,11.345,0,0,0-22.691,0v3.257c0,7.01-1.534,10.214-1.548,10.243a.762.762,0,0,0,.341,1.022,38.556,38.556,0,0,0,5.514,2.141l-.695.594-4.242,1.886a5.628,5.628,0,0,0-3.35,5.316l.406,14.673H295.6a.762.762,0,1,0,0,1.523h37.45a.762.762,0,0,0,0-1.523Zm-4.834-14.715-.407,14.715H325.6a2.383,2.383,0,0,0,.159-.734l.633-11.4a2.4,2.4,0,0,0-.65-1.775,2.372,2.372,0,0,0-.334-.292l2.217-2.771A4.118,4.118,0,0,1,328.219,2332.978Zm-8.815-3.706a.867.867,0,0,1-1.3.306l-1.1-.824,2.337-3.25,1.36,1.161Zm-4.066-.8-.007.011-.008.011-.951,1.426a.053.053,0,0,1-.087,0l-.951-1.426-.008-.011-.007-.011-2.3-3.2v-2.748a8.874,8.874,0,0,0,6.618,0v2.75Zm-6.03-2.967,2.337,3.25-1.1.824a.867.867,0,0,1-1.3-.306h0l-1.3-2.607Zm5.02-26.764a9.833,9.833,0,0,1,9.822,9.822v3.257a30.518,30.518,0,0,0,1.412,10.2,38.8,38.8,0,0,1-5.584,2.019l-.271-.231a.761.761,0,0,0-.547-.18v-1.894a8.9,8.9,0,0,0,3.305-3.876,8.126,8.126,0,0,0,.681-3.047c.088-3.436-2.859-4.306-5.98-5.227-2.614-.772-5.577-1.646-8.007-4.01a.762.762,0,0,0-1.062,1.092c2.7,2.626,5.992,3.6,8.638,4.379,3.341.986,4.944,1.557,4.888,3.727a6.589,6.589,0,0,1-.552,2.471,7.37,7.37,0,0,1-13.993-1.639,1.586,1.586,0,0,0-1.648-1.292.854.854,0,0,1-.26-.022.96.96,0,0,1-.666-.949v-.625a.923.923,0,0,1,.7-.935.864.864,0,0,1,.849.326,1.1,1.1,0,0,0,1.519.24,6.25,6.25,0,0,0,1.679-1.773.762.762,0,1,0-1.287-.815,4.775,4.775,0,0,1-.978,1.119,2.4,2.4,0,0,0-2.046-.6,2.283,2.283,0,0,0-.44.125v-1.843A9.834,9.834,0,0,1,314.328,2298.74Zm-11.234,23.28a25.48,25.48,0,0,0,1.257-6.419,2.211,2.211,0,0,0,.469.171,2.383,2.383,0,0,0,.713.06.1.1,0,0,1,.047.048,8.88,8.88,0,0,0,3.915,5.857v1.892a.761.761,0,0,0-.547.18l-.27.231A38.789,38.789,0,0,1,303.094,2322.019Zm-.122,7.077,3.673-1.633,1.245,2.49h0a2.389,2.389,0,0,0,3.572.843l1.052-.789.5.756a1.576,1.576,0,0,0,2.622,0l.5-.756,1.052.789a2.39,2.39,0,0,0,3.572-.843h0l1.261-2.522,3.745,1.666a4.141,4.141,0,0,1,.816.481l-2.769,3.461h-18.9l-2.769-3.461A4.16,4.16,0,0,1,302.971,2329.1Zm-2.446,3.881a4.117,4.117,0,0,1,.6-2.255l2.185,2.731a2.381,2.381,0,0,0-1.041,2.107l.633,11.4a2.383,2.383,0,0,0,.159.734h-2.125Zm4.759,14.715a.867.867,0,0,1-.865-.819l-.633-11.4a.866.866,0,0,1,.865-.915H324a.866.866,0,0,1,.865.915l-.633,11.4a.867.867,0,0,1-.865.818Z"/>
    <path id="Path_102325" data-name="Path 102325" d="M461.968,2706.038a2.8,2.8,0,1,0,2.8,2.8A2.8,2.8,0,0,0,461.968,2706.038Zm0,4.071a1.274,1.274,0,1,1,1.274-1.274A1.275,1.275,0,0,1,461.968,2710.109Z" transform="translate(-147.64 -367.301)"/>
  </g>
</svg>
