<svg xmlns="http://www.w3.org/2000/svg" width="40.751" height="52" viewBox="0 0 40.751 52">
  <g id="t2-ic3" transform="translate(-1378.638 -2263.769)">
    <path id="Path_102326" data-name="Path 102326" d="M1531.094,2695.865v-5.354h-9.987v5.354l-.846,2.542h11.678Z" transform="translate(-127.24 -383.401)" fill="#f1f4f6"/>
    <path id="Path_102327" data-name="Path 102327" d="M1523.3,2698.216a5.354,5.354,0,0,1,5.354-5.354h2.44v-2.351h-9.987v5.354l-.846,2.542h2.974Z" transform="translate(-127.239 -383.401)" fill="#dfeaef"/>
    <path id="Path_102328" data-name="Path 102328" d="M1390.131,2360.2h-2.505a1.473,1.473,0,0,1-1.473-1.473v-1.321a1.473,1.473,0,0,1,1.473-1.473h2.505Z" transform="translate(-6.752 -82.807)" fill="#ffd566"/>
    <path id="Path_102329" data-name="Path 102329" d="M1738.5,2357.823l-2.7-1.885h-.725v4.267h.725l2.7-1.885A.3.3,0,0,0,1738.5,2357.823Z" transform="translate(-320.232 -82.808)" fill="#ffd566"/>
    <path id="Path_102330" data-name="Path 102330" d="M1453.585,2355.938h-32.269v4.267h32.269Z" transform="translate(-38.344 -82.808)" fill="#cc3d60"/>
    <path id="Path_102331" data-name="Path 102331" d="M1392.355,2431.94h-4.522a1.679,1.679,0,0,0-1.679,1.679v20.963h39.123v-20.963a1.679,1.679,0,0,0-1.679-1.679h-31.242Z" transform="translate(-6.753 -151.091)" fill="#f1f4f6"/>
    <path id="Path_102332" data-name="Path 102332" d="M1430.4,2450.138h24.322a3.238,3.238,0,0,0,3.235-3.235V2431.94H1427.17V2446.9a3.238,3.238,0,0,0,3.235,3.235Z" transform="translate(-43.603 -151.091)" fill="#c5e1ff"/>
    <path id="Path_102333" data-name="Path 102333" d="M1441.581,2456.99h3.4a.261.261,0,0,1,.261.261v16.015a.261.261,0,0,1-.261.261h-33.513a.261.261,0,0,1-.261-.261v-16.015a.261.261,0,0,1,.261-.261h30.117Z" transform="translate(-29.259 -173.597)" fill="#87bfb5"/>
    <path id="Path_102334" data-name="Path 102334" d="M1455.926,2456.99H1427.17v12.42a3.238,3.238,0,0,0,3.235,3.235h24.322a3.238,3.238,0,0,0,3.235-3.235v-12.42Z" transform="translate(-43.603 -173.597)" fill="#9ddfd3"/>
    <path id="Path_102335" data-name="Path 102335" d="M1472.731,2303.764h-24.322a1.2,1.2,0,0,1-1.2-1.2v-30.081a1.2,1.2,0,0,1,1.2-1.2h24.322a1.2,1.2,0,0,1,1.2,1.2v30.081A1.2,1.2,0,0,1,1472.731,2303.764Z" transform="translate(-61.608 -6.752)" fill="#e5eef8"/>
    <path id="Path_102336" data-name="Path 102336" d="M1473.93,2301.805a22.816,22.816,0,0,1-22.816-22.816v-7.705h-2.7a1.2,1.2,0,0,0-1.2,1.2v30.081a1.2,1.2,0,0,0,1.2,1.2h24.322a1.2,1.2,0,0,0,1.2-1.2Z" transform="translate(-61.608 -6.752)" fill="#d5e2f3"/>
    <path id="Path_102337" data-name="Path 102337" d="M1472.731,2271.284h-24.322a1.2,1.2,0,0,0-1.2,1.2v3.242h26.72v-3.242a1.2,1.2,0,0,0-1.2-1.2Z" transform="translate(-61.608 -6.752)" fill="#9ddfd3"/>
    <path id="Path_102338" data-name="Path 102338" d="M1451.114,2271.284h-2.7a1.2,1.2,0,0,0-1.2,1.2v3.242h3.9Z" transform="translate(-61.608 -6.752)" fill="#87bfb5"/>
    <circle id="Ellipse_4108" data-name="Ellipse 4108" cx="0.689" cy="0.689" r="0.689" transform="translate(1387.66 2265.96)" fill="#f93442"/>
    <circle id="Ellipse_4109" data-name="Ellipse 4109" cx="0.689" cy="0.689" r="0.689" transform="translate(1390.514 2265.96)" fill="#fcb64d"/>
    <circle id="Ellipse_4110" data-name="Ellipse 4110" cx="0.689" cy="0.689" r="0.689" transform="translate(1393.369 2265.96)" fill="#05f2a7"/>
    <path id="Path_102339" data-name="Path 102339" d="M1496.338,2356.066h-19.216a.8.8,0,0,1-.795-.795v-4.922a.8.8,0,0,1,.795-.795h19.216a.8.8,0,0,1,.795.795v4.922A.8.8,0,0,1,1496.338,2356.066Z" transform="translate(-87.768 -77.072)" fill="#9ddfd3"/>
    <path id="Path_102340" data-name="Path 102340" d="M1477.122,2356.066h1.17a22.791,22.791,0,0,1-1.014-6.512h-.156a.8.8,0,0,0-.795.795v4.922a.8.8,0,0,0,.795.795Z" transform="translate(-87.768 -77.072)" fill="#87bfb5"/>
    <path id="Path_102341" data-name="Path 102341" d="M1481.265,2444h-4.377a.561.561,0,0,1-.561-.561v-2.1a.561.561,0,0,1,.561-.561h4.377a.561.561,0,0,1,.561.561v2.1A.561.561,0,0,1,1481.265,2444Z" transform="translate(-87.768 -159.032)" fill="#cc3d60"/>
    <path id="Path_102342" data-name="Path 102342" d="M1476.888,2444h4.264a22.8,22.8,0,0,1-1.806-3.218h-2.458a.561.561,0,0,0-.561.561v2.1a.561.561,0,0,0,.561.561Z" transform="translate(-87.768 -159.032)" fill="#f24872"/>
    <path id="Path_102343" data-name="Path 102343" d="M1573.916,2444h-10.942a.561.561,0,0,1-.561-.561v-2.1a.561.561,0,0,1,.561-.561h10.942a.561.561,0,0,1,.561.561v2.1A.561.561,0,0,1,1573.916,2444Z" transform="translate(-165.111 -159.032)" fill="#ffd566"/>
    <path id="Path_102344" data-name="Path 102344" d="M1424.114,2649.906h-36.8a1.162,1.162,0,0,1-1.162-1.162v-3.881h39.123v3.881a1.163,1.163,0,0,1-1.162,1.162Z" transform="translate(-6.753 -342.389)" fill="#f1f4f6"/>
    <path id="Path_102345" data-name="Path 102345" d="M1416.844,2280.086h-3.758v-1.925h2.477a.762.762,0,0,0,.436-.137l3.063-2.134a.763.763,0,0,0,0-1.252L1416,2272.5a.763.763,0,0,0-.436-.137h-2.477v-6.635a1.965,1.965,0,0,0-1.963-1.963H1386.8a1.965,1.965,0,0,0-1.963,1.963v6.635h-3.964a2.239,2.239,0,0,0-2.237,2.237v1.321a2.239,2.239,0,0,0,2.237,2.237h3.964v1.925h-3.758a2.446,2.446,0,0,0-2.443,2.443v23.827a1.928,1.928,0,0,0,1.926,1.925H1393.1v4.06l-.633,1.9h-1.5a.763.763,0,1,0,0,1.527h15.968a.763.763,0,1,0,0-1.527h-1.687l-.633-1.9v-4.06h12.744a1.928,1.928,0,0,0,1.926-1.926v-23.826a2.445,2.445,0,0,0-2.443-2.443Zm-30.042,17.69h24.322a1.965,1.965,0,0,0,1.963-1.963v-2.291a.763.763,0,0,0-1.526,0v2.291a.437.437,0,0,1-.436.436H1386.8a.437.437,0,0,1-.436-.436v-26.076h25.194v20.732a.763.763,0,0,0,1.526,0v-6.313h2.13v15.01h-32.508v-15.01h2.13v11.656A1.965,1.965,0,0,0,1386.8,2297.775Zm30.489-22.512-1.689,1.177v-2.354Zm-3.215-1.37v2.741h-.989v-2.741Zm-27.273-8.6h24.322a.437.437,0,0,1,.436.436v2.479h-25.194v-2.479a.437.437,0,0,1,.436-.436Zm-6.637,10.628V2274.6a.711.711,0,0,1,.71-.71h1.335v2.741h-1.335A.711.711,0,0,1,1380.164,2275.924Zm3.571.71v-2.741h1.1v2.741Zm-3.571,5.895a.917.917,0,0,1,.916-.916h3.758v1.018h-2.894a.763.763,0,0,0-.763.763v16.537a.763.763,0,0,0,.763.763h34.034a.763.763,0,0,0,.763-.763v-16.537a.763.763,0,0,0-.763-.763h-2.894v-1.018h3.758a.917.917,0,0,1,.916.916v19.182h-37.6Zm22.965,30.177.512,1.537h-9.561l.338-1.015h2.3a.763.763,0,0,0,0-1.527h-2.09v-3.42h8.46v4.184A.766.766,0,0,0,1403.13,2312.705Zm14.631-6.35a.4.4,0,0,1-.4.4h-36.8a.4.4,0,0,1-.4-.4v-3.118h37.6Z"/>
    <circle id="Ellipse_4111" data-name="Ellipse 4111" cx="0.689" cy="0.689" r="0.689" transform="translate(1387.66 2265.96)"/>
    <circle id="Ellipse_4112" data-name="Ellipse 4112" cx="0.689" cy="0.689" r="0.689" transform="translate(1390.514 2265.96)"/>
    <circle id="Ellipse_4113" data-name="Ellipse 4113" cx="0.689" cy="0.689" r="0.689" transform="translate(1393.369 2265.96)"/>
    <path id="Path_102346" data-name="Path 102346" d="M1489.586,2342.038H1470.37a1.56,1.56,0,0,0-1.558,1.558v4.922a1.56,1.56,0,0,0,1.558,1.558h1.748a.763.763,0,0,0,0-1.527h-1.748a.031.031,0,0,1-.031-.031V2343.6a.031.031,0,0,1,.031-.031h19.216a.031.031,0,0,1,.031.031v4.922a.031.031,0,0,1-.031.031h-14.416a.763.763,0,1,0,0,1.527h14.415a1.56,1.56,0,0,0,1.558-1.558V2343.6A1.56,1.56,0,0,0,1489.586,2342.038Z" transform="translate(-81.016 -70.32)"/>
    <path id="Path_102347" data-name="Path 102347" d="M1475.836,2436.684v-2.1a1.325,1.325,0,0,0-1.324-1.324h-4.378a1.325,1.325,0,0,0-1.324,1.324v2.1a1.325,1.325,0,0,0,1.324,1.324h4.378A1.325,1.325,0,0,0,1475.836,2436.684Zm-1.526-.2h-3.972v-1.692h3.972Z" transform="translate(-81.015 -152.28)"/>
    <path id="Path_102348" data-name="Path 102348" d="M1567.164,2433.263h-10.942a1.325,1.325,0,0,0-1.324,1.324v2.1a1.325,1.325,0,0,0,1.324,1.324h10.942a1.325,1.325,0,0,0,1.324-1.324v-2.1A1.325,1.325,0,0,0,1567.164,2433.263Zm-.2,3.219h-10.536v-1.692h10.536Z" transform="translate(-158.36 -152.28)"/>
    <path id="Path_102349" data-name="Path 102349" d="M1573.3,2735.714h-1.078a.763.763,0,1,0,0,1.527h1.078a.763.763,0,0,0,0-1.527Z" transform="translate(-173.234 -424.013)"/>
    <circle id="Ellipse_4114" data-name="Ellipse 4114" cx="1.039" cy="1.039" r="1.039" transform="translate(1397.669 2305.854) rotate(-80.783)"/>
    <path id="Path_102350" data-name="Path 102350" d="M1488.069,2497.876h1.58a.763.763,0,1,0,0-1.527h-1.58a.763.763,0,0,0,0,1.527Z" transform="translate(-97.631 -208.959)"/>
    <path id="Path_102351" data-name="Path 102351" d="M1542.366,2496.349h-12.8a.763.763,0,1,0,0,1.527h12.8a.763.763,0,1,0,0-1.527Z" transform="translate(-134.913 -208.959)"/>
    <path id="Path_102352" data-name="Path 102352" d="M1641.629,2526.045h-1.58a.763.763,0,1,0,0,1.526h1.58a.763.763,0,0,0,0-1.526Z" transform="translate(-234.175 -235.638)"/>
    <path id="Path_102353" data-name="Path 102353" d="M1488.069,2527.571h12.8a.763.763,0,0,0,0-1.526h-12.8a.763.763,0,0,0,0,1.526Z" transform="translate(-97.631 -235.638)"/>
    <path id="Path_102354" data-name="Path 102354" d="M1489.65,2555.741h-1.58a.763.763,0,0,0,0,1.527h1.58a.763.763,0,1,0,0-1.527Z" transform="translate(-97.631 -262.319)"/>
    <path id="Path_102355" data-name="Path 102355" d="M1542.366,2555.741h-12.8a.763.763,0,1,0,0,1.527h12.8a.763.763,0,1,0,0-1.527Z" transform="translate(-134.913 -262.319)"/>
  </g>
</svg>
