<svg xmlns="http://www.w3.org/2000/svg" width="400" height="262.279" viewBox="0 0 400 262.279">
  <g id="t2-ic1" transform="translate(-180 -397)">
    <rect id="Rectangle_5646" data-name="Rectangle 5646" width="400" height="262" transform="translate(180 397)" fill="none"/>
    <g id="Group_57772" data-name="Group 57772" transform="translate(5120.138 -1164.122)">
      <g id="Group_57692" data-name="Group 57692" transform="translate(-4711.227 1561.122)">
        <path id="Path_102372" data-name="Path 102372" d="M-4454.992,1575.851c-.216,0-.435-.009-.653-.028a7.326,7.326,0,0,1-5-2.6,7.336,7.336,0,0,1-1.7-5.376,7.318,7.318,0,0,1,2.6-5,7.329,7.329,0,0,1,5.376-1.7,7.324,7.324,0,0,1,5,2.6,7.338,7.338,0,0,1,1.7,5.376,7.321,7.321,0,0,1-2.6,5A7.309,7.309,0,0,1-4454.992,1575.851Zm-.025-13.829a6.419,6.419,0,0,0-4.146,1.513,6.415,6.415,0,0,0-2.28,4.389,6.419,6.419,0,0,0,1.488,4.718,6.42,6.42,0,0,0,4.391,2.283,6.362,6.362,0,0,0,4.716-1.489,6.419,6.419,0,0,0,2.281-4.389,6.423,6.423,0,0,0-1.489-4.718,6.417,6.417,0,0,0-4.391-2.283C-4454.638,1562.029-4454.83,1562.022-4455.017,1562.022Z" transform="translate(4462.372 -1561.122)" fill="#ffc93c"/>
      </g>
      <g id="Group_57693" data-name="Group 57693" transform="translate(-4690.353 1569.52)">
        <path id="Path_102373" data-name="Path 102373" d="M-4349.121,1630.206a.447.447,0,0,1-.4-.238c-.006-.012-.785-1.448-2.3-3.8a.45.45,0,0,1,.134-.623.448.448,0,0,1,.623.135c1.542,2.38,2.311,3.8,2.343,3.859a.451.451,0,0,1-.185.61A.433.433,0,0,1-4349.121,1630.206Zm-5.263-8.112a.448.448,0,0,1-.366-.187c-.982-1.36-2.03-2.749-3.121-4.125a.449.449,0,0,1,.075-.632.449.449,0,0,1,.632.075c1.1,1.385,2.158,2.783,3.146,4.156a.451.451,0,0,1-.1.629A.453.453,0,0,1-4354.384,1622.094Zm-6.445-8.144a.455.455,0,0,1-.342-.156c-1.131-1.3-2.3-2.6-3.468-3.834a.454.454,0,0,1,.018-.638.456.456,0,0,1,.639.019c1.175,1.251,2.351,2.549,3.493,3.865a.448.448,0,0,1-.046.635A.45.45,0,0,1-4360.829,1613.95Zm-7.125-7.54a.456.456,0,0,1-.313-.128c-1.232-1.193-2.507-2.377-3.794-3.515a.45.45,0,0,1-.04-.636.448.448,0,0,1,.635-.039c1.3,1.147,2.586,2.341,3.824,3.543a.451.451,0,0,1,.01.638A.446.446,0,0,1-4367.954,1606.409Zm-7.775-6.877a.442.442,0,0,1-.281-.1c-1.346-1.082-2.725-2.138-4.1-3.14a.455.455,0,0,1-.1-.63.455.455,0,0,1,.631-.1c1.388,1.01,2.78,2.077,4.134,3.168a.449.449,0,0,1,.068.633A.446.446,0,0,1-4375.729,1599.533Zm-8.387-6.1a.444.444,0,0,1-.247-.074c-1.427-.932-2.906-1.842-4.395-2.708a.451.451,0,0,1-.166-.616.449.449,0,0,1,.616-.163c1.5.872,3,1.792,4.438,2.734a.454.454,0,0,1,.131.624A.454.454,0,0,1-4384.116,1593.431Zm-8.973-5.2a.442.442,0,0,1-.2-.049c-1.535-.783-3.105-1.529-4.66-2.216a.452.452,0,0,1-.231-.594.457.457,0,0,1,.595-.231c1.572.694,3.156,1.446,4.7,2.238a.449.449,0,0,1,.2.607A.447.447,0,0,1-4393.088,1588.228Zm-9.479-4.186a.486.486,0,0,1-.16-.028c-1.608-.6-3.249-1.165-4.879-1.67a.451.451,0,0,1-.3-.563.446.446,0,0,1,.565-.3c1.643.51,3.3,1.078,4.93,1.686a.45.45,0,0,1,.261.58A.45.45,0,0,1-4402.568,1584.042Zm-9.9-3.068c-1.786-.425-3.48-.79-5.144-1.1a.453.453,0,0,1-.363-.524.435.435,0,0,1,.525-.361c1.683.309,3.4.678,5.087,1.094a.449.449,0,0,1,.332.546A.449.449,0,0,1-4412.47,1580.974Z" transform="translate(4417.984 -1578.979)" fill="#ffc93c"/>
      </g>
      <g id="Group_57694" data-name="Group 57694" transform="translate(-4791.253 1568.562)">
        <path id="Path_102374" data-name="Path 102374" d="M-4632.1,1642.609a.46.46,0,0,1-.447-.5,46.894,46.894,0,0,1,1.04-5.169.443.443,0,0,1,.547-.329.453.453,0,0,1,.328.547,47.586,47.586,0,0,0-1.021,5.057A.449.449,0,0,1-4632.1,1642.609Zm2.471-10.107c-.377-.1-.505-.353-.429-.591.536-1.645,1.135-3.3,1.779-4.907a.453.453,0,0,1,.586-.254.45.45,0,0,1,.251.585c-.637,1.6-1.23,3.231-1.76,4.857A.454.454,0,0,1-4629.626,1632.5Zm3.849-9.638a.433.433,0,0,1-.195-.044.449.449,0,0,1-.212-.6c.736-1.548,1.542-3.108,2.391-4.638a.459.459,0,0,1,.613-.175.452.452,0,0,1,.176.613c-.842,1.514-1.637,3.056-2.367,4.588A.449.449,0,0,1-4625.777,1622.864Zm5.054-9.063a.449.449,0,0,1-.247-.072.45.45,0,0,1-.132-.622c.944-1.46,1.946-2.9,2.979-4.285a.443.443,0,0,1,.63-.091.447.447,0,0,1,.092.628c-1.02,1.367-2.011,2.793-2.944,4.235A.452.452,0,0,1-4620.724,1613.8Zm6.2-8.3a.444.444,0,0,1-.294-.109.451.451,0,0,1-.048-.635c1.129-1.312,2.32-2.6,3.536-3.835a.45.45,0,0,1,.636,0,.448.448,0,0,1,0,.636c-1.2,1.218-2.378,2.494-3.492,3.79A.449.449,0,0,1-4614.519,1605.5Zm7.281-7.369a.447.447,0,0,1-.338-.153.449.449,0,0,1,.041-.635c1.3-1.145,2.656-2.258,4.03-3.307a.449.449,0,0,1,.631.085.452.452,0,0,1-.084.632c-1.356,1.037-2.7,2.136-3.983,3.267A.44.44,0,0,1-4607.238,1598.127Zm8.229-6.286a.445.445,0,0,1-.375-.2.448.448,0,0,1,.126-.624c1.432-.946,2.927-1.862,4.444-2.724a.45.45,0,0,1,.613.169.448.448,0,0,1-.168.613c-1.5.854-2.977,1.759-4.392,2.694A.448.448,0,0,1-4599.009,1591.841Zm9-5.118a.451.451,0,0,1-.4-.253.45.45,0,0,1,.208-.6c1.543-.749,3.142-1.465,4.753-2.128a.447.447,0,0,1,.587.244.449.449,0,0,1-.244.588c-1.593.658-3.175,1.367-4.7,2.106A.442.442,0,0,1-4590.01,1586.723Zm9.573-3.943a.449.449,0,0,1-.425-.3.448.448,0,0,1,.278-.572c1.612-.555,3.284-1.079,4.967-1.555a.452.452,0,0,1,.555.311.447.447,0,0,1-.311.555c-1.667.473-3.323.99-4.918,1.539A.451.451,0,0,1-4580.437,1582.78Zm9.961-2.824a.45.45,0,0,1-.439-.351.451.451,0,0,1,.339-.539c1.672-.381,3.387-.728,5.1-1.029a.452.452,0,0,1,.522.365.452.452,0,0,1-.366.522c-1.7.3-3.4.643-5.057,1.02A.457.457,0,0,1-4570.476,1579.956Zm10.2-1.806a.451.451,0,0,1-.448-.392.451.451,0,0,1,.389-.506l.3-.036q1.175-.15,2.346-.272a.463.463,0,0,1,.5.4.454.454,0,0,1-.4.5q-1.159.119-2.332.269l-.288.036C-4560.235,1578.147-4560.254,1578.149-4560.272,1578.149Z" transform="translate(4632.547 -1576.943)" fill="#ffc93c"/>
      </g>
      <rect id="Rectangle_5643" data-name="Rectangle 5643" width="97.283" height="77.684" rx="22.6" transform="translate(-4659.364 1589.445)" fill="#9ddfd3"/>
      <path id="Path_102375" data-name="Path 102375" d="M-4324.105,1762.39h80.723a8.3,8.3,0,0,0,8.28-8.28v-15.555l-14.9-7.613a20.11,20.11,0,0,0-13.614-1l-11.168,3.788a18.326,18.326,0,0,1-13.389-1.411l-11.971-7.131s-11.93-8.556-21.2,1.016c-6.6,6.811-11.046,11.3-11.046,11.3v16.609A8.3,8.3,0,0,0-4324.105,1762.39Z" transform="translate(-317.713 -85.048)" fill="#81c140"/>
      <path id="Path_102376" data-name="Path 102376" d="M-4184.084,1688.724a8.566,8.566,0,0,1-8.566-8.563,8.566,8.566,0,0,1,8.566-8.562,8.562,8.562,0,0,1,8.559,8.562A8.562,8.562,0,0,1-4184.084,1688.724Z" transform="translate(-391.737 -58.524)" fill="#ffc93c"/>
      <g id="Group_57695" data-name="Group 57695" transform="translate(-4650.444 1599.313)">
        <path id="Path_102377" data-name="Path 102377" d="M-4251.769,1720.93h-72.726a8.634,8.634,0,0,1-8.625-8.626v-61.345a8.634,8.634,0,0,1,8.625-8.624h80.724a8.633,8.633,0,0,1,8.623,8.624V1712.3a8.6,8.6,0,0,1-1.129,4.256.348.348,0,0,1-.47.128.346.346,0,0,1-.128-.473,7.894,7.894,0,0,0,1.039-3.911v-61.345a7.944,7.944,0,0,0-7.934-7.935h-80.724a7.945,7.945,0,0,0-7.936,7.935V1712.3a7.945,7.945,0,0,0,7.936,7.937h72.726a.344.344,0,0,1,.345.344A.344.344,0,0,1-4251.769,1720.93Z" transform="translate(4333.119 -1642.335)"/>
      </g>
      <g id="Group_57698" data-name="Group 57698" transform="translate(-4650.444 1612.731)">
        <g id="Group_57696" data-name="Group 57696" transform="translate(0 23.568)">
          <path id="Path_102378" data-name="Path 102378" d="M-4235.492,1738.537a.349.349,0,0,1-.157-.037l-14.9-7.611a19.629,19.629,0,0,0-13.346-.983l-11.168,3.788a18.654,18.654,0,0,1-13.677-1.441l-11.971-7.131c-.14-.1-11.822-8.28-20.773.959-6.521,6.735-11,11.257-11.048,11.3a.34.34,0,0,1-.488,0,.343.343,0,0,1,0-.486c.044-.046,4.522-4.563,11.042-11.3,9.369-9.678,21.523-1.143,21.646-1.055l11.948,7.115a17.9,17.9,0,0,0,13.1,1.381l11.167-3.788a20.412,20.412,0,0,1,13.881,1.02l14.9,7.611a.344.344,0,0,1,.15.463A.341.341,0,0,1-4235.492,1738.537Z" transform="translate(4333.12 -1720.986)"/>
        </g>
        <g id="Group_57697" data-name="Group 57697" transform="translate(60.323)">
          <path id="Path_102379" data-name="Path 102379" d="M-4195.933,1688.681a8.919,8.919,0,0,1-8.911-8.908,8.918,8.918,0,0,1,8.911-8.906,8.915,8.915,0,0,1,8.9,8.906A8.915,8.915,0,0,1-4195.933,1688.681Zm0-17.124a8.227,8.227,0,0,0-8.221,8.216,8.229,8.229,0,0,0,8.221,8.219,8.227,8.227,0,0,0,8.214-8.219A8.225,8.225,0,0,0-4195.933,1671.557Z" transform="translate(4204.844 -1670.868)"/>
        </g>
      </g>
      <path id="Rectangle_5644" data-name="Rectangle 5644" d="M23.734,0H160.019a23.734,23.734,0,0,1,23.734,23.734v73.8a23.733,23.733,0,0,1-23.733,23.733H23.733A23.733,23.733,0,0,1,0,97.533v-73.8A23.734,23.734,0,0,1,23.734,0Z" transform="translate(-4901.393 1595.53)" fill="#fff"/>
      <g id="Group_57699" data-name="Group 57699" transform="translate(-4725.862 1716.218)">
        <path id="Path_102380" data-name="Path 102380" d="M-4374.721,1895.634c-2.464-1.543-8.187-3.746-11.606-3.746H-4458.6c-6.487,0-12.227,3.474-14.191,8.587l-19.039,49.59a10.361,10.361,0,0,0,1.181,9.717l7.11,5.209s4.776,3,7.713,3h16.448l71.666-43.469Z" transform="translate(4492.989 -1891.438)" fill="#fff"/>
        <path id="Path_102381" data-name="Path 102381" d="M-4459.884,1967.939h-16.447c-3.033,0-7.754-2.946-7.953-3.071l-7.136-5.229a10.758,10.758,0,0,1-1.338-10.243l19.038-49.591c2.042-5.307,7.916-8.872,14.614-8.872h72.271c3.515,0,9.364,2.258,11.844,3.812a.447.447,0,0,1,.172.566l-12.991,28.894a.439.439,0,0,1-.175.2l-71.664,43.468A.456.456,0,0,1-4459.884,1967.939Zm-30.941-8.979,7.046,5.163c.021.01,4.674,2.915,7.448,2.915h16.322l71.437-43.33,12.769-28.4c-2.548-1.482-7.821-3.471-11.031-3.471h-72.271c-6.33,0-11.865,3.334-13.773,8.3l-19.038,49.591A9.878,9.878,0,0,0-4490.825,1958.96Z" transform="translate(4493.495 -1890.932)"/>
      </g>
      <path id="Path_102382" data-name="Path 102382" d="M-4677.39,1898.075s-9.923,2.76-19.931,21.647-12.4,30.234-13.935,38.747.17,20.011,2.562,23.7h46.235a6.356,6.356,0,0,1,4.563-2.622c3.16-.352,56.393,0,56.393,0s-.8-9.231,3.463-12.134l-6.751-5-6.573.13s-1.057-16.513-2.065-26.357a59.081,59.081,0,0,0-9.856-26.856c-5.324-8-13.78-14.7-24.323-15.237S-4677.39,1898.075-4677.39,1898.075Z" transform="translate(-116.7 -176.365)" fill="#f24872"/>
      <path id="Path_102383" data-name="Path 102383" d="M-4597.083,1854.379l.157-7.7s4.435.384,6.076-2.885,1.654-9.629,1.595-13.621-.544-11.093-.544-11.093-.494,2.49-5.045,2.52-10.359-.287-12.465,2.446l-1.3,3.882s-5.134-1.751-6.814,3.559,4.5,6.256,6.546,5.242c0,0,4.774,4.642,5.519,9.2s-.5,11.115-2.823,12.546c0,0,4.307,6.326,6.7,6.113S-4597.083,1854.379-4597.083,1854.379Z" transform="translate(-167.626 -136.65)" fill="#fed2a4"/>
      <path id="Path_102384" data-name="Path 102384" d="M-4442.74,2062.182a8.179,8.179,0,0,0-1.876-5.536,36.789,36.789,0,0,0-4.963-4.685h-18.107s-5.913-1.016-6.174-1.912c0,0-4.275,2.5-3.464,12.133h17.94s.544-1.931-2.059-2.7-5.961-1.755-5.961-1.755a3.522,3.522,0,0,1,2.162-.722,10.267,10.267,0,0,1,5.6,1.665,10.468,10.468,0,0,1,2.647,3.511Z" transform="translate(-240.879 -259.004)" fill="#fed2a4"/>
      <path id="Path_102385" data-name="Path 102385" d="M-4571.5,2042.821s-2.669-7.291-9.022-7.228l5.688,6.669s-4.706.316-5.866-.378l-5.6-5.6a56.5,56.5,0,0,0-6.712,2.78c-2.437,1.319-4.861,1.692-10.752,1.206,0,0-4.1,2.715-4.866,7.134s.729,9.74.729,9.74a4.382,4.382,0,0,1,3.967-2.434c2.9,0,24.356-.483,24.356-.483a6.956,6.956,0,0,0,4.723-2.359s3.057-.656,3.863-2.034a5.339,5.339,0,0,0,.833-2.25,2.3,2.3,0,0,0,1.094-2.125C-4569.312,2044.184-4571.5,2042.821-4571.5,2042.821Z" transform="translate(-171.26 -251.346)" fill="#fed2a4"/>
      <path id="Path_102386" data-name="Path 102386" d="M-4823.377,1894.757s9.516-20.767,12.025-26.974,8.521-20.832,10.935-30.2,4.867-17.789,3.5-24.738-9.113-6.5-11.7-5.245-8.45,7.168-8.45,7.168.963-13.143,1.506-22.96.439-20.937-2.881-28.867-9.919-8.192-13.407-5.243-8.612,10.725-9.85,29.5,0,42.07.732,50.447,2.379,23.476,2.379,23.476-3.341-11.046-7.943-17.513-7.915-7.055-11.041-5.865-3.456,8.635-.907,16.143a340.879,340.879,0,0,0,14.627,33.528c3.543,6.513,3.944,7.22,3.944,7.22S-4829.827,1895.677-4823.377,1894.757Z" transform="translate(-38.119 -103.219)" fill="#81c140"/>
      <path id="Path_102387" data-name="Path 102387" d="M-4610.007,1810.327s2.891-2.12,1.379-7.208-6.4-5.827-12.807-6.51-15.079.246-19.11,4.022a12.7,12.7,0,0,0-4.2,8.012s2.509,12.575,3.116,16.865,1.771,8.394-1.77,9.718-10.05,1.741-10.822,7.687,1.05,6.849,1.05,6.849l6.2-3.415s9.3,4.578,15.889,2.549,7.667-8,7.614-11.249a17.16,17.16,0,0,0-3.574-10.224c-2.341-2.707-2.6-2.554-2.6-2.554s-4.3,1.565-6.118-3.33,4.16-6.453,6.577-5.361l1.391-4.476a7.493,7.493,0,0,1,5.351-2.059c3.585-.057,6.545.114,8.366-.4s3.738-1.426,4.06-2.819Z" transform="translate(-147.124 -124.638)" fill="#ffd566"/>
      <path id="Path_102388" data-name="Path 102388" d="M-4575.7,1876.93l-.4,7.693,4.881.933a6.369,6.369,0,0,0,1.617-4.073c-.032-2.348-2.081-5.311-2.081-5.311S-4574.938,1877.327-4575.7,1876.93Z" transform="translate(-188.605 -166.895)" fill="#ffd566"/>
      <path id="Path_102389" data-name="Path 102389" d="M-4877.691,1652.744h183.79v-20.749s-1.431-9.41-10.206-9.41h-162.771s-9.466.031-10.722,9.41Z" transform="translate(-28.843 -32.559)" fill="#31326f"/>
      <path id="Path_102390" data-name="Path 102390" d="M-4413.815,1970.513h-42.275c-10.074,0-17.24-8.1-14.191-16.039l19.039-49.589c1.964-5.113,7.7-8.587,14.191-8.587h72.273c10.074,0,17.239,8.1,14.191,16.039l-19.039,49.59c-1.964,5.113-7.7,8.586-14.192,8.586h-30Z" transform="translate(-244.288 -177.556)" fill="#31326f"/>
      <path id="Path_102391" data-name="Path 102391" d="M-4527.661,2067.59l-1.784-4.836s-1.439,2.774-2.971,2.86Z" transform="translate(-211.749 -265.735)" fill="#9ddfd3"/>
      <path id="Path_102392" data-name="Path 102392" d="M-4553.792,2034.809l-12.807-13.627-3.2,2.647,9.049,10.16Z" transform="translate(-191.945 -243.712)" fill="#9ddfd3"/>
      <path id="Path_102393" data-name="Path 102393" d="M-4523.08,2085.232h-79.557a4.182,4.182,0,0,1-4.194-4.489c0-4.519,3.967-4.49,3.967-4.49h111.775v2.8h-29.985a3.266,3.266,0,0,0-1.918,3.655Z" transform="translate(-172.329 -272.885)" fill="#31326f"/>
      <path id="Path_102394" data-name="Path 102394" d="M-4363.563,1976.233l5.293-13.6s1.253-2.675-2.9-4.212l-21.97-.113s-2.249-.015-3.444,2.8-5.534,13.831-5.534,13.831a4.01,4.01,0,0,0,3.613,4.216,37.772,37.772,0,0,0,8.2,0s-2.249-7.965-2.174-8.14.16-4.742.16-4.742l14.044-.019S-4364.36,1971-4363.563,1976.233Z" transform="translate(-286.068 -210.403)" fill="#1a1a1a"/>
      <path id="Path_102395" data-name="Path 102395" d="M-4428.756,2091.179l12.6,8.2,66.162-.024s1.982-.886,2.43-1.8v4.117s-.464,1.878-2.056,1.971h-66.646l-12-7.566a2.507,2.507,0,0,1-.485-1.594C-4428.658,2093.636-4428.756,2091.179-4428.756,2091.179Z" transform="translate(-266.662 -280.792)" fill="#31326f"/>
      <path id="Path_102396" data-name="Path 102396" d="M-4359.73,2081.951l11.729,7.715s1.413,2.2,0,3.558a3.14,3.14,0,0,1-2.522,1.141l-65.611.011-12.105-7.879s-1.726-3.146,1.348-4.342l30.155-.2.154,6.48,3.449,2.134,13.542-.042.2-8.794Z" transform="translate(-266.679 -275.786)" fill="#1a1a1a"/>
      <path id="Path_102397" data-name="Path 102397" d="M-4821.8,2039.979l2.563,4.906s-7.642-.729-8.026-2.137S-4821.8,2039.979-4821.8,2039.979Z" transform="translate(-55.547 -253.67)" fill="#1a1a1a"/>
      <path id="Path_102398" data-name="Path 102398" d="M-4771.823,2039.979l-2.319,4.906s9.307-.56,9.563-2.415S-4771.823,2039.979-4771.823,2039.979Z" transform="translate(-83.697 -253.67)" fill="#1a1a1a"/>
      <path id="Path_102399" data-name="Path 102399" d="M-4827.779,2045.869l1.915,16.627h31.127l1.751-16.492s-4.279,2.634-17.4,2.634S-4827.779,2045.869-4827.779,2045.869Z" transform="translate(-55.283 -256.79)" fill="#1a1a1a"/>
      <path id="Path_102400" data-name="Path 102400" d="M-4522.583,1659.576a4.925,4.925,0,0,1-4.926,4.925,4.925,4.925,0,0,1-4.925-4.925,4.925,4.925,0,0,1,4.925-4.925A4.925,4.925,0,0,1-4522.583,1659.576Z" transform="translate(-211.74 -49.546)" fill="#f24872"/>
      <path id="Path_102401" data-name="Path 102401" d="M-4563.111,1659.576a4.925,4.925,0,0,1-4.925,4.925,4.925,4.925,0,0,1-4.925-4.925,4.925,4.925,0,0,1,4.925-4.925A4.925,4.925,0,0,1-4563.111,1659.576Z" transform="translate(-190.271 -49.546)" fill="#81c140"/>
      <circle id="Ellipse_4118" data-name="Ellipse 4118" cx="4.925" cy="4.925" r="4.925" transform="translate(-4782.289 1605.105)" fill="#ffc93c"/>
      <path id="Path_102402" data-name="Path 102402" d="M-4371.271,1975.226s4.8,2.337,7.223,25.51,1.348,33.4,1.348,33.4l13.542-.042s.194-14.245-.729-28.55-2.829-25.764-7.34-30.337Z" transform="translate(-297.114 -219.357)" fill="#fff"/>
      <path id="Path_102403" data-name="Path 102403" d="M-4371.271,1975.248v4.742s1.793,4.241,2.9,14.4,1.857,20.406,1.867,26.126.353,11.507.353,11.507l3.448,2.135s.08-13.789-.617-23.918-1.582-20.053-3.458-25.583S-4368.8,1977.536-4371.271,1975.248Z" transform="translate(-297.114 -219.379)" fill="#1a1a1a"/>
      <path id="Path_102404" data-name="Path 102404" d="M-4796.849,1814.769s.962-13.142,1.506-22.959.439-20.937-2.882-28.867-9.918-8.192-13.407-5.243-8.611,10.725-9.848,29.5,0,42.07.732,50.447,2.379,23.476,2.379,23.476l6.736,26.292s.525-10.9.952-17.214a210.46,210.46,0,0,1,5.016-33.048C-4802.184,1822.038-4796.849,1814.769-4796.849,1814.769Z" transform="translate(-58.341 -103.219)" fill="#81c140"/>
      <path id="Path_102405" data-name="Path 102405" d="M-4445.772,2070.03a8.75,8.75,0,0,0-3.6-4.389c-2.689-1.579-6.152-.265-6.152-.265s.09.521,2.951,1.033,5.563,1.046,4.873,3.811Z" transform="translate(-252.482 -266.851)" fill="#1a1a1a"/>
      <path id="Path_102406" data-name="Path 102406" d="M-4579.409,1806.6v3.9s2.891-2.12,1.379-7.208-6.4-5.826-12.807-6.509c-.2-.022-.409-.036-.613-.055,4.59.579,8.89,6.171,8.437,8.65s-4.953,2.636-8.652,3.091a7.722,7.722,0,0,0-4.984,2.934,7.907,7.907,0,0,1,4.813-1.586c3.586-.057,6.545.114,8.367-.4S-4579.731,1807.991-4579.409,1806.6Z" transform="translate(-177.722 -124.809)" fill="#ffc93c"/>
      <path id="Path_102407" data-name="Path 102407" d="M-4608.552,1870a17.159,17.159,0,0,0-3.574-10.224,21.99,21.99,0,0,0-2.188-2.3c1.126,3.054,7.737,22.907-10.627,23.3-.473.01-.907.027-1.323.047,3.1.843,6.912,1.407,10.1.427C-4609.573,1879.221-4608.5,1873.244-4608.552,1870Z" transform="translate(-162.034 -156.99)" fill="#ffc93c"/>
      <path id="Path_102408" data-name="Path 102408" d="M-4570.618,1885.082c-.03.028,2.3.474,2.3.474a6.368,6.368,0,0,0,1.617-4.073c-.033-2.348-2.082-5.312-2.082-5.312l-1.835.869S-4567.545,1882.473-4570.618,1885.082Z" transform="translate(-191.511 -166.894)" fill="#ffc93c"/>
      <g id="Group_57700" data-name="Group 57700" transform="translate(-4896.096 1805.35)">
        <path id="Path_102409" data-name="Path 102409" d="M-4738.557,2081.369h-116.488a.449.449,0,0,1-.449-.45.449.449,0,0,1,.449-.451h116.488a.45.45,0,0,1,.449.451A.45.45,0,0,1-4738.557,2081.369Z" transform="translate(4855.495 -2080.468)"/>
      </g>
      <g id="Group_57701" data-name="Group 57701" transform="translate(-4721.771 1718.292)">
        <path id="Path_102410" data-name="Path 102410" d="M-4397.166,1970.458h-12.446a.448.448,0,0,1-.451-.45.448.448,0,0,1,.451-.451h12.446c6.333,0,11.866-3.334,13.768-8.3l19.04-49.591a9.882,9.882,0,0,0-1.182-9.375c-2.6-3.788-7.306-6.049-12.585-6.049H-4450.4c-6.333,0-11.866,3.334-13.768,8.3l-19.042,49.588a9.889,9.889,0,0,0,1.187,9.379c2.6,3.787,7.308,6.049,12.583,6.049h42.276a.448.448,0,0,1,.45.451.448.448,0,0,1-.45.45h-42.276c-5.573,0-10.556-2.408-13.326-6.439a10.772,10.772,0,0,1-1.286-10.214l19.04-49.588c2.039-5.307,7.909-8.875,14.611-8.875h72.274c5.573,0,10.559,2.408,13.326,6.44a10.765,10.765,0,0,1,1.286,10.211l-19.04,49.591C-4384.592,1966.89-4390.463,1970.458-4397.166,1970.458Z" transform="translate(4484.794 -1895.341)"/>
      </g>
      <g id="Group_57702" data-name="Group 57702" transform="translate(-4678.638 1747.433)">
        <path id="Path_102411" data-name="Path 102411" d="M-4380.939,1979.076h-7.5a4.809,4.809,0,0,1-4.015-1.952,3.4,3.4,0,0,1-.4-3.171l5.354-13.942a4.621,4.621,0,0,1,4.413-2.7h20.322a4.812,4.812,0,0,1,4.016,1.952,3.38,3.38,0,0,1,.39,3.172l-5.347,13.942a.456.456,0,0,1-.585.259.455.455,0,0,1-.26-.584l5.352-13.942a2.461,2.461,0,0,0-.294-2.336,3.955,3.955,0,0,0-3.271-1.561h-20.322a3.724,3.724,0,0,0-3.571,2.127l-5.351,13.942a2.46,2.46,0,0,0,.3,2.336,3.955,3.955,0,0,0,3.271,1.56h7.5a.449.449,0,0,1,.451.45A.448.448,0,0,1-4380.939,1979.076Z" transform="translate(4393.073 -1957.309)"/>
      </g>
      <g id="Group_57703" data-name="Group 57703" transform="translate(-4668.907 1755.401)">
        <path id="Path_102412" data-name="Path 102412" d="M-4363.288,2034.043a.448.448,0,0,1-.45-.45c0-55.555-8.219-58.43-8.3-58.451a.459.459,0,0,1-.332-.538.452.452,0,0,1,.506-.347c.37.065,9.026,2.242,9.026,59.336A.448.448,0,0,1-4363.288,2034.043Z" transform="translate(4372.38 -1974.253)"/>
      </g>
      <g id="Group_57704" data-name="Group 57704" transform="translate(-4668.996 1760.162)">
        <path id="Path_102413" data-name="Path 102413" d="M-4366.99,2037.274a.449.449,0,0,1-.451-.447c-.223-34.33-3.291-47.212-5.1-51.837a.447.447,0,0,1,.256-.582.449.449,0,0,1,.582.257c1.833,4.678,4.939,17.679,5.161,52.155a.447.447,0,0,1-.448.453Z" transform="translate(4372.57 -1984.378)"/>
      </g>
      <g id="Group_57705" data-name="Group 57705" transform="translate(-4663.867 1755.401)">
        <path id="Path_102414" data-name="Path 102414" d="M-4343.868,2034.043h-14a.449.449,0,0,1-.241-.072l-3.342-2.133a.444.444,0,0,1-.138-.619.44.44,0,0,1,.619-.138l3.234,2.061h13.42c-.044-55.124-8.216-57.979-8.3-58a.46.46,0,0,1-.331-.538.449.449,0,0,1,.507-.347c.369.065,9.022,2.242,9.022,59.336A.448.448,0,0,1-4343.868,2034.043Z" transform="translate(4361.664 -1974.253)"/>
      </g>
      <g id="Group_57706" data-name="Group 57706" transform="translate(-4668.918 1755.399)">
        <path id="Path_102415" data-name="Path 102415" d="M-4371.954,1980.084a.448.448,0,0,1-.45-.45V1974.7a.448.448,0,0,1,.45-.45h13.746a.448.448,0,0,1,.45.45.449.449,0,0,1-.45.45H-4371.5v4.485A.449.449,0,0,1-4371.954,1980.084Z" transform="translate(4372.404 -1974.249)"/>
      </g>
      <g id="Group_57707" data-name="Group 57707" transform="translate(-4695.863 1805.716)">
        <path id="Path_102416" data-name="Path 102416" d="M-4350.849,2094.573h-65.2a3.354,3.354,0,0,1-1.82-.535l-10.274-6.576a3.309,3.309,0,0,1-1.419-3.788,3.307,3.307,0,0,1,3.239-2.426h28.813a.448.448,0,0,1,.45.45.448.448,0,0,1-.45.451h-28.813a2.431,2.431,0,0,0-2.374,1.78,2.429,2.429,0,0,0,1.042,2.777l10.273,6.576a2.452,2.452,0,0,0,1.332.391h65.2a2.431,2.431,0,0,0,2.374-1.78,2.432,2.432,0,0,0-1.042-2.78l-10.273-6.577a2.481,2.481,0,0,0-1.333-.387h-18.79a.449.449,0,0,1-.45-.451.448.448,0,0,1,.45-.45h18.79a3.4,3.4,0,0,1,1.817.528l10.276,6.58a3.312,3.312,0,0,1,1.419,3.791A3.312,3.312,0,0,1-4350.849,2094.573Z" transform="translate(4429.703 -2081.247)"/>
      </g>
      <g id="Group_57708" data-name="Group 57708" transform="translate(-4695.777 1813.726)">
        <path id="Path_102417" data-name="Path 102417" d="M-4350.751,2107.955h-65.2a3.4,3.4,0,0,1-1.816-.528l-10.277-6.581a3.319,3.319,0,0,1-1.464-2,.453.453,0,0,1,.329-.547.443.443,0,0,1,.547.328,2.427,2.427,0,0,0,1.076,1.467l10.274,6.577a2.481,2.481,0,0,0,1.331.387h65.2a2.419,2.419,0,0,0,2.4-1.88.434.434,0,0,1,.547-.328.454.454,0,0,1,.328.547A3.328,3.328,0,0,1-4350.751,2107.955Z" transform="translate(4429.52 -2098.279)"/>
      </g>
      <g id="Group_57709" data-name="Group 57709" transform="translate(-4695.77 1809.653)">
        <path id="Path_102418" data-name="Path 102418" d="M-4429.055,2094.6a.448.448,0,0,1-.45-.45v-4.075a.448.448,0,0,1,.45-.45.448.448,0,0,1,.451.45v4.075A.448.448,0,0,1-4429.055,2094.6Z" transform="translate(4429.505 -2089.62)"/>
      </g>
      <g id="Group_57710" data-name="Group 57710" transform="translate(-4614.673 1816.321)">
        <path id="Path_102419" data-name="Path 102419" d="M-4256.6,2108.645a.449.449,0,0,1-.45-.45v-3.947a.449.449,0,0,1,.45-.45.448.448,0,0,1,.45.45v3.947A.448.448,0,0,1-4256.6,2108.645Z" transform="translate(4257.053 -2103.798)"/>
      </g>
      <g id="Group_57711" data-name="Group 57711" transform="translate(-4783.583 1690.582)">
        <path id="Path_102420" data-name="Path 102420" d="M-4611.084,1846.7a5.444,5.444,0,0,1-.676-.044,5.156,5.156,0,0,1-4.433-5.773,5.169,5.169,0,0,1,5.773-4.431,5.107,5.107,0,0,1,2.738,1.245.453.453,0,0,1,.039.638.455.455,0,0,1-.636.038,4.193,4.193,0,0,0-2.258-1.026,4.234,4.234,0,0,0-4.761,3.656,4.25,4.25,0,0,0,3.658,4.76,4.109,4.109,0,0,0,2.246-.316.453.453,0,0,1,.594.232.451.451,0,0,1-.231.594A5.1,5.1,0,0,1-4611.084,1846.7Z" transform="translate(4616.237 -1836.417)"/>
      </g>
      <g id="Group_57712" data-name="Group 57712" transform="translate(-4780.079 1692.529)">
        <path id="Path_102421" data-name="Path 102421" d="M-4608.336,1846.508a.451.451,0,0,1-.376-.2.453.453,0,0,1,.125-.626l2.833-1.9-2.864-2.433a.45.45,0,0,1-.052-.635.447.447,0,0,1,.636-.053l3.318,2.821a.452.452,0,0,1,.158.369.454.454,0,0,1-.2.35l-3.329,2.227A.459.459,0,0,1-4608.336,1846.508Z" transform="translate(4608.787 -1840.557)"/>
      </g>
      <g id="Group_57713" data-name="Group 57713" transform="translate(-4802.101 1671.338)">
        <path id="Path_102422" data-name="Path 102422" d="M-4653.326,1849.732a.458.458,0,0,1-.228-.059c-1.636-.951-2.335-3.109-1.966-6.073s1.552-5.1,3.508-6.355a8.691,8.691,0,0,1,1.434-.732,21.223,21.223,0,0,1,2.642-.816,10.18,10.18,0,0,0,4.583-2.017,4.859,4.859,0,0,0,1.248-4.3,209.646,209.646,0,0,0-3.713-21.1,10.97,10.97,0,0,1,5.093-9.01c7.639-5.138,18.608-3.8,22.976-2.987,3.072.576,7.3,1.727,8.562,5.1a9.654,9.654,0,0,1-.759,8.779.445.445,0,0,1-.627.118.45.45,0,0,1-.121-.625,8.748,8.748,0,0,0,.663-7.956c-1.1-2.943-5.027-3.994-7.883-4.526-4.254-.8-14.945-2.114-22.307,2.849a10.1,10.1,0,0,0-4.707,8.1c.192.779,1.958,8.091,3.718,21.138a5.752,5.752,0,0,1-1.529,5.085,11.039,11.039,0,0,1-4.967,2.227,20.627,20.627,0,0,0-2.531.776,8.348,8.348,0,0,0-1.287.657c-1.721,1.107-2.764,3.027-3.1,5.71-.187,1.5-.237,4.16,1.523,5.179a.452.452,0,0,1,.163.616A.449.449,0,0,1-4653.326,1849.732Z" transform="translate(4655.616 -1795.494)"/>
      </g>
      <g id="Group_57714" data-name="Group 57714" transform="translate(-4815.771 1784.709)">
        <path id="Path_102423" data-name="Path 102423" d="M-4684.236,2046.181a.451.451,0,0,1-.349-.166.452.452,0,0,1,.064-.635c15.856-12.928,47.51-7.815,47.831-7.759a.45.45,0,0,1,.369.519.453.453,0,0,1-.519.369c-.312-.05-31.572-5.1-47.111,7.571A.46.46,0,0,1-4684.236,2046.181Z" transform="translate(4684.687 -2036.577)"/>
      </g>
      <g id="Group_57715" data-name="Group 57715" transform="translate(-4829.024 1721.257)">
        <path id="Path_102424" data-name="Path 102424" d="M-4709.238,1986.64a.447.447,0,0,1-.4-.244c-9.255-17.9,3.316-50.151,13.414-66.279a92.357,92.357,0,0,1,7.786-11c2.741-3.218,6.516-5.344,10.467-7.415a.449.449,0,0,1,.608.191.451.451,0,0,1-.189.609c-4.018,2.1-7.56,4.1-10.2,7.2a92.324,92.324,0,0,0-7.707,10.9c-9.992,15.962-22.46,47.827-13.377,65.391a.45.45,0,0,1-.2.607A.429.429,0,0,1-4709.238,1986.64Z" transform="translate(4712.867 -1901.647)"/>
      </g>
      <g id="Group_57716" data-name="Group 57716" transform="translate(-4764.787 1717.285)">
        <path id="Path_102425" data-name="Path 102425" d="M-4539.546,1962.416a.453.453,0,0,1-.451-.426c-.137-2.615-.335-5.257-.525-7.809-.163-2.174-.325-4.347-.455-6.53-.663-11.2-1.932-24.068-8.64-35.149-4.117-6.805-11.433-15.4-22.9-17.735-.934-.191-3.75-.679-3.75-.679l.153-.888s2.835.495,3.776.685c11.787,2.4,19.282,11.193,23.5,18.148,6.813,11.259,8.1,24.259,8.767,35.562.128,2.18.292,4.35.454,6.518.191,2.561.387,5.207.527,7.828a.452.452,0,0,1-.427.476Z" transform="translate(4576.268 -1893.2)"/>
      </g>
      <g id="Group_57717" data-name="Group 57717" transform="translate(-4770.977 1681.739)">
        <path id="Path_102426" data-name="Path 102426" d="M-4582.478,1846.362c-.415,0-.855-.022-1.323-.059-1.509-.132-3.723-.4-5.269-.71a.449.449,0,0,1-.354-.529.443.443,0,0,1,.532-.353c1.509.3,3.683.566,5.167.691a9.086,9.086,0,0,0,3.633-.266,5.207,5.207,0,0,0,3.352-3.712c1.089-3.315,1.031-6.915.976-10.4l-.02-1.313c-.045-3.025-.134-9.311-.206-11.64a.449.449,0,0,1,.436-.463.438.438,0,0,1,.465.438c.072,2.333.163,8.625.2,11.652l.021,1.31c.057,3.556.116,7.234-1.02,10.693a6.035,6.035,0,0,1-3.937,4.288A8.716,8.716,0,0,1-4582.478,1846.362Z" transform="translate(4589.432 -1817.611)"/>
      </g>
      <path id="Path_102427" data-name="Path 102427" d="M-4582.552,1837.37c.359-.056.6.1.7,1.394.115,1.445-.259,1.7-.584,1.687s-.649-.458-.633-1.491S-4583.024,1837.444-4582.552,1837.37Z" transform="translate(-184.918 -146.334)"/>
      <path id="Path_102428" data-name="Path 102428" d="M-4563.317,1836.114c.358-.069.6.077.751,1.369.165,1.44-.2,1.708-.526,1.706s-.665-.437-.685-1.47S-4563.786,1836.2-4563.317,1836.114Z" transform="translate(-195.133 -145.667)"/>
      <g id="Group_57718" data-name="Group 57718" transform="translate(-4760.625 1686.288)">
        <path id="Path_102429" data-name="Path 102429" d="M-4563.923,1828.844a.448.448,0,0,1-.3-.109,2.59,2.59,0,0,0-2.633-.391.437.437,0,0,1-.55-.322.449.449,0,0,1,.322-.547,3.45,3.45,0,0,1,3.453.578.45.45,0,0,1,.045.635A.445.445,0,0,1-4563.923,1828.844Z" transform="translate(4567.417 -1827.286)"/>
      </g>
      <g id="Group_57719" data-name="Group 57719" transform="translate(-4774.434 1709.694)">
        <path id="Path_102430" data-name="Path 102430" d="M-4589.253,1895.748c-2.5,0-6.585-4.976-7.433-6.042a.453.453,0,0,1,.074-.635.458.458,0,0,1,.632.072c2.106,2.655,5.638,6.139,6.971,5.664,1.523-.591,1.729-6.252,1.5-9.683l.4-7.64a.458.458,0,0,1,.473-.425.452.452,0,0,1,.427.475l-.4,7.584c.106,1.538.5,9.529-2.074,10.527A1.575,1.575,0,0,1-4589.253,1895.748Z" transform="translate(4596.783 -1877.059)"/>
      </g>
      <g id="Group_57720" data-name="Group 57720" transform="translate(-4761 1708.828)">
        <path id="Path_102431" data-name="Path 102431" d="M-4566.727,1885.115a.467.467,0,0,1-.261-.081.451.451,0,0,1-.106-.629c2.993-4.219-.954-8.385-.995-8.425a.45.45,0,0,1,.011-.638.452.452,0,0,1,.637.013c.045.047,4.5,4.751,1.082,9.57A.446.446,0,0,1-4566.727,1885.115Z" transform="translate(4568.217 -1875.217)"/>
      </g>
      <g id="Group_57721" data-name="Group 57721" transform="translate(-4776.749 1680.111)">
        <path id="Path_102432" data-name="Path 102432" d="M-4601.255,1826.036c-.347-.069-.5-.313-.438-.557.275-1.145.969-3.868,1.487-4.369,2.5-2.42,6.373-2.508,9.787-2.583,4.116-.094,7.67-.172,8.181-3.981a.43.43,0,0,1,.507-.387.452.452,0,0,1,.388.506c-.615,4.572-4.9,4.669-9.055,4.763-3.409.076-6.934.154-9.182,2.33a19.658,19.658,0,0,0-1.236,3.934A.45.45,0,0,1-4601.255,1826.036Z" transform="translate(4601.705 -1814.15)"/>
      </g>
      <g id="Group_57722" data-name="Group 57722" transform="translate(-4794.368 1699.784)">
        <path id="Path_102433" data-name="Path 102433" d="M-4626.6,1881.338c-5.95,0-11.969-2.856-12.314-3.021a.45.45,0,0,1-.21-.6.444.444,0,0,1,.6-.213c.112.056,11.328,5.373,17.9,1.513,2.866-1.679,4.467-4.894,4.756-9.557.378-6.039-3.853-11.14-5.96-12.663a.451.451,0,0,1-.1-.628.459.459,0,0,1,.63-.1c2.238,1.62,6.732,7.037,6.333,13.451-.311,4.983-2.061,8.441-5.2,10.28A12.631,12.631,0,0,1-4626.6,1881.338Z" transform="translate(4639.173 -1855.984)"/>
      </g>
      <g id="Group_57723" data-name="Group 57723" transform="translate(-4797.653 1743.567)">
        <path id="Path_102434" data-name="Path 102434" d="M-4645.522,1992.022a.451.451,0,0,1-.449-.407c-1.558-15.806,7.217-41.954,7.306-42.217a.442.442,0,0,1,.571-.281.448.448,0,0,1,.284.569c-.088.26-8.8,26.226-7.263,41.842a.448.448,0,0,1-.4.491A.206.206,0,0,1-4645.522,1992.022Z" transform="translate(4646.157 -1949.087)"/>
      </g>
      <g id="Group_57724" data-name="Group 57724" transform="translate(-4767.815 1699.327)">
        <path id="Path_102435" data-name="Path 102435" d="M-4579.288,1858.922a3.167,3.167,0,0,1-1.844-.545,4.265,4.265,0,0,1-1.574-2.862.451.451,0,0,1,.405-.491.416.416,0,0,1,.493.4,3.38,3.38,0,0,0,1.191,2.211,2.873,2.873,0,0,0,2.45.216.456.456,0,0,1,.555.315.451.451,0,0,1-.317.553A5.172,5.172,0,0,1-4579.288,1858.922Z" transform="translate(4582.708 -1855.011)"/>
      </g>
      <g id="Group_57725" data-name="Group 57725" transform="translate(-4780.507 1785.728)">
        <path id="Path_102436" data-name="Path 102436" d="M-4608.349,2059.265a.451.451,0,0,1-.438-.347,22.684,22.684,0,0,1-.708-9.01c1.181-7.453,7.208-11.3,12.184-11.162a8.283,8.283,0,0,1,4.371,1.4.448.448,0,0,1,.167.613.444.444,0,0,1-.614.169,7.456,7.456,0,0,0-3.953-1.276c-4.651-.131-10.166,3.462-11.264,10.405a21.542,21.542,0,0,0,.693,8.659.45.45,0,0,1-.335.541A.383.383,0,0,1-4608.349,2059.265Z" transform="translate(4609.697 -2038.742)"/>
      </g>
      <g id="Group_57726" data-name="Group 57726" transform="translate(-4742.369 1785.734)">
        <path id="Path_102437" data-name="Path 102437" d="M-4528.148,2042.4a.452.452,0,0,1-.43-.319.451.451,0,0,1,.3-.563,71.33,71.33,0,0,1,20.359-2.762.452.452,0,0,1,.454.447.449.449,0,0,1-.447.454,70.407,70.407,0,0,0-20.1,2.724A.475.475,0,0,1-4528.148,2042.4Z" transform="translate(4528.599 -2038.757)"/>
      </g>
      <g id="Group_57727" data-name="Group 57727" transform="translate(-4718.838 1790.411)">
        <path id="Path_102438" data-name="Path 102438" d="M-4477.924,2061.92a.451.451,0,0,1-.448-.392,17.856,17.856,0,0,1,.018-5.291,12.692,12.692,0,0,1,3.576-7.406.454.454,0,0,1,.636,0,.449.449,0,0,1,0,.638,11.843,11.843,0,0,0-3.319,6.909,16.9,16.9,0,0,0-.014,5.031.453.453,0,0,1-.388.507A.366.366,0,0,1-4477.924,2061.92Z" transform="translate(4478.56 -2048.702)"/>
      </g>
      <g id="Group_57728" data-name="Group 57728" transform="translate(-4748.464 1740.68)">
        <path id="Path_102439" data-name="Path 102439" d="M-4541.106,1988.035c-.359-.081-.5-.332-.435-.569,7.535-27.284,1.579-43.746,1.518-43.909a.453.453,0,0,1,.264-.581.458.458,0,0,1,.58.262c.063.166,6.127,16.876-1.493,44.466A.452.452,0,0,1-4541.106,1988.035Z" transform="translate(4541.556 -1942.949)"/>
      </g>
      <g id="Group_57729" data-name="Group 57729" transform="translate(-4779.61 1802.917)">
        <path id="Path_102440" data-name="Path 102440" d="M-4523.585,2085.174h-79.262a4.944,4.944,0,0,1-4.94-4.938,4.947,4.947,0,0,1,4.94-4.942h110.781a.449.449,0,0,1,.45.45.449.449,0,0,1-.45.451h-110.781a4.045,4.045,0,0,0-4.039,4.041,4.042,4.042,0,0,0,4.039,4.037h79.262a.449.449,0,0,1,.451.45A.449.449,0,0,1-4523.585,2085.174Z" transform="translate(4607.788 -2075.294)"/>
      </g>
      <g id="Group_57730" data-name="Group 57730" transform="translate(-4761.896 1687.762)">
        <path id="Path_102441" data-name="Path 102441" d="M-4568.334,1843.13a.454.454,0,0,1-.388-.219.453.453,0,0,1,.158-.619c.584-.347,1.822-2.49,1.667-3.284a16.046,16.046,0,0,0-2.453-.334.451.451,0,0,1-.436-.428l-.334-7.352a.452.452,0,0,1,.429-.473.454.454,0,0,1,.471.428l.316,6.946c.438.031,1.188.094,2.06.228a.962.962,0,0,1,.831.813c.235,1.2-1.229,3.718-2.092,4.231A.444.444,0,0,1-4568.334,1843.13Z" transform="translate(4570.12 -1830.419)"/>
      </g>
      <g id="Group_57739" data-name="Group 57739" transform="translate(-4775.956 1776.946)">
        <g id="Group_57733" data-name="Group 57733" transform="translate(13.759)">
          <g id="Group_57731" data-name="Group 57731">
            <path id="Path_102442" data-name="Path 102442" d="M-4554.676,2034.671a.443.443,0,0,1-.333-.15l-12.025-13.37-2.633,2.323,8.664,9.564a.453.453,0,0,1-.032.637.449.449,0,0,1-.637-.031l-8.971-9.9a.462.462,0,0,1-.115-.328.455.455,0,0,1,.151-.312l3.31-2.921a.449.449,0,0,1,.634.037l12.323,13.7a.448.448,0,0,1-.032.635A.448.448,0,0,1-4554.676,2034.671Z" transform="translate(4570.759 -2020.068)"/>
          </g>
          <g id="Group_57732" data-name="Group 57732" transform="translate(17.555 19.126)">
            <path id="Path_102443" data-name="Path 102443" d="M-4528.121,2067.23a.479.479,0,0,1-.184-.037l-4.858-2.171a.452.452,0,0,1-.229-.6.463.463,0,0,1,.6-.228l3.957,1.77-1.415-4.647a.452.452,0,0,1,.3-.563.457.457,0,0,1,.563.3l1.7,5.592a.451.451,0,0,1-.133.469A.446.446,0,0,1-4528.121,2067.23Z" transform="translate(4533.431 -2060.739)"/>
          </g>
        </g>
        <g id="Group_57734" data-name="Group 57734" transform="translate(19.428 11.721)">
          <path id="Path_102444" data-name="Path 102444" d="M-4548.084,2054.094a30.094,30.094,0,0,1-9.336-1.836.454.454,0,0,1-.285-.573.455.455,0,0,1,.569-.284c8.328,2.789,11.83,1.629,12.954,1.007a2.28,2.28,0,0,0,1.206-1.4c.391-1.67-2.111-2.577-2.5-2.708-.917-.035-9.849-.431-13.018-2.48a.45.45,0,0,1-.135-.622.448.448,0,0,1,.622-.134c3.066,1.979,12.529,2.336,12.624,2.339.269.066,3.9,1.194,3.289,3.812a3.139,3.139,0,0,1-1.646,1.977A8.856,8.856,0,0,1-4548.084,2054.094Z" transform="translate(4558.704 -2044.992)"/>
        </g>
        <g id="Group_57735" data-name="Group 57735" transform="translate(18.964 18.661)">
          <path id="Path_102445" data-name="Path 102445" d="M-4552.885,2065.519a34.45,34.45,0,0,1-6.452-.654.452.452,0,0,1-.346-.535.442.442,0,0,1,.534-.347c.089.022,9.121,1.889,13.065-.923a4.01,4.01,0,0,0,1.742-2.911.424.424,0,0,1,.5-.391.451.451,0,0,1,.391.5,4.936,4.936,0,0,1-2.114,3.534C-4547.446,2065.137-4550.276,2065.519-4552.885,2065.519Z" transform="translate(4559.692 -2059.751)"/>
        </g>
        <g id="Group_57736" data-name="Group 57736" transform="translate(23.306 6.803)">
          <path id="Path_102446" data-name="Path 102446" d="M-4540.395,2043.013a.452.452,0,0,1-.4-.235c-.021-.04-2.191-3.991-4.077-5.548-1.843-1.52-5.142-1.8-5.175-1.8a.45.45,0,0,1-.413-.484.482.482,0,0,1,.483-.416c.146.013,3.615.3,5.679,2,2.019,1.667,4.2,5.642,4.3,5.81a.452.452,0,0,1-.181.611A.454.454,0,0,1-4540.395,2043.013Z" transform="translate(4550.458 -2034.534)"/>
        </g>
        <g id="Group_57737" data-name="Group 57737" transform="translate(0 7.541)">
          <path id="Path_102447" data-name="Path 102447" d="M-4594.145,2041.366a48.639,48.639,0,0,1-5.479-.357.45.45,0,0,1-.39-.5.445.445,0,0,1,.5-.391c2.328.294,8.683.785,10.075-.457a15.634,15.634,0,0,1,7.447-3.55.446.446,0,0,1,.51.382.453.453,0,0,1-.381.512,14.95,14.95,0,0,0-6.975,3.327C-4589.742,2041.141-4591.952,2041.366-4594.145,2041.366Z" transform="translate(4600.018 -2036.103)"/>
        </g>
        <g id="Group_57738" data-name="Group 57738" transform="translate(15.079 22.944)">
          <path id="Path_102448" data-name="Path 102448" d="M-4567.5,2072.786a.451.451,0,0,1-.449-.413.452.452,0,0,1,.414-.488c.075-.006,1.872-.15,3.058-.178.128,0,.338,0,.609.006,6.032.072,9.738-.788,11.032-2.658a.446.446,0,0,1,.628-.113.45.45,0,0,1,.114.626c-2.225,3.209-9.417,3.09-11.791,3.046-.258-.007-.461,0-.572-.007-1.161.028-2.989.175-3.007.179Z" transform="translate(4567.952 -2068.858)"/>
        </g>
      </g>
      <g id="Group_57740" data-name="Group 57740" transform="translate(-4770.56 1686.293)">
        <path id="Path_102449" data-name="Path 102449" d="M-4588.1,1830.157a.443.443,0,0,1-.252-.078.451.451,0,0,1-.122-.625,4.76,4.76,0,0,1,6.069-1.677.453.453,0,0,1,.2.607.456.456,0,0,1-.6.2,3.8,3.8,0,0,0-4.915,1.376A.453.453,0,0,1-4588.1,1830.157Z" transform="translate(4588.546 -1827.297)"/>
      </g>
      <g id="Group_57741" data-name="Group 57741" transform="translate(-4877.504 1652.388)">
        <path id="Path_102450" data-name="Path 102450" d="M-4811.453,1862.8a.452.452,0,0,1-.448-.391c-.472-3.481-11.39-85.478,4.687-103.648a9.654,9.654,0,0,1,7.4-3.559,8,8,0,0,1,6.179,2.887c6,6.849,7.169,25.986,3.473,56.872a.446.446,0,0,1-.5.394.448.448,0,0,1-.395-.5c3.614-30.192,2.487-49.616-3.255-56.171a6.983,6.983,0,0,0-5.385-2.58,8.839,8.839,0,0,0-6.846,3.255c-15.8,17.86-4.584,102.082-4.467,102.932a.455.455,0,0,1-.387.507A.393.393,0,0,1-4811.453,1862.8Z" transform="translate(4815.959 -1755.197)"/>
      </g>
      <g id="Group_57742" data-name="Group 57742" transform="translate(-4866.923 1703.253)">
        <path id="Path_102451" data-name="Path 102451" d="M-4784.531,1952.1a.481.481,0,0,1-.2-.044.453.453,0,0,1-.208-.6c.332-.682,33.094-68.249,25.7-83.9a4.914,4.914,0,0,0-3.415-2.911,12.123,12.123,0,0,0-10.717,2.361c-18.079,14.067-19.176,77.416-19.186,78.054a.45.45,0,0,1-.451.444.451.451,0,0,1-.45-.457c.035-2.624,1.114-64.419,19.534-78.755a13.022,13.022,0,0,1,11.479-2.524,5.828,5.828,0,0,1,4.022,3.4c7.581,16.037-24.339,81.882-25.7,84.678A.453.453,0,0,1-4784.531,1952.1Z" transform="translate(4793.46 -1863.36)"/>
      </g>
      <g id="Group_57743" data-name="Group 57743" transform="translate(-4895.307 1733.492)">
        <path id="Path_102452" data-name="Path 102452" d="M-4823.729,1986.47a.45.45,0,0,1-.445-.375c-.1-.588-9.714-57.535-24.017-57.535a5.479,5.479,0,0,0-.87.069,3.949,3.949,0,0,0-3.142,2.317c-5.23,10.962,19.305,53.989,19.555,54.42a.452.452,0,0,1-.168.616.447.447,0,0,1-.614-.166c-1.024-1.785-25.018-43.874-19.587-55.258a4.85,4.85,0,0,1,3.813-2.818c15.7-2.489,25.509,55.728,25.918,58.2a.45.45,0,0,1-.37.519A.594.594,0,0,1-4823.729,1986.47Z" transform="translate(4853.816 -1927.663)"/>
      </g>
      <g id="Group_57744" data-name="Group 57744" transform="translate(-4829.048 1716.218)">
        <path id="Path_102453" data-name="Path 102453" d="M-4684.708,1891.833h-27.761a.449.449,0,0,1-.45-.45.449.449,0,0,1,.45-.45h27.761a.45.45,0,0,1,.451.45A.45.45,0,0,1-4684.708,1891.833Z" transform="translate(4712.919 -1890.932)"/>
      </g>
      <g id="Group_57745" data-name="Group 57745" transform="translate(-4758.746 1679.071)">
        <path id="Path_102454" data-name="Path 102454" d="M-4533.112,1849.987h-29.86a.449.449,0,0,1-.449-.45.449.449,0,0,1,.449-.451h29.86a10.377,10.377,0,0,0,10.364-10.365V1812.39a.449.449,0,0,1,.45-.451.45.45,0,0,1,.451.451v26.332A11.279,11.279,0,0,1-4533.112,1849.987Z" transform="translate(4563.422 -1811.939)"/>
      </g>
      <g id="Group_57746" data-name="Group 57746" transform="translate(-4901.863 1595.225)">
        <path id="Path_102455" data-name="Path 102455" d="M-4844.452,1755.536h-12.042a11.279,11.279,0,0,1-11.265-11.265v-99.363a11.278,11.278,0,0,1,11.265-11.265h162.163a11.279,11.279,0,0,1,11.265,11.265v31.468a.449.449,0,0,1-.452.45.449.449,0,0,1-.449-.45v-31.468a10.377,10.377,0,0,0-10.364-10.365h-162.163a10.376,10.376,0,0,0-10.363,10.365v99.363a10.376,10.376,0,0,0,10.363,10.365h12.042a.45.45,0,0,1,.45.451A.449.449,0,0,1-4844.452,1755.536Z" transform="translate(4867.759 -1633.642)"/>
      </g>
      <g id="Group_57747" data-name="Group 57747" transform="translate(-4889.378 1625.405)">
        <path id="Path_102456" data-name="Path 102456" d="M-4686.154,1698.719h-154.6a.45.45,0,0,1-.451-.45.45.45,0,0,1,.451-.451h154.6a.45.45,0,0,1,.45.451A.449.449,0,0,1-4686.154,1698.719Z" transform="translate(4841.21 -1697.818)"/>
      </g>
      <g id="Group_57748" data-name="Group 57748" transform="translate(-4744.624 1604.654)">
        <path id="Path_102457" data-name="Path 102457" d="M-4528.016,1664.445a5.381,5.381,0,0,1-5.376-5.376,5.382,5.382,0,0,1,5.376-5.376,5.381,5.381,0,0,1,5.375,5.376A5.381,5.381,0,0,1-4528.016,1664.445Zm0-9.851a4.481,4.481,0,0,0-4.476,4.475,4.48,4.48,0,0,0,4.476,4.475,4.48,4.48,0,0,0,4.475-4.475A4.48,4.48,0,0,0-4528.016,1654.594Z" transform="translate(4533.393 -1653.693)"/>
      </g>
      <g id="Group_57749" data-name="Group 57749" transform="translate(-4763.681 1604.654)">
        <path id="Path_102458" data-name="Path 102458" d="M-4568.542,1664.445a5.381,5.381,0,0,1-5.375-5.376,5.381,5.381,0,0,1,5.375-5.376,5.381,5.381,0,0,1,5.375,5.376A5.381,5.381,0,0,1-4568.542,1664.445Zm0-9.851a4.48,4.48,0,0,0-4.474,4.475,4.479,4.479,0,0,0,4.474,4.475,4.481,4.481,0,0,0,4.475-4.475A4.481,4.481,0,0,0-4568.542,1654.594Z" transform="translate(4573.917 -1653.693)"/>
      </g>
      <g id="Group_57750" data-name="Group 57750" transform="translate(-4782.74 1604.654)">
        <path id="Path_102459" data-name="Path 102459" d="M-4609.068,1664.445a5.381,5.381,0,0,1-5.376-5.376,5.381,5.381,0,0,1,5.376-5.376,5.381,5.381,0,0,1,5.374,5.376A5.38,5.38,0,0,1-4609.068,1664.445Zm0-9.851a4.48,4.48,0,0,0-4.475,4.475,4.48,4.48,0,0,0,4.475,4.475,4.48,4.48,0,0,0,4.474-4.475A4.481,4.481,0,0,0-4609.068,1654.594Z" transform="translate(4614.444 -1653.693)"/>
      </g>
      <g id="Group_57751" data-name="Group 57751" transform="translate(-4857.332 1625.405)">
        <path id="Path_102460" data-name="Path 102460" d="M-4772.613,1721.8a.45.45,0,0,1-.452-.45v-23.083a.45.45,0,0,1,.452-.451.45.45,0,0,1,.45.451v23.083A.45.45,0,0,1-4772.613,1721.8Z" transform="translate(4773.064 -1697.818)"/>
      </g>
      <g id="Group_57752" data-name="Group 57752" transform="translate(-4883.513 1788.35)">
        <path id="Path_102461" data-name="Path 102461" d="M-4826.371,2062.125a.449.449,0,0,1-.448-.4l-1.915-16.9a.448.448,0,0,1,.4-.5.427.427,0,0,1,.5.4l1.915,16.9a.448.448,0,0,1-.4.5A.263.263,0,0,1-4826.371,2062.125Z" transform="translate(4828.737 -2044.318)"/>
      </g>
      <g id="Group_57753" data-name="Group 57753" transform="translate(-4850.47 1788.349)">
        <path id="Path_102462" data-name="Path 102462" d="M-4758.022,2062.124a.458.458,0,0,1-.447-.5l1.915-16.9a.427.427,0,0,1,.5-.4.448.448,0,0,1,.4.5l-1.915,16.9A.449.449,0,0,1-4758.022,2062.124Z" transform="translate(4758.472 -2044.317)"/>
      </g>
      <g id="Group_57754" data-name="Group 57754" transform="translate(-4883.513 1785.856)">
        <path id="Path_102463" data-name="Path 102463" d="M-4810.807,2045.458c-6.2,0-17.929-.732-17.929-3.5,0-1.46,4.318-2.42,6.175-2.765a.452.452,0,0,1,.525.362.452.452,0,0,1-.361.526c-3.614.669-5.328,1.566-5.442,1.9,0,.885,5.851,2.574,17.032,2.574s17.029-1.689,17.029-2.6c0-.428-1.468-1.4-7.017-2.046a.448.448,0,0,1-.4-.5.448.448,0,0,1,.5-.394c7.813.9,7.813,2.436,7.813,2.94C-4792.878,2044.726-4804.605,2045.458-4810.807,2045.458Z" transform="translate(4828.736 -2039.015)"/>
      </g>
      <g id="Group_57755" data-name="Group 57755" transform="translate(-4889.379 1741.757)">
        <path id="Path_102464" data-name="Path 102464" d="M-4824.127,1989.249a.45.45,0,0,1-.42-.288l-16.634-43.108a.451.451,0,0,1,.258-.582.451.451,0,0,1,.584.256l16.633,43.108a.45.45,0,0,1-.258.582A.423.423,0,0,1-4824.127,1989.249Z" transform="translate(4841.211 -1945.24)"/>
      </g>
      <g id="Group_57756" data-name="Group 57756" transform="translate(-4861.133 1716.218)">
        <path id="Path_102465" data-name="Path 102465" d="M-4780.7,1959.362a.46.46,0,0,1-.447-.5c2.48-21.4,17.851-67.161,18.006-67.621a.453.453,0,0,1,.571-.284.453.453,0,0,1,.283.572c-.154.46-15.5,46.132-17.965,67.439A.45.45,0,0,1-4780.7,1959.362Z" transform="translate(4781.147 -1890.93)"/>
      </g>
      <g id="Group_57757" data-name="Group 57757" transform="translate(-4866.924 1664.804)">
        <path id="Path_102466" data-name="Path 102466" d="M-4793.01,1873.1a.454.454,0,0,1-.45-.466l2.944-90.6a.45.45,0,0,1,.45-.434.455.455,0,0,1,.452.466l-2.945,90.595A.45.45,0,0,1-4793.01,1873.1Z" transform="translate(4793.46 -1781.6)"/>
      </g>
      <g id="Group_57758" data-name="Group 57758" transform="translate(-4698.704 1794.411)">
        <path id="Path_102467" data-name="Path 102467" d="M-4427.909,2066.422a.442.442,0,0,1-.41-.275c-.744-1.8-2.48-6-7.159-8.078a.457.457,0,0,1-.229-.6.462.462,0,0,1,.6-.229c5.007,2.23,6.836,6.658,7.618,8.55a.456.456,0,0,1-.244.594A.488.488,0,0,1-4427.909,2066.422Z" transform="translate(4435.744 -2057.207)"/>
      </g>
      <g id="Group_57759" data-name="Group 57759" transform="translate(-4709.018 1797.481)">
        <path id="Path_102468" data-name="Path 102468" d="M-4446.536,2069.884a.446.446,0,0,1-.417-.278,6.658,6.658,0,0,0-2.211-3.078l-.315-.266c-1.592-1.392-5.887-2.217-7.487-1.094a.448.448,0,0,1-.629-.109.452.452,0,0,1,.109-.629c2.011-1.4,6.7-.513,8.6,1.15l.3.26a7.571,7.571,0,0,1,2.46,3.421.447.447,0,0,1-.243.588A.433.433,0,0,1-4446.536,2069.884Z" transform="translate(4457.677 -2063.735)"/>
      </g>
      <g id="Group_57760" data-name="Group 57760" transform="translate(-4709.539 1797.367)">
        <path id="Path_102469" data-name="Path 102469" d="M-4449.569,2069.944c-.392-.116-.51-.375-.421-.607a1.3,1.3,0,0,0-.026-1.123c-.585-1.091-2.865-1.627-4.225-1.942-.244-.056-.465-.11-.654-.156-.14-.038-.312-.075-.5-.116-1.226-.266-3.078-.669-3.375-1.951a.451.451,0,0,1,.335-.541.443.443,0,0,1,.541.335c.169.729,1.811,1.085,2.689,1.276.207.044.388.084.538.122.181.05.4.1.632.153,1.611.375,4.041.945,4.815,2.4a2.159,2.159,0,0,1,.075,1.861A.453.453,0,0,1-4449.569,2069.944Z" transform="translate(4458.785 -2063.493)"/>
      </g>
      <g id="Group_57761" data-name="Group 57761" transform="translate(-4694.279 1793.822)">
        <path id="Path_102470" data-name="Path 102470" d="M-4418.621,2065.763a.454.454,0,0,1-.435-.332c-.66-2.389-3.556-7.312-6.986-8.607a.453.453,0,0,1-.264-.582.463.463,0,0,1,.583-.263c3.593,1.357,6.736,6.309,7.537,9.213a.451.451,0,0,1-.316.553A.515.515,0,0,1-4418.621,2065.763Z" transform="translate(4426.334 -2055.955)"/>
      </g>
      <g id="Group_57762" data-name="Group 57762" transform="translate(-4691.313 1792.508)">
        <path id="Path_102471" data-name="Path 102471" d="M-4412.36,2063.913a.46.46,0,0,1-.443-.519c.187-1.214-.952-3.547-1.364-4.213a12.989,12.989,0,0,0-5.6-5.16.449.449,0,0,1-.221-.6.449.449,0,0,1,.6-.222,13.831,13.831,0,0,1,5.986,5.5c.379.61,1.743,3.218,1.488,4.825A.45.45,0,0,1-4412.36,2063.913Z" transform="translate(4420.029 -2053.16)"/>
      </g>
      <g id="Group_57763" data-name="Group 57763" transform="translate(-4843.147 1635.397)">
        <path id="Path_102472" data-name="Path 102472" d="M-4698.056,1719.966h-44.4a.449.449,0,0,1-.451-.45.45.45,0,0,1,.451-.45h44.4a.449.449,0,0,1,.45.45A.448.448,0,0,1-4698.056,1719.966Z" transform="translate(4742.901 -1719.066)"/>
      </g>
      <g id="Group_57764" data-name="Group 57764" transform="translate(-4843.147 1645.129)">
        <path id="Path_102473" data-name="Path 102473" d="M-4698.056,1740.663h-44.4a.45.45,0,0,1-.451-.45.45.45,0,0,1,.451-.451h44.4a.449.449,0,0,1,.45.451A.449.449,0,0,1-4698.056,1740.663Z" transform="translate(4742.901 -1739.762)"/>
      </g>
      <g id="Group_57765" data-name="Group 57765" transform="translate(-4843.147 1667.328)">
        <path id="Path_102474" data-name="Path 102474" d="M-4698.056,1787.867h-44.4a.45.45,0,0,1-.451-.45.449.449,0,0,1,.451-.45h44.4a.448.448,0,0,1,.45.45A.449.449,0,0,1-4698.056,1787.867Z" transform="translate(4742.901 -1786.967)"/>
      </g>
      <g id="Group_57766" data-name="Group 57766" transform="translate(-4843.147 1677.06)">
        <path id="Path_102475" data-name="Path 102475" d="M-4698.056,1808.563h-44.4a.45.45,0,0,1-.451-.45.45.45,0,0,1,.451-.451h44.4a.449.449,0,0,1,.45.451A.449.449,0,0,1-4698.056,1808.563Z" transform="translate(4742.901 -1807.662)"/>
      </g>
      <g id="Group_57767" data-name="Group 57767" transform="translate(-4611.086 1668.036)">
        <path id="Path_102476" data-name="Path 102476" d="M-4248.975,1871.789a.452.452,0,0,1-.445-.381.447.447,0,0,1,.376-.513,41.661,41.661,0,0,0,5-1.1.447.447,0,0,1,.557.307.45.45,0,0,1-.307.557,41.725,41.725,0,0,1-5.11,1.123A.26.26,0,0,1-4248.975,1871.789Zm9.914-2.887a.446.446,0,0,1-.409-.262.451.451,0,0,1,.222-.6,33.631,33.631,0,0,0,4.476-2.458.454.454,0,0,1,.623.128.446.446,0,0,1-.129.623,34.186,34.186,0,0,1-4.593,2.527A.458.458,0,0,1-4239.062,1868.9Zm8.62-5.67a.447.447,0,0,1-.332-.147.448.448,0,0,1,.028-.635,33.8,33.8,0,0,0,3.488-3.731.437.437,0,0,1,.631-.069.448.448,0,0,1,.07.631,34.3,34.3,0,0,1-3.581,3.831A.432.432,0,0,1-4230.442,1863.232Zm6.485-8.034a.477.477,0,0,1-.23-.062.456.456,0,0,1-.157-.619,43.506,43.506,0,0,0,2.368-4.554.449.449,0,0,1,.594-.225.445.445,0,0,1,.226.594,44.5,44.5,0,0,1-2.411,4.647A.453.453,0,0,1-4223.957,1855.2Zm4.27-9.435c-.378-.1-.507-.357-.429-.591.523-1.57,1-3.237,1.414-4.951a.444.444,0,0,1,.544-.331.451.451,0,0,1,.332.544c-.422,1.739-.9,3.428-1.432,5.02A.453.453,0,0,1-4219.687,1845.763Zm2.452-10.064a.465.465,0,0,1-.444-.526c.272-1.636.5-3.355.691-5.116a.424.424,0,0,1,.494-.4.447.447,0,0,1,.4.494c-.187,1.776-.422,3.518-.7,5.172A.453.453,0,0,1-4217.235,1835.7Zm1.095-10.324a.454.454,0,0,1-.45-.472c.084-1.677.131-3.412.138-5.163a.45.45,0,0,1,.45-.448.451.451,0,0,1,.45.454c-.006,1.761-.053,3.512-.137,5.2A.453.453,0,0,1-4216.141,1825.375Zm.041-10.37a.451.451,0,0,1-.451-.432c-.068-1.7-.175-3.44-.313-5.16a.453.453,0,0,1,.417-.485.46.46,0,0,1,.484.416c.138,1.726.244,3.474.313,5.191a.451.451,0,0,1-.431.469Zm-.826-10.342a.453.453,0,0,1-.448-.4c-.2-1.714-.44-3.437-.707-5.116a.449.449,0,0,1,.373-.516.413.413,0,0,1,.516.373c.268,1.695.51,3.427.712,5.154a.449.449,0,0,1-.394.5A.3.3,0,0,1-4216.925,1804.662Zm-1.626-10.239a.452.452,0,0,1-.442-.36c-.372-1.82-.778-3.556-1.176-5.023a.451.451,0,0,1,.316-.553.447.447,0,0,1,.554.316c.4,1.486.813,3.243,1.188,5.079a.449.449,0,0,1-.35.532A.494.494,0,0,1-4218.551,1794.423Z" transform="translate(4249.426 -1788.473)" fill="#ffc93c"/>
      </g>
      <g id="Group_57769" data-name="Group 57769" transform="translate(-4932.138 1759.236)">
        <g id="Group_57768" data-name="Group 57768">
          <path id="Path_102477" data-name="Path 102477" d="M-4930.231,1986.033a1.717,1.717,0,0,0,1.718-1.718,1.718,1.718,0,0,0-1.718-1.718,1.718,1.718,0,0,0-1.718,1.718A1.718,1.718,0,0,0-4930.231,1986.033Z" transform="translate(4932.038 -1982.508)" fill="#9ddfd3"/>
          <path id="Path_102478" data-name="Path 102478" d="M-4901.937,1986.022a1.807,1.807,0,0,0,1.807-1.807,1.807,1.807,0,0,0-1.807-1.807,1.807,1.807,0,0,0-1.807,1.807A1.807,1.807,0,0,0-4901.937,1986.022Z" transform="translate(4917.096 -1982.408)" fill="#9ddfd3"/>
          <path id="Path_102479" data-name="Path 102479" d="M-4873.392,1986.039a1.673,1.673,0,0,0,1.674-1.674,1.673,1.673,0,0,0-1.674-1.674,1.673,1.673,0,0,0-1.673,1.674A1.674,1.674,0,0,0-4873.392,1986.039Z" transform="translate(4901.904 -1982.558)" fill="#9ddfd3"/>
          <path id="Path_102480" data-name="Path 102480" d="M-4930.332,2014.417a1.807,1.807,0,0,0,1.807-1.807,1.807,1.807,0,0,0-1.807-1.807,1.807,1.807,0,0,0-1.807,1.807A1.807,1.807,0,0,0-4930.332,2014.417Z" transform="translate(4932.139 -1997.45)" fill="#9ddfd3"/>
          <path id="Path_102481" data-name="Path 102481" d="M-4902.037,2014.405a1.9,1.9,0,0,0,1.9-1.9,1.9,1.9,0,0,0-1.9-1.9,1.9,1.9,0,0,0-1.9,1.9A1.9,1.9,0,0,0-4902.037,2014.405Z" transform="translate(4917.196 -1997.35)" fill="#9ddfd3"/>
          <path id="Path_102482" data-name="Path 102482" d="M-4873.493,2014.422a1.763,1.763,0,0,0,1.763-1.762,1.763,1.763,0,0,0-1.763-1.762,1.762,1.762,0,0,0-1.762,1.762A1.762,1.762,0,0,0-4873.493,2014.422Z" transform="translate(4902.005 -1997.5)" fill="#9ddfd3"/>
          <path id="Path_102483" data-name="Path 102483" d="M-4930.182,2042.828a1.674,1.674,0,0,0,1.674-1.673,1.674,1.674,0,0,0-1.674-1.674,1.674,1.674,0,0,0-1.673,1.674A1.674,1.674,0,0,0-4930.182,2042.828Z" transform="translate(4931.988 -2012.642)" fill="#9ddfd3"/>
          <path id="Path_102484" data-name="Path 102484" d="M-4901.886,2042.817a1.763,1.763,0,0,0,1.763-1.762,1.763,1.763,0,0,0-1.763-1.763,1.762,1.762,0,0,0-1.762,1.763A1.762,1.762,0,0,0-4901.886,2042.817Z" transform="translate(4917.046 -2012.542)" fill="#9ddfd3"/>
          <path id="Path_102485" data-name="Path 102485" d="M-4873.358,2042.832a1.644,1.644,0,0,0,1.644-1.644,1.644,1.644,0,0,0-1.644-1.644,1.644,1.644,0,0,0-1.644,1.644A1.644,1.644,0,0,0-4873.358,2042.832Z" transform="translate(4901.871 -2012.675)" fill="#9ddfd3"/>
        </g>
      </g>
      <rect id="Rectangle_5645" data-name="Rectangle 5645" width="40.98" height="28.597" rx="11.627" transform="translate(-4690.509 1695.664) rotate(180)" fill="#f24872"/>
      <path id="Path_102486" data-name="Path 102486" d="M-4492.92,1789.1c.909-1.557,2.4-1.557,3.306,0l6.985,11.963c.909,1.557.178,2.83-1.625,2.83h-14.035c-1.8,0-2.533-1.273-1.623-2.829Z" transform="translate(-228.76 -120.152)" fill="#fff"/>
      <g id="Group_57770" data-name="Group 57770" transform="translate(-4726.499 1669.163)">
        <path id="Path_102487" data-name="Path 102487" d="M-4494.61,1806.581a2.347,2.347,0,0,1,.206-2.389l6.992-11.964a2.377,2.377,0,0,1,1.988-1.359,2.376,2.376,0,0,1,1.991,1.362l6.984,11.961a2.348,2.348,0,0,1,.205,2.389,2.344,2.344,0,0,1-2.166,1.026h-14.035A2.345,2.345,0,0,1-4494.61,1806.581Zm7.87-13.959-6.992,11.964a1.619,1.619,0,0,0-.2,1.609,1.622,1.622,0,0,0,1.491.635h14.035a1.622,1.622,0,0,0,1.492-.635,1.623,1.623,0,0,0-.2-1.609l-6.986-11.962a1.645,1.645,0,0,0-1.318-.975A1.644,1.644,0,0,0-4486.74,1792.622Z" transform="translate(4494.85 -1790.869)"/>
      </g>
      <g id="Group_57771" data-name="Group 57771" transform="translate(-4738.068 1662.845)">
        <path id="Path_102488" data-name="Path 102488" d="M-4510.295,1806.809h27.053a5.554,5.554,0,0,0,5.548-5.547v-18.281a5.554,5.554,0,0,0-5.548-5.547H-4513.9a5.554,5.554,0,0,0-5.548,5.547v15.046a.388.388,0,0,0,.389.388.387.387,0,0,0,.388-.388v-15.046a4.776,4.776,0,0,1,4.771-4.77h30.661a4.775,4.775,0,0,1,4.771,4.77v18.281a4.775,4.775,0,0,1-4.771,4.77h-27.053a.388.388,0,0,0-.389.389A.388.388,0,0,0-4510.295,1806.809Z" transform="translate(4519.451 -1777.435)"/>
      </g>
    </g>
  </g>
</svg>
