<svg xmlns="http://www.w3.org/2000/svg" width="57.778" height="52" viewBox="0 0 57.778 52">
  <g id="t2-ic4" transform="translate(-853.058 -2336.716)">
    <path id="Path_102295" data-name="Path 102295" d="M916.91,2346.642v32.741H861.058v-32.741a1.932,1.932,0,0,1,1.926-1.926h52A1.932,1.932,0,0,1,916.91,2346.642Z" transform="translate(-7.037 -7.037)" fill="#9ddfd3"/>
    <path id="Path_102296" data-name="Path 102296" d="M1289.873,2346.642v32.741h-2.889v-32.741a1.932,1.932,0,0,0-1.926-1.926h2.889A1.932,1.932,0,0,1,1289.873,2346.642Z" transform="translate(-380 -7.037)" fill="#87bfb5"/>
    <path id="Path_102297" data-name="Path 102297" d="M888.021,2632.716H861.058v3.852a1.931,1.931,0,0,0,1.926,1.926h52a1.932,1.932,0,0,0,1.926-1.926v-3.852Z" transform="translate(-7.037 -260.37)" fill="#f1f4f6"/>
    <path id="Path_102298" data-name="Path 102298" d="M1289.873,2632.716v3.852a1.932,1.932,0,0,1-1.926,1.926h-2.889a1.932,1.932,0,0,0,1.926-1.926v-3.852Z" transform="translate(-380 -260.37)" fill="#dfeaef"/>
    <path id="Path_102299" data-name="Path 102299" d="M1148.762,2399.161v2.889l-7.7,7.7V2392.42l7.7-7.7v14.445Z" transform="translate(-253.333 -42.222)" fill="#cc3d60"/>
    <path id="Path_102300" data-name="Path 102300" d="M1008.021,2384.716l-7.7,7.7H981.058l7.7-7.7Z" transform="translate(-112.593 -42.222)" fill="#f24872"/>
    <path id="Path_102301" data-name="Path 102301" d="M1017.28,2728.716l2.889,3.852H997.058l2.889-3.852h17.333Z" transform="translate(-126.667 -344.815)" fill="#9ddfd3"/>
    <path id="Path_102302" data-name="Path 102302" d="M1049.577,2680.716l.963,5.778h-13.481l.963-5.778h11.556Z" transform="translate(-161.852 -302.593)" fill="#dfeaef"/>
    <path id="Path_102303" data-name="Path 102303" d="M981.058,2448.716h19.259v17.333H981.058Z" transform="translate(-112.593 -98.519)" fill="#ffd566"/>
    <path id="Path_102304" data-name="Path 102304" d="M1052.762,2504.716v6.741h-7.7v-2.889h3.852v-3.852Z" transform="translate(-168.889 -147.778)" fill="#ffd566"/>
    <path id="Path_102305" data-name="Path 102305" d="M1045.058,2504.716h3.852v3.852h-3.852Z" transform="translate(-168.889 -147.778)" fill="#f24872"/>
    <path id="Path_102306" data-name="Path 102306" d="M1020.762,2480.716v2.889h-3.852v3.852h-3.852v-6.741Z" transform="translate(-140.741 -126.667)" fill="#ffd566"/>
    <path id="Path_102307" data-name="Path 102307" d="M1148.762,2384.716v17.333l-7.7,7.7v-1.926l5.778-5.778v-15.407Z" transform="translate(-253.333 -42.222)" fill="#f24872"/>
    <path id="Path_102308" data-name="Path 102308" d="M1125.058,2448.716h1.926v17.333h-1.926Z" transform="translate(-239.259 -98.519)" fill="#ffc93c"/>
    <path id="Path_102309" data-name="Path 102309" d="M1085.058,2648.716h1.926v1.926h-1.926Z" transform="translate(-204.074 -274.444)"/>
    <path id="Path_102310" data-name="Path 102310" d="M907.947,2336.716h-52a2.889,2.889,0,0,0-2.889,2.889V2376.2a2.889,2.889,0,0,0,2.889,2.889h19.086l-.642,3.852h-1.11a.963.963,0,0,0-.77.385l-2.889,3.852a.963.963,0,0,0,.77,1.541H893.5a.963.963,0,0,0,.77-1.541l-2.889-3.852a.964.964,0,0,0-.77-.385H889.5l-.642-3.852h19.086a2.889,2.889,0,0,0,2.889-2.889V2339.6A2.889,2.889,0,0,0,907.947,2336.716Zm-52,1.926h52a.963.963,0,0,1,.963.963v31.778H854.984V2339.6A.963.963,0,0,1,855.947,2338.642Zm35.63,48.148H872.317l1.444-1.926h16.37Zm-4.025-3.852H876.342l.642-3.852h9.924Zm20.4-5.778h-52a.963.963,0,0,1-.963-.963v-2.889H908.91v2.889A.963.963,0,0,1,907.947,2377.16Z"/>
    <path id="Path_102311" data-name="Path 102311" d="M1006.021,2481.383h2.889v1.926a.963.963,0,0,0,.963.963h7.7a.963.963,0,0,0,.963-.963v-6.741a.963.963,0,0,0-.963-.963h-2.889v-1.926a.963.963,0,0,0-.963-.963h-7.7a.963.963,0,0,0-.963.963v6.741A.963.963,0,0,0,1006.021,2481.383Zm10.593-3.852v4.815h-5.778v-.963h2.889a.963.963,0,0,0,.963-.963v-2.889Zm-5.778,1.926v-1.926h1.926v1.926Zm-3.852-4.815h5.778v.963h-2.889a.963.963,0,0,0-.963.963v2.889h-1.926Z" transform="translate(-133.704 -119.63)"/>
    <path id="Path_102312" data-name="Path 102312" d="M893.725,2396.642v-3.852h1.926v2.889a.963.963,0,0,0,.963.963h19.259a.963.963,0,0,0,.682-.283l7.7-7.7a.963.963,0,0,0,.281-.68v-1.926h1.926v10.593a.963.963,0,0,0,.963.963h7.7v-1.926h-6.741v-10.593a.963.963,0,0,0-.963-.963h-2.889V2382.2h5.778v3.852a.963.963,0,0,0,.963.963h3.852v-1.926h-2.889v-3.852a.963.963,0,0,0-.963-.963h-6.741v-1.926h3.852a.963.963,0,0,0,.963-.963v-6.741h5.778v-1.926h-6.741a.963.963,0,0,0-.963.963v6.741h-2.889v-5.778h-.009a.937.937,0,0,0-.91-.963h-19.3a.963.963,0,0,0-.681.282l-7.7,7.7a.963.963,0,0,0-.282.681v4.815h-2.889v-13.481a.963.963,0,0,0-.963-.963h-6.741v1.926h5.778v13.482a.963.963,0,0,0,.963.963h3.852v1.926H888.91a.963.963,0,0,0-.963.963v3.852h-2.889v1.926h3.852a.963.963,0,0,0,.963-.963v-3.852h5.778v1.926h-2.889a.963.963,0,0,0-.963.963v3.852h-6.741v1.926h7.7A.963.963,0,0,0,893.725,2396.642Zm21.185-1.926H897.577v-15.407H914.91Zm1.926-1.362v-14.61l5.778-5.778v14.61Zm-12.12-21.75h16.536l-5.778,5.778H898.938Z" transform="translate(-28.148 -28.148)"/>
  </g>
</svg>
