<svg xmlns="http://www.w3.org/2000/svg" width="51.995" height="52" viewBox="0 0 51.995 52">
  <g id="t2-ic5" transform="translate(-542.69 -3645.736)">
    <path id="Path_102234" data-name="Path 102234" d="M598.974,3684.113a29.174,29.174,0,0,0-1.57-18.546l-12.937-12.214s-12.382-5.383-22.64,1.469l-9.7,10.51s-3.94,6.377-1.678,17.364Z" transform="translate(-6.084 -4.83)" fill="#dbf6e9"/>
    <path id="Path_102235" data-name="Path 102235" d="M575.986,3856.859l1.068,3.1,2.925,2.458-.525,1.875-3.469,1.608-2.449,2.577-2.575,4.268-3.559-1.849-.132-8.657h-3.689v3.652l-1.721-.269-2.847-6.284-.3-2.477,3.205-2.635,1.286-.722.625,2.278,1.412.106,4.57-.106h1.148l.639-2.037.554.72.7,2.063,1.428.527Z" transform="translate(-13.805 -178.994)" fill="#ffc93c"/>
    <path id="Path_102236" data-name="Path 102236" d="M667.35,3938.722l2.115,5.365.274,1.558-1.431.757-5.879,1.781-8.009-.579-5.876-1.87-.579-1.425,3.209-4.923,3.622-1.665,1.271-.579,2.3,2.244h1.862l2.469-1.888,1.558.044,1.647.623Z" transform="translate(-90.695 -251.05)" fill="#f5f5f5"/>
    <path id="Path_102237" data-name="Path 102237" d="M813.234,3818.214l.6,2.666-3.328,2.632-2.79-2.227.3-2.849Z" transform="translate(-228.322 -148.592)" fill="#ffd4bd"/>
    <path id="Path_102238" data-name="Path 102238" d="M758.393,3749.067v3.27l-3.071-1.123.756-1.692Z" transform="translate(-183.185 -89.021)" fill="#ffd4bd"/>
    <path id="Path_102239" data-name="Path 102239" d="M751.6,3676.464h-6.247l-1.246,1.914-.178,2.361.712,1.527a17.307,17.307,0,0,0-.89,1.988c0,.222,1.068,3.038,1.068,3.038l1.629-.59,2.362-.184,1.083-2.176.587-2.077v-2.2Z" transform="translate(-173.216 -26.473)" fill="#31326f"/>
    <path id="Path_102240" data-name="Path 102240" d="M666.43,3766.6l1.024-.52,3.852,1.357,4.7.156,1.362,1.425a14.179,14.179,0,0,0,2.552.166,21.428,21.428,0,0,0,.623-2.354l-.386-3.586-2.288-3.351-6.1-3.073-2.315.387-2.652.341-1.889,1.041-2.212,2.639-1.884,1.291.234,3.517.176,3.432,2.617-.891.74-1.3Z" transform="translate(-101.771 -95.699)" fill="#31326f"/>
    <path id="Path_102241" data-name="Path 102241" d="M632.079,3701.536l2.784,1.175,2.315,2.653,1.291,2.27v2.631l-1.692,1.666s-1.958,1.1-1.87,1.007-.294-3.019-.294-3.019l-1.895-.341-2.534-2.35-.528-1.375,1.376-1.024-.71-1.352,1.309-.767Z" transform="translate(-74.922 -48.072)" fill="#31326f"/>
    <path id="Path_102242" data-name="Path 102242" d="M840.036,3844.035l-3.917-4.1-2.075-1.318-1.423.427-2.821,2.045,2.7,1.35-1.283,1.6v2.289h3.794l3.535,1.753,1.818-1.753Z" transform="translate(-247.349 -166.169)" fill="#81c140"/>
    <path id="Path_102243" data-name="Path 102243" d="M759.714,3844.143l2.534,1.707-2.184,1.438,1.224,1.781-.787,4.1-2.633,4.71-.965.519-2.477-.577-2.021-2.109V3854l2.259-1.543,1.1-2.666,1.142-.463,1.143-.076,1.009-1.139-.087-1.708Z" transform="translate(-180.671 -170.93)" fill="#81c140"/>
    <path id="Path_102244" data-name="Path 102244" d="M813.557,3860.437s1.951.635,1.818.888-1.392,2.036-1.392,2.036l.926,2.046-4.038,1.8,1.261-3.85-.986-1.559,1.841-1.365Z" transform="translate(-231.041 -184.967)" fill="#f24872"/>
    <path id="Path_102245" data-name="Path 102245" d="M671.807,3836.853l-3.281,2.6-3.367-2.017.848-3.027-2.569-2.2-1.072-2.829-3.249-.528-.546-1.94.546-1.686,2.208-.756,1.638-2.354,2.519-1.121,1.549.916,3.251.509,3.542.594,1.484.849,1.187,1.177,1.515.187.207,2.119-.473,2.036-2.495-.254-.475,1.041-.374,1.777-1.674,1.286-1.161.823Z" transform="translate(-99.833 -150.992)" fill="#ffd4bd"/>
    <path id="Path_102246" data-name="Path 102246" d="M573.882,3754.72h6.231l1.087-2.084-1.087-1.267-.341-2.11,1.981-1.791,1.111-2.6,1.018-1.306v-3.482l-4.368-1.919-1.349-1.777-.543,1.47-1.89-1.712-.411,1.424-4.455.365-1.009,4.561,1.543,4.1,1.4.88.844,1.248.233,1.457-.452,1.564-.309,1.617Z" transform="translate(-23.405 -77.886)" fill="#ffd4bd"/>
    <path id="Path_102247" data-name="Path 102247" d="M793.462,3737.821v2.975l-1.611,2.126-1.7,1.593h-6.421l-2.136-4.085-1.018-1.638-.294-3.358.754-2.72h1.2l1.194,2.72,2.837,1.751,2.291.97h1.9Z" transform="translate(-204.692 -74.933)" fill="#ffd4bd"/>
    <path id="Path_102248" data-name="Path 102248" d="M876.111,3763.23c.208-.044,2.293-.933,2.293-.933v-2.345l-.551-.341-1.889,1-.537,1.35Z" transform="translate(-286.659 -98.105)" fill="#ffd4bd"/>
    <path id="Path_102249" data-name="Path 102249" d="M804.054,3896.021l1.821,3.383.62,4.19-1.6,4.061-2.583,2.516-4.927.717-3.435-.917-2.913-3.165-1.27-4.183,2.136-5.177,2.434-2.111,3.049-.738,2.169-.329h1.69Z" transform="translate(-212.858 -214.113)" fill="#ffc93c"/>
    <path id="Path_102250" data-name="Path 102250" d="M800.23,3650.857l-3.676,1.161-2.735,1.818-.823,3.022-.653,2.516.661,2.819s.314,1.58.458,1.908a19.459,19.459,0,0,0,2.233,1.97l2.329,1.172h2.821l3.3-.58a12.214,12.214,0,0,0,2.253-1.516c.061-.284,1.427-2.48,1.427-2.48s1.009-3.486,1.009-3.7-.741-3.064-.741-3.064-2.167-2.849-2.345-3.027-2.688-1.6-2.688-1.6Z" transform="translate(-215.079 -4.412)" fill="#9ddfd3"/>
    <path id="Path_102251" data-name="Path 102251" d="M553.21,3650.857l-.594,2.2-1.6-1.228-2.255,2.011,1.424,2.125-2.611.3v3.116h1.956l-.954,1.75,2.44,2.443,1.484-1.375.712,1.781,2.493-.209.292-1.572h.961l.847,1.068,2.147-2.018-.8-1.425.238-.768h1.978l-.448-3.03h-2.272v-.839l1.307-1.346-2.151-2.01-.843,1.524-1.253-2.493Z" transform="translate(-4.205 -4.412)" fill="#f24872"/>
    <path id="Path_102252" data-name="Path 102252" d="M715.273,3956.857l-1.988,1.43.994,2.44-1.293,4.083h5.106l-1.846-4.911,1.193-1.677Z" transform="translate(-146.712 -268.035)" fill="#9ddfd3"/>
    <path id="Path_102253" data-name="Path 102253" d="M557.67,3916.572l.132,14.066-10.231-.534.3-6.232,2.79-.267.415-2.8,3.383-.576.226-3.3Z" transform="translate(-4.205 -233.328)" fill="#81c140"/>
    <path id="Path_102254" data-name="Path 102254" d="M584.626,3682.639c.56,0,1.12,0,1.679,0,0,.612,0,1.225,0,1.837a2.557,2.557,0,0,1,1.584,1.729,5.64,5.64,0,0,1,.093,1.468H586.3c-.039-.479.139-1.058-.243-1.438s-.957-.2-1.434-.239c.031.518-.157,1.2.364,1.536.435.25.988.094,1.434.34a2.538,2.538,0,0,1,1.55,2.2c.022.876,0,1.754.007,2.63-.559,0-1.118,0-1.676,0,0,.559,0,1.118,0,1.676-.56,0-1.12,0-1.679,0q0-.918,0-1.839a2.585,2.585,0,0,1-1.518-1.513,4.681,4.681,0,0,1-.158-1.682h1.677c.039.478-.141,1.058.242,1.438s.957.2,1.434.238c-.038-.479.141-1.059-.243-1.439-.266-.287-.681-.22-1.028-.285a2.524,2.524,0,0,1-2.05-2.106c-.076-.956-.015-1.918-.032-2.878.559,0,1.117,0,1.676,0,0-.559,0-1.117,0-1.676m-13.4-5.032c.557,0,1.113,0,1.67,0a3.486,3.486,0,0,1-1.163,2.519,3.426,3.426,0,0,1-2.194.834c-1.121.009-2.241,0-3.362,0v-1.677c1.157,0,2.315.007,3.472,0a1.72,1.72,0,0,0,1.577-1.673m-15.1-11.744c.557,0,1.113,0,1.67,0a3.538,3.538,0,0,1-.846,2.2,3.405,3.405,0,0,1-2.508,1.149q-1.681.008-3.364,0v-1.677c1.156,0,2.312.005,3.468-.006a1.71,1.71,0,0,0,1.58-1.673m-6.077-13.4a.842.842,0,1,0,.964,1.155.849.849,0,0,0-.964-1.155m-.379-1.622a2.508,2.508,0,1,1-1.886,1.938,2.514,2.514,0,0,1,1.886-1.937m18.74,41.983q-.536,1.592-1.061,3.188a24.219,24.219,0,0,0,2.689.017c-.365-1.112-.739-2.221-1.109-3.333-.162.049-.468-.1-.519.128m-24.041-1.8q0,2.516,0,5.031c.559,0,1.118,0,1.676,0,0-1.677,0-3.355,0-5.032h-1.677m23.3-.933c.206.311.416.621.625.932.263,0,.525,0,.789,0q.311-.465.621-.932c-.337-.208-.678-.408-1.017-.612q-.509.305-1.018.612m7.126-2.16c-.492,1.444-.969,2.893-1.449,4.34-.737-.438-1.47-.886-2.209-1.322-.231.343-.458.689-.69,1.031q.638,1.945,1.295,3.884a24.052,24.052,0,0,0,6.433-1.729,9.3,9.3,0,0,1-1.909-5.16,9.32,9.32,0,0,0-1.471-1.044m-16.663,5.711a24.415,24.415,0,0,0,7.507,2.213c.436-1.289.86-2.581,1.289-3.873-.229-.345-.457-.692-.69-1.034-.737.438-1.471.884-2.209,1.322-.481-1.454-.96-2.908-1.455-4.358a9.629,9.629,0,0,0-4.443,5.729m-10.411-5.974q0,4.194,0,8.387H549.4q0-4.194,0-8.387h-1.677m22.465.765c.745.445,1.489.893,2.232,1.34q.431-1.283.857-2.569c-.348-.113-.7-.216-1.054-.3-.679.51-1.363,1.014-2.035,1.533M564.1,3687.2q.426,1.288.859,2.575c.751-.441,1.495-.894,2.24-1.345-.684-.513-1.364-1.028-2.051-1.536-.354.084-.7.189-1.048.306m2.528-2.951c-.116.468-.23.938-.353,1.4.8.61,1.613,1.208,2.417,1.818.8-.609,1.615-1.208,2.416-1.818-.124-.467-.238-.936-.352-1.405a15.929,15.929,0,0,1-2.062.067,16.156,16.156,0,0,1-2.065-.066m-15.549.066q0,5.87,0,11.742h1.677q0-5.87,0-11.742h-1.677m33.289-3.28a7.552,7.552,0,0,0,1.2,15.023,7.5,7.5,0,0,0,4.453-1.531,7.552,7.552,0,0,0-5.656-13.492m-2.5-1.754c-.1.289-.2.582-.294.872.31-.131.623-.258.939-.376-.057-.165-.111-.329-.166-.493l-.48,0m-30.082-1.675a7.353,7.353,0,0,0,1.805,1.573,7.206,7.206,0,0,0,1.805-1.573c-1.2,0-2.407,0-3.61,0m27.872-.074a4.23,4.23,0,0,0-1.07.746,3.554,3.554,0,0,1-2.857,1.006,5.989,5.989,0,0,1-3.386,4.5c.131.505.254,1.012.383,1.517a11.32,11.32,0,0,1,3.655,1.656,9.174,9.174,0,0,1,2.684-5.052.952.952,0,0,0,.313-.42c.322-.972.647-1.943.968-2.915-.23-.345-.457-.691-.689-1.034m1.43-.859c.207.312.416.621.625.932h.788q.313-.465.622-.932l-1.016-.612c-.34.2-.68.407-1.019.612m-35.768,1.722a23.533,23.533,0,0,0,3.672,7.6h.406v-3.355h5.032q0,4.395,0,8.792a23.422,23.422,0,0,0,2.2,1.417,11.575,11.575,0,0,1,1.451-2.982,11.276,11.276,0,0,1,6.564-4.571c.127-.505.249-1.012.383-1.516a5.979,5.979,0,0,1-3.387-4.493,3.886,3.886,0,0,1-2.081-.407,3.477,3.477,0,0,1-1.7-2.209,8.36,8.36,0,0,1-4.273,4.385,10.42,10.42,0,0,1-1.389-.8,8.271,8.271,0,0,1-3.27-4.79,6.683,6.683,0,0,0-3.613,2.927m42.893-3.887q-.73,2.17-1.448,4.345c-.739-.437-1.471-.888-2.211-1.322-.229.344-.456.688-.689,1.029.087.28.182.557.275.834a9.144,9.144,0,0,1,6.948,1.826,25.258,25.258,0,0,0,.945-2.615,9.685,9.685,0,0,0-3.82-4.1m-12.05-.269c-.088,1.124-.193,2.246-.277,3.371a2.315,2.315,0,0,0,1.042-.148,1.7,1.7,0,0,0,.96-1.864,1.724,1.724,0,0,0-1.726-1.36m-16.106.4a1.684,1.684,0,0,0-.154,2.422,1.844,1.844,0,0,0,1.587.547c-.082-1.125-.193-2.248-.274-3.373a1.788,1.788,0,0,0-1.159.4m18.991-.791c-.046.273.139.49.237.728a3.982,3.982,0,0,1,.277,1.068c.351-.212.7-.42,1.052-.635-.522-.386-1.032-.79-1.566-1.16m4.556,1.166c.746.443,1.488.9,2.234,1.34q.429-1.281.854-2.563c-.347-.115-.7-.221-1.05-.312-.68.511-1.365,1.015-2.038,1.535m-32.382-1.336a2.829,2.829,0,0,1-.748,1.084,9.976,9.976,0,0,0,.332,1.164c1.857,0,3.713,0,5.57,0a10.931,10.931,0,0,0,.329-1.161,2.829,2.829,0,0,1-.743-1.078c-.149-.46-.24-.936-.366-1.4a7.446,7.446,0,0,1-4.012,0c-.125.462-.217.934-.363,1.391m5.932-2.015c.138.494.236,1,.389,1.487a1.077,1.077,0,0,0,.8.612c-.1-.88-.217-1.757-.324-2.637-.284.188-.572.37-.869.538m6.635.094a1.714,1.714,0,0,0-.855.9,3.161,3.161,0,0,0-.06,1.482q.2,2.368.4,4.738a4.239,4.239,0,0,0,2.582,3.445c1.159.5,2.449.257,3.672.318a4.334,4.334,0,0,0,2.8-.761,4.226,4.226,0,0,0,1.778-3c.155-1.783.294-3.569.45-5.352a.8.8,0,0,0-.716-.95c-.948-.011-1.9,0-2.843,0a12.129,12.129,0,0,1-2.735-.163,6.182,6.182,0,0,1-2.79-1.489c-.561.278-1.121.559-1.681.838m16.252-.927q-.167.7-.35,1.4c.8.61,1.613,1.208,2.417,1.817.8-.608,1.615-1.206,2.417-1.816-.124-.468-.238-.936-.353-1.406a15.893,15.893,0,0,1-2.06.067,17.473,17.473,0,0,1-2.069-.063m9.109-4.969a5.982,5.982,0,0,1-3.385,4.494c.13.505.254,1.013.383,1.519a11.382,11.382,0,0,1,6.435,4.392,24.383,24.383,0,0,0-.551-11.4,3.675,3.675,0,0,1-2.881,1m-44.347,10.411a8.391,8.391,0,0,1,4.067-2.533.987.987,0,0,0,.775-.594c.145-.488.244-.987.378-1.476a7.644,7.644,0,0,1-3.727-4.743,17.04,17.04,0,0,1-.263-4.042,24.257,24.257,0,0,0-1.23,13.389M563.5,3663.49a4.608,4.608,0,0,0-1.633,3.01,4.793,4.793,0,0,0-1.515.667,2.4,2.4,0,0,0-.87,2.163c.142,1.162.3,2.321.433,3.484a4.479,4.479,0,0,1,1.316-.245,3.556,3.556,0,0,1,.79-1.529,8.228,8.228,0,0,1,2.384-1.443,6.645,6.645,0,0,1-.724-1.885q.816-.163,1.631-.322a4.566,4.566,0,0,0,.857,1.833,4.414,4.414,0,0,0,3.473,1.681,6.18,6.18,0,0,1-1.763-3.191c.542-.107,1.084-.218,1.628-.323a4.438,4.438,0,0,0,3.274,3.389,14.158,14.158,0,0,1,1.915.307,2.529,2.529,0,0,1,1.406,1.484,3.975,3.975,0,0,1,1.515.306,8.353,8.353,0,0,0,.1-4.084,8.157,8.157,0,0,0-3.013-4.635,8.042,8.042,0,0,0-4.958-1.645c-1.154.005-2.308,0-3.463,0a4.332,4.332,0,0,0-2.779.98m25.878-.189c-.022.3-.042.594-.067.891a2.251,2.251,0,0,0,1.044-.155,1.784,1.784,0,0,0,.969-1.237c-.076-.182-.152-.366-.23-.547a10.584,10.584,0,0,1-1.716,1.048m-16.143-1.832a13.185,13.185,0,0,1,1.52.723c-.043-.457-.088-.914-.114-1.373a1.817,1.817,0,0,0-1.406.65m-20.475-2.117q0,.74,0,1.48c-1.677,0-3.355,0-5.032,0q0,2.1,0,4.194a5.871,5.871,0,0,0,5.982,5.869,5.914,5.914,0,0,0,4.075-1.759,4.53,4.53,0,0,1,.333-1.687,4.681,4.681,0,0,1,1.3-1.7c.1-.9.028-1.812.048-2.716a.875.875,0,0,0-.743-.907,8.91,8.91,0,0,1-4.164-2.5c-.253.254-.506.508-.76.761-.346-.347-.7-.689-1.04-1.037m36.122-.191a14.185,14.185,0,0,1-1.719,3.156,7.675,7.675,0,0,0,4.587-3.159c-.956,0-1.912-.01-2.867,0m-5.034,0a18.01,18.01,0,0,0,1.62,2.689,17.975,17.975,0,0,0,1.62-2.69q-1.62,0-3.24,0m-4.662,0a7.653,7.653,0,0,0,4.589,3.161,14.934,14.934,0,0,1-1.733-3.165c-.952.01-1.9,0-2.856,0m-2.943.84c.088,1.182.191,2.365.3,3.547a9.894,9.894,0,0,1,2.9,5.43,4.234,4.234,0,0,0,1.312.241q1.36.006,2.723,0a4.23,4.23,0,0,0,3.771-2.628,9.668,9.668,0,0,0,.421-2.681,11.443,11.443,0,0,1-1.342.222,3.615,3.615,0,0,1-.813,2.209,3.405,3.405,0,0,1-2.554,1.2c-1.12.008-2.239,0-3.359,0v-1.677c1.156,0,2.314.007,3.47,0a1.7,1.7,0,0,0,1.572-1.7,10.278,10.278,0,0,1-2.825-.742,9.316,9.316,0,0,1-4.864-4.918,1.719,1.719,0,0,0-.706,1.5m-18.452-5.443c0,.415,0,.83,0,1.247-.494,0-.988,0-1.481,0,.347.345.692.693,1.038,1.04-.532.539-1.078,1.063-1.6,1.611a7.146,7.146,0,0,0,3.4,2.066,2.565,2.565,0,0,1,1.52,1,3.279,3.279,0,0,1,.474,2.169,6.381,6.381,0,0,1,1.677-1.751,7.581,7.581,0,0,0-5.032-7.384m31.594-2.108a12.009,12.009,0,0,1,0,5.032c1.065,0,2.13,0,3.2,0a7.52,7.52,0,0,0,0-5.031h-3.2m-6.118,0a10.115,10.115,0,0,0,0,5.03q2.2,0,4.4,0a10.137,10.137,0,0,0,0-5.03c-1.467,0-2.934,0-4.4,0m-4.911,0a7.5,7.5,0,0,0,0,5.031h3.2a11.974,11.974,0,0,1,0-5.032c-1.065,0-2.13,0-3.194,0m-5.685-1.577a2.129,2.129,0,0,0-1.462,2,2.087,2.087,0,0,0,.589,1.5c.547.558,1.108,1.1,1.656,1.661-.468.243-.951.455-1.4.722a1.878,1.878,0,0,0-.676,2.339,2.123,2.123,0,0,0,.924.956,3.653,3.653,0,0,1,2.354-.9,3.431,3.431,0,0,1,1.8-2.293,9.151,9.151,0,0,1,.819-6.087q-1.774,0-3.547,0a3,3,0,0,0-1.05.1m11.178-.1q1.62,0,3.24,0a17.823,17.823,0,0,0-1.62-2.689,17.719,17.719,0,0,0-1.62,2.688m3.312-3.161a16.836,16.836,0,0,1,1.369,2.314c.141.274.22.579.381.842.947.015,1.894,0,2.841.006a7.649,7.649,0,0,0-4.591-3.162m-7.976,3.161c.957,0,1.913.008,2.87,0a14.021,14.021,0,0,1,1.718-3.156,7.646,7.646,0,0,0-4.589,3.16m-22.812,0c.473,0,.947,0,1.419,0,.025.676-.051,1.387.037,2.042a9.282,9.282,0,0,1,6.642,8.308,7.025,7.025,0,0,1,2.228-.286c1.308.02,2.619-.046,3.924.044a3.9,3.9,0,0,1-.731-1.025,3.568,3.568,0,0,1,.83-4.184,4.387,4.387,0,0,1-.825-1.166,3.8,3.8,0,0,1,3.3-5.4c1.449-.031,2.9.03,4.349-.031a24.582,24.582,0,0,0-8.536-1.651,24.2,24.2,0,0,0-12.642,3.352m-6.967-3.354v1.684c-.505.214-1.015.419-1.52.633q-.6-.6-1.2-1.2-.6.6-1.2,1.2c.391.4.8.786,1.187,1.2-.178.519-.415,1.016-.62,1.524h-1.684v1.677h1.684c.214.507.421,1.016.636,1.522-.4.4-.8.8-1.2,1.2.4.4.795.8,1.194,1.2.4-.4.8-.8,1.2-1.2.505.213,1.014.418,1.519.632v1.686h1.677v-1.684c.505-.214,1.015-.42,1.52-.634.4.4.8.8,1.2,1.2q.6-.594,1.193-1.192-.595-.6-1.2-1.2c.214-.506.42-1.015.633-1.52h1.685v-1.677h-1.684c-.214-.505-.42-1.015-.634-1.52q.605-.6,1.2-1.2c-.4-.4-.8-.795-1.2-1.194-.4.4-.8.8-1.2,1.2-.505-.217-1.014-.422-1.52-.636v-1.684H549.4m-1.678-1.678h5.033v1.483l1.041-1.04q1.324,1.316,2.641,2.638a26.132,26.132,0,0,1,12.78-3.074,25.869,25.869,0,0,1,10.167,2.306,9.2,9.2,0,0,1,12.992,12.992,25.916,25.916,0,0,1,0,21.387,9.2,9.2,0,0,1-12.992,12.992,25.931,25.931,0,0,1-24.951-1.966q0,2.141,0,4.28-5.87,0-11.742,0v-8.387h3.355v-3.354h.925a25.744,25.744,0,0,1-4.1-11.233,26.015,26.015,0,0,1,2.9-15.278q-1.32-1.319-2.638-2.64c.346-.348.693-.694,1.038-1.042h-1.482q0-2.516,0-5.033c.5,0,.991,0,1.486,0-.349-.346-.7-.7-1.043-1.042q1.774-1.777,3.55-3.549c.348.345.692.694,1.041,1.039,0-.494,0-.988,0-1.481"/>
  </g>
</svg>
