<svg xmlns="http://www.w3.org/2000/svg" width="81" height="80.999" viewBox="0 0 81 80.999">
  <g id="t3-i2" transform="translate(-338.626 -164.67)">
    <g id="Group_57258" data-name="Group 57258" transform="translate(340.891 166.934)">
      <circle id="Ellipse_4083" data-name="Ellipse 4083" cx="38.235" cy="38.235" r="38.235" transform="translate(0)" fill="#ffc93c"/>
    </g>
    <g id="Group_57259" data-name="Group 57259" transform="translate(354.975 185.916)">
      <path id="Path_101903" data-name="Path 101903" d="M392.6,230.684l-8.269,8.269,30.238-30.238-8.269-8.269-21.969,21.969-9.992-9.992-8.269,8.269,9.992,9.992,8.269,8.269Z" transform="translate(-366.075 -200.446)" fill="#fff"/>
    </g>
    <g id="Group_57260" data-name="Group 57260" transform="translate(339.126 165.17)">
      <path id="Path_101904" data-name="Path 101904" d="M379.126,245.169a40,40,0,1,1,40-40A40.046,40.046,0,0,1,379.126,245.169Zm0-76.471A36.471,36.471,0,1,0,415.6,205.169,36.513,36.513,0,0,0,379.126,168.7Z" transform="translate(-339.126 -165.17)" stroke="#000" stroke-width="1"/>
    </g>
    <g id="Group_57261" data-name="Group 57261" transform="translate(353.113 184.152)">
      <path id="Path_101905" data-name="Path 101905" d="M382.933,239.481a1.764,1.764,0,0,1-1.247-3.012l28.991-28.99-5.774-5.774L384.18,222.427a1.763,1.763,0,0,1-2.495,0l-8.744-8.744-5.774,5.774,8.745,8.744a1.764,1.764,0,1,1-2.5,2.495l-9.991-9.991a1.763,1.763,0,0,1,0-2.495l8.269-8.269a1.816,1.816,0,0,1,2.495,0l8.744,8.744,20.722-20.721a1.765,1.765,0,0,1,2.5,0l8.269,8.269a1.764,1.764,0,0,1,0,2.5l-21.946,21.946-.023.023-8.269,8.269A1.758,1.758,0,0,1,382.933,239.481Z" transform="translate(-362.908 -197.446)" stroke="#000" stroke-width="1"/>
    </g>
  </g>
</svg>
