<svg xmlns="http://www.w3.org/2000/svg" width="168" height="150" viewBox="0 0 168 150">
  <g id="t3-i3" transform="translate(-307 -1172)">
    <rect id="Rectangle_5165" data-name="Rectangle 5165" width="168" height="150" transform="translate(307 1172)" fill="none"/>
    <g id="Group_57636" data-name="Group 57636" transform="translate(886.886 -2496.709)">
      <path id="Path_102208" data-name="Path 102208" d="M-499.971,3693.744h43.052l4.353,2.635v26.289h-40.049l-.412,40.341,5.774,18.076h-14.574l-1.888-3.9v-22.462l1.89-2.808,7.281-7.487-1.325-5.4-2.107-1.615-5.739.8v-40.931Z" transform="translate(-30.003 -3.202)" fill="#87bfb5"/>
      <path id="Path_102209" data-name="Path 102209" d="M-474.623,3773.214h46.3l10.112,3.354,11.1,6.24,9.826,14.461,2.635,12.447-1.585,13.493-4.637,10.055-9.983,9.911-13.415,6.083-14.663.624-15.768-4.368-9.969-7.955-8.027-12.635-2.736-13.278Z" transform="translate(-47.993 -53.748)" fill="#ffc93c"/>
      <path id="Path_102210" data-name="Path 102210" d="M-434.659,3813.286h44l2.964,1.776v38.781l-2.5,3.276h-44.472l-3.867-1.789v-38.456Z" transform="translate(-71.464 -79.235)" fill="#9ddfd3"/>
      <path id="Path_102211" data-name="Path 102211" d="M-438.143,3902v8.423l3.727,3.12h44.472l2.808-3.9V3902Z" transform="translate(-71.708 -135.66)" fill="#f1f4f6"/>
      <path id="Path_102212" data-name="Path 102212" d="M-382.111,3833l11.156,8.774v2.105l-10.5,7.7-2.691-1.384v-14.9Z" transform="translate(-106.054 -91.774)" fill="#f24872"/>
      <path id="Path_102213" data-name="Path 102213" d="M-475.429,3693.744l3.029,6.385h24.528l2.364-3.192,0-3.192Z" transform="translate(-47.993 -3.202)" fill="#f1f4f6"/>
      <path id="Path_102214" data-name="Path 102214" d="M-484,3733.744v5.263l1.995,1.918h4.631l1.018-3.643-1.018-3.538Z" transform="translate(-42.542 -28.644)" fill="#81c140"/>
      <path id="Path_102215" data-name="Path 102215" d="M-441.259,3733.4l-1.783,1.612v4.877l3.578.692,3.665-1.707v-3.862l-2.808-1.808Z" transform="translate(-68.592 -28.3)" fill="#ffc93c"/>
      <path id="Path_102216" data-name="Path 102216" d="M-401.595,3733.2l-3.12,1.805v3.654l2.477,1.918h3.642l1.368-1.918v-3.651l-2.652-1.808Z" transform="translate(-92.97 -28.3)" fill="#f24872"/>
      <path id="Path_102217" data-name="Path 102217" d="M-547.548,3851.628l5.609,25.9,10.813-11.16,3.978-1.79h6.668l5.732-5.547-.384-1.632-11.432-.273-4.011-1.522-1.37-13.1.8-12.128,7.86-8.813.234-5.5-3.276-1.989-4.212-.345-10.529,11.226-1.872,5.054,1.053,10.792-.585,4.828-3.393,2.958Z" transform="translate(-2.123 -79.517)" fill="#fed2a4"/>
      <path id="Path_102218" data-name="Path 102218" d="M-488.094,3743.087q-.142,7.4.007,14.81c3.407-2.26,6.566-4.888,9.889-7.276-.863-1.146-2.195-1.772-3.272-2.682-2.217-1.605-4.3-3.4-6.624-4.852m-.852-3.236c1.31-.484,2.6.284,3.614,1.048,2.839,2.137,5.674,4.284,8.539,6.384a4,4,0,0,1,1.969,3.214,3.822,3.822,0,0,1-1.776,3.057q-4.166,3.1-8.313,6.231a8.182,8.182,0,0,1-2.5,1.438,3.613,3.613,0,0,1-4.135-3.433c-.044-4.742-.015-9.492-.015-14.234a3.731,3.731,0,0,1,2.617-3.705m15.367,28.742q-.027,3.74,0,7.483c3.676.018,7.352,0,11.028,0a1.832,1.832,0,0,0,1.914-1.911c.022-1.856-.011-3.716-.007-5.572q-6.469-.033-12.935,0m-18.2,0q-.033,3.74,0,7.483c4.917,0,9.838.022,14.755,0q.027-3.745,0-7.483c-4.917,0-9.838-.022-14.755,0m-16.382,0c0,1.86-.029,3.716,0,5.576a1.842,1.842,0,0,0,1.911,1.907c3.676.022,7.356.011,11.032,0q.027-3.745,0-7.483c-4.313-.007-8.626-.018-12.939,0m0-30.85q-.016,13.7,0,27.414,23.76.022,47.52,0,.027-13.709,0-27.414a1.825,1.825,0,0,0-1.911-1.911q-21.854-.011-43.705,0a1.841,1.841,0,0,0-1.911,1.911m.965-5.216a26.463,26.463,0,0,1,3.876-.124q19.1.011,38.213,0c1.616.029,3.352-.207,4.833.608a5.5,5.5,0,0,1,3.061,5.085q.016,17.672,0,35.348a5.957,5.957,0,0,1-.721,3.207,5.618,5.618,0,0,1-5.339,2.854c-14.329-.014-28.662.025-43-.018a5.492,5.492,0,0,1-5.3-5.307c-.047-11.778.007-23.56-.025-35.341a5.755,5.755,0,0,1,4.4-6.311m55.651-18.333q1.725.033,3.454,0-.033,2.632-.007,5.267c-1.15-.015-2.3-.011-3.45,0q.044-2.632,0-5.27m3.64-3.64q2.637.044,5.27,0c-.015,1.15-.022,2.3,0,3.45q-2.632-.022-5.267.007c.022-1.15.022-2.3,0-3.454m-9.1,0q2.631.038,5.267,0-.038,1.725,0,3.45c-1.754-.029-3.509-.025-5.263,0q.027-1.725,0-3.45m5.456-5.456q1.725.027,3.45,0c-.025,1.754-.029,3.509,0,5.263q-1.725-.027-3.45,0,.038-2.632,0-5.263m-43.873,1.62q-.022,1.922,0,3.844,1.922.022,3.847,0,.022-1.916-.007-3.84-1.916-.022-3.84,0m-.826-3.268a21.9,21.9,0,0,1,4.233-.156,3.769,3.769,0,0,1,3.843,3.509q.066,1.834,0,3.676a3.811,3.811,0,0,1-2.857,3.418,31.223,31.223,0,0,1-3.956.091,3.774,3.774,0,0,1-3.844-3.509c-.044-1.223-.047-2.449-.007-3.672a3.757,3.757,0,0,1,2.588-3.356m-13.732,3.268q-.022,1.922,0,3.844,1.922.022,3.847,0,.022-1.916-.007-3.84-1.916-.022-3.84,0m-.823-3.265a22.14,22.14,0,0,1,4.229-.16,3.823,3.823,0,0,1,3.771,2.872,30,30,0,0,1,.095,3.964,3.78,3.78,0,0,1-3.512,3.843c-1.223.047-2.453.044-3.676,0a3.824,3.824,0,0,1-3.421-2.854,32.189,32.189,0,0,1-.069-4.313,3.839,3.839,0,0,1,2.584-3.349m-13.736,3.265c-.015,1.281-.007,2.559,0,3.84,1.281.007,2.562.011,3.844,0,.011-1.281,0-2.559-.007-3.84-1.281-.011-2.559-.018-3.84,0m-.823-3.265a22.14,22.14,0,0,1,4.229-.16,3.731,3.731,0,0,1,3.818,3.181c.087,1.332.062,2.671.025,4a3.807,3.807,0,0,1-2.857,3.418,31.181,31.181,0,0,1-3.953.091,3.755,3.755,0,0,1-3.847-3.512c-.044-1.223-.044-2.45,0-3.672a3.849,3.849,0,0,1,2.588-3.349m57.434-3.818q1.725.033,3.45,0c-.029,1.758-.025,3.512,0,5.267q-1.725-.027-3.45,0,.038-2.632,0-5.267m3.64-3.64q2.637.038,5.267,0-.027,1.725,0,3.45c-1.754-.025-3.509-.029-5.263,0q.027-1.725,0-3.45m-9.1,0c1.754.029,3.512.022,5.27,0-.022,1.15-.029,2.3-.007,3.454-1.754-.025-3.509-.015-5.263,0,.018-1.15.018-2.3,0-3.454m5.456-5.456q1.725.027,3.454,0c-.018,1.754-.029,3.509,0,5.263-1.154-.022-2.3-.015-3.454.007.025-1.758.033-3.512,0-5.27m-62.777,59.152c-.477.539-1.172,1.066-1.117,1.864q-.005,11.306,0,22.613a1.82,1.82,0,0,0,1.911,1.907c3.33-.018,6.664.073,9.995-.044a40.653,40.653,0,0,1-3.982-13.146c.022-1.3-.368-2.551-.389-3.847-.142-5.172.084-10.351-.117-15.52-2.2,1.955-4.16,4.157-6.3,6.173m9.809-28.415c-.025,12.531,0,25.063-.015,37.591a32.232,32.232,0,0,0,.575,5.572,36.578,36.578,0,0,0,23.96,27.858c5.864,2.264,12.251,2.089,18.428,1.929a35.284,35.284,0,0,0,9.1-1.9,36.58,36.58,0,0,0,24.022-27.884,36.4,36.4,0,0,0-5.081-26.235,36.307,36.307,0,0,0-30.122-16.939c-13.62.011-27.243-.011-40.863.011m.5-29.1c.255,1.4.3,3.629,2.14,3.814q10.193.054,20.389,0c1.834-.189,1.885-2.417,2.14-3.814q-12.333-.049-24.67,0m-11.429,1.893c0,12.844-.022,25.685.011,38.526a8,8,0,0,1,7.4,2.42c.167-5.722.055-11.45.069-17.176q20.02.033,40.04,0,.016-11.891,0-23.774a1.819,1.819,0,0,0-1.576-1.882c-2.1-.087-4.193,0-6.289-.04-.662,1.594-.622,3.447-1.62,4.9a5.608,5.608,0,0,1-4.79,2.384c-6.326,0-12.652.011-18.977,0a5.609,5.609,0,0,1-4.8-2.4c-.994-1.449-.946-3.3-1.609-4.884-1.984.029-3.971-.018-5.955.007a1.821,1.821,0,0,0-1.911,1.911m-3.421.353a5.625,5.625,0,0,1,6.053-5.689c14.333.015,28.666-.021,43,.018a5.5,5.5,0,0,1,5.307,5.307c.076,7.934-.062,15.873.073,23.807a41.9,41.9,0,0,1,13.885,2.548c14.217,5.066,24.87,18.938,25.82,34.027a21.024,21.024,0,0,1-.051,6.985c-1.008,15.05-11.767,28.782-25.94,33.78a41.819,41.819,0,0,1-11.086,2.388,53.923,53.923,0,0,1-13.842-.724,39.755,39.755,0,0,1-24.419-15.377c-1.984,1.194-3.134,3.487-5.354,4.353-2.064,1.034-4.4.99-6.646.935a5.454,5.454,0,0,0-4.266,1.645c-3.439,3.359-6.828,6.777-10.2,10.2-.091.018-.273.062-.364.084a16.731,16.731,0,0,1-2.089-2.067c.033-.4.368-.644.615-.914,3.49-3.312,6.77-6.843,10.271-10.144,2.406-2.228,5.882-2.355,8.975-2.217,2.566.095,4.44-1.951,5.918-3.782-3.556-.211-7.123.018-10.682-.12a5.5,5.5,0,0,1-4.957-5.285c-.044-7.294,0-14.591-.018-21.885a5.7,5.7,0,0,1,1.682-4.371c1.936-1.947,3.891-3.88,5.834-5.823a3.742,3.742,0,0,0,1-4.255,3.5,3.5,0,0,0-5.6-1.052c-3.159,3.141-6.278,6.322-9.463,9.434a2.55,2.55,0,0,0-.939,1.689c-.025,4.987-.007,9.976-.011,14.963a10.343,10.343,0,0,1-1.569,5.645,35.517,35.517,0,0,1-4.222,4.441,9.634,9.634,0,0,1-2.351-2.147c1.605-2.107,4.386-3.571,4.7-6.46.076-5.358-.015-10.719.033-16.073a5.556,5.556,0,0,1,1.674-4c2.73-2.722,5.452-5.463,8.2-8.175.517-.542,1.187-1.132,1.045-1.966q-.005-19.861,0-39.723" transform="translate(0 0)"/>
    </g>
  </g>
</svg>
