<svg xmlns="http://www.w3.org/2000/svg" xmlns:xlink="http://www.w3.org/1999/xlink" width="431.972" height="374.332" viewBox="0 0 431.972 374.332">
  <defs>
    <clipPath id="clip-path">
      <path id="Path_103168" data-name="Path 103168" d="M-5444.028,1439.925a15.77,15.77,0,0,0-2.237.161V1414.51h-23.2a15.551,15.551,0,0,0,.136-2.058,15.52,15.52,0,0,0-15.52-15.519,15.52,15.52,0,0,0-15.52,15.519,15.551,15.551,0,0,0,.136,2.058h-23.494v77.462h77.462V1470.8a15.751,15.751,0,0,0,2.237.161,15.52,15.52,0,0,0,15.52-15.519A15.52,15.52,0,0,0-5444.028,1439.925Z" transform="translate(5523.727 -1396.933)" fill="none" clip-rule="evenodd"/>
    </clipPath>
    <clipPath id="clip-path-2">
      <path id="Path_103172" data-name="Path 103172" d="M-5396.214,1296.324v21.183a15.522,15.522,0,0,1,13.929,15.439,15.521,15.521,0,0,1-13.929,15.439v25.231h77.942v-77.293Z" transform="translate(5396.214 -1296.324)" fill="none" clip-rule="evenodd"/>
    </clipPath>
  </defs>
  <g id="banner-princiapal" transform="translate(5684.539 -969.643)">
    <path id="Path_103129" data-name="Path 103129" d="M-5539.123,1170.612a78.46,78.46,0,0,1,78.459,78.461,78.459,78.459,0,0,1-78.459,78.459,78.459,78.459,0,0,1-78.459-78.459A78.46,78.46,0,0,1-5539.123,1170.612Z" transform="translate(-24.237 -72.747)" fill="#484991" fill-rule="evenodd"/>
    <path id="Path_103130" data-name="Path 103130" d="M-5530.24,1195.153a62.8,62.8,0,0,1,62.8,62.8,62.8,62.8,0,0,1-62.8,62.8,62.8,62.8,0,0,1-62.8-62.8A62.8,62.8,0,0,1-5530.24,1195.153Z" transform="translate(-33.12 -81.631)" fill="#5e60bf" fill-rule="evenodd"/>
    <path id="Path_103131" data-name="Path 103131" d="M-5399.07,1320.914l17.434,11.072,5.973,13.308-5.973,9.961-19.282,2.542-4.375-12.5Z" transform="translate(-101.082 -127.154)" fill="#81a19a" fill-rule="evenodd"/>
    <g id="Group_57865" data-name="Group 57865" transform="translate(-5602.691 969.643)">
      <path id="Path_103132" data-name="Path 103132" d="M-5216.892,1426.281a2,2,0,0,1-1.87-1.289,2,2,0,0,1,1.156-2.581,2.024,2.024,0,0,1,2.667,1.145,2,2,0,0,1-1.181,2.571A2.118,2.118,0,0,1-5216.892,1426.281Z" transform="translate(5434.135 -1133.485)" fill="#ffc93c"/>
      <path id="Path_103133" data-name="Path 103133" d="M-5328.826,1258.638a2,2,0,0,1-1.874-1.3,2,2,0,0,1,1.168-2.577l.163-.061a2,2,0,0,1,2.577,1.167,2,2,0,0,1-1.168,2.577l-.163.061A1.988,1.988,0,0,1-5328.826,1258.638Zm10.236-3.952a2,2,0,0,1-1.866-1.277,2,2,0,0,1,1.141-2.589l.136-.053a2,2,0,0,1,2.605,1.1,2,2,0,0,1-1.1,2.6l-.188.074A2.006,2.006,0,0,1-5318.59,1254.686Zm10.165-4.135a2,2,0,0,1-1.84-1.213,2,2,0,0,1,1.05-2.627l.163-.07a2,2,0,0,1,2.626,1.055,2,2,0,0,1-1.055,2.626l-.156.067A2.007,2.007,0,0,1-5308.425,1250.551Zm9.863-4.789a2,2,0,0,1-1.717-.969,2,2,0,0,1,.682-2.747l.139-.084a2,2,0,0,1,2.749.665,2,2,0,0,1-.664,2.75l-.159.1A1.988,1.988,0,0,1-5298.562,1245.761Zm9.179-5.989a2,2,0,0,1-1.64-.85,2,2,0,0,1,.487-2.788l.138-.1a2,2,0,0,1,2.789.479,2,2,0,0,1-.479,2.789l-.146.1A2,2,0,0,1-5289.383,1239.773Zm8.7-6.663a2,2,0,0,1-1.541-.724,2,2,0,0,1,.264-2.818l.109-.091a2,2,0,0,1,2.821.221,2,2,0,0,1-.221,2.82l-.157.132A1.994,1.994,0,0,1-5280.686,1233.11Zm8.075-7.4a1.991,1.991,0,0,1-1.4-.575,2,2,0,0,1-.023-2.829l.134-.135a2,2,0,0,1,2.83,0,2,2,0,0,1,0,2.83l-.113.112A1.988,1.988,0,0,1-5272.61,1225.708Zm7.284-8.179a1.992,1.992,0,0,1-1.251-.44,2,2,0,0,1-.307-2.813l.1-.123a2,2,0,0,1,2.811-.331,2,2,0,0,1,.332,2.81l-.12.149A2,2,0,0,1-5265.326,1217.529Zm6.325-8.951a1.984,1.984,0,0,1-1.056-.3,2,2,0,0,1-.64-2.756l.086-.139a2,2,0,0,1,2.751-.655,2,2,0,0,1,.655,2.752l-.1.158A2,2,0,0,1-5259,1208.578Zm5.208-9.633a2,2,0,0,1-.84-.186,2,2,0,0,1-.975-2.656l.078-.168a2,2,0,0,1,2.662-.96,2,2,0,0,1,.96,2.662l-.069.149A2,2,0,0,1-5253.793,1198.945Zm4.013-10.192a1.986,1.986,0,0,1-.62-.1,2,2,0,0,1-1.283-2.522l.059-.178a2,2,0,0,1,2.53-1.265,2,2,0,0,1,1.265,2.53l-.05.153A2,2,0,0,1-5249.78,1188.753Zm-301.407-5.557a2.016,2.016,0,0,1-2-2.067l.006-.174a1.981,1.981,0,0,1,2.065-1.934,2,2,0,0,1,1.935,2.065l-.006.175A2,2,0,0,1-5551.187,1183.2Zm304.218-5.03a2.02,2.02,0,0,1-.4-.04,2,2,0,0,1-1.564-2.357l.039-.192a2,2,0,0,1,2.375-1.538,2,2,0,0,1,1.538,2.374l-.03.149A2,2,0,0,1-5246.97,1178.167Zm-304.116-5.933a2,2,0,0,1-2-1.978v-.175a2,2,0,0,1,1.979-2.023,2.006,2.006,0,0,1,2.022,1.979l0,.173a2,2,0,0,1-1.979,2.023Zm305.8-4.894a2.045,2.045,0,0,1-.224-.012,2,2,0,0,1-1.768-2.209l.017-.148a2,2,0,0,1,2.188-1.794,2,2,0,0,1,1.795,2.188l-.022.2A2,2,0,0,1-5245.285,1167.34Zm-306.067-6.065a2,2,0,0,1-2-1.912l-.007-.2a2,2,0,0,1,1.934-2.065,2,2,0,0,1,2.065,1.933l.006.152a2,2,0,0,1-1.911,2.087Zm306.745-4.872a2.011,2.011,0,0,1-2-2.044l0-.175a2,2,0,0,1,2-1.956,2.011,2.011,0,0,1,2,2.046l0,.173A2,2,0,0,1-5244.607,1156.4Zm-307.236-6.081a2,2,0,0,1-2-1.911l-.007-.153a2,2,0,0,1,1.887-2.107,1.978,1.978,0,0,1,2.107,1.887l.011.195a2,2,0,0,1-1.91,2.088Zm307.048-4.879a2,2,0,0,1-2-1.89l-.011-.195a2,2,0,0,1,1.91-2.088,2,2,0,0,1,2.087,1.91l.008.153a2,2,0,0,1-1.888,2.107C-5244.723,1145.443-5244.76,1145.443-5244.8,1145.443Zm-307.7-6.065a2,2,0,0,1-1.994-1.867l-.011-.175a2,2,0,0,1,1.864-2.128,2,2,0,0,1,2.127,1.864l.013.173a2,2,0,0,1-1.864,2.128C-5552.4,1139.378-5552.448,1139.378-5552.493,1139.378Zm306.774-4.857a2,2,0,0,1-1.986-1.78l-.018-.154a2,2,0,0,1,1.747-2.226,1.989,1.989,0,0,1,2.226,1.746l.022.193a2,2,0,0,1-1.768,2.209A2.1,2.1,0,0,1-5245.719,1134.521Zm-307.544-6.078a2,2,0,0,1-1.994-1.868l-.011-.153a2,2,0,0,1,1.841-2.148,2,2,0,0,1,2.148,1.841l.014.195a2,2,0,0,1-1.863,2.129C-5553.173,1128.442-5553.218,1128.444-5553.263,1128.444Zm179.289-4.681a2,2,0,0,1-2-1.935,2,2,0,0,1,1.935-2.065l.131,0a1.984,1.984,0,0,1,2.107,1.888,2,2,0,0,1-1.89,2.106l-.218.009Zm126.72-.1a2,2,0,0,1-1.97-1.672l-.029-.168a2,2,0,0,1,1.64-2.306,2,2,0,0,1,2.306,1.64l.028.176a2,2,0,0,1-1.644,2.3A2.038,2.038,0,0,1-5247.254,1123.667Zm-137.447-.761a2.018,2.018,0,0,1-.378-.037l-.191-.038a2,2,0,0,1-1.563-2.357,2,2,0,0,1,2.356-1.564l.149.03a2,2,0,0,1,1.59,2.341A2,2,0,0,1-5384.7,1122.906Zm21.53-.771a2,2,0,0,1-1.932-1.49,2,2,0,0,1,1.422-2.445l.153-.041a2,2,0,0,1,2.456,1.4,2,2,0,0,1-1.4,2.457l-.183.049A2,2,0,0,1-5363.171,1122.135Zm-31.976-2.5a2,2,0,0,1-.8-.17l-.148-.065a2,2,0,0,1-1.039-2.631,2,2,0,0,1,2.63-1.039l.171.074a2,2,0,0,1,1.024,2.637A2,2,0,0,1-5395.146,1119.632Zm42.206-1.379a2,2,0,0,1-1.8-1.115,2,2,0,0,1,.907-2.68l.147-.073a2,2,0,0,1,2.685.895,2,2,0,0,1-.895,2.684l-.164.082A2,2,0,0,1-5352.94,1118.253Zm-201.115-.746a2,2,0,0,1-2-1.912l-.009-.152a2,2,0,0,1,1.889-2.107,1.99,1.99,0,0,1,2.106,1.887l.01.2a2,2,0,0,1-1.909,2.087Zm149.312-3.144a1.99,1.99,0,0,1-1.123-.346l-.119-.079a2,2,0,0,1-.573-2.771,2,2,0,0,1,2.771-.573l.171.114a2,2,0,0,1,.529,2.779A2,2,0,0,1-5404.744,1114.363Zm155.44-1.467a2,2,0,0,1-1.953-1.583l-.036-.165a2,2,0,0,1,1.534-2.378,2,2,0,0,1,2.377,1.533l.037.175a2,2,0,0,1-1.538,2.374A2,2,0,0,1-5249.3,1112.9Zm-94.28-.331a2,2,0,0,1-1.621-.826,2,2,0,0,1,.443-2.794l.137-.1a2,2,0,0,1,2.8.437,2,2,0,0,1-.437,2.8l-.145.105A2,2,0,0,1-5343.584,1112.565Zm-69.861-4.854a2,2,0,0,1-1.348-.521l-.105-.094a2,2,0,0,1-.178-2.824,2,2,0,0,1,2.824-.177l.153.136a2,2,0,0,1,.133,2.827A2,2,0,0,1-5413.445,1107.711Zm-140.809-1.163a2,2,0,0,1-2-2.022l0-.2a2,2,0,0,1,2-1.956,2.009,2.009,0,0,1,2,2.045l0,.15A2,2,0,0,1-5554.254,1106.548Zm219.04-1.05a1.989,1.989,0,0,1-1.436-.608,2,2,0,0,1,.044-2.829l.112-.11a2,2,0,0,1,2.83.022,2,2,0,0,1-.021,2.829l-.137.132A1.99,1.99,0,0,1-5335.214,1105.5Zm83.415-3.276a2,2,0,0,1-1.93-1.475l-.049-.182a2,2,0,0,1,1.422-2.446,2,2,0,0,1,2.446,1.422l.042.153a2,2,0,0,1-1.4,2.457A2.009,2.009,0,0,1-5251.8,1102.223Zm-169.17-2.462a2,2,0,0,1-1.583-.776l-.1-.134a2,2,0,0,1,.35-2.807,2,2,0,0,1,2.808.35l.109.14a2,2,0,0,1-.355,2.807A2,2,0,0,1-5420.969,1099.761Zm93.12-2.379a1.985,1.985,0,0,1-1.251-.441,2,2,0,0,1-.308-2.812l.105-.133a2,2,0,0,1,2.813-.312,2,2,0,0,1,.313,2.813l-.111.138A2,2,0,0,1-5327.849,1097.382Zm-225.825-1.772q-.1,0-.2-.01a2,2,0,0,1-1.794-2.187l.014-.153a2.013,2.013,0,0,1,2.17-1.816,2,2,0,0,1,1.815,2.17l-.018.193A2,2,0,0,1-5553.674,1095.609Zm298.3-3.736a2,2,0,0,1-1.84-1.213l-.076-.179a2,2,0,0,1,1.077-2.616,2,2,0,0,1,2.616,1.077l.061.142a2,2,0,0,1-1.051,2.627A2,2,0,0,1-5255.377,1091.874Zm-171.289-1.447a2,2,0,0,1-1.82-1.168l-.08-.177a2,2,0,0,1,1.013-2.642,2,2,0,0,1,2.643,1.013l.063.14a2,2,0,0,1-.986,2.652A2,2,0,0,1-5426.666,1090.427Zm105.172-1.972a1.989,1.989,0,0,1-1.057-.3,2,2,0,0,1-.64-2.756l.108-.172a2,2,0,0,1,2.766-.6,2,2,0,0,1,.6,2.765l-.076.121A2,2,0,0,1-5321.494,1088.455Zm-230.779-3.706a2.082,2.082,0,0,1-.357-.032,2,2,0,0,1-1.615-2.323l.026-.147a2,2,0,0,1,2.3-1.645,2,2,0,0,1,1.645,2.3l-.034.2A2,2,0,0,1-5552.273,1084.749Zm291.979-2.66a2,2,0,0,1-1.726-.985l-.093-.16a2,2,0,0,1,.722-2.736,2,2,0,0,1,2.736.723l.082.14a2,2,0,0,1-.707,2.74A2,2,0,0,1-5260.295,1082.089Zm-169.383-2.16a2,2,0,0,1-1.98-1.734l-.025-.2a2,2,0,0,1,1.743-2.229,2,2,0,0,1,2.229,1.743l.019.147a2,2,0,0,1-1.715,2.25A2.073,2.073,0,0,1-5429.678,1079.929Zm113.519-1.054a2,2,0,0,1-.876-.2,2,2,0,0,1-.92-2.675l.076-.157a2,2,0,0,1,2.675-.921,2,2,0,0,1,.921,2.675l-.076.157A2,2,0,0,1-5316.159,1078.875Zm-233.854-4.84a1.961,1.961,0,0,1-.508-.066,2,2,0,0,1-1.43-2.441l.044-.168a2,2,0,0,1,2.441-1.43,2,2,0,0,1,1.43,2.442l-.044.168A2,2,0,0,1-5550.013,1074.035Zm283.63-1.051a2,2,0,0,1-1.591-.787l-.124-.163a2,2,0,0,1,.419-2.8,2,2,0,0,1,2.8.419l.086.114a2,2,0,0,1-.375,2.8A1.988,1.988,0,0,1-5266.383,1072.984Zm-162.923-3.958a2.026,2.026,0,0,1-.378-.037,2,2,0,0,1-1.589-2.34l.038-.191a2,2,0,0,1,2.357-1.564,2,2,0,0,1,1.564,2.357l-.03.15A2,2,0,0,1-5429.306,1069.026Zm117.412-.252a1.993,1.993,0,0,1-.679-.119,2,2,0,0,1-1.2-2.56l.053-.151a2,2,0,0,1,2.553-1.221,2,2,0,0,1,1.222,2.552l-.064.177A2,2,0,0,1-5311.894,1068.774Zm38.433-4.153a2,2,0,0,1-1.46-.632l-.118-.126a2,2,0,0,1,.088-2.828,2,2,0,0,1,2.828.089l.119.126a2,2,0,0,1-.089,2.828A1.993,1.993,0,0,1-5273.461,1064.621Zm-273.405-1.076a2.008,2.008,0,0,1-.666-.115,2,2,0,0,1-1.221-2.552l.056-.158a2,2,0,0,1,2.547-1.23,2,2,0,0,1,1.229,2.549l-.059.17A2,2,0,0,1-5546.866,1063.545Zm121.217-4.808a2,2,0,0,1-.92-.225,2,2,0,0,1-.854-2.7l.084-.164a2,2,0,0,1,2.7-.841,2,2,0,0,1,.841,2.7l-.076.145A2,2,0,0,1-5425.649,1058.737Zm116.854-.479a2,2,0,0,1-.44-.049,2,2,0,0,1-1.514-2.391l.045-.2a2,2,0,0,1,2.41-1.481,2,2,0,0,1,1.481,2.41l-.032.144A2,2,0,0,1-5308.8,1058.259Zm27.437-1.237a2,2,0,0,1-1.323-.5l-.106-.094a2,2,0,0,1-.222-2.822,2,2,0,0,1,2.82-.219l.155.134a2,2,0,0,1,.177,2.824A2,2,0,0,1-5281.359,1057.021Zm-261.469-3.656a2,2,0,0,1-.839-.186,2,2,0,0,1-.976-2.657l.061-.131a2,2,0,0,1,2.642-1.013,2,2,0,0,1,1.014,2.642l-.085.185A2,2,0,0,1-5542.828,1053.365Zm252.9-3.182a2,2,0,0,1-1.189-.392l-.14-.1a2,2,0,0,1-.419-2.8,2,2,0,0,1,2.8-.418l.141.1a2,2,0,0,1,.419,2.8A2,2,0,0,1-5289.93,1050.183Zm-129.544-.473a1.994,1.994,0,0,1-1.323-.5,2,2,0,0,1-.177-2.824l.094-.108a2,2,0,0,1,2.82-.22,2,2,0,0,1,.22,2.821l-.134.154A2,2,0,0,1-5419.474,1049.71Zm112.456-2.267c-.066,0-.135,0-.2-.01a2,2,0,0,1-1.791-2.19l.015-.149a2,2,0,0,1,2.168-1.818,2,2,0,0,1,1.817,2.168l-.018.2A2,2,0,0,1-5307.018,1047.443Zm7.964-3.347a2,2,0,0,1-1.03-.287l-.175-.107a2,2,0,0,1-.64-2.756,2,2,0,0,1,2.757-.638l.122.074a2,2,0,0,1,.682,2.748A2,2,0,0,1-5299.054,1044.1Zm-238.855-.515a1.993,1.993,0,0,1-.979-.257,2,2,0,0,1-.764-2.725l.081-.144a2,2,0,0,1,2.723-.775,2,2,0,0,1,.773,2.721l-.089.16A2,2,0,0,1-5537.909,1043.581Zm126.289-1.5a2,2,0,0,1-1.562-.749,2,2,0,0,1,.307-2.812l.111-.091a2,2,0,0,1,2.817.264,2,2,0,0,1-.265,2.817l-.158.13A1.993,1.993,0,0,1-5411.62,1042.082Zm102.989-3.328a1.979,1.979,0,0,1-.9-.217l-.155-.078a2,2,0,0,1-.882-2.688,2,2,0,0,1,1.78-1.1c0-.075-.016-.249-.016-.249a2,2,0,0,1,1.889-2.108,1.988,1.988,0,0,1,2.107,1.887l.01.175a2,2,0,0,1-1.849,2.1,1.982,1.982,0,0,1-.2,1.174A2,2,0,0,1-5308.631,1038.754Zm-94.064-3.024a2,2,0,0,1-1.715-.969,2,2,0,0,1,.681-2.746l.122-.075a2,2,0,0,1,2.756.639,2,2,0,0,1-.639,2.756l-.175.108A1.993,1.993,0,0,1-5402.7,1035.73Zm-129.447-1.463a1.991,1.991,0,0,1-1.138-.356,2,2,0,0,1-.5-2.784l.088-.129a2,2,0,0,1,2.778-.53,2,2,0,0,1,.53,2.78l-.108.159A2,2,0,0,1-5532.143,1034.268Zm213.556-.112a2,2,0,0,1-.769-.154l-.16-.067a2,2,0,0,1-1.077-2.616,2,2,0,0,1,2.616-1.077l.161.067a2,2,0,0,1,1.076,2.616A2,2,0,0,1-5318.587,1034.156Zm-74.491-3.676a2,2,0,0,1-1.8-1.125,2,2,0,0,1,.922-2.675l.175-.083a2,2,0,0,1,2.665.947,2,2,0,0,1-.947,2.666l-.139.067A1.993,1.993,0,0,1-5393.078,1030.48Zm64.219-.16a2,2,0,0,1-.64-.105l-.159-.053a2,2,0,0,1-1.265-2.531,2,2,0,0,1,2.531-1.265l.172.057a2,2,0,0,1,1.256,2.535A2,2,0,0,1-5328.859,1030.32Zm-10.539-3.027a2.029,2.029,0,0,1-.487-.06l-.164-.041a2,2,0,0,1-1.462-2.422,2,2,0,0,1,2.423-1.462l.175.043a2,2,0,0,1,1.454,2.426A2,2,0,0,1-5339.4,1027.293Zm-43.556-.987a2,2,0,0,1-1.919-1.435,2,2,0,0,1,1.353-2.485l.161-.048a2,2,0,0,1,2.49,1.344,2,2,0,0,1-1.345,2.49l-.174.052A2.02,2.02,0,0,1-5382.954,1026.306Zm74.521-.646a2,2,0,0,1-1.939-1.516l-.039-.154a2,2,0,0,1,1.437-2.438,2,2,0,0,1,2.438,1.436l.048.185a2,2,0,0,1-1.457,2.427A2.021,2.021,0,0,1-5308.433,1025.661Zm-217.143-.162a2,2,0,0,1-1.253-.441,2,2,0,0,1-.307-2.813l.13-.158a2,2,0,0,1,2.816-.264,2,2,0,0,1,.265,2.817l-.092.111A1.994,1.994,0,0,1-5525.575,1025.5Zm175.421-.341a2.023,2.023,0,0,1-.31-.024l-.152-.023a2,2,0,0,1-1.693-2.266,2,2,0,0,1,2.266-1.694l.194.03a2,2,0,0,1,1.67,2.284A2,2,0,0,1-5350.154,1025.158Zm-22.042-.872a2,2,0,0,1-1.988-1.8,2,2,0,0,1,1.794-2.188l.2-.018a2,2,0,0,1,2.168,1.818,2,2,0,0,1-1.818,2.168l-.152.014C-5372.064,1024.283-5372.131,1024.287-5372.2,1024.287Zm11.131-.224c-.09,0-.264-.01-.264-.01a2,2,0,0,1-1.91-2.088,1.993,1.993,0,0,1,2.087-1.91l.174.008a2,2,0,0,1,1.91,2.086A2,2,0,0,1-5361.065,1024.063Zm-157.215-6.727a2,2,0,0,1-1.414-.586,2,2,0,0,1,0-2.829l.1-.1a2,2,0,0,1,2.828-.044,2,2,0,0,1,.045,2.829l-.144.147A2,2,0,0,1-5518.28,1017.335Zm206.039-1.929a2,2,0,0,1-1.787-1.1l-.07-.137a2,2,0,0,1,.854-2.7,2,2,0,0,1,2.7.854l.087.173a2,2,0,0,1-.881,2.688A1.987,1.987,0,0,1-5312.241,1015.407Zm-198.075-5.592a1.994,1.994,0,0,1-1.51-.688,2,2,0,0,1,.2-2.823l.145-.124a2,2,0,0,1,2.82.221,2,2,0,0,1-.221,2.82l-.118.1A1.992,1.992,0,0,1-5510.316,1009.814Zm191.937-3.455a2,2,0,0,1-1.5-.677l-.114-.131a2,2,0,0,1,.177-2.824,2,2,0,0,1,2.823.177l.115.13a2,2,0,0,1-.178,2.824A1.99,1.99,0,0,1-5318.38,1006.359Zm-183.379-3.391a2,2,0,0,1-1.629-.835,2,2,0,0,1,.462-2.791l.115-.085a2,2,0,0,1,2.8.418,2,2,0,0,1-.418,2.8l-.166.121A1.99,1.99,0,0,1-5501.759,1002.968Zm175.177-3.847a1.991,1.991,0,0,1-1.163-.375l-.142-.1a2,2,0,0,1-.462-2.791,2,2,0,0,1,2.792-.461l.142.1a2,2,0,0,1,.461,2.791A2,2,0,0,1-5326.582,999.122Zm-166.1-2.3a2,2,0,0,1-1.705-.953,2,2,0,0,1,.654-2.752l.14-.087a2,2,0,0,1,2.756.64,2,2,0,0,1-.641,2.756l-.158.1A1.987,1.987,0,0,1-5492.686,996.822Zm156.922-3.687a1.991,1.991,0,0,1-1.014-.278l-.156-.092a2,2,0,0,1-.7-2.742,2,2,0,0,1,2.742-.7l.144.085a2,2,0,0,1,.708,2.74A2,2,0,0,1-5335.764,993.135Zm-147.4-1.749a2,2,0,0,1-1.773-1.07,2,2,0,0,1,.841-2.7l.163-.086a2,2,0,0,1,2.7.856,2,2,0,0,1-.856,2.7l-.145.075A2,2,0,0,1-5483.164,991.385Zm137.746-3.437a1.987,1.987,0,0,1-.876-.2l-.147-.072a2,2,0,0,1-.935-2.671,2,2,0,0,1,2.67-.935l.166.08a2,2,0,0,1,.921,2.675A2,2,0,0,1-5345.418,987.948Zm-127.85-1.279a2,2,0,0,1-1.841-1.213,2,2,0,0,1,1.052-2.627l.151-.065a2,2,0,0,1,2.631,1.039,2,2,0,0,1-1.039,2.63l-.167.073A2,2,0,0,1-5473.268,986.669Zm117.8-3.1a2.009,2.009,0,0,1-.724-.136l-.17-.066a2,2,0,0,1-1.13-2.594,2,2,0,0,1,2.594-1.131l.154.06a2,2,0,0,1,1.142,2.59A2,2,0,0,1-5355.467,983.572Zm-107.591-.9a2,2,0,0,1-1.889-1.342,2,2,0,0,1,1.229-2.547l.165-.057a2,2,0,0,1,2.548,1.229,2,2,0,0,1-1.23,2.548l-.164.058A2.021,2.021,0,0,1-5463.058,982.675Zm97.227-2.667a2.008,2.008,0,0,1-.573-.084l-.187-.057a2,2,0,0,1-1.318-2.5,2,2,0,0,1,2.5-1.317l.147.044a2,2,0,0,1,1.344,2.49A2,2,0,0,1-5365.831,980.008Zm-86.761-.6a2,2,0,0,1-1.928-1.469,2,2,0,0,1,1.4-2.46l.173-.048a2,2,0,0,1,2.457,1.4,2,2,0,0,1-1.4,2.457l-.162.044A2.006,2.006,0,0,1-5452.592,979.406Zm76.155-2.162a2.018,2.018,0,0,1-.441-.049l-.153-.034a2,2,0,0,1-1.533-2.378,1.992,1.992,0,0,1,2.378-1.532l.187.041a2,2,0,0,1,1.514,2.391A2,2,0,0,1-5376.437,977.244Zm-65.49-.379a2,2,0,0,1-1.959-1.6,2,2,0,0,1,1.564-2.358l.171-.034a2,2,0,0,1,2.357,1.564,2,2,0,0,1-1.564,2.357l-.17.035A2.054,2.054,0,0,1-5441.927,976.865Zm54.708-1.594a2.031,2.031,0,0,1-.289-.021l-.175-.026a2,2,0,0,1-1.689-2.269,2,2,0,0,1,2.269-1.69l.168.024a2,2,0,0,1,1.694,2.266A2,2,0,0,1-5387.219,975.271Zm-43.9-.218a2,2,0,0,1-1.979-1.736,2,2,0,0,1,1.719-2.248l.172-.023a2.007,2.007,0,0,1,2.248,1.719,2,2,0,0,1-1.719,2.248l-.173.023A2.118,2.118,0,0,1-5431.114,975.053Zm33-.978c-.051,0-.1,0-.155-.006l-.153-.011a2,2,0,0,1-1.863-2.129,2,2,0,0,1,2.129-1.863l.194.014a2,2,0,0,1,1.842,2.148A2,2,0,0,1-5398.116,974.075Zm-22.088-.1a2,2,0,0,1-2-1.89,2,2,0,0,1,1.887-2.108l.153-.01a2,2,0,0,1,2.127,1.864,2,2,0,0,1-1.864,2.128l-.194.012C-5420.128,973.977-5420.166,973.978-5420.2,973.978Zm11.134-.333h-.2a2,2,0,0,1-1.979-2.023,1.99,1.99,0,0,1,2.023-1.978h.151a2,2,0,0,1,2,2A2,2,0,0,1-5409.07,973.645Z" transform="translate(5556.254 -969.643)" fill="#ffc93c"/>
      <path id="Path_103134" data-name="Path 103134" d="M-5551.279,1319.306a1.952,1.952,0,0,1-.783-.163,1.98,1.98,0,0,1-1.055-2.586,1.978,1.978,0,0,1,2.53-1.222,2.022,2.022,0,0,1,1.237,2.565c-.049.145-.078.209-.078.209A2.041,2.041,0,0,1-5551.279,1319.306Z" transform="translate(5555.175 -1094.737)" fill="#ffc93c"/>
    </g>
    <path id="Path_103135" data-name="Path 103135" d="M-5544.352,1074.634a12.7,12.7,0,0,1,12.7,12.7,12.7,12.7,0,0,1-12.7,12.7,12.7,12.7,0,0,1-12.7-12.7A12.7,12.7,0,0,1-5544.352,1074.634Z" transform="translate(-46.148 -38.005)" fill="#ffc93c" fill-rule="evenodd"/>
    <path id="Path_103136" data-name="Path 103136" d="M-5549.3,1193.16l-9.324-17.834-4.187-5.544-8.41-3.691h-11.083l-13.115,1.84-16.77,6.568-9.069,7.617-10.253,11.045-6.153,12.609-5.98,11.487-2.294,6.171,3.968,8.958,5.537,6.784,7.178,4.175,10.253,1.29,9.843-3.377,6.052-2.087v-3.354l-1.744-9.844,9.638-4.1,6.5-2.495,44.341-14.481Z" transform="translate(-13.972 -71.11)" fill="#fed2a4" fill-rule="evenodd"/>
    <path id="Path_103137" data-name="Path 103137" d="M-5225.722,1463.008l1.641,53.791h28.711l6.671-7.307,3.535-21.671-8.019-22.955-7.761-2.57Z" transform="translate(-166.084 -178.332)" fill="#fed2a4" fill-rule="evenodd"/>
    <path id="Path_103138" data-name="Path 103138" d="M-5410.825,1152.612l-3.9,6.865.182,14.976,2.893,29.569,8.757,21.313,11.612,8.79,7.177-.44-7.448,7.506,63.163,1.366,4.128-18.267-3.923-2.377-6.735.616-2.51-1.846-7.01-15.355,8.792-7.744s9.219-11.358,3.4-15.794-15.916,2.529-15.916,2.529l-3.757,3.263s4.177-22.868-2.553-28.107-12.737-7.364-23.984-3.123S-5402.417,1161.855-5410.825,1152.612Z" transform="translate(-97.669 -66.232)" fill="#fed2a4" fill-rule="evenodd"/>
    <path id="Path_103139" data-name="Path 103139" d="M-5425.471,1133.292l.717,8.713h-3.589l-12.509-10.459-3.281-10.664,1.641-2.358h4.2l.746-3.589.9-10.766,2.974.513,7.177,2.973,12.92-4.341,15.278-3.759,16.9,1.333s14.479,4.829,14.89,4.876,9.434,1.892,9.434,1.892l6.357-1.892,5.16-2.078-3.417,8.195-14.048,6.952-36.408-2.153-23.269,12.817-1.846,5.127Z" transform="translate(-87.023 -47.026)" fill="#31326f" fill-rule="evenodd"/>
    <path id="Path_103140" data-name="Path 103140" d="M-5403.684,1551.444h-190.494a2,2,0,0,1-2-2,2,2,0,0,1,2-2h190.494a2,2,0,0,1,2,2A2,2,0,0,1-5403.684,1551.444Z" transform="translate(-31.985 -209.154)"/>
    <path id="Path_103141" data-name="Path 103141" d="M-5106.015,1551.444h-166.14a2,2,0,0,1-2-2,2,2,0,0,1,2-2h166.14a2,2,0,0,1,2,2A2,2,0,0,1-5106.015,1551.444Z" transform="translate(-148.552 -209.154)"/>
    <path id="Path_103142" data-name="Path 103142" d="M-5231.806,978.108a9.221,9.221,0,0,1,9.22,9.221,9.22,9.22,0,0,1-9.22,9.22,9.22,9.22,0,0,1-9.22-9.22A9.221,9.221,0,0,1-5231.806,978.108Z" transform="translate(-160.543 -3.064)" fill="#f24872" fill-rule="evenodd"/>
    <path id="Path_103143" data-name="Path 103143" d="M-5073.112,1269.32a9.221,9.221,0,0,1,9.22,9.22,9.221,9.221,0,0,1-9.22,9.221,9.222,9.222,0,0,1-9.221-9.221A9.221,9.221,0,0,1-5073.112,1269.32Z" transform="translate(-217.988 -108.478)" fill="#81c140" fill-rule="evenodd"/>
    <path id="Path_103144" data-name="Path 103144" d="M-5351.342,1188.255l3.826,8.176s14.647-7.131,21.225-20.876,5.966-33.9.521-42.8-17.571-13.222-17.571-13.222l6.437-4.176-7.133-2.086,2.784-7.829-16,10.437s-18.625-12.893-35.663-8.525-21.93,11.145-25.053,10.265-10.09-5.915-10.09-5.915a10.941,10.941,0,0,0-1.564,6.437c.136,4.1,2.957,9.917,2.957,9.917s-7.207-3.6-7.133-1.044c.1,3.3.631,3.313,4,6.785,6.111,6.3,10.09,7.132,10.09,7.132l1.739-4.523s11.037,6.314,20.007,5.219,29.678-7.608,35.315-1.043c7.022,8.176,3.827,29.922,3.827,29.922l6.611-5.741s13.629-6.483,14.439,2.609S-5351.342,1188.255-5351.342,1188.255Z" transform="translate(-90.762 -49.158)" fill="#5557ad" fill-rule="evenodd"/>
    <path id="Path_103145" data-name="Path 103145" d="M-5275.1,1392.65s-15.77-39.571-12.525-62.455,10.089-65.238,10.089-65.238,63.761.7,88.9,34.446c9.946,13.351,22.791,29.578,32.531,47.494,14.878,27.362,22.5,46.05,25.573,57.583,3.286,12.316,4.376,21.124,1.392,27.661s-13.118,13.372-27.661,13.222-57.235-1.741-57.235-1.741,9.4-19.563,5.567-30.444a138.466,138.466,0,0,0-10.09-21.4s-31.5-.366-41.058.174S-5275.1,1392.65-5275.1,1392.65Z" transform="translate(-143.515 -106.899)" fill="#e8fffa" fill-rule="evenodd"/>
    <path id="Path_103146" data-name="Path 103146" d="M-5489.819,1357.209s-9.438-27.6-8-41.926,17.4-44.188,17.4-44.188-7.751-1.273-9.569-2.262a2.554,2.554,0,0,0-3.13.522s-45.826,2.553-75.678,20.528-44.709,26.444-44.709,26.444.162-18.461,2.262-32.36a53.255,53.255,0,0,1,5.044-16s-24.111,12.255-32.879,8.524c-13.44-5.717-19.485-20.528-19.485-20.528s-11.965,33.334-18.266,57.061-6.637,54.55,10.09,66.8,47.809,9.369,79.33-4,52.713,5.914,52.713,5.914Z" transform="translate(-1.343 -103.642)" fill="#e8fffa" fill-rule="evenodd"/>
    <g id="Group_57866" data-name="Group 57866" transform="translate(-5684.539 1050.11)">
      <path id="Path_103147" data-name="Path 103147" d="M-5276.5,1331.912c-3.779-10.409-7.911-19.735-12.176-29.223-17.123-38.084-38.384-72.368-76.537-88.886-19.154-8.293-41.9-13.455-68.36-14.438a23.64,23.64,0,0,1-2.435-5.217c13.276-6.466,22.358-18.7,25.048-36.182,3.066-19.927-5.017-35.042-18.091-41.92,1.92-1.436,4.856-2.372,4.523-5.219-.361-3.077-4.564-2.71-8.35-2.784.2-2.353,4.2-5.8,2.087-8.174-1.652-1.852-5.809.873-7.828,1.738-2.965,1.273-5.835,2.433-7.826,3.306-12.958-6.794-36.124-13.093-52.881-6.088-4.236,1.771-8.344,5.361-12.176,5.566-4.737.254-7.713-5.094-11.829-4-4.366,1.162-3.607,9.727-3.478,14.613-5.3-1.036-7.292,2.728-6.436,7.478,1.81,10.037,11.931,16.326,18.612,21.049.127,3.2-.285,5.861-.174,9.044a5.351,5.351,0,0,1-.621.366c-.012.726-.048,1.452-.114,2.176.009.55-.551.585-.577,1.068-.02.4.055-.845,0-.447.41-.2,1.125.094,1.381,0,1.189,19.017,4.5,38.476,13.323,49.543,1.271,1.594,2.891,2.867,4,4.522-24.635,2.477-45.973,7.118-64.708,15.307s-34.947,18.677-50.793,29.048c-.078-21.878,4.34-39.262,10.263-55.14,1.917,2.294,3.935,6.624,7.653,7.306,3.392.621,5.322-1.155,7.307-2.784a9.556,9.556,0,0,0,7.479,2.436c1.969-.272,3.078-1.591,4.348-1.914,4.581,4.2,11.687,1.554,12.7-3.653,6.925.6,9.371-3.828,9.393-10.437.032-10.019-4.921-19.047-8-26.092-3.515-8.038-7.1-16.142-13.394-20.874-6.863-5.16-18.065-5.1-28.354-3.306-9.977,1.744-18.793,4.542-25.4,8.872-13.3,8.72-22.149,23.4-29.224,39.137-7.28,16.193-12.654,33.807-17.22,51.314-2.237,8.576-4.765,17.822-6.783,27.31-1.991,9.352-3.46,20.578-1.393,30.788,1.8,8.909,5.755,17.261,11.133,23.136,5.647,6.168,12.064,10.184,22.613,11.653,10.652,1.485,21.1-.39,30.441-2.609,28-6.648,51.136-17,78.1-24.7,5.079,27.16,10.052,54.424,14.612,82.1h4.523c-5.131-29.72-10.522-61.585-16.352-91.5-.5-2.57-1.167-11.45-4.348-11.133-3.34.334-1.236,5.4-.87,7.306.64,3.335,1.025,6.527,1.565,8.872-19.679,6.065-38.55,12.8-58.445,19.133-16.8,5.343-46.349,14.985-63.144,2.783-7.811-5.675-12.483-13.9-14.959-23.829-2.58-10.353-.919-23.475,1.566-34.269,4.832-20.98,10.369-41.881,17.394-60.359,4.424,7.742,8.96,15.51,19.308,17.047,11.334,1.684,20.439-3.793,28.354-6.958a151.614,151.614,0,0,0-5.393,40.355c0,3.731-1.209,13.234,3.132,12.177,2.415-.587,1.036-4.607,1.391-6.61,24.454-16.636,50.532-33.694,85.408-40.876,8.3-1.711,18.2-3.166,27.135-4.35,2.833-.376,6.974-1.359,9.393-1.218,1.644.1,3.44,1.362,5.566,1.218-7.461,10.94-13.964,21.1-14.959,37.92-.948,16.039,2.965,32.384,5.566,46.966,5.358,30.029,11.656,59.531,18.612,87.322,1.451-.116,3.362.23,4.523-.175-8.511-34.475-16.341-70.647-22.266-107.847-1.958-12.294-3.779-26.72.173-38.79a47.6,47.6,0,0,0,33.224,6.61c11.7-1.844,21.934-6.68,30.267-10.785-4.519,34.317,4.051,67.027,9.915,94.28-12.383,1.532-28.477,1.74-36.528,7.827a8.32,8.32,0,0,0-2.957,4c-1.707,4.9,2.536,9.654,6.262,10.089,4.191.488,7.362-2.2,11.132-3.48a24.018,24.018,0,0,1,12.872-.7,64.812,64.812,0,0,0-14.785,7.479c-4.247,2.99-9.046,7.053-9.741,12.523-.686,5.4,1.772,10.449,6.783,10.612-.5,5,4.213,6.452,8.524,5.044a7.122,7.122,0,0,0,5.044,5.567c9.767,3.168,18.9-6.148,29.571-5.045,2.693.278,5.314,1.345,8,1.914,8.857,1.871,18.259.7,28.179.173,12.677-.673,26.251-.906,39.486-.348,12.337.519,27.046,1,38.442-.87,11.971-1.959,20.362-6.762,21.047-19.133C-5268.326,1353.056-5272.962,1341.667-5276.5,1331.912Zm-362.33-115.325c-10.8-.943-14.57-10.763-18.786-18.788,5.7-14.536,12.326-27.223,21.395-37.05,9.758-10.571,21.956-15.817,40.878-17.568,7.275-.674,14.829.581,18.96,4.347,5.6,5.107,8.794,13.856,12.176,21.743a103.116,103.116,0,0,1,4.7,12.352c1.34,4.665,3.376,15.774-3.479,14.436-2.861-9.168-5.433-17-8.871-26.44-.689-1.892-1.958-7.332-4.349-7.306-4.166.046-.479,6.975.348,9.219,2.675,7.254,4.453,12.959,6.958,20.526.869,2.625,2.924,8.967-.7,9.742-1.933.412-3.253-1.253-4.871-2.262-1.707-9.136-5.826-18-9.565-26.44-1.17-2.637-3.374-10.284-6.785-5.914.285,3.114,1.948,5.7,3.131,8.349,2.353,5.266,4.52,10.511,6.609,16.176.994,2.7,2.279,5.784,1.913,9.047-2.812,2.186-6.005-.632-7.826-2.088a170.874,170.874,0,0,0-9.394-23.309c-.894-1.9-2.312-6.247-4.7-6.089-4.173.281-.162,6.23.523,7.654,2.748,5.731,4.824,10.679,7.3,16.7.656,1.592,3.653,7.867.174,8.349-1.924.268-4-2.554-5.044-4.175-3.475-5.381-5.6-12.823-9.567-17.568a9.748,9.748,0,0,0-4.348-3.131c-4.344-1.009-7.31,2.808-10.959,2.609a7.18,7.18,0,0,1-3.479-1.391c-1.153-.751-4.146-2.71-4.871.174-.715,2.849,5.345,5.689,8.523,5.741,3.683.061,6.587-3,9.219-2.784,2.2.18,3.966,3.7,4.871,5.393,1.363,2.546,1.776,4.054,3.3,6.783-1.627,4.518-3.4,8.888-4.7,13.742C-5618.413,1211.3-5626.624,1217.651-5638.833,1216.587Zm169.945,26.265c-9.462.032-16.958-3.376-23.309-7.305a71.144,71.144,0,0,1,12.177-20.352c-1,6.5,6.417,5.851,4.521-1.217,8.574-1.9,15.406-5.912,21.569-10.785,1.411-1.117,5.331-3.3,5.393-5.393a2.108,2.108,0,0,0-2.087-2.26c-1.931-.1-4.841,3.3-6.436,4.523-6.05,4.647-12.992,9.347-22.613,10.088-17.674,1.362-23.039-13.455-26.613-26.439-2.373-8.615-3.635-19.242-3.973-29.736,11.244-3.586,16.94,6.475,15.974,17.559-.328,3.764-2.928,6.648-2.783,10.09.1,2.458,2.139,6.433,4.348,6.436a2.672,2.672,0,0,0,2.263-1.913c.192-1.609-1.934-2.844-2.088-4.523-.134-1.469,1.021-3.611,1.565-5.219,4.527-13.363-3.751-29.822-19.306-25.4-1.077-4.105,2.664-14.824-1.565-14.96-1.658-.053-2.01.951-2.436,2.436-3.222-2.257-6.726-4.658-9.393-7.654-2.576-2.894-5.3-6.549-5.219-11.48,2.276-.3,2.935,1.094,4.872.7,3.917-.806.035-11.646,2.086-15.134,4.055,1.575,6.784,4.74,11.828,3.827,3.961-.717,6.8-3.262,10.959-5.219a38.543,38.543,0,0,1,13.219-3.48c13.465-.928,25.4,3.363,34.963,7.655,1.447.65,3.131,1.7,4.349,1.74,3.371.119,6.782-3.263,9.915-3.828-.416,1.963-2.131,3.357-1.74,5.393.456,2.362,3.312,1.656,6.089,1.564-1.348,1.237-3.872,1.2-3.826,3.48.029,1.522,2.273,2.549,4,3.477,11.057,5.944,18.644,16.438,17.221,34.269-1.438,18.046-9.77,29.224-22.787,36.354a10.481,10.481,0,0,1-1.739-4.522c5.093-4.411,12.613-8.683,13.568-17.221.758-6.78-4.158-11.655-10.612-11.654-4.736,0-7.9,3.177-10.263,4.7.974-15.67-.394-29.721-14.785-30.615-5.012-.312-10.338.816-15.133,2.088-4.745,1.256-9.164,3.13-13.917,3.13-5.331,0-9.749-1.938-13.567-3.826-1.476-.729-5.718-3.211-5.915.349-.143,2.6,5.393,4.381,7.48,5.217a32.321,32.321,0,0,0,10.088,2.61c11.746.854,19.665-6.291,31.832-5.046,10.492,1.075,10.632,16.554,9.22,28.18-.165,1.357-.714,2.772-.522,3.827a3.153,3.153,0,0,0,3.131,2.437c1.951-.081,2.922-2.666,4.347-4.176,1.819-1.922,4.945-4.795,8.873-4.349,3.875.441,6.374,3.965,4.87,8.525-1.42,4.3-4.711,7.234-8.35,9.913-1.343.989-4.452,2.536-4.87,4.7-.4,2.066.824,4.261,1.392,5.74.7,1.808,1.448,3.478,2.087,4.87,1.543,3.37,2.249,6.254,4.871,9.046,3.729-.54,7.671.013,11.654.172-2.3,8.025-3.936,16.707-5.566,25.4C-5439.656,1235.6-5452.927,1242.8-5468.888,1242.852Zm73.406,138.635c-3.52-.774-7-2.077-10.611-2.087-7.98-.02-14.83,4.891-22.092,5.566-2.814.263-5.06-.166-6.262-1.913,2.669-4.924,8.529-7.319,14.612-10.088,2.6-1.183,5.428-2.415,8.7-3.654,2.289-.866,8.01-1.779,8-4.348-.014-4.326-7.5-.4-9.045.173-7.847,2.89-16.347,6.072-22.438,10.959-1.048.841-2.17,2.626-3.479,3.132-.443.17-4.147,1.305-5.043-.348-1.624-2.994,5.17-6.921,6.608-8,7.226-5.423,15.073-8.985,24.353-12.7,1.64-.655,4.156-1.6,4.176-3.131.035-2.865-3.117-2.082-4.872-1.393-9.829,3.863-20.687,8.772-28.354,15.134-.659.548-1.447.937-2.261,1.565-.892.691-2.648,3.669-4.522,3.306-1.348-.261-2.029-3.2-1.566-5.567a11.083,11.083,0,0,1,2.783-5.044c6.452-7.377,19.92-12.485,31.485-15.308,2.872-.7,3.99-.989,4-2.609.033-4.608-7.356-.2-10.089-.174-1.519.018-3.882-1.146-6.262-1.566-5.517-.971-12.239-.664-16.874,1.044-2.412.889-5.937,3.359-8.523,2.957a3.559,3.559,0,0,1-2.608-3.827c.44-3.8,9.884-5.662,14.786-6.61,12.28-2.377,25.7-3.21,38.964-3.827,3.408-.158,6.951-.348,10.436-.348,6.681,0,12.056-.348,19.308-.348,2.512,0,6.424-.554,8.176,0,1.4.445,3.093,3.8,4,5.219,3.469,5.427,6.92,12.321,6.958,20.526.044,9.521-3.245,15.931-6.262,22.96C-5372.218,1380.916-5383.536,1384.119-5395.482,1381.486Zm119.153-7.305c-5.891,7.188-22.793,7.788-35.659,7.479-14.581-.349-28.484-.754-42.269-.7,3.107-7.384,6.426-15.919,5.392-26.092-.942-9.272-5.468-16.562-9.045-22.265,9.6.011,18.938.415,28.7.869,2.876.135,7.219,1.192,7.3-1.739.075-2.539-3.426-2.3-5.566-2.435-7.448-.471-15.081-.881-22.613-1.044a225.177,225.177,0,0,0-14.09-26.092c-1.225-2-3.366-7.451-5.914-7.306a2.661,2.661,0,0,0-1.914,1.391c-.683,2.338,3.425,6.79,4.176,8a223.118,223.118,0,0,1,12.7,23.83c-20.623-.144-41.456-.1-60.708,1.566-6.147-27.717-14.569-60.494-9.915-94.627a221.535,221.535,0,0,1,4.174-22.613,68.959,68.959,0,0,0,1.74-7.654c22.587,2.248,45.058,8.232,61.229,17.221,33.5,18.625,51.965,51.492,68.361,88.017,3.938,8.77,7.609,17.961,11.133,28.006C-5275.917,1347.111-5269.538,1365.895-5276.33,1374.181Z" transform="translate(5684.539 -1095.764)" fill-rule="evenodd"/>
      <path id="Path_103148" data-name="Path 103148" d="M-5359.636,1168.986a22.612,22.612,0,0,1,9.394,1.739c1.63.685,8.523,3.712,5.045,6.262-1.7,1.249-4.7-1.182-5.915-1.739a22.212,22.212,0,0,0-15.655-.695c-1.8.556-7.334,3.832-7.306-.348.015-2.111,3.925-3.193,5.914-3.827A29.582,29.582,0,0,1-5359.636,1168.986Z" transform="translate(5572.155 -1122.265)" fill-rule="evenodd"/>
      <path id="Path_103149" data-name="Path 103149" d="M-5300.779,1207.9c.9-.235,2.392-.343,2.784,1.217.551,2.2-3.8,6.48-5.566,6.437a2,2,0,0,1-2.088-1.74C-5305.923,1211.869-5302.056,1208.239-5300.779,1207.9Z" transform="translate(5547.391 -1136.306)" fill-rule="evenodd"/>
      <path id="Path_103150" data-name="Path 103150" d="M-5386.141,1245.823c2.471-.7,4.532,2.691,8,2.782,2.861.076,8-3.307,8,.87,0,2.861-5.977,3.776-9.044,3.479-3.443-.335-8.439-2.657-8.525-5.045A1.964,1.964,0,0,1-5386.141,1245.823Z" transform="translate(5577.092 -1150.049)" fill-rule="evenodd"/>
    </g>
    <path id="Path_103151" data-name="Path 103151" d="M-5353.742,1198.984a2.87,2.87,0,0,1,3.1,2.62l.355,4.164a2.871,2.871,0,0,1-2.612,3.107,2.869,2.869,0,0,1-3.1-2.618l-.354-4.164A2.872,2.872,0,0,1-5353.742,1198.984Z" transform="translate(-118.794 -83.014)" fill-rule="evenodd"/>
    <path id="Path_103152" data-name="Path 103152" d="M-5399.827,1198.994a2.869,2.869,0,0,1,3.105,2.615l.354,4.161a2.869,2.869,0,0,1-2.615,3.1,2.87,2.87,0,0,1-3.1-2.615l-.355-4.16A2.87,2.87,0,0,1-5399.827,1198.994Z" transform="translate(-102.11 -83.017)" fill-rule="evenodd"/>
    <path id="Path_103153" data-name="Path 103153" d="M-5544.757,1315.78l-17.743,4.871-20.182-73.587,11.52-3.1c.8-.213,13.2,19.85,14.055,19.622,12.1-3.251,30.514-3.409,40.708-12.178,3.254-2.8-.027-18.679.1-22.628.042-1.337,8.08-1.727,8.08-1.727l6.958,20.179-38.621,44.71Z" transform="translate(-36.87 -93.18)" fill="#ecd4ff" fill-rule="evenodd"/>
    <path id="Path_103154" data-name="Path 103154" d="M-5484.952,1281.75a16.758,16.758,0,0,0,11.914-20.537,16.856,16.856,0,0,0-20.636-11.855c-.062.016-5.262-19.3-5.262-19.3l-75.292,20.077,20.172,74.917,21.427-5.714a16.759,16.759,0,0,1,11.93-20.477,16.859,16.859,0,0,1,20.624,11.8l21.31-5.682-6.248-23.207Z" transform="translate(-39.93 -94.265)" fill="#81c140" fill-rule="evenodd"/>
    <path id="Path_103155" data-name="Path 103155" d="M-5510.353,1227.316l4.418,16.425,1.025,3.81,3.824-.972a14.052,14.052,0,0,1,3.666-.5,13.673,13.673,0,0,1,13.194,10.09,13.448,13.448,0,0,1-1.351,10.289,13.568,13.568,0,0,1-8.3,6.36l-3.961,1,1.055,3.922,5.511,20.491-14.992,4a21.73,21.73,0,0,0-19.5-12.194,21.771,21.771,0,0,0-5.578.729,21.673,21.673,0,0,0-16.054,22.443l-15.116,4.034-19.08-70.919,71.241-19.014Zm2.827-4.9L-5586.5,1243.5l21.158,78.646,22.474-6a17.6,17.6,0,0,1,12.513-21.5,17.793,17.793,0,0,1,4.588-.6,17.671,17.671,0,0,1,17.044,12.989l22.351-5.965-6.553-24.362a17.607,17.607,0,0,0,12.561-21.575,17.667,17.667,0,0,0-17.058-13.052,17.761,17.761,0,0,0-4.585.6c-.065.017-5.521-20.263-5.521-20.263Z" transform="translate(-35.489 -91.501)"/>
    <path id="Path_103156" data-name="Path 103156" d="M-5377.738,1208.623a2,2,0,0,1-1.974-1.691c-.026-.131-.22-.95-.924-1.058-.611-.112-1.483.933-1.728,1.358a2,2,0,0,1-2.732.735,2,2,0,0,1-.735-2.732c.827-1.436,2.98-3.755,5.8-3.316a5.223,5.223,0,0,1,4.268,4.393,2,2,0,0,1-1.665,2.287A2.106,2.106,0,0,1-5377.738,1208.623Z" transform="translate(-108.03 -84.06)"/>
    <g id="Group_57867" data-name="Group 57867" transform="translate(-5521.063 1107.351)" style="mix-blend-mode: screen;isolation: isolate">
      <path id="Path_103157" data-name="Path 103157" d="M-5401.007,1199.135a13.654,13.654,0,0,1-13.653,13.653,13.655,13.655,0,0,1-13.655-13.653,13.655,13.655,0,0,1,13.655-13.654A13.655,13.655,0,0,1-5401.007,1199.135Z" transform="translate(5428.315 -1185.481)" fill="#666" fill-rule="evenodd"/>
      <path id="Path_103158" data-name="Path 103158" d="M-5414.661,1189.134a10.012,10.012,0,0,1,10,10,10.011,10.011,0,0,1-10,10,10.012,10.012,0,0,1-10-10,10.012,10.012,0,0,1,10-10Zm0-3.653a13.654,13.654,0,0,0-13.654,13.654,13.654,13.654,0,0,0,13.654,13.654,13.654,13.654,0,0,0,13.654-13.654,13.655,13.655,0,0,0-13.654-13.654Z" transform="translate(5428.315 -1185.481)" fill="#ccc"/>
    </g>
    <g id="Group_57868" data-name="Group 57868" transform="translate(-5484.64 1107.351)" style="mix-blend-mode: screen;isolation: isolate">
      <path id="Path_103159" data-name="Path 103159" d="M-5343.918,1199.135a13.653,13.653,0,0,1-13.654,13.653,13.653,13.653,0,0,1-13.653-13.653,13.654,13.654,0,0,1,13.653-13.654A13.654,13.654,0,0,1-5343.918,1199.135Z" transform="translate(5371.226 -1185.481)" fill="#666" fill-rule="evenodd"/>
      <path id="Path_103160" data-name="Path 103160" d="M-5357.573,1189.134a10.012,10.012,0,0,1,10,10,10.011,10.011,0,0,1-10,10,10.012,10.012,0,0,1-10-10,10.012,10.012,0,0,1,10-10Zm0-3.653a13.654,13.654,0,0,0-13.653,13.654,13.653,13.653,0,0,0,13.653,13.654,13.653,13.653,0,0,0,13.653-13.654,13.653,13.653,0,0,0-13.653-13.654Z" transform="translate(5371.226 -1185.481)" fill="#ccc"/>
    </g>
    <path id="Path_103161" data-name="Path 103161" d="M-5359.351,1214.139a16.8,16.8,0,0,1-16.79-16.781,16.805,16.805,0,0,1,16.79-16.784,16.806,16.806,0,0,1,16.791,16.784A16.8,16.8,0,0,1-5359.351,1214.139Zm0-29.564a12.8,12.8,0,0,0-12.789,12.783,12.8,12.8,0,0,0,12.789,12.78,12.8,12.8,0,0,0,12.79-12.78A12.8,12.8,0,0,0-5359.351,1184.575Z" transform="translate(-111.635 -76.354)"/>
    <path id="Path_103162" data-name="Path 103162" d="M-5416.077,1214.14a16.8,16.8,0,0,1-16.772-16.786,16.8,16.8,0,0,1,16.772-16.789,16.8,16.8,0,0,1,16.771,16.789A16.8,16.8,0,0,1-5416.077,1214.14Zm0-29.574a12.794,12.794,0,0,0-12.771,12.788,12.793,12.793,0,0,0,12.771,12.785,12.792,12.792,0,0,0,12.77-12.785A12.793,12.793,0,0,0-5416.077,1184.567Z" transform="translate(-91.107 -76.35)"/>
    <rect id="Rectangle_5684" data-name="Rectangle 5684" width="15.974" height="33.315" transform="translate(-5429.912 1257.347)" fill="#7aada4"/>
    <g id="Group_57869" data-name="Group 57869" transform="translate(-5504.154 1237.622)">
      <path id="Path_103163" data-name="Path 103163" d="M-5315.84,1438.924a15.685,15.685,0,0,0-2.237.161v-25.576h-23.2a15.534,15.534,0,0,0,.137-2.058,15.52,15.52,0,0,0-15.52-15.519,15.519,15.519,0,0,0-15.52,15.519,15.453,15.453,0,0,0,.137,2.058h-23.5v77.462h77.463V1469.8a15.685,15.685,0,0,0,2.237.162,15.52,15.52,0,0,0,15.52-15.52A15.52,15.52,0,0,0-5315.84,1438.924Z" transform="translate(5399.541 -1391.931)" fill="#ffc93c" fill-rule="evenodd"/>
      <path id="Path_103164" data-name="Path 103164" d="M-5358.931,1393.662a15.519,15.519,0,0,1,15.519,15.518,15.451,15.451,0,0,1-.137,2.058h23.2v25.576a15.8,15.8,0,0,1,2.238-.161,15.52,15.52,0,0,1,15.519,15.521,15.52,15.52,0,0,1-15.519,15.519,15.76,15.76,0,0,1-2.238-.161V1488.7h-77.463v-77.462h23.5a15.451,15.451,0,0,1-.137-2.058,15.519,15.519,0,0,1,15.521-15.518Zm0-4a19.548,19.548,0,0,0-19.426,17.577h-23.454V1492.7h85.465v-21.087a19.548,19.548,0,0,0,17.757-19.441,19.549,19.549,0,0,0-17.757-19.442v-25.494h-23.161a19.546,19.546,0,0,0-19.424-17.577Z" transform="translate(5401.811 -1389.661)"/>
    </g>
    <g id="Group_57870" data-name="Group 57870" transform="translate(-5585.94 1237.622)">
      <path id="Path_103165" data-name="Path 103165" d="M-5444.028,1438.924a15.68,15.68,0,0,0-2.237.161v-25.576h-23.2a15.535,15.535,0,0,0,.136-2.058,15.52,15.52,0,0,0-15.52-15.519,15.52,15.52,0,0,0-15.52,15.519,15.535,15.535,0,0,0,.136,2.058h-23.494v77.462h77.462V1469.8a15.68,15.68,0,0,0,2.237.162,15.52,15.52,0,0,0,15.52-15.52A15.52,15.52,0,0,0-5444.028,1438.924Z" transform="translate(5527.729 -1391.931)" fill="#85bdb3" fill-rule="evenodd"/>
      <path id="Path_103166" data-name="Path 103166" d="M-5487.121,1393.662a15.519,15.519,0,0,1,15.52,15.518,15.617,15.617,0,0,1-.136,2.058h23.2v25.576a15.789,15.789,0,0,1,2.238-.161,15.52,15.52,0,0,1,15.52,15.521,15.52,15.52,0,0,1-15.52,15.519,15.753,15.753,0,0,1-2.238-.161V1488.7H-5526v-77.462h23.494a15.617,15.617,0,0,1-.135-2.058,15.519,15.519,0,0,1,15.519-15.518Zm0-4a19.547,19.547,0,0,0-19.424,17.577H-5530V1492.7h85.465v-21.087a19.547,19.547,0,0,0,17.756-19.441,19.548,19.548,0,0,0-17.756-19.442v-25.494h-23.161a19.549,19.549,0,0,0-19.426-17.577Z" transform="translate(5529.999 -1389.661)"/>
    </g>
    <g id="Group_57872" data-name="Group 57872" transform="translate(-5581.938 1242.261)">
      <g id="Group_57871" data-name="Group 57871" clip-path="url(#clip-path)">
        <path id="Path_103167" data-name="Path 103167" d="M-5436.723,1446.1a15.579,15.579,0,0,0-2.237.161v-25.575h-23.2a15.721,15.721,0,0,0,.135-2.058,15.519,15.519,0,0,0-15.519-15.519,15.519,15.519,0,0,0-15.519,15.519,15.471,15.471,0,0,0,.136,2.058h-23.495v77.462h77.462v-21.171a15.6,15.6,0,0,0,2.237.161,15.519,15.519,0,0,0,15.52-15.519A15.52,15.52,0,0,0-5436.723,1446.1Z" transform="translate(5521.083 -1399.169)" fill="#9ddfd3" fill-rule="evenodd"/>
      </g>
    </g>
    <rect id="Rectangle_5685" data-name="Rectangle 5685" width="15.974" height="75.87" transform="translate(-5429.912 1182.52)" fill="#92d1c5"/>
    <g id="Group_57873" data-name="Group 57873" transform="translate(-5504.581 1174.073)">
      <path id="Path_103169" data-name="Path 103169" d="M-5396.214,1296.324v21.183a15.522,15.522,0,0,1,13.929,15.439,15.521,15.521,0,0,1-13.929,15.439v25.231h77.942v-77.293Z" transform="translate(5400.212 -1292.326)" fill="#cc3d60" fill-rule="evenodd"/>
      <path id="Path_103170" data-name="Path 103170" d="M-5320.541,1294.056v77.292h-77.941v-25.232a15.521,15.521,0,0,0,13.928-15.439,15.522,15.522,0,0,0-13.928-15.439v-21.182Zm4-4h-85.937v28.792l3.593.366a11.481,11.481,0,0,1,10.335,11.462,11.48,11.48,0,0,1-10.334,11.461l-3.593.366v32.841h85.937v-85.289Z" transform="translate(5402.48 -1290.058)"/>
    </g>
    <g id="Group_57875" data-name="Group 57875" transform="translate(-5500.582 1178.071)">
      <g id="Group_57874" data-name="Group 57874" transform="translate(0)" clip-path="url(#clip-path-2)">
        <path id="Path_103171" data-name="Path 103171" d="M-5385.579,1303.3v21.182a15.522,15.522,0,0,1,13.928,15.44,15.522,15.522,0,0,1-13.928,15.439v25.232h77.942V1303.3Z" transform="translate(5392.364 -1298.849)" fill="#f24872" fill-rule="evenodd"/>
      </g>
    </g>
    <path id="Path_103173" data-name="Path 103173" d="M-5561.154,1231.654s10.27,17.427,13.485,16.078,2.592-4.668,5.705-3.008a12.869,12.869,0,0,0,10.787-.1c2.569-1.491,3.973,4.148,7.225,2.074s3.771-5.084,5.844-5.5,8.183.182,7.26-10.995-5.808-16.078-5.808-16.388S-5561.154,1231.654-5561.154,1231.654Z" transform="translate(-44.663 -88.385)" fill="#fed2a4" fill-rule="evenodd"/>
    <g id="Group_57876" data-name="Group 57876" transform="translate(-5479.585 1239.36)">
      <path id="Path_103174" data-name="Path 103174" d="M-5328.353,1411.661a15.672,15.672,0,0,1-15.673,15.672,15.672,15.672,0,0,1-15.673-15.672,15.672,15.672,0,0,1,15.673-15.672A15.672,15.672,0,0,1-5328.353,1411.661Z" transform="translate(5361.998 -1393.69)" fill="#ffc93c" fill-rule="evenodd"/>
      <path id="Path_103175" data-name="Path 103175" d="M-5345.33,1428.328a17.993,17.993,0,0,1-17.973-17.971,17.993,17.993,0,0,1,17.973-17.972,17.993,17.993,0,0,1,17.972,17.972A17.993,17.993,0,0,1-5345.33,1428.328Zm0-31.343a13.388,13.388,0,0,0-13.374,13.372,13.388,13.388,0,0,0,13.374,13.372,13.388,13.388,0,0,0,13.374-13.372A13.388,13.388,0,0,0-5345.33,1396.985Z" transform="translate(5363.303 -1392.385)"/>
    </g>
    <rect id="Rectangle_5686" data-name="Rectangle 5686" width="58.628" height="16.944" transform="translate(-5490.783 1259.367)" fill="#ffc93c"/>
    <path id="Path_103176" data-name="Path 103176" d="M-5520.321,1277.366c-3.182-.384-5.138-.7-5.481-1.908s.781-2.565,2.567-3.075a8.507,8.507,0,0,1,5.488.53,2.125,2.125,0,0,0,1.867.036,2.124,2.124,0,0,0,1.175-1.452l.883-3.873a2.124,2.124,0,0,0-1.012-2.314,14.434,14.434,0,0,0-10.639-.771c-6.474,1.848-10.118,7.578-8.477,13.331,1.757,6.156,7.685,6.95,12.013,7.531,3.393.455,5.481.834,5.885,2.248.6,2.1-1.819,2.9-2.312,3.045a9.784,9.784,0,0,1-6.619-.817,2.157,2.157,0,0,0-1.758-.146,2.126,2.126,0,0,0-1.263,1.244l-1.413,3.718a2.123,2.123,0,0,0,.859,2.554,16.152,16.152,0,0,0,12.35,1.313c6.485-1.851,9.972-7.471,8.289-13.366C-5509.788,1278.639-5515.877,1277.9-5520.321,1277.366Z" transform="translate(-54.369 -106.518)" fill="#fff"/>
    <path id="Path_103177" data-name="Path 103177" d="M-5330.107,1318.423h-24.765a2.123,2.123,0,0,0-2.124,2.123v3.654a2.123,2.123,0,0,0,2.124,2.123h8.156v24.213a2.123,2.123,0,0,0,2.124,2.123h4.205a2.123,2.123,0,0,0,2.124-2.123v-24.213h8.157a2.123,2.123,0,0,0,2.124-2.123v-3.654A2.124,2.124,0,0,0-5330.107,1318.423Z" transform="translate(-118.565 -126.253)" fill="#fff"/>
    <path id="Path_103178" data-name="Path 103178" d="M-5461.993,1479.638h-11.81v-5.4h8.624a2.123,2.123,0,0,0,2.123-2.123v-3.652a2.123,2.123,0,0,0-2.123-2.123h-8.624v-5.14h11.088a2.123,2.123,0,0,0,2.122-2.123v-3.654a2.123,2.123,0,0,0-2.122-2.123h-17.416a2.122,2.122,0,0,0-2.124,2.123v29.989a2.122,2.122,0,0,0,2.124,2.123h18.138a2.123,2.123,0,0,0,2.124-2.123v-3.654A2.123,2.123,0,0,0-5461.993,1479.638Z" transform="translate(-73.223 -175.077)" fill="#fff"/>
    <path id="Path_103179" data-name="Path 103179" d="M-5330.178,1455.256a2.123,2.123,0,0,0-2.117-1.953h-4.417a2.122,2.122,0,0,0-1.954,1.294l-6.456,15.223-6.456-15.223a2.124,2.124,0,0,0-1.955-1.294h-4.418a2.123,2.123,0,0,0-2.115,1.953l-2.421,29.99a2.119,2.119,0,0,0,.556,1.609,2.122,2.122,0,0,0,1.56.684h4.205a2.124,2.124,0,0,0,2.118-1.961l1.062-13.9,4.052,9.2a2.124,2.124,0,0,0,1.943,1.267h3.738a2.123,2.123,0,0,0,1.94-1.263l4.069-9.174,1.092,13.875a2.122,2.122,0,0,0,2.116,1.957h4.164a2.123,2.123,0,0,0,1.561-.684,2.121,2.121,0,0,0,.556-1.609Z" transform="translate(-116.574 -175.077)" fill="#fff"/>
    <g id="Group_57877" data-name="Group 57877" transform="translate(-5586.846 1158.312)">
      <path id="Path_103180" data-name="Path 103180" d="M-5512.235,1301.618a16.936,16.936,0,0,1-13.014-1.408,2.951,2.951,0,0,1-1.189-3.543l1.413-3.716a2.94,2.94,0,0,1,1.751-1.726,2.963,2.963,0,0,1,2.44.2,9.046,9.046,0,0,0,5.992.744c.5-.144,2.121-.715,1.746-2.027-.263-.924-2.416-1.285-5.2-1.658-4.3-.576-10.791-1.447-12.695-8.121-1.77-6.2,2.118-12.371,9.042-14.347a15.372,15.372,0,0,1,11.274.846,2.934,2.934,0,0,1,1.405,3.213l-.882,3.871a2.971,2.971,0,0,1-1.632,2.016,2.952,2.952,0,0,1-2.59-.052,7.662,7.662,0,0,0-4.885-.47c-1.3.371-2.215,1.314-2,2.058.219.765,2.86,1.084,4.788,1.317,4.411.532,11.075,1.335,13.1,8.42C-5501.567,1293.589-5505.292,1299.637-5512.235,1301.618Zm-10.41-8.868-.076.024a1.3,1.3,0,0,0-.766.759l-1.414,3.718a1.3,1.3,0,0,0,.526,1.563,15.457,15.457,0,0,0,11.688,1.221c6.026-1.719,9.275-6.913,7.723-12.348-1.722-6.034-7.261-6.7-11.711-7.239h0c-3.506-.423-5.681-.77-6.174-2.5-.473-1.658.9-3.455,3.134-4.092a9.282,9.282,0,0,1,6.067.577,1.33,1.33,0,0,0,1.166.034,1.309,1.309,0,0,0,.72-.89l.883-3.871a1.294,1.294,0,0,0-.62-1.418,13.614,13.614,0,0,0-10-.692c-6.022,1.719-9.423,7.012-7.911,12.313,1.61,5.637,7,6.36,11.331,6.942,3.212.431,5.987.8,6.567,2.838.632,2.211-1.156,3.569-2.878,4.06a10.6,10.6,0,0,1-7.223-.877A1.36,1.36,0,0,0-5522.645,1292.75Z" transform="translate(5531.42 -1265.355)"/>
    </g>
    <g id="Group_57878" data-name="Group 57878" transform="translate(-5474.275 1193.76)">
      <path id="Path_103181" data-name="Path 103181" d="M-5337.551,1356.8h-4.205a2.949,2.949,0,0,1-2.947-2.946v-23.39h-7.332a2.949,2.949,0,0,1-2.947-2.946v-3.654a2.95,2.95,0,0,1,2.947-2.946h24.765a2.95,2.95,0,0,1,2.947,2.946v3.654a2.949,2.949,0,0,1-2.947,2.946h-7.333v23.39A2.949,2.949,0,0,1-5337.551,1356.8Zm-14.484-34.237a1.3,1.3,0,0,0-1.3,1.3v3.654a1.3,1.3,0,0,0,1.3,1.3h8.979v25.035a1.3,1.3,0,0,0,1.3,1.3h4.205a1.3,1.3,0,0,0,1.3-1.3v-25.035h8.98a1.3,1.3,0,0,0,1.3-1.3v-3.654a1.3,1.3,0,0,0-1.3-1.3Z" transform="translate(5354.982 -1320.914)"/>
    </g>
    <g id="Group_57879" data-name="Group 57879" transform="translate(-5554.193 1279.816)">
      <path id="Path_103182" data-name="Path 103182" d="M-5459.157,1491.676h-18.138a2.949,2.949,0,0,1-2.946-2.947v-29.99a2.948,2.948,0,0,1,2.946-2.946h17.416a2.949,2.949,0,0,1,2.946,2.946v3.654a2.949,2.949,0,0,1-2.946,2.946h-10.264v3.495h7.8a2.949,2.949,0,0,1,2.947,2.946v3.652a2.949,2.949,0,0,1-2.947,2.946h-7.8v3.75h10.986a2.949,2.949,0,0,1,2.947,2.946v3.654A2.95,2.95,0,0,1-5459.157,1491.676Zm-18.138-34.237a1.3,1.3,0,0,0-1.3,1.3v29.99a1.3,1.3,0,0,0,1.3,1.3h18.138a1.3,1.3,0,0,0,1.3-1.3v-3.654a1.3,1.3,0,0,0-1.3-1.3h-12.632v-7.041h9.446a1.3,1.3,0,0,0,1.3-1.3v-3.652a1.3,1.3,0,0,0-1.3-1.3h-9.446v-6.786h11.91a1.3,1.3,0,0,0,1.3-1.3v-3.654a1.3,1.3,0,0,0-1.3-1.3Z" transform="translate(5480.241 -1455.794)"/>
    </g>
    <g id="Group_57880" data-name="Group 57880" transform="translate(-5477.785 1279.816)">
      <path id="Path_103183" data-name="Path 103183" d="M-5327.037,1491.676h-4.163a2.962,2.962,0,0,1-2.938-2.716l-.835-10.632-2.75,6.2a2.948,2.948,0,0,1-2.694,1.752h-3.738a2.949,2.949,0,0,1-2.7-1.758l-2.728-6.2-.813,10.629a2.96,2.96,0,0,1-2.937,2.721h-4.206a2.952,2.952,0,0,1-2.166-.95,2.951,2.951,0,0,1-.771-2.232l2.421-29.989a2.963,2.963,0,0,1,2.938-2.711h4.418a2.942,2.942,0,0,1,2.712,1.8l5.7,13.435,5.7-13.435a2.941,2.941,0,0,1,2.712-1.8h4.417a2.962,2.962,0,0,1,2.937,2.711l2.421,29.989a2.948,2.948,0,0,1-.772,2.234A2.95,2.95,0,0,1-5327.037,1491.676Zm-6.8-19.962,1.344,17.117a1.308,1.308,0,0,0,1.3,1.2h4.163a1.3,1.3,0,0,0,.955-.419,1.305,1.305,0,0,0,.342-.986l-2.422-29.989a1.308,1.308,0,0,0-1.3-1.2h-4.417a1.3,1.3,0,0,0-1.2.794l-7.213,17.01-7.214-17.01a1.3,1.3,0,0,0-1.2-.794h-4.418a1.309,1.309,0,0,0-1.3,1.2l-2.42,29.989a1.3,1.3,0,0,0,.339.985,1.3,1.3,0,0,0,.956.42h4.206a1.306,1.306,0,0,0,1.3-1.2l1.314-17.18,5.375,12.21a1.3,1.3,0,0,0,1.189.777h3.738a1.3,1.3,0,0,0,1.189-.775Z" transform="translate(5360.481 -1455.794)"/>
    </g>
    <path id="Path_103184" data-name="Path 103184" d="M-5254.127,1463.9l-4.006.2s-50.607,2.134-56.522,3.959-13.54,4.848-13.671,7.214-.918,5.784,2.63,7.23,9.857-3.024,11.3-3.154,18.4.393,18.4.393l-1.971,3.048s-20.281,7.048-23.792,14.172,1.314,13.276,3.943,12.749-.165,5.026,5,5.39,5.128-.657,7.23,3.024,8.655,2.951,12.542,1.081,13.484-5.911,21.108-3.628c2.9.87,10.06,1.161,17.807,1.187Z" transform="translate(-128.883 -178.912)" fill="#fed2a4" fill-rule="evenodd"/>
    <g id="Group_57881" data-name="Group 57881" transform="translate(-5667.987 1092.943)">
      <path id="Path_103185" data-name="Path 103185" d="M-5313.62,1468.737c12.28-2.377,25.7-3.21,38.964-3.827,3.409-.158,6.951-.348,10.436-.348,6.681,0,12.056-.348,19.308-.348.736,0,1.59-.047,2.475-.1v-4.3c-15.767.018-31.414.34-46.134,1.616l-.1-.465h-4.594q.088.407.175.814c-12.384,1.532-28.477,1.74-36.528,7.827a8.322,8.322,0,0,0-2.957,4c-1.707,4.9,2.535,9.654,6.261,10.09,4.192.488,7.362-2.2,11.133-3.48a24.017,24.017,0,0,1,12.872-.7A64.831,64.831,0,0,0-5317.1,1487c-4.247,2.99-9.047,7.053-9.741,12.523-.687,5.4,1.772,10.449,6.783,10.612-.5,5,4.212,6.452,8.523,5.044a7.123,7.123,0,0,0,5.045,5.567c9.767,3.168,18.9-6.148,29.571-5.045,2.693.278,5.315,1.345,8,1.913,8.35,1.763,17.184.824,26.478.27v-4.562c-8.827.7-17.141,1.847-25.782-.057-3.52-.775-7-2.077-10.611-2.087-7.979-.02-14.829,4.891-22.092,5.566-2.814.263-5.059-.166-6.262-1.914,2.67-4.924,8.53-7.318,14.612-10.088,2.6-1.183,5.429-2.416,8.7-3.654,2.289-.866,8.01-1.78,8-4.348-.014-4.326-7.5-.4-9.045.173-7.848,2.89-16.347,6.071-22.438,10.959-1.048.842-2.17,2.626-3.48,3.132-.444.17-4.147,1.305-5.043-.348-1.624-2.994,5.171-6.921,6.61-8,7.224-5.423,15.072-8.985,24.352-12.7,1.64-.655,4.156-1.6,4.176-3.131.035-2.865-3.117-2.083-4.872-1.393-9.829,3.863-20.687,8.771-28.354,15.134-.659.548-1.447.936-2.261,1.565-.893.691-2.648,3.669-4.523,3.306-1.347-.261-2.029-3.2-1.565-5.567a11.077,11.077,0,0,1,2.783-5.043c6.452-7.378,19.92-12.486,31.485-15.308,2.871-.7,3.989-.989,4-2.609.033-4.608-7.356-.2-10.089-.174-1.519.018-3.882-1.146-6.263-1.566-5.517-.971-12.238-.664-16.874,1.044-2.411.889-5.937,3.359-8.522,2.957a3.56,3.56,0,0,1-2.609-3.827C-5327.966,1471.544-5318.522,1469.685-5313.62,1468.737Z" transform="translate(5540.725 -1270.377)"/>
      <path id="Path_103186" data-name="Path 103186" d="M-5552.384,1188.182c-3.515-8.038-7.1-16.142-13.4-20.874-6.863-5.16-18.064-5.1-28.353-3.306-9.977,1.744-18.793,4.542-25.4,8.872-13.3,8.72-22.15,23.4-29.225,39.137a257.565,257.565,0,0,0-9.846,25.836h4.752q1.7-5.013,3.528-9.833a60.765,60.765,0,0,0,6.507,9.833h6.234c-5.008-3.729-7.723-10.171-10.654-15.748,5.7-14.536,12.325-27.223,21.395-37.05,9.758-10.571,21.956-15.816,40.877-17.568,7.275-.674,14.829.581,18.96,4.348,5.6,5.107,8.794,13.856,12.177,21.743a103.272,103.272,0,0,1,4.7,12.352c1.341,4.665,3.376,15.774-3.479,14.436-2.862-9.168-5.433-17-8.872-26.439-.689-1.892-1.958-7.332-4.349-7.306-4.165.046-.48,6.976.348,9.219,2.675,7.254,4.453,12.959,6.958,20.526.869,2.625,2.924,8.967-.7,9.742-1.933.412-3.253-1.253-4.871-2.262-1.707-9.136-5.826-18-9.565-26.44-1.17-2.637-3.374-10.283-6.785-5.914.285,3.114,1.949,5.7,3.131,8.349,2.353,5.266,4.52,10.511,6.61,16.176.993,2.7,2.278,5.784,1.913,9.047-2.812,2.186-6.005-.632-7.826-2.088a170.932,170.932,0,0,0-9.393-23.309c-.895-1.9-2.312-6.247-4.7-6.089-4.174.281-.162,6.23.523,7.654,2.748,5.731,4.824,10.678,7.3,16.7.657,1.592,3.653,7.867.174,8.349-1.923.268-4-2.554-5.044-4.175-3.475-5.381-5.6-12.823-9.567-17.568a9.747,9.747,0,0,0-4.349-3.131c-4.344-1.009-7.31,2.808-10.958,2.609a7.181,7.181,0,0,1-3.479-1.391c-1.153-.751-4.146-2.71-4.871.173-.715,2.849,5.346,5.689,8.523,5.741,3.682.061,6.587-3,9.219-2.784,2.2.18,3.966,3.7,4.871,5.393,1.363,2.546,1.776,4.054,3.3,6.783-.049.139-.1.275-.151.414a1.324,1.324,0,0,1,.243.8c0,.688-.006,1.411-.055,2.132a5.922,5.922,0,0,1,2.527,2.644c.074-.2.146-.4.22-.6,1.917,2.294,3.935,6.624,7.653,7.306,3.393.621,5.322-1.155,7.307-2.784a9.556,9.556,0,0,0,7.479,2.436c1.97-.272,3.079-1.591,4.349-1.914,4.581,4.2,11.687,1.554,12.7-3.653,6.925.6,9.371-3.828,9.393-10.437C-5544.351,1204.255-5549.305,1195.227-5552.384,1188.182Z" transform="translate(5658.598 -1162.899)"/>
    </g>
  </g>
</svg>
