<svg xmlns="http://www.w3.org/2000/svg" width="190" height="131.592" viewBox="0 0 190 131.592">
  <g id="t0-i5" transform="translate(-390 -1406.408)">
    <path id="Trazado_101756_1_" d="M175.254,38.581h-8.462a7.426,7.426,0,0,1-7.624-7.289h0A7.479,7.479,0,0,1,166.792,24h5.362a3.181,3.181,0,0,0,3.268-2.6,3.125,3.125,0,0,0-2.681-3.519H159.5c-.168,0-.419-.168-.419-.335h0a7.589,7.589,0,0,0-7.792-7.373H117.444a2.09,2.09,0,0,1-2.095-1.508,2.057,2.057,0,0,1,1.592-2.346h26.391a3.989,3.989,0,0,0,4.105-3.184,3.894,3.894,0,0,0-3.351-4.44,1.8,1.8,0,0,0-.67,0L36.194.293a3.989,3.989,0,0,0-4.105,3.184,3.894,3.894,0,0,0,3.351,4.44,1.8,1.8,0,0,0,.67,0h21.7a4.5,4.5,0,0,1,4.524,3.519,4.268,4.268,0,0,1-3.6,4.859c-.251,0-.5.084-.754.084H17.343C7.792,16.211,0,23.584,0,32.633H0A16.664,16.664,0,0,0,14.075,48.8a2.52,2.52,0,0,1,2.095,2.43v1.341a2.422,2.422,0,0,1-2.6,2.43h0C6.535,55,.838,60.449.838,67.151h0c0,6.7,5.7,12.148,12.735,12.148h.084a3.74,3.74,0,0,1,3.854,3.6h0a3.9,3.9,0,0,1-3.6,3.77,3.012,3.012,0,0,0-.922.168A9.338,9.338,0,0,0,16.254,105.1l143.752-1.592c5.195,0,9.635-3.686,10.054-8.63v-.168a4.726,4.726,0,0,1,4.692-4.273h1.843a8.036,8.036,0,0,0,8.211-7.792h0c0-3.268-2.765-5.949-6.032-7.038a4.834,4.834,0,0,1-3.435-4.44v-.251a5.186,5.186,0,0,1,4.022-4.943A14.113,14.113,0,0,0,190,52.573h0C189.916,44.781,183.381,38.581,175.254,38.581Z" transform="translate(390 1407.744)" fill="#9ddfd3"/>
    <g id="Filled_outline" data-name="Filled outline" transform="translate(400.998 1392.029)">
      <path id="Path_102114" data-name="Path 102114" d="M249.051,80.249A50.893,50.893,0,0,1,237,116.99H224c5.674-6.014,8.078-14.176,8.08-22.318a53.33,53.33,0,0,0-1.539-12.121,64.16,64.16,0,0,0-4.1-11.148l20.4-3.069A47.014,47.014,0,0,1,249.051,80.249Z" transform="translate(-151.672 -38.182)" fill="#c8ea73"/>
      <path id="Path_102115" data-name="Path 102115" d="M77,248v21.665H70.5a6.5,6.5,0,1,0,0,13H77v8.666a13,13,0,0,0,13,13h10.833V313h47.664v-9.554a51.3,51.3,0,0,1,5.416-22.944,51.3,51.3,0,0,0,5.416-22.944V248Z" transform="translate(-35.003 -169.192)" fill="#fdc8a2"/>
      <path id="Path_102116" data-name="Path 102116" d="M34.833,32.666,39.166,24,43.5,32.666l10.833,2.167-6.5,6.5L50,50,39.166,45.665,28.333,50,30.5,41.332l-6.5-6.5Z" transform="translate(-5.835 -5.855)" fill="#ffc93c"/>
      <path id="Path_102117" data-name="Path 102117" d="M83.331,143a79.879,79.879,0,0,0-21.665-34.665L50.833,104,40,108.333s28.165,13,34.665,34.665Z" transform="translate(-17.502 -64.19)" fill="#f24872"/>
      <path id="Path_102118" data-name="Path 102118" d="M144.5,113.83c-4.333-28.165-26-49.83-26-49.83L112,70.5l2.167,8.666a79.879,79.879,0,0,1,21.665,34.665Z" transform="translate(-70.003 -35.022)" fill="#f24872"/>
      <path id="Path_102119" data-name="Path 102119" d="M400.018,55.743l-14.173-9.976L396.48,30.658a15.677,15.677,0,0,1,15.158-6.478,15.677,15.677,0,0,1-.984,16.455Z" transform="translate(-269.687 -5.858)" fill="#f24872"/>
      <path id="Path_102120" data-name="Path 102120" d="M444.282,48.694a4.333,4.333,0,1,0,1.05,6.037,4.338,4.338,0,0,0-1.05-6.037Z" transform="translate(-307.32 -23.287)" fill="#ffb431"/>
      <g id="Group_57412" data-name="Group 57412" transform="translate(105.331 29.604)">
        <path id="Path_102121" data-name="Path 102121" d="M362.926,67.758l-9.581-1.445-7.482,10.63,7.284-2.821,3.543,2.494Z" transform="translate(-345.863 -66.313)" fill="#dbf6e9"/>
        <path id="Path_102122" data-name="Path 102122" d="M444.415,108.487l4.593,8.531-7.482,10.63.2-7.809-3.543-2.494Z" transform="translate(-413.179 -97.066)" fill="#dbf6e9"/>
        <path id="Path_102123" data-name="Path 102123" d="M384.6,126.889l-10.63-7.482,6.76-5.84,7.086,4.988Z" transform="translate(-366.357 -100.77)" fill="#dbf6e9"/>
      </g>
      <path id="Path_102124" data-name="Path 102124" d="M330.833,152S320,162.833,320,178h10.833c8.666-6.5,10.833-19.5,10.833-19.5Z" transform="translate(-221.674 -99.19)" fill="#ffc93c"/>
      <path id="Path_102125" data-name="Path 102125" d="M344.878,182.808l6.494-10.827,3.713,2.227-6.493,10.826Z" transform="translate(-239.814 -113.76)" fill="#f9a614"/>
      <circle id="Ellipse_4097" data-name="Ellipse 4097" cx="10.833" cy="10.833" r="10.833" transform="translate(74.495 18.144)" fill="#87bfb5"/>
      <path id="Path_102126" data-name="Path 102126" d="M232.209,37a10.835,10.835,0,0,1,20.98-5.332" transform="translate(-157.494 -5.84)" fill="#dbf6e9"/>
      <path id="Path_102127" data-name="Path 102127" d="M30.5,216.666V208l6.5,4.333L43.5,208v10.833l6.5,6.5H39.166L34.833,234l-3.521-8.756L24,223.166Z" transform="translate(-5.835 -140.025)" fill="#ffc93c"/>
      <path id="Path_102128" data-name="Path 102128" d="M85.63,58.632c1.384-8,.3-13.024.292-13.074l4.225-.962c.054.234,1.3,5.837-.248,14.775ZM58.22,19l-3.636,2.356a62.3,62.3,0,0,1,3.6,6.4l3.892-1.9A66.684,66.684,0,0,0,58.22,19Zm7.608,126.966h47.664a2.167,2.167,0,0,0,2.167-2.167V134.25a49.321,49.321,0,0,1,.377-6.073l-4.3-.535a53.643,53.643,0,0,0-.41,6.608v7.388H68V137.3H83.161v-4.333H55a10.845,10.845,0,0,1-10.833-10.833V122a17.719,17.719,0,0,0,10.461-5.1l1.9-1.9-3.064-3.064-1.9,1.9a13.422,13.422,0,0,1-7.4,3.787v-4.158A2.167,2.167,0,0,0,42,111.306H35.5a4.333,4.333,0,1,1,0-8.666H42a2.167,2.167,0,0,0,2.167-2.167V90.453H39.83v7.854H35.5a8.666,8.666,0,0,0,0,17.332H39.83v6.5A15.183,15.183,0,0,0,55,137.3h8.666v6.5a2.167,2.167,0,0,0,2.167,2.167Zm41.8-94.693c-.447.447-10.475,10.641-11.4,25.364H89.779a52.539,52.539,0,0,0,9.748-34.854l-4.3.559a43.312,43.312,0,0,1-.556,11.488A49.059,49.059,0,0,1,84.316,76.642H76.851c9.759-14.218,4.289-32.148,4.044-32.929l-4.134,1.3c.049.157,4.279,14.126-1.664,26.077-.662-2.539-1.442-5.008-2.313-7.4.978-9.528-.788-18.175-5.122-25.036L64,40.967a30.907,30.907,0,0,1,4.385,12.6A115.033,115.033,0,0,0,53.6,31.4l-3.3,2.8c5.291,6.23,17.786,22.627,21.62,42.437h-4.5A82.642,82.642,0,0,0,50.449,47.425q-.5-.56-.963-1.058l-3.178,2.946q.436.47.909,1a78.559,78.559,0,0,1,15.632,26.33H58.733c-5.218-14.879-19.914-25.556-28.4-30.684L28.1,49.666C35.79,54.317,48.907,63.772,54.1,76.642H49.676a47.363,47.363,0,0,0-4.528-5.8l-3.2,2.925q1.31,1.432,2.483,2.971v4.233h77.724v7.388a49.164,49.164,0,0,1-5.188,21.975,53.5,53.5,0,0,0-4.538,13.091l4.243.877a49.215,49.215,0,0,1,4.171-12.03,53.5,53.5,0,0,0,5.645-23.913V78.808a2.167,2.167,0,0,0-1.655-2.1A30.62,30.62,0,0,0,130.3,66.439l-4.2-1.079c-1.246,4.844-5.582,9.876-6.861,11.282h-4.732c5.907-7.127,7.536-16.5,7.615-16.976l-4.274-.715c-.02.119-2.048,11.665-9.444,17.691h-7.832c.948-12.926,10.018-22.2,10.115-22.3l-1.534-1.53Zm1.592,55.184a61.936,61.936,0,0,0-2.937,6.9l4.082,1.453a57.646,57.646,0,0,1,2.73-6.411,44.843,44.843,0,0,0,4.116-12.676l-4.274-.714A40.544,40.544,0,0,1,109.22,106.462Zm8.606-18.1v-.888h-4.333v.888c0,1.083-.045,2.184-.135,3.268l4.318.355C117.775,90.783,117.825,89.564,117.825,88.362Zm-78.7-63.468,9.794,1.959a2.167,2.167,0,0,1,1.107,3.656L44.4,36.142l1.869,7.476a2.167,2.167,0,0,1-2.906,2.537L33.33,42.144,23.3,46.155A2.166,2.166,0,0,1,20.4,43.618l1.869-7.476-5.633-5.633a2.167,2.167,0,0,1,1.107-3.656l9.8-1.958,3.859-7.718a2.167,2.167,0,0,1,3.875,0ZM44.1,30.308l-6.863-1.373a2.166,2.166,0,0,1-1.513-1.156l-2.4-4.79-2.4,4.79a2.166,2.166,0,0,1-1.513,1.156l-6.863,1.373L26.2,33.945A2.166,2.166,0,0,1,26.765,36l-1.139,4.555,6.9-2.76a2.166,2.166,0,0,1,1.609,0l6.9,2.759L39.9,36a2.167,2.167,0,0,1,.569-2.058Zm92.861-4.9a4.333,4.333,0,1,0,1.05,6.037,4.338,4.338,0,0,0-1.05-6.037Zm6.9-8.113a17.747,17.747,0,0,1-1.121,18.729l-3.629,5.155,3.958,7.354a2.167,2.167,0,0,1-.135,2.275l-7.482,10.63a2.167,2.167,0,0,1-3.937-1.3l.168-6.65-3.87-2.725L125.593,56.5a2.167,2.167,0,0,1-3.268.992l-10.63-7.482a2.166,2.166,0,0,1-.169-3.412l4.66-4.025-3.87-2.724-6.2,2.4a2.167,2.167,0,0,1-2.554-3.267l7.482-10.63a2.168,2.168,0,0,1,2.1-.9l8.255,1.246,3.629-5.155a17.747,17.747,0,0,1,17.251-7.373,2.166,2.166,0,0,1,1.586,1.115ZM118.6,32.669l-4.79-.722-2.593,3.683.612-.237a2.167,2.167,0,0,1,2.029.249l1.772,1.247Zm5.554,15.518-4.32-3.041-3.38,2.92,6.092,4.288ZM138.617,49.4l-2.295-4.266-2.971,4.22,1.772,1.246a2.166,2.166,0,0,1,.919,1.827l-.017.656Zm1.911-29.063a13.422,13.422,0,0,0-11.963,5.7l-4.4,6.248v0l-4.988,7.087,10.63,7.482,9.386-13.337A13.427,13.427,0,0,0,140.528,20.342ZM115.35,60.423l-3.716-2.229-6.5,10.833,3.716,2.229ZM101.175,30.963l-3.141.758A12.992,12.992,0,0,1,75.272,37.2s-4.61,1.047-5.121,1.047a6.5,6.5,0,0,1-6.305-4.978,6.593,6.593,0,0,1-.183-1.527A6.482,6.482,0,0,1,68.64,25.43l4.55-1.1a12.974,12.974,0,0,1,2.076-3.588l3.352,2.746a8.658,8.658,0,0,0-1.311,8.764L93.96,28.243a8.676,8.676,0,0,0-8.633-7.931,8.576,8.576,0,0,0-3.833.891l-1.92-3.885a12.99,12.99,0,0,1,14.44,2l4.113-.991a6.506,6.506,0,0,1,7.84,4.8,6.594,6.594,0,0,1,.182,1.526,6.48,6.48,0,0,1-4.975,6.313ZM73.064,33.278A12.941,12.941,0,0,1,72.328,29l-2.672.644A2.162,2.162,0,0,0,68,31.747a2.232,2.232,0,0,0,.063.517,2.164,2.164,0,0,0,2.611,1.591Zm19.976-.355L80.261,36a8.653,8.653,0,0,0,12.777-3.078Zm8.777-8.275a2.244,2.244,0,0,0-.063-.517,2.167,2.167,0,0,0-2.612-1.593l-2.238.539a12.9,12.9,0,0,1,1.3,4.143l1.954-.471a2.159,2.159,0,0,0,1.658-2.1Zm-16.49-2.172v4.334H89.66V22.478ZM16.633,81.609,22.5,75.744V67.975a2.166,2.166,0,0,1,3.368-1.8l5.3,3.532,5.3-3.532a2.167,2.167,0,0,1,3.368,1.8v9.935L45.7,83.776a2.167,2.167,0,0,1-1.532,3.7H34.669l-3.734,7.469A2.166,2.166,0,0,1,29,96.14c-.03,0-.059,0-.089,0a2.167,2.167,0,0,1-1.923-1.357l-3.123-7.771-6.29-1.785a2.167,2.167,0,0,1-.94-3.616Zm5.673.456,3.764,1.069a2.166,2.166,0,0,1,1.418,1.276L29.213,88.7l2.181-4.36a2.166,2.166,0,0,1,1.937-1.2h5.6l-2.8-2.8a2.167,2.167,0,0,1-.635-1.532V72.024l-3.131,2.087a2.166,2.166,0,0,1-2.4,0l-3.131-2.087v4.618a2.167,2.167,0,0,1-.635,1.532ZM17.692,59.257a50.372,50.372,0,0,1,12.4,5.136l2.149-3.763a53.728,53.728,0,0,0-13.6-5.6Zm96.853-36.028a21.072,21.072,0,0,0,1.113-7.25h-4.333a16.713,16.713,0,0,1-.845,5.749ZM144.9,69.674l.554-4.3c-6.546-.845-11.324,3.642-11.524,3.833l3,3.131c.034-.034,3.531-3.242,7.975-2.668Zm-3.244,13.467h-4.333v4.333h-4.333v4.333h4.333V96.14h4.333V91.807h4.333V87.474h-4.333ZM29,130.8v-4.333H33.33v-4.333H29v-4.333H24.664v4.333H20.331v4.333h4.333V130.8ZM132.991,109.14v-4.333h-4.333v4.333Zm2.167,4.333v4.333h4.333v-4.333ZM16,111.306h4.333v-4.333H16Zm75.829-26v4.333H96.16V85.308Zm-8.666,13v4.333h4.333V98.307ZM42,15.979v4.333H46.33V15.979ZM102.66,50.643h4.333V46.31H102.66Z" transform="translate(0 0)"/>
    </g>
  </g>
</svg>
