<svg xmlns="http://www.w3.org/2000/svg" width="85" height="73.667" viewBox="0 0 85 73.667">
  <g id="t0-i6" transform="translate(-16 -48)">
    <path id="Path_101757" data-name="Path 101757" d="M27.542,56h75.083a3.542,3.542,0,0,1,3.542,3.542V64.5H24V59.542A3.542,3.542,0,0,1,27.542,56Z" transform="translate(-6.583 -6.583)" fill="#9ddfd3"/>
    <circle id="Ellipse_4060" data-name="Ellipse 4060" cx="1.417" cy="1.417" r="1.417" transform="translate(21.667 52.25)" fill="#007af6"/>
    <circle id="Ellipse_4061" data-name="Ellipse 4061" cx="1.417" cy="1.417" r="1.417" transform="translate(27.333 52.25)" fill="#007af6"/>
    <circle id="Ellipse_4062" data-name="Ellipse 4062" cx="1.417" cy="1.417" r="1.417" transform="translate(33 52.25)" fill="#007af6"/>
    <path id="Path_101758" data-name="Path 101758" d="M24,104h82.167v47.458A3.542,3.542,0,0,1,102.625,155H27.542A3.542,3.542,0,0,1,24,151.458V104Z" transform="translate(-6.583 -46.083)" fill="#dbf6e9"/>
    <path id="Path_101759" data-name="Path 101759" d="M96,136h56.667v45.333H96Z" transform="translate(-65.833 -72.417)" fill="#ffc93c"/>
    <path id="Path_101760" data-name="Path 101760" d="M128,168h29.75v25.5H128Z" transform="translate(-92.167 -98.75)" fill="#eaeae8"/>
    <path id="Path_101761" data-name="Path 101761" d="M181.115,241.363a3.425,3.425,0,0,1-.83-.1l-1.716-.429A3.387,3.387,0,0,1,176,237.541v-4.124a1.417,1.417,0,1,1,2.833,0v4.124a.558.558,0,0,0,.423.542l1.715.429a.559.559,0,0,0,.695-.542v-3.136a1.417,1.417,0,1,1,2.833,0v3.136a3.4,3.4,0,0,1-3.385,3.394Z" transform="translate(-131.667 -151.417)" fill="#961b20"/>
    <g id="Group_57212" data-name="Group 57212" transform="translate(37.25 70.667)">
      <path id="Path_101762" data-name="Path 101762" d="M344.5,178.833h-7.083a1.417,1.417,0,0,1,0-2.833H344.5a1.417,1.417,0,1,1,0,2.833Z" transform="translate(-300.583 -176)" fill="#d18d28"/>
      <path id="Path_101763" data-name="Path 101763" d="M331.333,226.833h-9.917a1.417,1.417,0,0,1,0-2.833h9.917a1.417,1.417,0,1,1,0,2.833Z" transform="translate(-287.417 -215.5)" fill="#d18d28"/>
      <path id="Path_101764" data-name="Path 101764" d="M331.333,274.833h-9.917a1.417,1.417,0,1,1,0-2.833h9.917a1.417,1.417,0,1,1,0,2.833Z" transform="translate(-287.417 -255)" fill="#d18d28"/>
      <path id="Path_101765" data-name="Path 101765" d="M177.083,338.833H137.417a1.417,1.417,0,1,1,0-2.833h39.667a1.417,1.417,0,1,1,0,2.833Z" transform="translate(-136 -307.667)" fill="#d18d28"/>
    </g>
    <path id="Path_101766" data-name="Path 101766" d="M338.466,303.467l4.176-3.831L361.8,320.518l-4.176,3.831Z" transform="translate(-265.363 -207.075)" fill="#31326f"/>
    <path id="Path_101767" data-name="Path 101767" d="M320.252,280.913l3.01,4.965,4.176-3.831-4.689-3.425a1.728,1.728,0,0,0-2.5,2.291Z" transform="translate(-250.168 -189.508)" fill="#dbf6e9"/>
    <path id="Path_101768" data-name="Path 101768" d="M446.644,421.391l4.176-3.831h0l1.915,2.088a2.834,2.834,0,1,1-4.176,3.831l-1.915-2.088Z" transform="translate(-354.384 -304.117)" fill="#cc3d60"/>
    <path id="Path_101769" data-name="Path 101769" d="M425.006,397.8l4.176-3.831,3.831,4.176-4.176,3.831Z" transform="translate(-336.578 -284.708)" fill="#dbf6e9"/>
    <path id="Path_101770" data-name="Path 101770" d="M184,208.5l12.75,2.833V200L184,202.833Z" transform="translate(-138.25 -125.083)" fill="#cc3d60"/>
    <path id="Path_101771" data-name="Path 101771" d="M162.833,208h0a2.833,2.833,0,0,1,2.833,2.833v2.833a2.833,2.833,0,0,1-2.833,2.833h0A2.833,2.833,0,0,1,160,213.667v-2.833A2.833,2.833,0,0,1,162.833,208Z" transform="translate(-118.5 -131.667)" fill="#cc3d60"/>
    <path id="Path_101772" data-name="Path 101772" d="M96.042,48H20.958A4.964,4.964,0,0,0,16,52.958v52.417a4.964,4.964,0,0,0,4.958,4.958H83.987l7.222,7.869,1.916,2.088a4.25,4.25,0,0,0,6.263-5.747l-1.916-2.087-1.948-2.122h.519A4.964,4.964,0,0,0,101,105.375V52.958A4.964,4.964,0,0,0,96.042,48ZM18.833,52.958a2.127,2.127,0,0,1,2.125-2.125H96.042a2.127,2.127,0,0,1,2.125,2.125V56.5H18.833ZM31.583,107.5V65H85.417V99.32l-7.1-7.74c-.018-.019-.037-.037-.056-.055s-.024-.025-.037-.035a1.412,1.412,0,0,0-.116-.095L76.881,90.5h4.285a1.417,1.417,0,1,0,0-2.833H72.9a3.143,3.143,0,0,0-4.031,4.472l3,4.954.006.01h0l0,.005c.025.04.051.079.08.117.011.015.024.029.035.043s.031.039.048.058L73.586,99H38.667a1.417,1.417,0,0,0,0,2.833H76.186l5.2,5.667Zm61.8,6.785-1.045.958-1.916-2.088,2.088-1.916,1.916,2.087Zm-4.875-3.217L75.1,96.456l2.088-1.916,13.41,14.613ZM71.351,90.279a.312.312,0,0,1,.394-.022l3.294,2.406L73.41,94.157l-2.115-3.488a.312.312,0,0,1,.056-.39ZM97.213,118.46a1.419,1.419,0,0,1-2-.086l-.958-1.044,2.087-1.915.958,1.044a1.417,1.417,0,0,1-.086,2ZM96.042,107.5H92.923l-4.673-5.092V63.583a1.417,1.417,0,0,0-1.417-1.417H30.167a1.417,1.417,0,0,0-1.417,1.417V107.5H20.958a2.127,2.127,0,0,1-2.125-2.125V59.333H98.167v46.042a2.127,2.127,0,0,1-2.125,2.125Z"/>
    <circle id="Ellipse_4063" data-name="Ellipse 4063" cx="1.417" cy="1.417" r="1.417" transform="translate(21.667 52.25)"/>
    <circle id="Ellipse_4064" data-name="Ellipse 4064" cx="1.417" cy="1.417" r="1.417" transform="translate(27.333 52.25)"/>
    <circle id="Ellipse_4065" data-name="Ellipse 4065" cx="1.417" cy="1.417" r="1.417" transform="translate(33 52.25)"/>
    <path id="Path_101773" data-name="Path 101773" d="M152.583,186.917v-25.5A1.417,1.417,0,0,0,151.167,160h-29.75A1.417,1.417,0,0,0,120,161.417v25.5a1.417,1.417,0,0,0,1.417,1.417h29.75A1.417,1.417,0,0,0,152.583,186.917ZM149.75,185.5H122.833V162.833H149.75Z" transform="translate(-85.583 -92.167)"/>
    <path id="Path_101774" data-name="Path 101774" d="M156.25,204.75h.005a3.385,3.385,0,0,0,2.564,3.165l1.716.429a3.387,3.387,0,0,0,4.215-3.292v-.111l5.359,1.191a1.416,1.416,0,0,0,1.724-1.383V193.417a1.417,1.417,0,0,0-1.724-1.383l-11.043,2.454A4.247,4.247,0,0,0,152,197.667V200.5a4.255,4.255,0,0,0,4.25,4.25Zm5.667.3a.559.559,0,0,1-.694.542l-1.715-.429a.558.558,0,0,1-.423-.542v-.942l2.833.63ZM169,202.984l-8.541-1.9a4.262,4.262,0,0,0,.041-.586v-2.833a4.262,4.262,0,0,0-.041-.586l8.541-1.9Zm-14.167-5.317a1.417,1.417,0,0,1,2.833,0V200.5a1.417,1.417,0,1,1-2.833,0Z" transform="translate(-111.917 -118.5)"/>
    <path id="Path_101775" data-name="Path 101775" d="M337.417,178.833H344.5a1.417,1.417,0,1,0,0-2.833h-7.083a1.417,1.417,0,0,0,0,2.833Z" transform="translate(-263.333 -105.333)"/>
    <path id="Path_101776" data-name="Path 101776" d="M321.417,226.833h9.917a1.417,1.417,0,1,0,0-2.833h-9.917a1.417,1.417,0,0,0,0,2.833Z" transform="translate(-250.167 -144.833)"/>
  </g>
</svg>
