<svg xmlns="http://www.w3.org/2000/svg" width="85" height="85" viewBox="0 0 85 85">
  <g id="t0-i8" transform="translate(-2113.348 -3284.902)">
    <g id="Group_57779" data-name="Group 57779" transform="translate(2114.593 3286.147)">
      <g id="Group_57778" data-name="Group 57778" transform="translate(0 5.501)">
        <path id="Path_102592" data-name="Path 102592" d="M2203.357,3377.782v-46.747a5.5,5.5,0,0,0-5.5-5.5h-71.508a5.5,5.5,0,0,0-5.5,5.5v46.756l41.255,3.412Z" transform="translate(-2120.848 -3325.535)" fill="#31326f"/>
        <path id="Path_102593" data-name="Path 102593" d="M2311.364,3682.9h19.252v13.358h-19.252Z" transform="translate(-2279.735 -3623.574)" fill="#d3dcfb"/>
        <path id="Path_102594" data-name="Path 102594" d="M2153.979,3405.879v-44.46a2.751,2.751,0,0,1,2.75-2.75h66.008a2.751,2.751,0,0,1,2.75,2.75v44.452l-35.754,2.965Z" transform="translate(-2148.479 -3353.168)" fill="#9ddfd3"/>
        <path id="Path_102595" data-name="Path 102595" d="M2395.5,3325.535h-3.818a5.5,5.5,0,0,1,5.5,5.5v46.747l-39.348,3.263,1.912.158,41.255-3.421v-46.747a5.5,5.5,0,0,0-5.5-5.5Z" transform="translate(-2318.488 -3325.535)" fill="#21214a"/>
        <path id="Path_102596" data-name="Path 102596" d="M2290.558,3756.27h-35.848a1.328,1.328,0,0,0-1.328,1.328v2.844a1.328,1.328,0,0,0,1.328,1.328h35.848a1.328,1.328,0,0,0,1.328-1.328V3757.6A1.328,1.328,0,0,0,2290.558,3756.27Z" transform="translate(-2231.378 -3684.761)" fill="#e9efff"/>
        <path id="Path_102597" data-name="Path 102597" d="M2458.132,3756.27h-3.818a1.328,1.328,0,0,1,1.328,1.328v2.844a1.328,1.328,0,0,1-1.328,1.328h3.818a1.328,1.328,0,0,0,1.328-1.328V3757.6A1.328,1.328,0,0,0,2458.132,3756.27Z" transform="translate(-2398.953 -3684.761)" fill="#d3dcfb"/>
        <path id="Path_102598" data-name="Path 102598" d="M2548.965,3358.67h-3.818a2.75,2.75,0,0,1,2.75,2.75v44.768l3.818-.316V3361.42a2.75,2.75,0,0,0-2.75-2.75Z" transform="translate(-2474.707 -3353.169)" fill="#87bfb5"/>
      </g>
      <path id="Path_102599" data-name="Path 102599" d="M2203.68,3333.657v-38.5a2.75,2.75,0,0,1,2.75-2.75h49.506a2.75,2.75,0,0,1,2.75,2.75v38.5l-27.5,5.5Z" transform="translate(-2189.928 -3292.402)" fill="#e9efff"/>
      <path id="Path_102600" data-name="Path 102600" d="M2499.264,3292.4h-3.818a2.75,2.75,0,0,1,2.75,2.75v39.268l3.818-.763v-38.5A2.75,2.75,0,0,0,2499.264,3292.4Z" transform="translate(-2433.257 -3292.402)" fill="#d3dcfb"/>
      <path id="Path_102601" data-name="Path 102601" d="M2353.321,3344.506a1.374,1.374,0,0,1-.541-1.093v-16.5a1.375,1.375,0,0,1,1.375-1.375h22a1.375,1.375,0,0,1,1.375,1.375v16.5a1.375,1.375,0,0,1-1.375,1.375h-17.068Z" transform="translate(-2314.276 -3320.035)" fill="#ffd566"/>
      <circle id="Ellipse_4123" data-name="Ellipse 4123" cx="5.501" cy="5.501" r="5.501" transform="translate(22.002 13.752)" fill="#fed2a4"/>
      <path id="Path_102602" data-name="Path 102602" d="M2474.414,3325.535H2470.6a1.375,1.375,0,0,1,1.375,1.375v16.5a1.375,1.375,0,0,1-1.375,1.375h3.818a1.375,1.375,0,0,0,1.375-1.375v-16.5A1.375,1.375,0,0,0,2474.414,3325.535Z" transform="translate(-2412.532 -3320.034)" fill="#ffc93c"/>
      <path id="Path_102603" data-name="Path 102603" d="M2259.122,3450.069l-3.221.174-.585,1.561a1.375,1.375,0,0,1-2.05.661l-3.318-2.219h0l0,0v0l-9.757,0a8.239,8.239,0,0,0-3.373,6.655v8.915h16.5v-6.7l1.225.817a2.75,2.75,0,0,0,4.1-1.323l2.481-6.615Z" transform="translate(-2217.56 -3423.894)" fill="#81c140"/>
      <path id="Path_102604" data-name="Path 102604" d="M2257.127,3443.1l3.16,2.528a2.75,2.75,0,0,0,3.436,0l3.161-2.529h0a8.25,8.25,0,0,0-9.758,0Z" transform="translate(-2234.502 -3416.748)" fill="#e9efff"/>
      <path id="Path_102605" data-name="Path 102605" d="M2276.922,3375.235a5.487,5.487,0,0,0-1.909.341,5.5,5.5,0,0,1,0,10.32,5.5,5.5,0,1,0,1.909-10.66Z" transform="translate(-2249.419 -3361.484)" fill="#ffbd86"/>
      <path id="Path_102606" data-name="Path 102606" d="M2346.05,3450.069l-2.894.156,1.629.273-3.045,8.1a2.751,2.751,0,0,1-.7,1.041l.423.282a2.75,2.75,0,0,0,4.1-1.323l2.481-6.615Z" transform="translate(-2304.488 -3423.894)" fill="#5c8a2d"/>
      <path id="Path_102607" data-name="Path 102607" d="M2357.045,3413a2.751,2.751,0,0,0-3.541,1.609l-1.715,4.574,5.221,1.744,1.645-4.386a2.75,2.75,0,0,0-1.609-3.541Z" transform="translate(-2313.449 -3392.829)" fill="#fed2a4"/>
      <path id="Path_102608" data-name="Path 102608" d="M2366.21,3413a2.747,2.747,0,0,0-2.875.6,2.75,2.75,0,0,1,.663,2.941l-1.219,3.252,3.4,1.134,1.645-4.386a2.75,2.75,0,0,0-1.609-3.541Z" transform="translate(-2322.615 -3392.831)" fill="#ffbd86"/>
      <path id="Path_102609" data-name="Path 102609" d="M2321.235,3557.9H2279.98l-1.3-8.5,1.3-8.5h41.255Z" transform="translate(-2252.477 -3499.647)" fill="#d3dcfb"/>
      <path id="Path_102610" data-name="Path 102610" d="M2203.68,3540.9h13.751v17H2203.68Z" transform="translate(-2189.928 -3499.647)" fill="#cc3d60"/>
      <path id="Path_102611" data-name="Path 102611" d="M2512.013,3540.9h3.818v17h-3.818Z" transform="translate(-2447.073 -3499.647)" fill="#bec8f7"/>
      <circle id="Ellipse_4124" data-name="Ellipse 4124" cx="2.751" cy="2.751" r="2.751" transform="translate(35.212 51.536) rotate(-76.825)" fill="#e9efff"/>
      <path id="Path_102612" data-name="Path 102612" d="M2203.357,3640.3h-82.509v2.751a5.5,5.5,0,0,0,5.5,5.5h71.508a5.5,5.5,0,0,0,5.5-5.5V3640.3Z" transform="translate(-2120.848 -3582.543)" fill="#e9efff"/>
      <path id="Path_102613" data-name="Path 102613" d="M2567.216,3640.3v2.751a5.5,5.5,0,0,1-5.5,5.5h3.818a5.5,5.5,0,0,0,5.5-5.5V3640.3Z" transform="translate(-2488.524 -3582.543)" fill="#d3dcfb"/>
    </g>
    <g id="Group_57780" data-name="Group 57780" transform="translate(2113.348 3284.902)">
      <path id="Path_102614" data-name="Path 102614" d="M2198.347,3297.148a6.753,6.753,0,0,0-6.746-6.746H2184.6V3288.9a4,4,0,0,0-4-4h-49.506a4,4,0,0,0-4,4v1.505h-7.006a6.753,6.753,0,0,0-6.746,6.746v49.506a6.753,6.753,0,0,0,6.746,6.746h5.808a1.245,1.245,0,0,0,0-2.49h-5.808a4.26,4.26,0,0,1-4.256-4.255v-1.506h80.019v1.506a4.26,4.26,0,0,1-4.255,4.255h-60.72a1.245,1.245,0,0,0,0,2.49h14.094v8.511h-7.053a2.576,2.576,0,0,0-2.573,2.573v2.844a2.576,2.576,0,0,0,2.573,2.573h25.06a1.245,1.245,0,0,0,0-2.49h-25.06a.083.083,0,0,1-.083-.083v-2.844a.083.083,0,0,1,.083-.083h35.848a.083.083,0,0,1,.083.083v2.844a.083.083,0,0,1-.083.083h-5.808a1.245,1.245,0,0,0,0,2.49h5.808a2.576,2.576,0,0,0,2.573-2.573v-2.844a2.576,2.576,0,0,0-2.573-2.573h-7.053V3353.4H2191.6a6.753,6.753,0,0,0,6.746-6.746v-49.506Zm-40.994,64.763h-3.01v-2.881a.13.13,0,0,1,.13-.13h2.75a.13.13,0,0,1,.13.13v2.881Zm6.876,0h-4.385v-2.881a2.623,2.623,0,0,0-2.62-2.62h-2.75a2.623,2.623,0,0,0-2.62,2.62v2.881h-4.385V3353.4h16.762v8.511Zm26.128-19.253H2184.6v-44.265h4.256a1.507,1.507,0,0,1,1.505,1.5Zm-63.257,0h-5.761V3299.9a1.507,1.507,0,0,1,1.505-1.5h4.256v44.265Zm2.49-14.011h11.261v14.011H2129.59Zm8.251-23.248a4.255,4.255,0,1,1,4.255,4.255A4.26,4.26,0,0,1,2137.841,3305.4Zm4.255,6.746a6.974,6.974,0,0,1,2.669.526l-1.729,1.383a1.5,1.5,0,0,1-1.88,0l-1.726-1.38A6.964,6.964,0,0,1,2142.1,3312.145Zm-4.857,1.964L2139.6,3316a3.973,3.973,0,0,0,4.992,0l2.449-1.959,2.566,1.715a2.62,2.62,0,0,0,3.907-1.26l.163-.436,2.857.954-2.027,5.406a1.5,1.5,0,0,1-.948.9,1.516,1.516,0,0,1-1.3-.18l-.67-.447v-1.545a1.245,1.245,0,0,0-2.49,0v2.208c0,.006,0,.012,0,.018v4.78H2135.09v-7.006a6.983,6.983,0,0,1,2.149-5.042Zm17.56-3.041.015-.039,1-2.668a1.5,1.5,0,0,1,1.685-.95l-.109.437a1.247,1.247,0,0,0,1.209,1.547c.014,0,.028,0,.042,0,0,.009-.005.018-.009.026l-1.223,3.262-2.857-.954Zm6.062-3.832a4,4,0,0,0-.535-.861l2.231-8.925a1.245,1.245,0,1,0-2.416-.6l-2.036,8.146a3.994,3.994,0,0,0-3.761,1.129v-13.1a.13.13,0,0,1,.13-.13h22a.13.13,0,0,1,.13.13v16.5a.13.13,0,0,1-.13.13h-15.331a3.966,3.966,0,0,0-.284-2.419Zm-17.519,21.411h38.765v14.011h-38.765Zm-12.246-41.255H2180.6a1.507,1.507,0,0,1,1.505,1.505v37.26h-30.513v-2.567a3.992,3.992,0,0,0,5.246-2.3l3.431-9.148h16.206a2.623,2.623,0,0,0,2.62-2.62v-16.5a2.623,2.623,0,0,0-2.62-2.62h-22a2.623,2.623,0,0,0-2.62,2.62v16.5a2.6,2.6,0,0,0,.366,1.332l-1.036,2.763a.124.124,0,0,1-.082.078.122.122,0,0,1-.111-.015l-3.306-2.21a9.505,9.505,0,0,0-1.356-.825,6.746,6.746,0,1,0-8.458,0,9.493,9.493,0,0,0-1.292.78,1.244,1.244,0,0,0-.168.12,9.488,9.488,0,0,0-3.808,7.6v7.006h-3.01V3288.9a1.507,1.507,0,0,1,1.5-1.505Zm-15.257,9.756a4.26,4.26,0,0,1,4.256-4.255h7.006v3.011h-4.256a4,4,0,0,0-4,4v42.76h-3.01Zm77.009,45.51V3299.9a4,4,0,0,0-4-4H2184.6v-3.011h7.006a4.26,4.26,0,0,1,4.255,4.255v45.51Z" transform="translate(-2113.348 -3284.902)"/>
      <path id="Path_102615" data-name="Path 102615" d="M2343.645,3569.286h-20.957a3.994,3.994,0,0,0-7.591,0h-1.705a1.245,1.245,0,0,0,0,2.49h1.7a3.994,3.994,0,0,0,7.592,0h20.957a1.245,1.245,0,0,0,0-2.49Zm-24.753,2.75a1.505,1.505,0,1,1,1.505-1.505A1.507,1.507,0,0,1,2318.892,3572.037Z" transform="translate(-2279.142 -3519.781)"/>
      <path id="Path_102616" data-name="Path 102616" d="M2236.075,3583.1H2234.7a1.245,1.245,0,0,0,0,2.49h1.375a1.245,1.245,0,0,0,0-2.49Z" transform="translate(-2213.515 -3533.596)"/>
    </g>
  </g>
</svg>
