<svg xmlns="http://www.w3.org/2000/svg" width="400" height="177.999" viewBox="0 0 400 177.999">
  <g id="t0-i2" transform="translate(-180 -1042.001)">
    <g id="Image_Place_Holder" data-name="Image Place Holder" transform="translate(180 1087)" opacity="0.25">
      <rect id="Image_Place_Holder-2" data-name="Image Place Holder" width="400" height="133" rx="10" fill="#dbf6e9"/>
    </g>
    <g id="Group_57785" data-name="Group 57785" transform="translate(-1880.855 -1181.469)">
      <path id="Path_102653" data-name="Path 102653" d="M2355.183,2288.214l5.877,2.922,3.222,7.205v70.931l-2.018,9.42-7.082,2.975-103.44,1.24-6.606-3.967-2.566-13v-44.513h10.411l4.545,7.434,6.609,2.27,1.794-2.27,1.182-7.434,18.592-.409,3.354-2.909,1.152-26.973-.049-2.922Z" transform="translate(-33.003 -39.779)" fill="#e9efff"/>
      <path id="Path_102654" data-name="Path 102654" d="M2367.569,2314.477l2.228,2.42v60.891l-2.476,4.287L2269,2379.955l-2.642-2.166v-40.226l9.916,9.848h3.47l1.983-9.848H2301.8l2.486-4.4-.248-18.682Z" transform="translate(-47.617 -55.915)" fill="#9ddfd3"/>
      <path id="Path_102655" data-name="Path 102655" d="M2266.357,2448.607V2460.2l2.642,2.166,98.322,2.121,2.476-4.287v-11.591Z" transform="translate(-47.617 -138.325)" fill="#87bfb5"/>
      <path id="Path_102656" data-name="Path 102656" d="M2238.147,2284.958l18.591-.409,4.958-2.909-.826-49.312-5.454-3.47H2199.56l-3.47,3.636-.661,49.147,3.966,3.318h23.384l8.511,8.019,5.123.661,1.983-4.462Z" transform="translate(-4.039 -3.31)" fill="#ffd566"/>
      <path id="Path_102657" data-name="Path 102657" d="M2195.567,2339l-.139,10.311,3.966,3.319h23.384l8.511,8.019,5.123.661,1.983-4.462-.248-4.218,18.591-.41,4.958-2.909-.173-10.311Z" transform="translate(-4.039 -70.982)" fill="#ffc93c"/>
      <path id="Path_102658" data-name="Path 102658" d="M2254.068,2253.286l8.924,5.453,4.792,8.263,1.157,8.428-2.405,3.871-.9,4.479-5.949,4.929-2.4-.31-2.56,2.069-9.833-.661-2.005-2.809-2.209,1.4-6.988-6.193,1.865-3.022-4.131-2.3v-9.548l3.47-1.322-1.2-4.3,6.657-5.453,3.8.826.744-3.8Z" transform="translate(-26.157 -18.319)" fill="#f24872"/>
      <path id="Path_102659" data-name="Path 102659" d="M2268.013,2279.141l4.139,2.529,2.222,3.832.536,3.908-1.115,1.8-.417,2.077-2.759,2.286-1.112-.144-1.187.96-4.56-.307-.93-1.3-1.024.649-3.241-2.873.865-1.4-1.916-1.068v-4.428l1.609-.613-.559-1.992,3.088-2.529,1.762.383.345-1.763Z" transform="translate(-42.184 -34.204)" fill="#ffc93c"/>
      <path id="Path_102660" data-name="Path 102660" d="M2416.113,2360.728l3.97,4.4,2.083,5.5v8.827l-5.875,9.519-9.82,2.686-9.486-4.462-4.536-5.949s-1.07-8.993-1.342-9.785,2.371-7.071,2.371-7.071l10.081-5.045h6.775Z" transform="translate(-124.251 -83.483)" fill="#81c140"/>
      <path id="Path_102661" data-name="Path 102661" d="M2245.35,2503.864l1.494,7.572,6.606,3.966,103.44-1.24,7.082-2.974,1.569-7.324Z" transform="translate(-34.711 -172.274)" fill="#d3dcfb"/>
      <rect id="Rectangle_5660" data-name="Rectangle 5660" width="47.924" height="12.973" transform="translate(2246.751 2343.127)" fill="#e9efff"/>
      <rect id="Rectangle_5661" data-name="Rectangle 5661" width="47.924" height="6.486" transform="translate(2246.751 2349.614)" fill="#d3dcfb"/>
      <rect id="Rectangle_5662" data-name="Rectangle 5662" width="65.486" height="7.767" transform="translate(2237.986 2357.257)" fill="#e9efff"/>
      <rect id="Rectangle_5663" data-name="Rectangle 5663" width="65.486" height="3.616" transform="translate(2237.986 2361.408)" fill="#d3dcfb"/>
      <path id="Path_102662" data-name="Path 102662" d="M2322.145,2330.93c1.161.566,2.667,1.41,2.163,2.979a2.2,2.2,0,0,1-4.253.046c-.5-1.558.9-2.464,2.09-3.024m-10.97.713a2.353,2.353,0,0,1,3.789,1.733c.006,1.993-2.35,2.786-3.834,1.7a3.176,3.176,0,0,1,.045-3.432m-9.865,1.7c-.2-1.337,1.218-1.853,2.107-2.424.928.527,2.35,1.065,2.22,2.384.192,1.308-1.15,2.231-2.305,2.384-1.031-.26-2.18-1.149-2.022-2.344m-74.879-20.977c7.7.017,15.4-.017,23.106.006q0,2.285.006,4.581c-7.708.017-15.41-.011-23.112.006v-4.593m-.005-4.871c.011-1.455.011-2.905,0-4.36,7.708.062,15.41.022,23.117.028q-.009,2.157.017,4.315c-7.713-.006-15.427-.051-23.134.017m-4.508-60.505a7.2,7.2,0,0,0-4.825,8.993,7.062,7.062,0,0,0,7.425,4.95c4.372-.051,7.759-5.057,6.252-9.135a7.175,7.175,0,0,0-8.852-4.808m-1.263-4.174c6.711-2.214,14.418,3.058,14.775,10.1a11.649,11.649,0,0,1-8.863,12.2c-5.7,1.541-12.085-2.271-13.688-7.911a11.659,11.659,0,0,1,7.776-14.391m.176-5.539c-.606,1.257-.578,3.16-2.22,3.528-1.41.951-2.82-.34-4.129-.827q-2.208,2.251-4.457,4.463a16.217,16.217,0,0,1,1.229,2.826,23.835,23.835,0,0,1-.815,2.282c-.969.408-1.937.81-2.9,1.223.023,2.113.017,4.219.011,6.332.946.306,1.892.628,2.832.946.306.8.646,1.585.883,2.407a24.376,24.376,0,0,1-1.229,2.945c1.484,1.364,2.8,2.91,4.344,4.213a11.757,11.757,0,0,0,3.007-1.195c.73.34,1.489.623,2.191,1.031a19.083,19.083,0,0,1,1.24,2.939q3.143-.026,6.28,0a16.1,16.1,0,0,1,1.161-2.956,24.56,24.56,0,0,1,2.271-.986c.985.453,1.988.884,3.007,1.281,1.405-1.456,2.837-2.883,4.281-4.293-.419-.974-.855-1.948-1.308-2.905l1.019-2.464c.94-.334,1.88-.668,2.826-.974.006-2.107,0-4.207.023-6.314-1.823-.51-3.579-1.4-3.857-3.494.43-.946.855-1.892,1.286-2.843-1.5-1.5-2.979-3.007-4.491-4.485-1.268.549-2.633,1.812-4.021.844-1.6-.4-1.688-2.243-2.232-3.511-2.078.011-4.157.017-6.235-.011m-3.081-4.293c4.146-.022,8.286,0,12.431-.006.34,1.008.685,2.011,1.008,3.019a18.523,18.523,0,0,0,3.16-1.314c2.923,2.928,5.851,5.838,8.767,8.766q-.7,1.538-1.422,3.059c1.093.391,2.186.8,3.267,1.229-.062,4.139.063,8.279-.073,12.419-1.087.34-2.169.7-3.251,1.048.5,1.025.986,2.062,1.456,3.1-2.945,2.894-5.844,5.839-8.778,8.75-.991-.493-1.993-.963-3-1.439q-.595,1.538-1.144,3.092-6.219,0-12.442,0c-.4-1.037-.81-2.073-1.28-3.082-.946.476-1.9.946-2.843,1.433-2.956-2.911-5.873-5.868-8.812-8.8.453-1.031.917-2.05,1.376-3.081-1.065-.357-2.13-.719-3.2-1.06-.018-4.128,0-8.251-.023-12.38,1.071-.436,2.152-.838,3.228-1.24q-.713-1.521-1.45-3.024c2.939-2.927,5.884-5.855,8.8-8.812,1.008.4,1.959,1.2,3.075,1.2a24.939,24.939,0,0,0,1.144-2.877m22.353,125.967c-.006,1.636-.006,3.279,0,4.915q30.607-.008,61.214,0-.009-2.455-.011-4.91-30.606-.025-61.2-.005m9.441-14.09q-.009,4.892,0,9.774,21.152-.008,42.315,0,.009-4.884,0-9.769-21.161-.008-42.315-.006m42.5-37.717c3.568,2.322,7.3,5.249,11.751,5.238-.476-4.321-3.222-7.946-5.544-11.468a21.078,21.078,0,0,1-6.207,6.229m-20.694-7.073a13.817,13.817,0,0,0,8.8,5.227,14.189,14.189,0,0,0,13.376-5.25c-3.743.023-7.453.7-11.208.51-3.675.2-7.3-.5-10.964-.487m29.228-12.046a13.3,13.3,0,0,1,.028,6.7c3.415-.878,7.175-1.257,10.047-3.494a24.6,24.6,0,0,0-10.075-3.206m-46.393,3.33c2.922,2.028,6.53,2.469,9.882,3.37a41.2,41.2,0,0,1,.017-6.745c-3.432.595-7.04,1.257-9.9,3.375m14.656,3.936a61.594,61.594,0,0,0,10.058.657c5.091-.051,10.227.2,15.3-.431a121.7,121.7,0,0,0-17.556-17.187c-6.3,2.724-10,10.386-7.8,16.961m13.382-18.009a117.6,117.6,0,0,1,14.226,14.215c.555-7.656-6.547-14.832-14.226-14.215m-21.242-7.034c.77,4.23,3.143,7.917,5.55,11.4a22.292,22.292,0,0,1,6.207-6.24,46.372,46.372,0,0,0-7.448-4.389c-1.354-.555-2.821-1.269-4.309-.771m-2.164-9.384c-.005,1.857,0,3.709.006,5.567,2.311-1.149,5.012-.708,7.311.227a49.069,49.069,0,0,1,11.123,6.666c2.684-.425,5.437-1.036,8.144-.363a18.888,18.888,0,0,1,13.722,10.3,45.82,45.82,0,0,1,9.452,2.135c2.265.8,4.6,1.92,5.958,4a4.282,4.282,0,0,1-.963,4.984c-3.092,2.866-7.43,3.528-11.372,4.542,2.293,3.454,4.593,7.033,5.6,11.106.481,2.186.17,4.955-2,6.116-2.226,1.449-4.944.555-7.215-.272a48.065,48.065,0,0,1-11.14-6.711,21.616,21.616,0,0,1-7.957.476,18.915,18.915,0,0,1-13.739-10.166c-2.934-.724-5.975-.991-8.823-2.033-2.543-.883-5.3-2.016-6.728-4.44a4.391,4.391,0,0,1,1.733-5.408c3.126-2.22,6.949-3.137,10.664-3.834-1.251-2-2.5-4-3.664-6.049a7.2,7.2,0,0,1-6.536,6.433c-5.646.08-11.287-.011-16.933.023-.13,2.447.6,5.341-1.274,7.311a5.45,5.45,0,0,1-7.923.5c-1.631-1.535-3.114-3.211-4.8-4.684-.147,11.525-.012,23.055-.062,34.585q49.313.009,98.625.006v-61q-30.607-.017-61.2-.005m.006-9.5c-.011,1.642-.011,3.279-.006,4.921q30.165-.018,60.336-.005c2.566-.216,5.3,1.88,5.176,4.575q.018,30.284.006,60.568a4.481,4.481,0,0,1-4.627,4.74q-48.99,0-97.99,0a4.477,4.477,0,0,1-4.644-4.695q-.008-18.655,0-37.309h-4.927q.009,24.617,0,49.236a7.162,7.162,0,0,0,7.272,7.17q51.283.016,102.561,0a7.143,7.143,0,0,0,7.278-7.187q.008-37.4,0-74.8a7.155,7.155,0,0,0-7.278-7.215q-31.583,0-63.156,0m-63.983-23.253c-.448.447-.895.895-1.342,1.347-.107,15.756-.006,31.516-.051,47.277a4.107,4.107,0,0,0,.776,2.616,11.893,11.893,0,0,0,3.149.453c7.617-.023,15.234-.011,22.845-.006,2.945,2.956,5.878,5.918,8.846,8.852a1.163,1.163,0,0,0,2.062-.7c.079-2.724.023-5.448-.006-8.172q10.075.034,20.138.006c1.444.125,3.251-.776,3.183-2.418.062-15.518.011-31.035.029-46.558a2.408,2.408,0,0,0-2.7-2.735c-18.977.005-37.955-.056-56.926.034m-3.8-2.441c1.615-1.7,4.055-2.192,6.3-2.2,17.969.022,35.939-.017,53.908.022,3.636-.1,7.453,2.622,7.527,6.462.1,5.692-.006,11.383.051,17.08,21.226.079,42.445-.006,63.671.039a11.439,11.439,0,0,1,9.7,5.8,15.146,15.146,0,0,1,1.642,6.835q.025,35.975.011,71.962c-.079,3.047-.55,6.3-2.571,8.716a11.2,11.2,0,0,1-8.721,4.468c-8.756.034-17.505-.011-26.255.012-.079,3.234-.011,6.462-.045,9.695,2.679.436,6.054-.849,8.121,1.433,1.948,1.942,1.076,4.915,1.263,7.362.294,2.86-2.413,5.159-5.142,5.08-19.651.045-39.3,0-58.948.023-2.35.136-4.91-1.059-5.607-3.443a34.809,34.809,0,0,1-.175-5.652,4.7,4.7,0,0,1,2.934-4.531c2.129-.4,4.315-.107,6.473-.249q.009-4.842,0-9.679c-8.761-.1-17.516-.005-26.277-.051a11.465,11.465,0,0,1-9.639-5.731,13.5,13.5,0,0,1-1.58-6.869c-.011-16.033.017-32.066-.011-48.1-4.225-.057-8.449.1-12.668-.051a7.294,7.294,0,0,1-6.105-7.368c-.068-14.923-.006-29.845-.034-44.768.006-2.248.481-4.7,2.18-6.3" transform="translate(0 0)"/>
    </g>
  </g>
</svg>
