<svg xmlns="http://www.w3.org/2000/svg" width="400" height="178" viewBox="0 0 400 178">
  <g id="t0-i3" transform="translate(-600 -1042)">
    <g id="Image_Place_Holder" data-name="Image Place Holder" transform="translate(600 1087)" opacity="0.25">
      <rect id="Image_Place_Holder-2" data-name="Image Place Holder" width="400" height="133" rx="10" fill="#dbf6e9"/>
    </g>
    <g id="Group_57530" data-name="Group 57530" transform="translate(2672.179 1071.683)">
      <path id="Path_102269" data-name="Path 102269" d="M-1897.49,53.559l-4.179-5.924a4.27,4.27,0,0,0-3.345-1.734h-3.593a19.751,19.751,0,0,0-19.363-15.994,2.311,2.311,0,0,0-2.311,2.311,2.311,2.311,0,0,0,2.311,2.311,15.116,15.116,0,0,1,15.1,15.1,15.116,15.116,0,0,1-15.1,15.1,15.116,15.116,0,0,1-15.1-15.1,15.148,15.148,0,0,1,4.844-11.083,2.31,2.31,0,0,0,.126-3.266,2.31,2.31,0,0,0-3.266-.126,19.784,19.784,0,0,0-6.326,14.474,19.743,19.743,0,0,0,19.72,19.72,19.744,19.744,0,0,0,19.7-18.826h2.985l3.694,5.236A7.386,7.386,0,0,1-1897.49,53.559Z" transform="translate(-3.106 -41.23)" fill="#9ddfd3"/>
      <g id="Group_57498" data-name="Group 57498" transform="translate(-1942.81 -0.987)">
        <path id="Path_102270" data-name="Path 102270" d="M-1910.037,84.706a11.749,11.749,0,0,1-11.735-11.735,11.616,11.616,0,0,1,3.765-8.614,2.062,2.062,0,0,1,2.914.112,2.063,2.063,0,0,1-.113,2.914,7.536,7.536,0,0,0-2.443,5.587,7.619,7.619,0,0,0,7.611,7.611,7.62,7.62,0,0,0,7.611-7.611,7.6,7.6,0,0,0-2.77-5.867,2.062,2.062,0,0,1-.275-2.9,2.062,2.062,0,0,1,2.9-.275,11.7,11.7,0,0,1,4.266,9.045A11.749,11.749,0,0,1-1910.037,84.706Z" transform="translate(1921.772 -63.453)" fill="#9ddfd3"/>
        <path id="Path_102271" data-name="Path 102271" d="M-1894.557,88.315a4.848,4.848,0,0,1-4.842-4.842,1.7,1.7,0,0,1,1.7-1.7,1.7,1.7,0,0,1,1.7,1.7,1.444,1.444,0,0,0,1.442,1.442,1.444,1.444,0,0,0,1.442-1.442,1.443,1.443,0,0,0-1.442-1.442,1.7,1.7,0,0,1-1.7-1.7,1.7,1.7,0,0,1,1.7-1.7,4.847,4.847,0,0,1,4.842,4.842A4.847,4.847,0,0,1-1894.557,88.315Z" transform="translate(1906.292 -73.954)" fill="#9ddfd3"/>
      </g>
      <g id="Group_57499" data-name="Group 57499" transform="translate(-1951.566 -12.093)">
        <path id="Path_102272" data-name="Path 102272" d="M-1929.7,68.388A20.514,20.514,0,0,1-1950.19,47.9a20.557,20.557,0,0,1,6.573-15.039,3.059,3.059,0,0,1,2.212-.818,3.062,3.062,0,0,1,2.142.986,3.084,3.084,0,0,1-.168,4.354,14.378,14.378,0,0,0-4.6,10.517A14.345,14.345,0,0,0-1929.7,62.226,14.345,14.345,0,0,0-1915.37,47.9,14.345,14.345,0,0,0-1929.7,33.569a3.085,3.085,0,0,1-3.081-3.081,3.085,3.085,0,0,1,3.081-3.081A20.515,20.515,0,0,1-1909.71,43.4h2.967a5.072,5.072,0,0,1,3.975,2.06l4.882,6.92-1.2.207a6.57,6.57,0,0,0-3.676,1.971l-.647.681-4-5.678h-1.862A20.447,20.447,0,0,1-1929.7,68.388Zm-11.826-34.81a1.528,1.528,0,0,0-1.045.41,19.01,19.01,0,0,0-6.079,13.909,18.972,18.972,0,0,0,18.95,18.95,18.911,18.911,0,0,0,18.929-18.09l.033-.736h4.12l3.413,4.838a8.067,8.067,0,0,1,2.707-1.507l-3.53-5a3.516,3.516,0,0,0-2.716-1.407h-4.229l-.12-.625A18.97,18.97,0,0,0-1929.7,28.948a1.543,1.543,0,0,0-1.541,1.541,1.543,1.543,0,0,0,1.541,1.541A15.888,15.888,0,0,1-1913.83,47.9a15.887,15.887,0,0,1-15.87,15.869A15.887,15.887,0,0,1-1945.568,47.9a15.921,15.921,0,0,1,5.091-11.648,1.543,1.543,0,0,0,.084-2.177,1.531,1.531,0,0,0-1.071-.493Z" transform="translate(1950.19 -27.407)"/>
      </g>
      <g id="Group_57502" data-name="Group 57502" transform="translate(-1943.581 -1.757)">
        <g id="Group_57500" data-name="Group 57500">
          <path id="Path_102273" data-name="Path 102273" d="M-1911.767,83.747a12.52,12.52,0,0,1-12.505-12.505,12.379,12.379,0,0,1,4.012-9.179,2.833,2.833,0,0,1,2.033-.752,2.814,2.814,0,0,1,1.97.906,2.836,2.836,0,0,1-.155,4,6.774,6.774,0,0,0-2.2,5.022,6.848,6.848,0,0,0,6.841,6.841,6.849,6.849,0,0,0,6.841-6.841,6.826,6.826,0,0,0-2.49-5.274,2.814,2.814,0,0,1-1.015-1.916,2.814,2.814,0,0,1,.637-2.072,2.814,2.814,0,0,1,1.915-1.014,2.816,2.816,0,0,1,2.072.637,12.472,12.472,0,0,1,4.545,9.639A12.52,12.52,0,0,1-1911.767,83.747Zm-6.57-20.9a1.283,1.283,0,0,0-.876.344,10.854,10.854,0,0,0-3.518,8.048,10.977,10.977,0,0,0,10.965,10.965A10.978,10.978,0,0,0-1900.8,71.241a10.936,10.936,0,0,0-3.986-8.451,1.275,1.275,0,0,0-.945-.291,1.281,1.281,0,0,0-.873.462,1.285,1.285,0,0,0-.291.945,1.284,1.284,0,0,0,.463.874,8.362,8.362,0,0,1,3.049,6.461,8.391,8.391,0,0,1-8.382,8.381,8.391,8.391,0,0,1-8.381-8.381,8.3,8.3,0,0,1,2.69-6.152,1.294,1.294,0,0,0,.07-1.826,1.284,1.284,0,0,0-.9-.413Z" transform="translate(1924.272 -60.953)"/>
        </g>
        <g id="Group_57501" data-name="Group 57501" transform="translate(6.894 4.677)">
          <path id="Path_102274" data-name="Path 102274" d="M-1896.286,87.355a5.618,5.618,0,0,1-5.611-5.612,2.473,2.473,0,0,1,2.47-2.47,2.454,2.454,0,0,1,.807.135,2.469,2.469,0,0,1-.135-.807,2.473,2.473,0,0,1,2.47-2.47,5.619,5.619,0,0,1,5.612,5.612A5.619,5.619,0,0,1-1896.286,87.355Zm-3.141-6.542a.93.93,0,0,0-.929.93,4.076,4.076,0,0,0,4.071,4.072,4.076,4.076,0,0,0,4.072-4.072,4.076,4.076,0,0,0-4.072-4.072.931.931,0,0,0-.929.93.931.931,0,0,0,.929.93,2.215,2.215,0,0,1,2.212,2.212,2.215,2.215,0,0,1-2.212,2.212,2.214,2.214,0,0,1-2.211-2.212A.931.931,0,0,0-1899.428,80.814Zm2.335.123a2.46,2.46,0,0,1,.135.807.672.672,0,0,0,.671.672.672.672,0,0,0,.672-.672.672.672,0,0,0-.672-.671A2.46,2.46,0,0,1-1897.093,80.937Z" transform="translate(1901.898 -76.131)"/>
        </g>
      </g>
      <g id="Group_57503" data-name="Group 57503" transform="translate(-1909.352 16.319)">
        <path id="Path_102275" data-name="Path 102275" d="M-1809.79,126.2a7.345,7.345,0,0,1-.771-3.281,7.347,7.347,0,0,1,.778-3.3,4.635,4.635,0,0,0-3.4,4.451v7.086a4.634,4.634,0,0,0,4.269,4.6,4.287,4.287,0,0,1-.88-2.6Z" transform="translate(1813.179 -119.621)" fill="#445ea0"/>
        <path id="Path_102276" data-name="Path 102276" d="M-1586.163,119.621a7.345,7.345,0,0,1,.778,3.3,7.347,7.347,0,0,1-.77,3.281v6.964a4.286,4.286,0,0,1-.88,2.6,4.634,4.634,0,0,0,4.269-4.6v-7.086A4.635,4.635,0,0,0-1586.163,119.621Z" transform="translate(1656.713 -119.621)" fill="#445ea0"/>
      </g>
      <g id="Group_57506" data-name="Group 57506" transform="translate(-1910.122 15.115)">
        <g id="Group_57504" data-name="Group 57504" transform="translate(0)">
          <path id="Path_102277" data-name="Path 102277" d="M-1808.989,133.958l-1.708-.131a5.414,5.414,0,0,1-4.981-5.372v-7.086a5.408,5.408,0,0,1,3.962-5.193l1.669-.462-.775,1.549a6.54,6.54,0,0,0-.7,2.951,6.535,6.535,0,0,0,.69,2.938l.08.162v7.145a3.5,3.5,0,0,0,.724,2.135Zm-3.9-15.42a3.847,3.847,0,0,0-1.251,2.831v7.086a3.865,3.865,0,0,0,2.042,3.392,5.051,5.051,0,0,1-.194-1.39v-6.787a8.066,8.066,0,0,1-.77-3.457A8.136,8.136,0,0,1-1812.888,118.538Z" transform="translate(1815.679 -115.714)"/>
        </g>
        <g id="Group_57505" data-name="Group 57505" transform="translate(68.797)">
          <path id="Path_102278" data-name="Path 102278" d="M-1592.391,133.958l1.037-1.365a3.505,3.505,0,0,0,.723-2.135v-7.145l.081-.162a6.539,6.539,0,0,0,.69-2.938,6.54,6.54,0,0,0-.7-2.951l-.775-1.549,1.669.462a5.408,5.408,0,0,1,3.962,5.193v7.086a5.414,5.414,0,0,1-4.981,5.372Zm3.3-10.287v6.787a5.041,5.041,0,0,1-.193,1.39,3.866,3.866,0,0,0,2.042-3.393v-7.086a3.848,3.848,0,0,0-1.251-2.831,8.144,8.144,0,0,1,.172,1.675A8.062,8.062,0,0,1-1589.09,123.671Z" transform="translate(1592.391 -115.714)"/>
        </g>
      </g>
      <g id="Group_57507" data-name="Group 57507" transform="translate(-1906.271 22.186)">
        <path id="Path_102279" data-name="Path 102279" d="M-1796.246,143.488a7.407,7.407,0,0,1-6.932-4.823v7.673a4.635,4.635,0,0,0,4.622,4.622h3.907a26.8,26.8,0,0,1-1.216-7.472Z" transform="translate(1803.179 -138.665)" fill="#2e4c89"/>
        <path id="Path_102280" data-name="Path 102280" d="M-1609.262,143.488h-.379a26.8,26.8,0,0,1-1.216,7.472h3.907a4.635,4.635,0,0,0,4.622-4.622v-7.673A7.407,7.407,0,0,1-1609.262,143.488Z" transform="translate(1670.114 -138.665)" fill="#2e4c89"/>
      </g>
      <g id="Group_57510" data-name="Group 57510" transform="translate(-1907.041 17.909)">
        <g id="Group_57508" data-name="Group 57508" transform="translate(0)">
          <path id="Path_102281" data-name="Path 102281" d="M-1795.331,142.123h-4.956a5.4,5.4,0,0,1-5.392-5.392v-11.95l1.492,4.009a6.658,6.658,0,0,0,6.211,4.321h1.134l.016.754a26.046,26.046,0,0,0,1.181,7.257Zm-8.807-10.29v4.9a3.856,3.856,0,0,0,3.851,3.851h2.879a27.613,27.613,0,0,1-.933-5.939A8.209,8.209,0,0,1-1804.138,131.834Z" transform="translate(1805.679 -124.781)"/>
        </g>
        <g id="Group_57509" data-name="Group 57509" transform="translate(58.977)">
          <path id="Path_102282" data-name="Path 102282" d="M-1609.307,142.123h-4.956l.314-1a26.072,26.072,0,0,0,1.181-7.257l.016-.754h1.133a6.658,6.658,0,0,0,6.211-4.321l1.492-4.009v11.95A5.4,5.4,0,0,1-1609.307,142.123Zm-2.878-1.541h2.878a3.855,3.855,0,0,0,3.851-3.851v-4.9a8.207,8.207,0,0,1-5.8,2.81A27.643,27.643,0,0,1-1612.186,140.583Z" transform="translate(1614.263 -124.781)"/>
        </g>
      </g>
      <path id="Path_102283" data-name="Path 102283" d="M-1779.986,34.36c2.391-11.887,13.3-18.795,26.4-18.795s24.011,6.907,26.4,18.795h.5V26.137c0-14.948-12.043-23.82-26.9-23.82s-26.9,8.872-26.9,23.82V34.36Z" transform="translate(-118.795 -22.141)" fill="#ffd566"/>
      <path id="Path_102284" data-name="Path 102284" d="M-1773.93,23.088c1.407-12.074,11.19-19.538,23.535-20.63q-1.568-.139-3.188-.141c-14.856,0-26.9,8.872-26.9,23.82V34.36h.5A21.6,21.6,0,0,1-1773.93,23.088Z" transform="translate(-118.795 -22.141)" fill="#ffc93c"/>
      <g id="Group_57511" data-name="Group 57511" transform="translate(-1900.202 -20.748)">
        <path id="Path_102285" data-name="Path 102285" d="M-1727.836,33.209h-2.178l-.149-.742c-2.206-10.966-12.214-18.053-25.5-18.053s-23.29,7.086-25.5,18.053l-.149.742h-2.178V24.061c0-14.569,11.441-24.744,27.823-24.744,7.64,0,14.606,2.316,19.615,6.521a23,23,0,0,1,8.208,18.223ZM-1755.66,1.166c-15.294,0-25.975,9.415-25.975,22.9v3.656c3.885-9.337,13.61-15.151,25.975-15.151s22.09,5.813,25.975,15.15V24.061a21.206,21.206,0,0,0-7.549-16.807C-1741.91,3.328-1748.454,1.166-1755.66,1.166Z" transform="translate(1783.483 0.683)"/>
      </g>
      <path id="Path_102286" data-name="Path 102286" d="M-1737.133,305.355v-3.888h-15.16a1.234,1.234,0,0,1-1.232-1.232V252.516a2.2,2.2,0,0,1,2.194-2.193h13.8a6.179,6.179,0,0,0-5.762-4.005h-19.256V248.5a9.88,9.88,0,0,1-9.869,9.869,9.88,9.88,0,0,1-9.869-9.869v-2.182h-14.353v24.014a2.653,2.653,0,0,1-1.18,2.044l-9.886,5.707v27.273Z" transform="translate(-99.959 -190.962)" fill="#31326f"/>
      <path id="Path_102287" data-name="Path 102287" d="M-1801.382,337.561l-6.325,3.652v27.273h6.325Z" transform="translate(-99.959 -254.093)" fill="#21214a"/>
      <g id="Group_57512" data-name="Group 57512" transform="translate(-1908.59 54.431)">
        <path id="Path_102288" data-name="Path 102288" d="M-1738.284,304.2h-72.423V275.473l10.348-5.974a1.751,1.751,0,0,0,.718-1.243V243.317h16.2v3.106a8.954,8.954,0,0,0,8.944,8.944,8.954,8.954,0,0,0,8.944-8.944v-3.106h20.18a7.128,7.128,0,0,1,6.627,4.6l.472,1.25h-15.135a1.271,1.271,0,0,0-1.269,1.269v47.718a.309.309,0,0,0,.308.308h16.084Zm-70.574-1.849h68.726v-2.039h-14.236a2.16,2.16,0,0,1-2.157-2.157V250.44a3.122,3.122,0,0,1,3.118-3.118h12.256a5.257,5.257,0,0,0-4.22-2.157H-1763.7v1.257a10.805,10.805,0,0,1-10.793,10.793,10.805,10.805,0,0,1-10.793-10.793v-1.257h-12.5v23.089a3.582,3.582,0,0,1-1.642,2.844l-9.424,5.441Z" transform="translate(1810.707 -243.317)"/>
      </g>
      <path id="Path_102289" data-name="Path 102289" d="M-1716.032,234.765a26.405,26.405,0,0,1-10.177-2.027V239.1a10.177,10.177,0,0,0,10.177,10.177,10.177,10.177,0,0,0,10.177-10.177v-6.366A26.4,26.4,0,0,1-1716.032,234.765Z" transform="translate(-156.347 -181.567)" fill="#ffd4bd"/>
      <path id="Path_102290" data-name="Path 102290" d="M-1719.749,239.1v-4.6a26.3,26.3,0,0,1-6.461-1.764V239.1a10.177,10.177,0,0,0,10.177,10.177,10.151,10.151,0,0,0,3.23-.527A10.178,10.178,0,0,1-1719.749,239.1Z" transform="translate(-156.346 -181.566)" fill="#ffbf9d"/>
      <g id="Group_57513" data-name="Group 57513" transform="translate(-1883.48 49.785)">
        <path id="Path_102291" data-name="Path 102291" d="M-1718.107,247.091a11.114,11.114,0,0,1-11.1-11.1v-7.752l1.28.533a25.391,25.391,0,0,0,9.821,1.956,25.394,25.394,0,0,0,9.821-1.956l1.28-.533v7.752A11.114,11.114,0,0,1-1718.107,247.091Zm-9.252-16.117v5.016a9.263,9.263,0,0,0,9.252,9.252,9.263,9.263,0,0,0,9.253-9.252v-5.016a27.258,27.258,0,0,1-9.253,1.6A27.259,27.259,0,0,1-1727.359,230.974Z" transform="translate(1729.208 -228.238)"/>
      </g>
      <path id="Path_102292" data-name="Path 102292" d="M-1726.182,63.13c-2.208-12.157-13.229-19.231-26.5-19.231s-24.287,7.074-26.5,19.231Z" transform="translate(-119.702 -50.911)" fill="#ffd4bd"/>
      <path id="Path_102293" data-name="Path 102293" d="M-1749.443,44.047c-1.061-.1-2.139-.148-3.234-.148-13.266,0-24.287,7.074-26.5,19.231h6.468C-1770.678,51.977-1761.232,45.106-1749.443,44.047Z" transform="translate(-119.702 -50.911)" fill="#ffbf9d"/>
      <path id="Path_102294" data-name="Path 102294" d="M-1780.459,154.317a26.978,26.978,0,0,0,26.892,26.5,26.978,26.978,0,0,0,26.892-26.5Z" transform="translate(-118.812 -127.308)" fill="#ffd4bd"/>
      <path id="Path_102295" data-name="Path 102295" d="M-1774.076,154.317h-6.384a26.978,26.978,0,0,0,26.892,26.5,26.943,26.943,0,0,0,3.192-.2A27,27,0,0,1-1774.076,154.317Z" transform="translate(-118.811 -127.308)" fill="#ffbf9d"/>
      <path id="Path_102296" data-name="Path 102296" d="M-1698.7,159.805h-2.067v-3.051h-2.953V160.3a2.463,2.463,0,0,0,2.461,2.461h2.559a1.476,1.476,0,0,0,1.476-1.476A1.476,1.476,0,0,0-1698.7,159.805Z" transform="translate(-171.907 -128.994)"/>
      <path id="Path_102297" data-name="Path 102297" d="M-1799.363,113.02a7.7,7.7,0,0,1,7.7-7.7h-6.316a7.7,7.7,0,0,0-7.7,7.7,7.7,7.7,0,0,0,7.7,7.7h6.316A7.7,7.7,0,0,1-1799.363,113.02Z" transform="translate(-101.362 -93.405)" fill="#eef6ff"/>
      <path id="Path_102298" data-name="Path 102298" d="M-1699.94,200.934h-6.691a1.155,1.155,0,0,1-1.155-1.155,1.155,1.155,0,0,1,1.155-1.155h6.691a1.155,1.155,0,0,1,1.155,1.155A1.155,1.155,0,0,1-1699.94,200.934Z" transform="translate(-169.094 -157.963)"/>
      <path id="Path_102299" data-name="Path 102299" d="M-1532.409,16.98a1.545,1.545,0,0,1-1.541,1.541h-34.629a1.545,1.545,0,0,1-1.54-1.541V-25.142a1.545,1.545,0,0,1,1.54-1.541h34.629a1.545,1.545,0,0,1,1.541,1.541V16.98Z" transform="translate(-264.344 -2.076)" fill="#dbf6e9"/>
      <path id="Path_102300" data-name="Path 102300" d="M-1527.15,12.758a.927.927,0,0,1-.924.924h-27.417a.927.927,0,0,1-.925-.924V-10.759a.927.927,0,0,1,.925-.924h27.417a.927.927,0,0,1,.924.924Z" transform="translate(-273.825 -12.454)" fill="#9ddfd3"/>
      <path id="Path_102301" data-name="Path 102301" d="M-1632.854,329.294a1.545,1.545,0,0,0,1.541,1.541h57.208a1.545,1.545,0,0,0,1.54-1.541V288.317h-60.289Z" transform="translate(-220.938 -220.022)" fill="#dbf6e9"/>
      <path id="Path_102302" data-name="Path 102302" d="M-1575.066,258.317h-55.286a2.509,2.509,0,0,0-2.5,2.5v7.05h60.289v-7.05A2.509,2.509,0,0,0-1575.066,258.317Z" transform="translate(-220.938 -199.265)" fill="#31326f"/>
      <circle id="Ellipse_4109" data-name="Ellipse 4109" cx="2.311" cy="2.311" r="2.311" transform="translate(-1850.041 61.517)" fill="#f24872"/>
      <circle id="Ellipse_4110" data-name="Ellipse 4110" cx="2.311" cy="2.311" r="2.311" transform="translate(-1843.725 61.517)" fill="#ffd566"/>
      <circle id="Ellipse_4111" data-name="Ellipse 4111" cx="2.311" cy="2.311" r="2.311" transform="translate(-1837.409 61.517)" fill="#9ddfd3"/>
      <path id="Path_102303" data-name="Path 102303" d="M-1588.918,336.052a.927.927,0,0,1-.924.924h-18.486a.927.927,0,0,1-.924-.924V305.241a.927.927,0,0,1,.924-.924h18.486a.927.927,0,0,1,.924.924Z" transform="translate(-237.268 -231.092)" fill="#9ddfd3"/>
      <path id="Path_102304" data-name="Path 102304" d="M-1603.068,336.052V305.241a.927.927,0,0,1,.924-.924h-6.185a.927.927,0,0,0-.924.924v30.811a.927.927,0,0,0,.924.924h6.185A.927.927,0,0,1-1603.068,336.052Z" transform="translate(-237.268 -231.092)" fill="#87bfb5"/>
      <g id="Group_57514" data-name="Group 57514" transform="translate(-1822.018 74.766)">
        <path id="Path_102305" data-name="Path 102305" d="M-1527.416,313.939h16.622a2.311,2.311,0,0,0,2.311-2.311,2.311,2.311,0,0,0-2.311-2.311h-16.622a2.311,2.311,0,0,0-2.311,2.311A2.311,2.311,0,0,0-1527.416,313.939Z" transform="translate(1529.727 -309.317)" fill="#c8ea73"/>
        <path id="Path_102306" data-name="Path 102306" d="M-1510.795,335.317h-16.622a2.311,2.311,0,0,0-2.311,2.311,2.311,2.311,0,0,0,2.311,2.311h16.622a2.311,2.311,0,0,0,2.311-2.311A2.311,2.311,0,0,0-1510.795,335.317Z" transform="translate(1529.727 -327.306)" fill="#c8ea73"/>
        <path id="Path_102307" data-name="Path 102307" d="M-1510.795,361.317h-16.622a2.311,2.311,0,0,0-2.311,2.311,2.311,2.311,0,0,0,2.311,2.311h16.622a2.311,2.311,0,0,0,2.311-2.311A2.311,2.311,0,0,0-1510.795,361.317Z" transform="translate(1529.727 -345.295)" fill="#c8ea73"/>
        <path id="Path_102308" data-name="Path 102308" d="M-1517.873,387.317h-9.543a2.311,2.311,0,0,0-2.311,2.311,2.311,2.311,0,0,0,2.311,2.311h9.543a2.311,2.311,0,0,0,2.311-2.311A2.311,2.311,0,0,0-1517.873,387.317Z" transform="translate(1529.727 -363.285)" fill="#c8ea73"/>
      </g>
      <path id="Path_102309" data-name="Path 102309" d="M-1534.273,16.608a.66.66,0,0,0-1.113,0l-7.922,10.515a.66.66,0,0,1-1.112,0l-4.187-5.557a.66.66,0,0,0-1.112,0l-6.7,8.888v1.667a.927.927,0,0,0,.924.924h27.417a.927.927,0,0,0,.924-.924V26.063Z" transform="translate(-273.826 -31.818)" fill="#31326f"/>
      <circle id="Ellipse_4112" data-name="Ellipse 4112" cx="3.081" cy="3.081" r="3.081" transform="translate(-1827.703 -21.672)" fill="#ffd566"/>
      <g id="Group_57515" data-name="Group 57515" transform="translate(-1830.241 5.21)">
        <path id="Path_102310" data-name="Path 102310" d="M-1550.562,88.5a.927.927,0,0,1-.924.924h-4.005a.927.927,0,0,1-.925-.924V84.491a.927.927,0,0,1,.925-.924h4.005a.927.927,0,0,1,.924.924Z" transform="translate(1556.416 -83.567)" fill="#87bfb5"/>
        <path id="Path_102311" data-name="Path 102311" d="M-1512.173,90.189h-16.946a2.311,2.311,0,0,1-2.311-2.311,2.311,2.311,0,0,1,2.311-2.311h16.946a2.311,2.311,0,0,1,2.311,2.311A2.311,2.311,0,0,1-1512.173,90.189Z" transform="translate(1539.128 -84.951)" fill="#87bfb5"/>
      </g>
      <path id="Path_102312" data-name="Path 102312" d="M-1894.216,221.845a2.96,2.96,0,0,1-1.334,2.311l-24.813,14.325a2.959,2.959,0,0,1-2.668,0l-24.813-14.325a2.96,2.96,0,0,1-1.334-2.311V193.194a2.96,2.96,0,0,1,1.334-2.311l24.813-14.325a2.959,2.959,0,0,1,2.668,0l24.813,14.325a2.959,2.959,0,0,1,1.334,2.311v28.651Z" transform="translate(-2.076 -142.476)" fill="#9ddfd3"/>
      <g id="Group_57516" data-name="Group 57516" transform="translate(-1940.786 46.467)">
        <path id="Path_102313" data-name="Path 102313" d="M-1908.4,252.839a.927.927,0,0,1-.924.924h-4.956a.927.927,0,0,1-.924-.924V239.3a.927.927,0,0,1,.924-.924h4.956a.927.927,0,0,1,.924.924Z" transform="translate(1915.2 -231.935)" fill="#31326f"/>
        <path id="Path_102314" data-name="Path 102314" d="M-1878.947,238.375a.927.927,0,0,1-.924.924h-4.956a.927.927,0,0,1-.925-.924V218.4a.927.927,0,0,1,.925-.924h4.956a.927.927,0,0,1,.924.924Z" transform="translate(1894.825 -217.471)" fill="#31326f"/>
        <path id="Path_102315" data-name="Path 102315" d="M-1849.5,243.2a.927.927,0,0,1-.924.924h-4.956a.927.927,0,0,1-.924-.924V225.365a.927.927,0,0,1,.924-.924h4.956a.927.927,0,0,1,.924.924Z" transform="translate(1874.45 -222.293)" fill="#31326f"/>
        <path id="Path_102316" data-name="Path 102316" d="M-1820.053,263.286a.927.927,0,0,1-.925.924h-4.956a.927.927,0,0,1-.924-.924V254.4a.927.927,0,0,1,.924-.924h4.956a.927.927,0,0,1,.925.924Z" transform="translate(1854.077 -242.382)" fill="#31326f"/>
      </g>
      <g id="Group_57517" data-name="Group 57517" transform="translate(-1933.386 75.074)">
        <path id="Path_102317" data-name="Path 102317" d="M-1842.207,314.939a4.282,4.282,0,0,1-.677-2.311,4.283,4.283,0,0,1,.677-2.311h-5.976a4.281,4.281,0,0,1,.677,2.311,4.28,4.28,0,0,1-.677,2.311Z" transform="translate(1861.432 -310.317)" fill="#87bfb5"/>
        <path id="Path_102318" data-name="Path 102318" d="M-1885.208,314.939a4.282,4.282,0,0,1-.677-2.311,4.283,4.283,0,0,1,.677-2.311h-5.976a4.281,4.281,0,0,1,.677,2.311,4.28,4.28,0,0,1-.677,2.311Z" transform="translate(1891.184 -310.317)" fill="#87bfb5"/>
      </g>
      <g id="Group_57518" data-name="Group 57518" transform="translate(-1941.645 72.763)">
        <circle id="Ellipse_4113" data-name="Ellipse 4113" cx="4.622" cy="4.622" r="4.622" transform="translate(0)" fill="#31326f"/>
        <circle id="Ellipse_4114" data-name="Ellipse 4114" cx="4.622" cy="4.622" r="4.622" transform="translate(13.249)" fill="#31326f"/>
        <circle id="Ellipse_4115" data-name="Ellipse 4115" cx="4.622" cy="4.622" r="4.622" transform="translate(26.497)" fill="#31326f"/>
      </g>
      <path id="Path_102319" data-name="Path 102319" d="M-1500.619,163.471a.9.9,0,0,1-.892.892h-26.466a.9.9,0,0,1-.892-.892v-22.7a.9.9,0,0,1,.892-.892h26.466a.9.9,0,0,1,.892.892Z" transform="translate(-292.885 -117.319)" fill="#9ddfd3"/>
      <path id="Path_102320" data-name="Path 102320" d="M-1522.4,163.471v-22.7a.9.9,0,0,1,.892-.892h-6.47a.9.9,0,0,0-.892.892v22.7a.9.9,0,0,0,.892.892h6.47A.9.9,0,0,1-1522.4,163.471Z" transform="translate(-292.885 -117.319)" fill="#87bfb5"/>
      <path id="Path_102321" data-name="Path 102321" d="M-1493.26,165.772l-5.139-11.829a3.007,3.007,0,0,0-2.733-1.973,3.007,3.007,0,0,0-2.733,1.973L-1509,165.772a2.311,2.311,0,0,0,1.2,3.04,2.311,2.311,0,0,0,3.04-1.2l.778-1.792h5.71l.778,1.792a2.311,2.311,0,0,0,2.121,1.391,2.3,2.3,0,0,0,.919-.192A2.311,2.311,0,0,0-1493.26,165.772Zm-9.209-4.008,1.337-3.077,1.337,3.077Z" transform="translate(-306.496 -125.683)" fill="#31326f"/>
      <g id="Group_57519" data-name="Group 57519" transform="translate(-1835.387 -29.683)">
        <path id="Path_102322" data-name="Path 102322" d="M-1536.025,17.369h-34.629a2.468,2.468,0,0,1-2.465-2.465V-27.218a2.468,2.468,0,0,1,2.465-2.465h34.629a2.467,2.467,0,0,1,2.465,2.465V14.9A2.467,2.467,0,0,1-1536.025,17.369Zm-34.629-45.2a.624.624,0,0,0-.616.616V14.9a.624.624,0,0,0,.616.616h34.629a.624.624,0,0,0,.616-.616V-27.218a.624.624,0,0,0-.616-.616Z" transform="translate(1573.119 29.683)"/>
      </g>
      <g id="Group_57520" data-name="Group 57520" transform="translate(-1854.717 67.371)">
        <path id="Path_102323" data-name="Path 102323" d="M-1576.181,329.683h-57.208a2.468,2.468,0,0,1-2.465-2.465v-41.9h62.138v41.9A2.468,2.468,0,0,1-1576.181,329.683Zm-57.824-42.517v40.053a.624.624,0,0,0,.616.616h57.208a.625.625,0,0,0,.616-.616V287.166Z" transform="translate(1635.854 -285.317)"/>
      </g>
      <g id="Group_57521" data-name="Group 57521" transform="translate(-1854.717 58.128)">
        <path id="Path_102324" data-name="Path 102324" d="M-1573.716,266.717h-62.138v-7.974a3.43,3.43,0,0,1,3.426-3.426h55.286a3.43,3.43,0,0,1,3.426,3.426Zm-60.289-1.849h58.44v-6.125a1.579,1.579,0,0,0-1.577-1.578h-55.286a1.579,1.579,0,0,0-1.578,1.578Z" transform="translate(1635.854 -255.317)"/>
      </g>
      <g id="Group_57522" data-name="Group 57522" transform="translate(-1952.179 32.837)">
        <path id="Path_102325" data-name="Path 102325" d="M-1923.773,237.646a3.644,3.644,0,0,1-1.8-.443l-24.814-14.326a3.86,3.86,0,0,1-1.8-3.111V191.114a3.86,3.86,0,0,1,1.8-3.111l24.813-14.325a3.861,3.861,0,0,1,3.593,0L-1897.164,188a3.859,3.859,0,0,1,1.8,3.111v28.651a3.859,3.859,0,0,1-1.8,3.111l-24.813,14.326A3.645,3.645,0,0,1-1923.773,237.646Zm0-62.561a1.819,1.819,0,0,0-.872.194l-24.813,14.325a2.056,2.056,0,0,0-.872,1.51v28.651a2.055,2.055,0,0,0,.872,1.51l24.813,14.326a2.056,2.056,0,0,0,1.744,0l24.813-14.326a2.056,2.056,0,0,0,.872-1.51V191.114a2.056,2.056,0,0,0-.872-1.51l-24.813-14.325A1.819,1.819,0,0,0-1923.773,175.085Z" transform="translate(1952.179 -173.234)"/>
      </g>
      <g id="Group_57523" data-name="Group 57523" transform="translate(-1822.678 21.636)">
        <path id="Path_102326" data-name="Path 102326" d="M-1503.587,163.212h-26.466a1.819,1.819,0,0,1-1.817-1.817V138.7a1.819,1.819,0,0,1,1.817-1.817h26.466a1.819,1.819,0,0,1,1.817,1.817v22.7A1.819,1.819,0,0,1-1503.587,163.212Zm-26.434-1.849h26.4V138.728h-26.4Z" transform="translate(1531.869 -136.879)"/>
      </g>
      <g id="Group_57524" data-name="Group 57524" transform="translate(-1831.011 -24.907)">
        <path id="Path_102327" data-name="Path 102327" d="M-1529.8,12.723h-27.417a1.7,1.7,0,0,1-1.695-1.695V-12.488a1.7,1.7,0,0,1,1.695-1.695h27.417a1.7,1.7,0,0,1,1.694,1.695V11.028A1.7,1.7,0,0,1-1529.8,12.723Zm-27.417-25.365a.156.156,0,0,0-.154.154V11.028a.156.156,0,0,0,.154.154h27.417a.156.156,0,0,0,.154-.154V-12.488a.156.156,0,0,0-.154-.154Z" transform="translate(1558.916 14.183)"/>
      </g>
      <g id="Group_57525" data-name="Group 57525" transform="translate(-1899.981 -7.936)">
        <path id="Path_102328" data-name="Path 102328" d="M-1727.561,61.979h-55.2l.2-1.089a22.648,22.648,0,0,1,9.48-14.766,30.98,30.98,0,0,1,17.925-5.224,30.981,30.981,0,0,1,17.925,5.224,22.647,22.647,0,0,1,9.48,14.766Zm-52.962-1.849h50.72c-2.474-10.6-12.3-17.383-25.36-17.383S-1778.049,49.532-1780.523,60.13Z" transform="translate(1782.766 -40.899)"/>
      </g>
      <g id="Group_57526" data-name="Group 57526" transform="translate(-1900.214 26.085)">
        <path id="Path_102329" data-name="Path 102329" d="M-1755.686,179.663a27.577,27.577,0,0,1-19.482-8.008,27.906,27.906,0,0,1-8.333-19.395l-.019-.943h55.67l-.019.943a27.9,27.9,0,0,1-8.333,19.395A27.577,27.577,0,0,1-1755.686,179.663Zm-25.931-26.5a26.192,26.192,0,0,0,25.931,24.649,26.191,26.191,0,0,0,25.931-24.649Z" transform="translate(1783.521 -151.317)"/>
      </g>
      <path id="SVGCleanerId_1" data-name="SVGCleanerId 1" d="M-1736.355,113.02a7.7,7.7,0,0,1-7.7,7.7h-53.919a7.7,7.7,0,0,1-7.7-7.7h0a7.7,7.7,0,0,1,7.7-7.7h53.919a7.7,7.7,0,0,1,7.7,7.7Z" transform="translate(-101.362 -93.405)" fill="#fff"/>
      <g id="Group_57527" data-name="Group 57527" transform="translate(-1907.041 11.912)">
        <path id="SVGCleanerId_1-2" data-name="SVGCleanerId 1" d="M-1736.355,113.02a7.7,7.7,0,0,1-7.7,7.7h-53.919a7.7,7.7,0,0,1-7.7-7.7h0a7.7,7.7,0,0,1,7.7-7.7h53.919a7.7,7.7,0,0,1,7.7,7.7Z" transform="translate(1805.679 -105.317)" fill="#fff"/>
      </g>
      <path id="Path_102330" data-name="Path 102330" d="M-1730.222,127.439h-51.146a2.311,2.311,0,0,1-2.311-2.311,2.311,2.311,0,0,1,2.311-2.311h51.146a2.311,2.311,0,0,1,2.311,2.311A2.311,2.311,0,0,1-1730.222,127.439Z" transform="translate(-116.584 -105.513)" fill="#31326f"/>
      <path id="Path_102331" data-name="Path 102331" d="M-1641.769,106.729v1.232a1.54,1.54,0,0,0,1.54,1.541h3.081a1.54,1.54,0,0,0,1.541-1.541v-1.232Z" transform="translate(-214.77 -94.382)" fill="#f24872"/>
      <g id="Group_57528" data-name="Group 57528" transform="translate(-1907.811 11.141)">
        <g id="SVGCleanerId_1-3" data-name="SVGCleanerId 1">
          <path id="Path_102332" data-name="Path 102332" d="M-1745.787,119.763h-53.919a8.483,8.483,0,0,1-8.473-8.473,8.483,8.483,0,0,1,8.473-8.473h53.919a8.483,8.483,0,0,1,8.473,8.473A8.482,8.482,0,0,1-1745.787,119.763Zm-53.919-15.405a6.941,6.941,0,0,0-6.932,6.932,6.94,6.94,0,0,0,6.932,6.932h53.919a6.94,6.94,0,0,0,6.932-6.932,6.94,6.94,0,0,0-6.932-6.932Z" transform="translate(1808.179 -102.817)"/>
        </g>
      </g>
      <g id="Group_57529" data-name="Group 57529" transform="translate(-1847.291 72.455)">
        <path id="Path_102333" data-name="Path 102333" d="M-1591.572,336.017h-18.486a1.7,1.7,0,0,1-1.695-1.695V303.512a1.7,1.7,0,0,1,1.695-1.695h18.486a1.7,1.7,0,0,1,1.695,1.695v30.811A1.7,1.7,0,0,1-1591.572,336.017Zm-18.486-32.659a.156.156,0,0,0-.154.154v30.811a.156.156,0,0,0,.154.154h18.486a.156.156,0,0,0,.154-.154V303.512a.156.156,0,0,0-.154-.154Z" transform="translate(1611.753 -301.817)"/>
      </g>
    </g>
  </g>
</svg>
