<svg xmlns="http://www.w3.org/2000/svg" width="315" height="209" viewBox="0 0 315 209">
  <g id="t2-ic8" transform="translate(-1020 -933)">
    <rect id="Rectangle_5259" data-name="Rectangle 5259" width="315" height="209" transform="translate(1020 933)" fill="none"/>
    <path id="Path_102365" data-name="Path 102365" d="M281.323,99.021H268.369a11.915,11.915,0,0,1-11.734-12.089h0a11.916,11.916,0,0,1,11.734-12.089h8.154a5.116,5.116,0,0,0,.155-10.229h-19.46a.6.6,0,0,1-.582-.614,12.106,12.106,0,0,0-11.922-12.267H174.469a3.221,3.221,0,0,1-.118-6.441h48.967a6.395,6.395,0,0,0,.175-12.787H82.725a6.395,6.395,0,0,0-.175,12.787h24.044a7,7,0,0,1,.191,14H35.311C20.67,59.289,8.8,71.518,8.8,86.6h0a27.111,27.111,0,0,0,21.58,26.834,4,4,0,0,1,3.152,3.975v2.229a4,4,0,0,1-3.94,4.059h0c-10.772,0-19.5,9-19.5,20.1h0c0,11.1,8.733,20.094,19.5,20.094h.07a5.953,5.953,0,0,1,5.862,6.039v.015a6.2,6.2,0,0,1-5.541,6.221,6.206,6.206,0,0,0-1.436.277,15.632,15.632,0,0,0,5.025,30.254H257.9a15.535,15.535,0,0,0,15.416-14.326c.005-.072.011-.145.015-.216a7.371,7.371,0,0,1,7.23-7.053h2.78a12.744,12.744,0,0,0,12.55-12.929h0c0-5.384-4.213-9.838-9.257-11.7a7.912,7.912,0,0,1-5.2-7.421v-.373a8.561,8.561,0,0,1,6.109-8.234A23.08,23.08,0,0,0,303.8,122.18h0C303.8,109.39,293.736,99.021,281.323,99.021Z" transform="translate(1021.2 917.845)" fill="#9ddfd3"/>
    <g id="Group_57660" data-name="Group 57660" transform="translate(223.942 -1388.716)">
      <path id="Path_102295" data-name="Path 102295" d="M1054.391,2351.383v113.333H861.058V2351.383a6.687,6.687,0,0,1,6.667-6.667h180A6.687,6.687,0,0,1,1054.391,2351.383Z" transform="translate(-4.667 -4.667)" fill="#9ddfd3"/>
      <path id="Path_102296" data-name="Path 102296" d="M1301.725,2351.383v113.333h-10V2351.383a6.687,6.687,0,0,0-6.667-6.667h10A6.687,6.687,0,0,1,1301.725,2351.383Z" transform="translate(-252 -4.667)" fill="#87bfb5"/>
      <path id="Path_102297" data-name="Path 102297" d="M954.391,2632.716H861.058v13.333a6.686,6.686,0,0,0,6.667,6.667h180a6.687,6.687,0,0,0,6.667-6.667v-13.333Z" transform="translate(-4.667 -172.667)" fill="#f1f4f6"/>
      <path id="Path_102298" data-name="Path 102298" d="M1301.725,2632.716v13.333a6.687,6.687,0,0,1-6.667,6.667h-10a6.687,6.687,0,0,0,6.667-6.667v-13.333Z" transform="translate(-252 -172.667)" fill="#dfeaef"/>
      <path id="Path_102299" data-name="Path 102299" d="M1167.725,2434.716v10l-26.667,26.667v-60l26.667-26.667v50Z" transform="translate(-168 -28)" fill="#cc3d60"/>
      <path id="Path_102300" data-name="Path 102300" d="M1074.391,2384.716l-26.667,26.667H981.058l26.667-26.667Z" transform="translate(-74.667 -28)" fill="#f24872"/>
      <path id="Path_102301" data-name="Path 102301" d="M1067.058,2728.716l10,13.333h-80l10-13.333h60Z" transform="translate(-84 -228.667)" fill="#9ddfd3"/>
      <path id="Path_102302" data-name="Path 102302" d="M1080.391,2680.716l3.333,20h-46.667l3.333-20h40Z" transform="translate(-107.333 -200.667)" fill="#dfeaef"/>
      <path id="Path_102303" data-name="Path 102303" d="M981.058,2448.716h66.667v60H981.058Z" transform="translate(-74.667 -65.333)" fill="#ffd566"/>
      <path id="Path_102304" data-name="Path 102304" d="M1071.725,2504.716v23.333h-26.667v-10h13.333v-13.333Z" transform="translate(-112 -98)" fill="#ffd566"/>
      <path id="Path_102305" data-name="Path 102305" d="M1045.058,2504.716h13.333v13.333h-13.333Z" transform="translate(-112 -98)" fill="#f24872"/>
      <path id="Path_102306" data-name="Path 102306" d="M1039.725,2480.716v10h-13.333v13.333h-13.333v-23.333Z" transform="translate(-93.333 -84)" fill="#ffd566"/>
      <path id="Path_102307" data-name="Path 102307" d="M1167.725,2384.716v60l-26.667,26.667v-6.667l20-20v-53.333Z" transform="translate(-168 -28)" fill="#f24872"/>
      <path id="Path_102308" data-name="Path 102308" d="M1125.058,2448.716h6.667v60h-6.667Z" transform="translate(-158.667 -65.333)" fill="#ffc93c"/>
      <path id="Path_102309" data-name="Path 102309" d="M1085.058,2648.716h6.667v6.667h-6.667Z" transform="translate(-135.333 -182)"/>
      <path id="Path_102310" data-name="Path 102310" d="M1043.058,2336.716h-180a10,10,0,0,0-10,10v126.667a10,10,0,0,0,10,10h66.067l-2.223,13.333h-3.843a3.334,3.334,0,0,0-2.667,1.333l-10,13.333a3.334,3.334,0,0,0,2.667,5.333h80a3.333,3.333,0,0,0,2.667-5.333l-10-13.333a3.335,3.335,0,0,0-2.667-1.333h-3.843l-2.223-13.333h66.067a10,10,0,0,0,10-10V2346.716A10,10,0,0,0,1043.058,2336.716Zm-180,6.667h180a3.334,3.334,0,0,1,3.333,3.333v110H859.725v-110A3.333,3.333,0,0,1,863.058,2343.383Zm123.333,166.667H919.725l5-6.667h56.667Zm-13.933-13.333h-38.8l2.223-13.333h34.353Zm70.6-20h-180a3.333,3.333,0,0,1-3.333-3.333v-10h186.667v10A3.333,3.333,0,0,1,1043.058,2476.716Z"/>
      <path id="Path_102311" data-name="Path 102311" d="M1008.391,2502.716h10v6.667a3.333,3.333,0,0,0,3.333,3.333h26.667a3.333,3.333,0,0,0,3.333-3.333V2486.05a3.334,3.334,0,0,0-3.333-3.333h-10v-6.667a3.334,3.334,0,0,0-3.333-3.333h-26.667a3.333,3.333,0,0,0-3.333,3.333v23.333A3.333,3.333,0,0,0,1008.391,2502.716Zm36.667-13.333v16.667h-20v-3.333h10a3.333,3.333,0,0,0,3.333-3.333v-10Zm-20,6.667v-6.667h6.667v6.667Zm-13.333-16.667h20v3.333h-10a3.333,3.333,0,0,0-3.333,3.333v10h-6.667Z" transform="translate(-88.667 -79.333)"/>
      <path id="Path_102312" data-name="Path 102312" d="M915.058,2465.383v-13.333h6.667v10a3.333,3.333,0,0,0,3.333,3.333h66.667a3.332,3.332,0,0,0,2.36-.98l26.667-26.667a3.334,3.334,0,0,0,.973-2.353v-6.667h6.667v36.667a3.333,3.333,0,0,0,3.333,3.333h26.667v-6.667h-23.333v-36.667a3.334,3.334,0,0,0-3.333-3.333h-10v-6.667h20v13.333a3.333,3.333,0,0,0,3.333,3.333h13.333v-6.667h-10V2412.05a3.334,3.334,0,0,0-3.333-3.333h-23.333v-6.667h13.333a3.333,3.333,0,0,0,3.333-3.333v-23.333h20v-6.667h-23.333a3.333,3.333,0,0,0-3.333,3.333v23.333h-10v-20h-.03a3.243,3.243,0,0,0-3.152-3.333c-.05,0-.1,0-.152,0H951.725a3.333,3.333,0,0,0-2.357.977L922.7,2399.693a3.333,3.333,0,0,0-.977,2.357v16.667h-10V2372.05a3.334,3.334,0,0,0-3.333-3.333H885.058v6.667h20v46.667a3.333,3.333,0,0,0,3.333,3.333h13.333v6.667H898.391a3.333,3.333,0,0,0-3.333,3.333v13.333h-10v6.667h13.333a3.333,3.333,0,0,0,3.333-3.333v-13.333h20v6.667h-10a3.333,3.333,0,0,0-3.333,3.334v13.333H885.058v6.667h26.667A3.333,3.333,0,0,0,915.058,2465.383Zm73.333-6.667h-60v-53.333h60Zm6.667-4.713v-50.573l20-20V2434ZM953.1,2378.716h57.24l-20,20H933.1Z" transform="translate(-18.667 -18.667)"/>
    </g>
  </g>
</svg>
